<svg xmlns="http://www.w3.org/2000/svg" xmlns:xlink="http://www.w3.org/1999/xlink" width="62" height="62" viewBox="0 0 62 62">
  <defs>
    <clipPath id="clip-path">
      <rect id="Rect치ngulo_384982" data-name="Rect치ngulo 384982" width="33.008" height="32.6" fill="none"/>
    </clipPath>
  </defs>
  <g id="Grupo_1018663" data-name="Grupo 1018663" transform="translate(-875 -5956)">
    <g id="Grupo_1014935" data-name="Grupo 1014935" transform="translate(-142 -6950)">
      <g id="Grupo_1014858" data-name="Grupo 1014858" transform="translate(632.001 10848)">
        <path id="Uni칩n_12" data-name="Uni칩n 12" d="M44.385,58.97a31.027,31.027,0,1,1,10.348-8.025L58.991,62Z" transform="translate(384.999 2058)" fill="#a3bfe4"/>
        <circle id="Elipse_4842" data-name="Elipse 4842" cx="26" cy="26" r="26" transform="translate(389.999 2063)" fill="#fff"/>
      </g>
    </g>
    <g id="Grupo_1016927" data-name="Grupo 1016927" transform="translate(889.496 5968.7)">
      <g id="Grupo_1016926" data-name="Grupo 1016926" clip-path="url(#clip-path)">
        <path id="Trazado_833822" data-name="Trazado 833822" d="M33.008,30.543c-.022.071-.048.14-.067.211A2.4,2.4,0,0,1,30.65,32.59c-.472.017-.945.009-1.418,0-.367,0-.55-.173-.551-.485s.171-.475.548-.479c.419,0,.838,0,1.257,0a1.444,1.444,0,0,0,1.555-1.545c0-.18,0-.361,0-.561H19.1a1.59,1.59,0,0,1-1.21,1.5,2.481,2.481,0,0,1-.607.05c-.526.006-1.053,0-1.579,0a1.611,1.611,0,0,1-1.8-1.552H.99A6.006,6.006,0,0,0,1,30.454a1.41,1.41,0,0,0,1.35,1.17c.118.008.236,0,.355,0H26.1c.118,0,.237,0,.354,0a.419.419,0,0,1,.43.43.441.441,0,0,1-.376.516,1.572,1.572,0,0,1-.321.015H2.6A2.415,2.415,0,0,1,0,30c0-.279,0-.559,0-.838,0-.476.156-.626.642-.63.191,0,.382,0,.614,0v-.479c0-.774,0-1.547,0-2.321,0-.377.165-.55.481-.55s.478.174.481.551c.007.806,0,1.612,0,2.417v.36h.966v-.431q0-6.64,0-13.279c0-.727.1-.825.81-.825H7.1V12.826H6.771c-.924,0-1.848,0-2.772,0A1.647,1.647,0,0,0,2.227,14.6c-.005,2.718,0,5.436,0,8.155a2.741,2.741,0,0,1-.016.386.42.42,0,0,1-.473.384.424.424,0,0,1-.465-.394,1.838,1.838,0,0,1-.013-.257c0-2.75,0-5.5,0-8.251a2.592,2.592,0,0,1,1.95-2.662,3.386,3.386,0,0,1,.8-.094c.913-.011,1.827,0,2.74,0h.38c0-.541-.007-1.043,0-1.545A3.438,3.438,0,0,1,9.84,6.858a4.11,4.11,0,0,1,.895-.087c3.793-.006,7.585-.02,11.377.015a1.124,1.124,0,0,0,1.072-.564q1.9-2.7,3.864-5.356a2.1,2.1,0,0,1,3.608.367,2.037,2.037,0,0,1-.183,2.082c-.27.4-.556.791-.849,1.175a.275.275,0,0,0,0,.39,2.18,2.18,0,0,1,0,2.642c-.651.92-1.316,1.831-1.979,2.743-.233.32-.474.374-.734.179s-.275-.426-.039-.755c.651-.907,1.309-1.81,1.958-2.719a1.179,1.179,0,0,0,.054-1.42c-.064.077-.127.146-.182.221-.95,1.314-1.9,2.626-2.843,3.947a.965.965,0,0,0-.162.5c-.021.534-.008,1.069-.008,1.642h.54q1.37,0,2.74,0a2.614,2.614,0,0,1,2.778,2.76c.009,2.364,0,4.727,0,7.091v6.781c.449.134.981-.163,1.257.376ZM11.063,23.02c.143-.133.221-.2.295-.275.806-.8,1.605-1.616,2.417-2.414.909-.894.5-.723,1.781-.733,1.343-.01,2.686,0,4.029,0,.282,0,.52.059.591.374.081.358-.136.592-.554.593q-2.208.005-4.416,0a.644.644,0,0,0-.508.206c-1.21,1.222-2.43,2.433-3.642,3.651-.193.194-.391.351-.677.228s-.285-.372-.285-.627c0-1.042-.006-2.084.006-3.126,0-.25-.047-.356-.325-.429a3.243,3.243,0,0,1-2.547-2.613,14.126,14.126,0,0,1-.1-2.213c-.008-.221,0-.443,0-.672H4.183V28.511H28.826V14.963H25.691c0,.145,0,.272,0,.4-.007.687.013,1.376-.028,2.062a3.424,3.424,0,0,1-3.31,3.133c-.383.005-.561-.135-.573-.45s.163-.487.525-.515a2.462,2.462,0,0,0,2.416-2.606c.009-1.762,0-3.524,0-5.286,0-.1-.013-.193-.026-.368-.119.159-.184.243-.246.328-.7.966-1.391,1.937-2.1,2.894a1.111,1.111,0,0,1-.469.36c-.8.305-1.613.585-2.422.868-.5.176-.78-.019-.77-.545.015-.859.027-1.719.067-2.577a1.159,1.159,0,0,1,.2-.587c.957-1.349,1.93-2.686,2.9-4.027.064-.088.119-.183.2-.312H10.8a2.5,2.5,0,0,0-2.712,2.709q0,2.74,0,5.479c0,.494-.012.99.028,1.481a2.455,2.455,0,0,0,2.261,2.184c.567.034.681.157.682.739,0,.869,0,1.738,0,2.694m10.7-9.286,6.4-8.858L26.3,3.537l-6.4,8.857,1.854,1.34m3.949.243h.381c1.042,0,2.083,0,3.125,0,.421,0,.588.165.6.578,0,.107,0,.215,0,.322V28.513h.943c.009-.1.022-.186.022-.27q0-6.847,0-13.693a1.635,1.635,0,0,0-1.754-1.722c-1,0-2,0-3,0h-.323ZM26.869,2.752l1.857,1.34c.349-.488.69-.928.99-1.4A1.136,1.136,0,0,0,27.853,1.4c-.335.43-.644.881-.984,1.35M14.905,29.518c.081.406.245.575.594.58q1.011.016,2.023,0c.344-.006.517-.194.572-.579Zm4.78-14.843,1.149-.414-1.149-.827Z" transform="translate(0 0.001)" fill="#566377"/>
        <path id="Trazado_833823" data-name="Trazado 833823" d="M47.628,47.908c-.847,0-1.695,0-2.542,0-.392,0-.6-.165-.6-.469s.215-.5.614-.5q2.542,0,5.084,0c.379,0,.6.18.6.476.006.316-.205.488-.615.489-.847,0-1.695,0-2.542,0" transform="translate(-33.612 -35.469)" fill="#566377"/>
        <path id="Trazado_833824" data-name="Trazado 833824" d="M47.637,61.873c-.858,0-1.716,0-2.574,0-.366,0-.567-.165-.577-.459s.2-.5.573-.505q2.575-.006,5.149,0c.371,0,.586.2.578.5s-.207.461-.573.463c-.858,0-1.716,0-2.574,0" transform="translate(-33.612 -46.02)" fill="#566377"/>
      </g>
    </g>
  </g>
</svg>
