<svg xmlns="http://www.w3.org/2000/svg" xmlns:xlink="http://www.w3.org/1999/xlink" width="295" height="246" viewBox="0 0 295 246">
  <defs>
    <clipPath id="clip-path">
      <rect id="Rectángulo_385365" data-name="Rectángulo 385365" width="244.04" height="239.869" fill="none"/>
    </clipPath>
    <clipPath id="clip-path-3">
      <rect id="Rectángulo_385331" data-name="Rectángulo 385331" width="241.287" height="219.987" fill="none"/>
    </clipPath>
    <clipPath id="clip-path-5">
      <rect id="Rectángulo_385333" data-name="Rectángulo 385333" width="204.299" height="55.02" fill="none"/>
    </clipPath>
    <clipPath id="clip-path-9">
      <rect id="Rectángulo_385342" data-name="Rectángulo 385342" width="25.104" height="27.013" fill="none"/>
    </clipPath>
    <clipPath id="clip-path-10">
      <rect id="Rectángulo_385343" data-name="Rectángulo 385343" width="16.984" height="31.857" fill="none"/>
    </clipPath>
    <clipPath id="clip-path-11">
      <rect id="Rectángulo_385344" data-name="Rectángulo 385344" width="25.347" height="41.363" fill="none"/>
    </clipPath>
    <clipPath id="clip-path-12">
      <rect id="Rectángulo_385345" data-name="Rectángulo 385345" width="17.727" height="39.411" fill="none"/>
    </clipPath>
    <clipPath id="clip-path-13">
      <rect id="Rectángulo_385346" data-name="Rectángulo 385346" width="18.033" height="18.595" fill="none"/>
    </clipPath>
    <clipPath id="clip-path-14">
      <rect id="Rectángulo_385347" data-name="Rectángulo 385347" width="11.413" height="18.77" fill="none"/>
    </clipPath>
    <clipPath id="clip-path-15">
      <rect id="Rectángulo_385348" data-name="Rectángulo 385348" width="19.072" height="24.048" fill="none"/>
    </clipPath>
    <clipPath id="clip-path-16">
      <rect id="Rectángulo_385349" data-name="Rectángulo 385349" width="18.521" height="22.297" fill="none"/>
    </clipPath>
    <clipPath id="clip-path-18">
      <rect id="Rectángulo_385351" data-name="Rectángulo 385351" width="151.098" height="134.726" fill="none"/>
    </clipPath>
    <clipPath id="clip-path-19">
      <rect id="Rectángulo_385352" data-name="Rectángulo 385352" width="142.297" height="128.511" fill="none"/>
    </clipPath>
    <clipPath id="clip-path-20">
      <rect id="Rectángulo_385353" data-name="Rectángulo 385353" width="73.642" height="68.893" fill="none"/>
    </clipPath>
    <clipPath id="clip-path-22">
      <rect id="Rectángulo_385355" data-name="Rectángulo 385355" width="69.078" height="48.477" fill="none"/>
    </clipPath>
    <clipPath id="clip-path-23">
      <rect id="Rectángulo_385356" data-name="Rectángulo 385356" width="24.57" height="18.577" fill="none"/>
    </clipPath>
    <clipPath id="clip-path-24">
      <rect id="Rectángulo_385357" data-name="Rectángulo 385357" width="29.099" height="27.597" fill="none"/>
    </clipPath>
    <clipPath id="clip-path-25">
      <rect id="Rectángulo_385358" data-name="Rectángulo 385358" width="28.24" height="18.762" fill="none"/>
    </clipPath>
    <clipPath id="clip-path-26">
      <rect id="Rectángulo_385359" data-name="Rectángulo 385359" width="26.882" height="20.159" fill="none"/>
    </clipPath>
    <clipPath id="clip-path-27">
      <rect id="Rectángulo_385360" data-name="Rectángulo 385360" width="32.356" height="26.408" fill="none"/>
    </clipPath>
    <clipPath id="clip-path-28">
      <rect id="Rectángulo_385361" data-name="Rectángulo 385361" width="18.525" height="9.871" fill="none"/>
    </clipPath>
    <clipPath id="clip-path-29">
      <rect id="Rectángulo_385362" data-name="Rectángulo 385362" width="16.183" height="7.794" fill="none"/>
    </clipPath>
    <clipPath id="clip-path-30">
      <rect id="Rectángulo_385363" data-name="Rectángulo 385363" width="40.735" height="39.049" fill="none"/>
    </clipPath>
  </defs>
  <g id="Grupo_1018082" data-name="Grupo 1018082" transform="translate(-1020 -8496)">
    <g id="Grupo_1017998" data-name="Grupo 1017998">
      <rect id="Rectángulo_385330" data-name="Rectángulo 385330" width="295" height="246" transform="translate(1020 8496)" fill="none"/>
    </g>
    <g id="Grupo_1018081" data-name="Grupo 1018081" transform="translate(1045 8499)">
      <g id="Grupo_1018080" data-name="Grupo 1018080" clip-path="url(#clip-path)">
        <g id="Grupo_1018003" data-name="Grupo 1018003">
          <g id="Grupo_1018002" data-name="Grupo 1018002" clip-path="url(#clip-path)">
            <path id="Trazado_835488" data-name="Trazado 835488" d="M171.758,15.49c-12.428,7.11-21.19,19.067-31.818,28.663A102.346,102.346,0,0,1,93.279,68.084c-14.215,3.079-29.115,3.123-42.838,7.941-26.749,9.393-45.11,37.271-45.6,65.616S20.507,197.446,44.207,213a94.4,94.4,0,0,0,26.178,11.93c17.433,4.906,35.915,4.689,53.928,2.813,31.114-3.239,63.728-20.906,83.336-45.816a178.6,178.6,0,0,0,22.012-36.143,180.273,180.273,0,0,0,16.245-67.3c.826-19.941-.016-42.037-15.817-56.564a50.187,50.187,0,0,0-58.332-6.434" transform="translate(-2.08 -3.87)" fill="#33ece0"/>
            <g id="Grupo_1018001" data-name="Grupo 1018001" transform="translate(2.753 5.122)" opacity="0.7">
              <g id="Grupo_1018000" data-name="Grupo 1018000">
                <g id="Grupo_1017999" data-name="Grupo 1017999" clip-path="url(#clip-path-3)">
                  <path id="Trazado_835489" data-name="Trazado 835489" d="M171.758,15.49c-12.428,7.11-21.19,19.067-31.818,28.663A102.346,102.346,0,0,1,93.279,68.084c-14.215,3.079-29.115,3.123-42.838,7.941-26.749,9.393-45.11,37.271-45.6,65.616S20.507,197.446,44.207,213a94.4,94.4,0,0,0,26.178,11.93c17.433,4.906,35.915,4.689,53.928,2.813,31.114-3.239,63.728-20.906,83.336-45.816a178.6,178.6,0,0,0,22.012-36.143,180.273,180.273,0,0,0,16.245-67.3c.826-19.941-.016-42.037-15.817-56.564a50.187,50.187,0,0,0-58.332-6.434" transform="translate(-4.833 -8.993)" fill="#fff"/>
                </g>
              </g>
            </g>
          </g>
        </g>
        <g id="Grupo_1018008" data-name="Grupo 1018008">
          <g id="Grupo_1018007" data-name="Grupo 1018007" clip-path="url(#clip-path)">
            <path id="Trazado_835490" data-name="Trazado 835490" d="M265.446,352.032c0,15.193-45.734,27.51-102.15,27.51s-102.15-12.317-102.15-27.51,45.734-27.51,102.15-27.51,102.15,12.317,102.15,27.51" transform="translate(-26.317 -139.673)" fill="#33ece0"/>
            <g id="Grupo_1018006" data-name="Grupo 1018006" transform="translate(34.83 184.849)" opacity="0.5">
              <g id="Grupo_1018005" data-name="Grupo 1018005">
                <g id="Grupo_1018004" data-name="Grupo 1018004" clip-path="url(#clip-path-5)">
                  <path id="Trazado_835491" data-name="Trazado 835491" d="M265.446,352.032c0,15.193-45.734,27.51-102.15,27.51s-102.15-12.317-102.15-27.51,45.734-27.51,102.15-27.51,102.15,12.317,102.15,27.51" transform="translate(-61.147 -324.521)" fill="#fff"/>
                </g>
              </g>
            </g>
          </g>
        </g>
        <g id="Grupo_1018010" data-name="Grupo 1018010">
          <g id="Grupo_1018009" data-name="Grupo 1018009" clip-path="url(#clip-path)">
            <path id="Trazado_835492" data-name="Trazado 835492" d="M172.848,29.967V97.285a5.1,5.1,0,0,1-5.1,5.1H47.659a5.1,5.1,0,0,1-5.1-5.1V29.967a5.1,5.1,0,0,1,5.1-5.1h120.09a5.1,5.1,0,0,1,5.1,5.1" transform="translate(-18.318 -10.703)" fill="#fff"/>
            <path id="Trazado_835493" data-name="Trazado 835493" d="M172.848,29.967v2.019H42.56V29.967a5.1,5.1,0,0,1,5.1-5.1h120.09a5.1,5.1,0,0,1,5.1,5.1" transform="translate(-18.318 -10.703)" fill="#33ece0"/>
            <path id="Trazado_835494" data-name="Trazado 835494" d="M167.534,102.452H47.443a5.39,5.39,0,0,1-5.383-5.383V29.751a5.389,5.389,0,0,1,5.383-5.383h120.09a5.389,5.389,0,0,1,5.383,5.383V97.069a5.39,5.39,0,0,1-5.383,5.383M47.443,24.938a4.819,4.819,0,0,0-4.814,4.813V97.069a4.819,4.819,0,0,0,4.814,4.814h120.09a4.819,4.819,0,0,0,4.814-4.814V29.751a4.819,4.819,0,0,0-4.814-4.813Z" transform="translate(-18.102 -10.488)" fill="#263238"/>
            <path id="Trazado_835495" data-name="Trazado 835495" d="M172.633,32.054H42.346a.285.285,0,0,1-.285-.285V29.751a5.389,5.389,0,0,1,5.383-5.383h120.09a5.389,5.389,0,0,1,5.383,5.383v2.019a.285.285,0,0,1-.285.285m-130-.57H172.348V29.751a4.818,4.818,0,0,0-4.814-4.813H47.444a4.818,4.818,0,0,0-4.814,4.813Z" transform="translate(-18.103 -10.488)" fill="#263238"/>
            <path id="Trazado_835496" data-name="Trazado 835496" d="M66.281,30.132a1.3,1.3,0,1,1-1.3-1.3,1.3,1.3,0,0,1,1.3,1.3" transform="translate(-27.407 -12.408)" fill="#263238"/>
            <path id="Trazado_835497" data-name="Trazado 835497" d="M78.231,30.132a1.3,1.3,0,1,1-1.3-1.3,1.3,1.3,0,0,1,1.3,1.3" transform="translate(-32.55 -12.408)" fill="#263238"/>
            <path id="Trazado_835498" data-name="Trazado 835498" d="M90.182,30.132a1.3,1.3,0,1,1-1.3-1.3,1.3,1.3,0,0,1,1.3,1.3" transform="translate(-37.694 -12.408)" fill="#263238"/>
            <path id="Trazado_835499" data-name="Trazado 835499" d="M94.846,69.262H58.012a2.389,2.389,0,0,1-2.387-2.387V49.155a2.389,2.389,0,0,1,2.387-2.387H94.846a2.39,2.39,0,0,1,2.387,2.387v17.72a2.39,2.39,0,0,1-2.387,2.387M58.012,47.338a1.819,1.819,0,0,0-1.817,1.817v17.72a1.819,1.819,0,0,0,1.817,1.818H94.846a1.819,1.819,0,0,0,1.818-1.818V49.155a1.819,1.819,0,0,0-1.818-1.817Z" transform="translate(-23.941 -20.129)" fill="#263238"/>
            <path id="Trazado_835500" data-name="Trazado 835500" d="M95.731,80.988H60.146a.285.285,0,1,1,0-.57H95.731a.285.285,0,1,1,0,.57" transform="translate(-25.764 -34.611)" fill="#263238"/>
            <rect id="Rectángulo_385335" data-name="Rectángulo 385335" width="4.129" height="4.128" transform="translate(37.024 41.905)" fill="#33ece0"/>
            <path id="Trazado_835501" data-name="Trazado 835501" d="M69.2,77.767H64.5v-4.7h4.7Zm-4.129-.57h3.559V73.639H65.069Z" transform="translate(-27.76 -31.449)" fill="#263238"/>
            <rect id="Rectángulo_385336" data-name="Rectángulo 385336" width="4.129" height="9.614" transform="translate(43.068 36.477)" fill="#33ece0"/>
            <path id="Trazado_835502" data-name="Trazado 835502" d="M79.809,73.723h-4.7V63.539h4.7Zm-4.129-.57H79.24V64.109H75.681Z" transform="translate(-32.327 -27.347)" fill="#263238"/>
            <rect id="Rectángulo_385337" data-name="Rectángulo 385337" width="4.129" height="8.058" transform="translate(49.876 38.13)" fill="#33ece0"/>
            <path id="Trazado_835503" data-name="Trazado 835503" d="M91.76,75.069h-4.7V66.442h4.7Zm-4.129-.57H91.19V67.012H87.631Z" transform="translate(-37.471 -28.596)" fill="#263238"/>
            <rect id="Rectángulo_385338" data-name="Rectángulo 385338" width="4.129" height="15.807" transform="translate(57.027 30.105)" fill="#33ece0"/>
            <path id="Trazado_835504" data-name="Trazado 835504" d="M104.314,68.73h-4.7V52.353h4.7Zm-4.129-.57h3.559V52.923h-3.559Z" transform="translate(-42.874 -22.532)" fill="#263238"/>
            <rect id="Rectángulo_385339" data-name="Rectángulo 385339" width="4.129" height="15.807" transform="translate(64.178 30.227)" fill="#33ece0"/>
            <path id="Trazado_835505" data-name="Trazado 835505" d="M116.868,68.943h-4.7V52.566h4.7Zm-4.129-.57H116.3V53.136H112.74Z" transform="translate(-48.277 -22.624)" fill="#263238"/>
            <path id="Trazado_835506" data-name="Trazado 835506" d="M220.317,58.756A11.546,11.546,0,1,1,208.771,47.21a11.546,11.546,0,0,1,11.546,11.546" transform="translate(-84.885 -20.319)" fill="#33ece0"/>
            <path id="Trazado_835507" data-name="Trazado 835507" d="M208.557,70.371a11.831,11.831,0,1,1,11.831-11.831,11.844,11.844,0,0,1-11.831,11.831m0-23.092a11.261,11.261,0,1,0,11.261,11.261A11.274,11.274,0,0,0,208.557,47.28" transform="translate(-84.67 -20.104)" fill="#263238"/>
            <path id="Trazado_835508" data-name="Trazado 835508" d="M215.663,68.347v1.182h-1.935V68.347a3.526,3.526,0,0,1-2.688-3.591v-.537l2.194-.237v.559c0,1.1.559,1.763,1.462,1.763a1.349,1.349,0,0,0,1.462-1.441c0-1.054-.989-1.957-2.15-2.924-1.376-1.139-2.752-2.494-2.752-4.408a3.361,3.361,0,0,1,2.473-3.59V52.759h1.935v1.183c1.591.366,2.515,1.7,2.515,3.612v.387l-2.193.236v-.43c0-1.161-.452-1.763-1.247-1.763s-1.247.494-1.247,1.441c0,1.053,1.01,1.935,2.15,2.924,1.355,1.161,2.752,2.494,2.752,4.408a3.507,3.507,0,0,1-2.731,3.591" transform="translate(-90.83 -22.707)" fill="#263238"/>
            <path id="Trazado_835509" data-name="Trazado 835509" d="M57.6,105.495H54.223a.285.285,0,0,1,0-.57H57.6a.285.285,0,1,1,0,.57" transform="translate(-23.215 -45.159)" fill="#263238"/>
            <path id="Trazado_835510" data-name="Trazado 835510" d="M57.6,116.936H54.223a.285.285,0,1,1,0-.57H57.6a.285.285,0,1,1,0,.57" transform="translate(-23.215 -50.083)" fill="#263238"/>
            <path id="Trazado_835511" data-name="Trazado 835511" d="M57.6,128.377H54.223a.285.285,0,0,1,0-.57H57.6a.285.285,0,0,1,0,.57" transform="translate(-23.215 -55.007)" fill="#263238"/>
            <path id="Trazado_835512" data-name="Trazado 835512" d="M57.6,139.818H54.223a.285.285,0,1,1,0-.57H57.6a.285.285,0,1,1,0,.57" transform="translate(-23.215 -59.932)" fill="#263238"/>
            <path id="Trazado_835513" data-name="Trazado 835513" d="M73.193,146.485a.285.285,0,0,1-.285-.285v-2.62a.285.285,0,1,1,.57,0v2.62a.285.285,0,0,1-.285.285" transform="translate(-31.379 -61.674)" fill="#263238"/>
            <path id="Trazado_835514" data-name="Trazado 835514" d="M82.575,146.485a.285.285,0,0,1-.285-.285v-2.62a.285.285,0,1,1,.57,0v2.62a.285.285,0,0,1-.285.285" transform="translate(-35.417 -61.674)" fill="#263238"/>
            <path id="Trazado_835515" data-name="Trazado 835515" d="M91.958,146.485a.285.285,0,0,1-.285-.285v-2.62a.285.285,0,0,1,.57,0v2.62a.285.285,0,0,1-.285.285" transform="translate(-39.456 -61.674)" fill="#263238"/>
            <path id="Trazado_835516" data-name="Trazado 835516" d="M101.341,146.485a.285.285,0,0,1-.285-.285v-2.62a.285.285,0,1,1,.57,0v2.62a.285.285,0,0,1-.285.285" transform="translate(-43.494 -61.674)" fill="#263238"/>
            <path id="Trazado_835517" data-name="Trazado 835517" d="M110.723,146.485a.285.285,0,0,1-.285-.285v-2.62a.285.285,0,1,1,.57,0v2.62a.285.285,0,0,1-.285.285" transform="translate(-47.532 -61.674)" fill="#263238"/>
            <path id="Trazado_835518" data-name="Trazado 835518" d="M120.106,146.485a.285.285,0,0,1-.285-.285v-2.62a.285.285,0,1,1,.57,0v2.62a.285.285,0,0,1-.285.285" transform="translate(-51.57 -61.674)" fill="#263238"/>
            <path id="Trazado_835519" data-name="Trazado 835519" d="M129.488,146.485a.285.285,0,0,1-.285-.285v-2.62a.285.285,0,1,1,.57,0v2.62a.285.285,0,0,1-.285.285" transform="translate(-55.608 -61.674)" fill="#263238"/>
            <path id="Trazado_835520" data-name="Trazado 835520" d="M138.871,146.485a.285.285,0,0,1-.285-.285v-2.62a.285.285,0,1,1,.57,0v2.62a.285.285,0,0,1-.285.285" transform="translate(-59.647 -61.674)" fill="#263238"/>
            <path id="Trazado_835521" data-name="Trazado 835521" d="M148.253,146.485a.285.285,0,0,1-.285-.285v-2.62a.285.285,0,1,1,.57,0v2.62a.285.285,0,0,1-.285.285" transform="translate(-63.685 -61.674)" fill="#263238"/>
            <path id="Trazado_835522" data-name="Trazado 835522" d="M157.636,146.485a.285.285,0,0,1-.285-.285v-2.62a.285.285,0,1,1,.57,0v2.62a.285.285,0,0,1-.285.285" transform="translate(-67.723 -61.674)" fill="#263238"/>
            <path id="Trazado_835523" data-name="Trazado 835523" d="M167.018,146.485a.285.285,0,0,1-.285-.285v-2.62a.285.285,0,1,1,.57,0v2.62a.285.285,0,0,1-.285.285" transform="translate(-71.761 -61.674)" fill="#263238"/>
            <path id="Trazado_835524" data-name="Trazado 835524" d="M176.4,146.485a.285.285,0,0,1-.285-.285v-2.62a.285.285,0,0,1,.57,0v2.62a.285.285,0,0,1-.285.285" transform="translate(-75.799 -61.674)" fill="#263238"/>
            <path id="Trazado_835525" data-name="Trazado 835525" d="M185.784,146.485a.285.285,0,0,1-.285-.285v-2.62a.285.285,0,0,1,.57,0v2.62a.285.285,0,0,1-.285.285" transform="translate(-79.838 -61.674)" fill="#263238"/>
            <path id="Trazado_835526" data-name="Trazado 835526" d="M195.166,146.485a.285.285,0,0,1-.285-.285v-2.62a.285.285,0,0,1,.57,0v2.62a.285.285,0,0,1-.285.285" transform="translate(-83.876 -61.674)" fill="#263238"/>
            <path id="Trazado_835527" data-name="Trazado 835527" d="M204.549,146.485a.285.285,0,0,1-.285-.285v-2.62a.285.285,0,1,1,.57,0v2.62a.285.285,0,0,1-.285.285" transform="translate(-87.914 -61.674)" fill="#263238"/>
            <path id="Trazado_835528" data-name="Trazado 835528" d="M213.575,146.485a.285.285,0,0,1-.285-.285v-2.62a.285.285,0,0,1,.57,0v2.62a.285.285,0,0,1-.285.285" transform="translate(-91.799 -61.674)" fill="#263238"/>
            <path id="Trazado_835529" data-name="Trazado 835529" d="M222.6,146.485a.285.285,0,0,1-.285-.285v-2.62a.285.285,0,1,1,.57,0v2.62a.285.285,0,0,1-.285.285" transform="translate(-95.684 -61.674)" fill="#263238"/>
            <path id="Trazado_835530" data-name="Trazado 835530" d="M231.629,146.485a.285.285,0,0,1-.285-.285v-2.62a.285.285,0,1,1,.57,0v2.62a.285.285,0,0,1-.285.285" transform="translate(-99.569 -61.674)" fill="#263238"/>
            <path id="Trazado_835531" data-name="Trazado 835531" d="M164.931,124.583H58.168a4.524,4.524,0,0,1-3.63-1.664,2.953,2.953,0,0,1-.6-1.76V95.832c0-1.888,1.9-3.424,4.23-3.424H164.931c2.333,0,4.23,1.536,4.23,3.424v25.328c0,1.888-1.9,3.424-4.23,3.424M58.168,92.978c-2.018,0-3.66,1.28-3.66,2.854v25.328A2.391,2.391,0,0,0,55,122.581a3.949,3.949,0,0,0,3.172,1.433H164.931c2.018,0,3.66-1.28,3.66-2.854V95.832c0-1.574-1.642-2.854-3.66-2.854Z" transform="translate(-23.215 -39.772)" fill="#33ece0"/>
            <path id="Trazado_835532" data-name="Trazado 835532" d="M136.927,10.832,102.846,56.74,89.812,74.3,75.576,65.23,58.157,88.345H57.9A3.13,3.13,0,0,1,55.2,86.8l19.576-25.98L89,69.873,98.746,56.74,134.281,8.873Z" transform="translate(-23.757 -3.819)" fill="#263238"/>
            <path id="Trazado_835533" data-name="Trazado 835533" d="M183.5,7.6,196.027,0l-3.466,13.135-2.208-6.076Z" transform="translate(-78.976 0)" fill="#263238"/>
          </g>
        </g>
        <g id="Grupo_1018012" data-name="Grupo 1018012">
          <g id="Grupo_1018011" data-name="Grupo 1018011" clip-path="url(#clip-path)">
            <path id="Trazado_835534" data-name="Trazado 835534" d="M.285,287.125a.285.285,0,0,1-.189-.5l22.452-19.962a.287.287,0,0,1,.189-.072H223.06a.285.285,0,1,1,0,.57H22.845L.474,287.053a.285.285,0,0,1-.189.072" transform="translate(0 -114.74)" fill="#263238"/>
            <path id="Trazado_835535" data-name="Trazado 835535" d="M39.925,213.287A.285.285,0,0,1,39.64,213V174.183a.285.285,0,1,1,.57,0V213a.285.285,0,0,1-.285.285" transform="translate(-17.061 -74.845)" fill="#263238"/>
            <path id="Trazado_835536" data-name="Trazado 835536" d="M39.925,257.531a.285.285,0,0,1-.285-.285v-7.509a.285.285,0,1,1,.57,0v7.509a.285.285,0,0,1-.285.285" transform="translate(-17.061 -107.363)" fill="#263238"/>
            <path id="Trazado_835537" data-name="Trazado 835537" d="M363.545,93.14s0-2.346-3.286-5.632-5.393-5.159-5.393-5.159-1.643,5.394,1.4,8.679a57.638,57.638,0,0,0,7.274,6.35Z" transform="translate(-152.542 -35.443)" fill="#33ece0"/>
            <path id="Trazado_835538" data-name="Trazado 835538" d="M355.177,118.864s0-2.346-3.286-5.632-5.393-5.159-5.393-5.159-1.643,5.394,1.4,8.679a58.028,58.028,0,0,0,7.274,6.35Z" transform="translate(-148.94 -46.514)" fill="#33ece0"/>
            <path id="Trazado_835539" data-name="Trazado 835539" d="M369.735,100.893s.246-2.334,3.861-5.255,5.909-4.56,5.909-4.56,1.064,5.556-2.317,8.481a57.535,57.535,0,0,1-7.9,5.532Z" transform="translate(-158.939 -39.2)" fill="#33ece0"/>
            <path id="Trazado_835540" data-name="Trazado 835540" d="M359.305,132.087s.492-2.294,4.389-4.818,6.35-3.917,6.35-3.917.476,5.62-3.175,8.2a57.739,57.739,0,0,1-8.438,4.667Z" transform="translate(-154.267 -53.09)" fill="#33ece0"/>
            <path id="Trazado_835541" data-name="Trazado 835541" d="M361.867,163.652s0-2.346,3.282-5.628,5.4-5.159,5.4-5.159,1.643,5.4-1.409,8.679a57.393,57.393,0,0,1-7.27,6.35Z" transform="translate(-155.746 -65.792)" fill="#33ece0"/>
            <path id="Trazado_835542" data-name="Trazado 835542" d="M355.67,170.886s.333-2.322-2.453-6.04-4.608-5.878-4.608-5.878-2.381,5.108.163,8.795a57.762,57.762,0,0,0,6.3,7.3Z" transform="translate(-149.604 -68.419)" fill="#33ece0"/>
            <path id="Trazado_835543" data-name="Trazado 835543" d="M356.084,195.695s0-2.346,3.282-5.628,5.4-5.159,5.4-5.159,1.643,5.4-1.409,8.679a57.4,57.4,0,0,1-7.27,6.35Z" transform="translate(-153.257 -79.583)" fill="#33ece0"/>
            <path id="Trazado_835544" data-name="Trazado 835544" d="M359.88,216.021s-.591-2.27,1.758-6.286,3.913-6.35,3.913-6.35,2.953,4.806.837,8.755a57.7,57.7,0,0,1-5.433,7.969Z" transform="translate(-154.862 -87.536)" fill="#33ece0"/>
            <path id="Trazado_835545" data-name="Trazado 835545" d="M361.107,182.934a.337.337,0,0,1-.32-.232c-.046-.141-4.573-14.145-5.421-19.305-.5-3.066.317-5.853,1.268-9.08A51.043,51.043,0,0,0,358.54,146c.492-3.841-.179-7.67-.827-11.373s-1.263-7.212-.6-10.3a42.827,42.827,0,0,1,2.773-7.97,43.8,43.8,0,0,0,3.067-9.116,66.911,66.911,0,0,0,.9-7.241.341.341,0,0,1,.357-.312.335.335,0,0,1,.312.358,67.312,67.312,0,0,1-.906,7.319,44.431,44.431,0,0,1-3.109,9.256,42.3,42.3,0,0,0-2.735,7.848c-.635,2.964-.032,6.4.605,10.048.657,3.752,1.337,7.632.832,11.573a51.616,51.616,0,0,1-1.927,8.424c-.965,3.278-1.729,5.868-1.25,8.782.84,5.11,5.352,19.066,5.4,19.207a.337.337,0,0,1-.216.423.348.348,0,0,1-.1.016" transform="translate(-152.882 -42.902)" fill="#263238"/>
            <path id="Trazado_835546" data-name="Trazado 835546" d="M369.766,109.075a.335.335,0,0,1-.2-.6l3.54-2.718a.335.335,0,1,1,.408.531l-3.54,2.719a.332.332,0,0,1-.2.069" transform="translate(-159.001 -45.487)" fill="#263238"/>
            <path id="Trazado_835547" data-name="Trazado 835547" d="M368.933,103.648a.336.336,0,0,1-.293-.171l-1.48-2.635a.335.335,0,1,1,.585-.328l1.48,2.635a.335.335,0,0,1-.129.456.327.327,0,0,1-.163.043" transform="translate(-158.005 -43.187)" fill="#263238"/>
            <path id="Trazado_835548" data-name="Trazado 835548" d="M359.217,139.269a.336.336,0,0,1-.2-.6c.03-.022,3-2.249,6.013-4.447a.335.335,0,0,1,.4.542c-3.012,2.2-5.976,4.42-6,4.442a.339.339,0,0,1-.2.067" transform="translate(-154.461 -57.739)" fill="#263238"/>
            <path id="Trazado_835549" data-name="Trazado 835549" d="M357.837,128.407a.335.335,0,0,1-.3-.183,47.239,47.239,0,0,0-5.22-7.985.335.335,0,0,1,.506-.44,47.936,47.936,0,0,1,5.312,8.12.335.335,0,0,1-.146.451.34.34,0,0,1-.153.036" transform="translate(-151.6 -51.511)" fill="#263238"/>
            <path id="Trazado_835550" data-name="Trazado 835550" d="M361.815,171.339a.329.329,0,0,1-.159-.041.335.335,0,0,1-.135-.455,37.059,37.059,0,0,1,6.408-8.554.335.335,0,0,1,.473.475,36.394,36.394,0,0,0-6.291,8.4.336.336,0,0,1-.3.175" transform="translate(-155.579 -69.806)" fill="#263238"/>
            <path id="Trazado_835551" data-name="Trazado 835551" d="M356.881,176.738a.336.336,0,0,1-.309-.2,41.479,41.479,0,0,0-3.185-6.055c-1.678-2.474-1.956-2.842-1.967-2.857a.336.336,0,0,1,.533-.408c.01.014.279.366,2,2.9a42.26,42.26,0,0,1,3.242,6.161.336.336,0,0,1-.309.466" transform="translate(-151.22 -71.911)" fill="#263238"/>
            <path id="Trazado_835552" data-name="Trazado 835552" d="M355.831,204a.336.336,0,0,1-.311-.461,39.587,39.587,0,0,1,2.69-5.443,35.169,35.169,0,0,1,3.5-4.582.336.336,0,0,1,.5.449,34.422,34.422,0,0,0-3.423,4.484,38.965,38.965,0,0,0-2.638,5.342.336.336,0,0,1-.311.21" transform="translate(-153.003 -83.24)" fill="#263238"/>
            <path id="Trazado_835553" data-name="Trazado 835553" d="M361.522,223.8a.335.335,0,0,1-.332-.294,10.3,10.3,0,0,1,.924-5.39c.933-1.8,1.969-4.056,2.655-5.547.222-.482.41-.891.55-1.189a.335.335,0,1,1,.606.286c-.14.3-.326.7-.547,1.183-.688,1.5-1.729,3.759-2.669,5.575a9.793,9.793,0,0,0-.854,5,.335.335,0,0,1-.292.373l-.041,0" transform="translate(-155.433 -90.894)" fill="#263238"/>
            <path id="Trazado_835554" data-name="Trazado 835554" d="M332.67,150.484s-.258-1.468,1.448-3.885,2.822-3.83,2.822-3.83,1.615,3.2.059,5.6a36.642,36.642,0,0,1-3.873,4.762Z" transform="translate(-143.174 -61.447)" fill="#33ece0"/>
            <path id="Trazado_835555" data-name="Trazado 835555" d="M340.71,165.711s-.258-1.472,1.444-3.889S344.981,158,344.981,158s1.615,3.207.059,5.6a36.477,36.477,0,0,1-3.873,4.762Z" transform="translate(-146.634 -68.002)" fill="#33ece0"/>
            <path id="Trazado_835556" data-name="Trazado 835556" d="M328.233,156.826s-.4-1.437-2.992-2.873-4.2-2.223-4.2-2.223-.063,3.571,2.382,5.072a36.922,36.922,0,0,0,5.556,2.608Z" transform="translate(-138.173 -65.304)" fill="#33ece0"/>
            <path id="Trazado_835557" data-name="Trazado 835557" d="M337.494,175.369s-.559-1.385-3.278-2.544-4.413-1.762-4.413-1.762.314,3.572,2.894,4.79a36.843,36.843,0,0,0,5.8,2.012Z" transform="translate(-141.945 -73.625)" fill="#33ece0"/>
            <path id="Trazado_835558" data-name="Trazado 835558" d="M340.684,195.2s-.254-1.472-2.671-3.175-3.945-2.651-3.945-2.651-.444,3.572,1.826,5.29a36.624,36.624,0,0,0,5.247,3.175Z" transform="translate(-143.766 -81.506)" fill="#33ece0"/>
            <path id="Trazado_835559" data-name="Trazado 835559" d="M346.585,198.435s-.46-1.421.881-4.052,2.254-4.187,2.254-4.187,2.052,2.945.853,5.532a36.756,36.756,0,0,1-3.175,5.263Z" transform="translate(-149.136 -81.859)" fill="#33ece0"/>
            <path id="Trazado_835560" data-name="Trazado 835560" d="M353.651,220.814s.171-1.484,2.484-3.322,3.786-2.869,3.786-2.869.647,3.528-1.52,5.386a37.006,37.006,0,0,1-5.056,3.476Z" transform="translate(-152.078 -92.373)" fill="#33ece0"/>
            <path id="Trazado_835561" data-name="Trazado 835561" d="M347.786,214.666s-.254-1.472-2.671-3.175-3.941-2.651-3.941-2.651-.444,3.572,1.822,5.29a36.553,36.553,0,0,0,5.251,3.175Z" transform="translate(-146.824 -89.884)" fill="#33ece0"/>
            <path id="Trazado_835562" data-name="Trazado 835562" d="M348.67,227.578s.127-1.488-1.778-3.746-3.144-3.572-3.144-3.572-1.333,3.334.425,5.58a36.9,36.9,0,0,0,4.27,4.417Z" transform="translate(-147.739 -94.799)" fill="#33ece0"/>
            <path id="Trazado_835563" data-name="Trazado 835563" d="M342.867,207.246a.345.345,0,0,1-.048,0,.336.336,0,0,1-.285-.379c.013-.093,1.317-9.312,1.3-12.614-.01-1.856-.764-3.381-1.717-5.312a32.22,32.22,0,0,1-2.13-5.1,24.859,24.859,0,0,1-.733-7.355,17.583,17.583,0,0,0-.709-6.345,26.838,26.838,0,0,0-2.555-4.6,28.3,28.3,0,0,1-2.964-5.487,42.889,42.889,0,0,1-1.37-4.512.336.336,0,0,1,.652-.159,42.194,42.194,0,0,0,1.346,4.437,27.809,27.809,0,0,0,2.9,5.357,27.314,27.314,0,0,1,2.614,4.717,18.028,18.028,0,0,1,.758,6.6,24.33,24.33,0,0,0,.7,7.159,31.755,31.755,0,0,0,2.089,5c.952,1.929,1.775,3.594,1.787,5.6.02,3.352-1.251,12.332-1.3,12.712a.336.336,0,0,1-.332.288" transform="translate(-142.738 -66.762)" fill="#263238"/>
            <path id="Trazado_835564" data-name="Trazado 835564" d="M331.845,161.468a.328.328,0,0,1-.155-.038l-2.513-1.318a.335.335,0,0,1,.312-.594L332,160.836a.335.335,0,0,1-.156.632" transform="translate(-141.599 -68.639)" fill="#263238"/>
            <path id="Trazado_835565" data-name="Trazado 835565" d="M332.971,157.686a.331.331,0,0,1-.112-.019.336.336,0,0,1-.2-.428l.643-1.814a.335.335,0,0,1,.632.224l-.643,1.814a.336.336,0,0,1-.316.223" transform="translate(-143.164 -66.798)" fill="#263238"/>
            <path id="Trazado_835566" data-name="Trazado 835566" d="M340.573,179.461a.338.338,0,0,1-.153-.036s-2.1-1.071-4.247-2.134a.335.335,0,0,1,.3-.6c2.153,1.065,4.254,2.137,4.254,2.137a.335.335,0,0,1-.152.634" transform="translate(-144.607 -76.031)" fill="#263238"/>
            <path id="Trazado_835567" data-name="Trazado 835567" d="M341.269,172.048a.351.351,0,0,1-.1-.015.337.337,0,0,1-.219-.422,30.581,30.581,0,0,1,2.456-5.682.335.335,0,1,1,.585.328,29.906,29.906,0,0,0-2.4,5.557.336.336,0,0,1-.32.234" transform="translate(-146.736 -71.341)" fill="#263238"/>
            <path id="Trazado_835568" data-name="Trazado 835568" d="M342.264,199.88a.334.334,0,0,1-.263-.128,22.953,22.953,0,0,0-4.827-4.561.335.335,0,0,1,.385-.549,23.634,23.634,0,0,1,4.968,4.694.335.335,0,0,1-.263.543" transform="translate(-145.056 -83.747)" fill="#263238"/>
            <path id="Trazado_835569" data-name="Trazado 835569" d="M347.226,202.217a.33.33,0,0,1-.077-.009.335.335,0,0,1-.249-.4,26.844,26.844,0,0,1,1.366-4.22c.781-1.762.933-2.037.948-2.062a.335.335,0,0,1,.581.335c0,.008-.157.286-.913,1.992a26.146,26.146,0,0,0-1.329,4.107.335.335,0,0,1-.326.259" transform="translate(-149.3 -84.08)" fill="#263238"/>
            <path id="Trazado_835570" data-name="Trazado 835570" d="M353.184,225.079a.331.331,0,0,1-.212-.076.335.335,0,0,1-.048-.472,21.846,21.846,0,0,1,2.763-2.863,14.235,14.235,0,0,0,1.713-1.493.336.336,0,1,1,.48.469,14.962,14.962,0,0,1-1.795,1.563,21.766,21.766,0,0,0-2.642,2.748.333.333,0,0,1-.26.124" transform="translate(-151.864 -94.719)" fill="#263238"/>
            <path id="Trazado_835571" data-name="Trazado 835571" d="M349.663,219.694a.336.336,0,0,1-.286-.159,25.06,25.06,0,0,0-2.228-3.055,21.964,21.964,0,0,0-2.611-2.418.335.335,0,1,1,.414-.527,22.647,22.647,0,0,1,2.7,2.5,25.685,25.685,0,0,1,2.3,3.146.335.335,0,0,1-.285.511" transform="translate(-148.232 -91.873)" fill="#263238"/>
            <path id="Trazado_835572" data-name="Trazado 835572" d="M349.182,232.558a.335.335,0,0,1-.334-.311,6.074,6.074,0,0,0-1.061-3.008c-.846-1.114-1.828-2.548-2.416-3.406l-.331-.48a.336.336,0,1,1,.552-.382l.332.482c.584.852,1.561,2.278,2.406,3.391a6.753,6.753,0,0,1,1.186,3.353.335.335,0,0,1-.31.359h-.025" transform="translate(-148.478 -96.764)" fill="#263238"/>
            <path id="Trazado_835573" data-name="Trazado 835573" d="M357.791,260.865H342.833a1.116,1.116,0,0,1-1.115-1.115L339.571,243.2h21.482l-2.147,16.553a1.116,1.116,0,0,1-1.115,1.115" transform="translate(-146.15 -104.671)" fill="#263238"/>
            <path id="Trazado_835574" data-name="Trazado 835574" d="M359.591,245.587H338.3a1.673,1.673,0,1,1,0-3.345h21.3a1.678,1.678,0,0,1,1.683,1.675v0a1.683,1.683,0,0,1-1.683,1.667" transform="translate(-144.878 -104.26)" fill="#263238"/>
          </g>
        </g>
        <g id="Grupo_1018038" data-name="Grupo 1018038">
          <g id="Grupo_1018037" data-name="Grupo 1018037" clip-path="url(#clip-path)">
            <path id="Trazado_835575" data-name="Trazado 835575" d="M261.418,116.253A20.683,20.683,0,0,1,245.395,136.4c-.023.007-.038.007-.06.015-.543.12-1.086.226-1.643.309a21.228,21.228,0,0,1-2.955.211,20.681,20.681,0,0,1-.761-41.348c.189-.015.384-.015.58-.015a1.478,1.478,0,0,1,.181-.007,2.016,2.016,0,0,1,.211.007,20.361,20.361,0,0,1,8.1,1.741,20.682,20.682,0,0,1,12.368,18.941" transform="translate(-94.707 -41.13)" fill="#33ece0"/>
            <g id="Grupo_1018015" data-name="Grupo 1018015" transform="translate(129.239 54.441)" opacity="0.4">
              <g id="Grupo_1018014" data-name="Grupo 1018014">
                <g id="Grupo_1018013" data-name="Grupo 1018013" clip-path="url(#clip-path-9)">
                  <path id="Trazado_835576" data-name="Trazado 835576" d="M252,97.318c-23.885-1.243-24,25.272-24,25.272a20.993,20.993,0,0,1,2.306-18.24c3.324-5.358,9.12-7.725,13.59-8.773a20.363,20.363,0,0,1,8.1,1.741" transform="translate(-226.892 -95.577)" fill="#fff"/>
                </g>
              </g>
            </g>
            <path id="Trazado_835577" data-name="Trazado 835577" d="M240.522,137a20.966,20.966,0,0,1-.771-41.917c.247-.015.509-.023.771-.023a20.97,20.97,0,0,1,0,41.94m0-41.37c-.251,0-.5.007-.744.022a20.169,20.169,0,1,0,.744-.022" transform="translate(-94.492 -40.915)" fill="#263238"/>
            <path id="Trazado_835578" data-name="Trazado 835578" d="M247.262,136.507a20.969,20.969,0,0,1-4.66-41.413c.3-.022.562-.03.824-.03a20.969,20.969,0,0,1,4.661,41.413c-.3.022-.563.03-.825.03m-3.836-40.873c-.251,0-.5.007-.744.022a20.4,20.4,0,0,0,4.58,40.281c.251,0,.5-.007.744-.022a20.4,20.4,0,0,0-4.58-40.281" transform="translate(-97.397 -40.915)" fill="#263238"/>
            <path id="Trazado_835579" data-name="Trazado 835579" d="M255.351,136l-.551-2.249a6.951,6.951,0,0,1-6.644-5.628l-.3-1.241,4.483-1.626.329,1.341a3.523,3.523,0,0,0,1.2,2.049A2.491,2.491,0,0,0,257.657,126c-.446-1.815-2.594-2.994-5.146-4.239-3.238-1.569-6.356-3.513-7.232-7.083-.858-3.5.221-6.46,2.888-7.967l-.551-2.248,4.127-1.012.551,2.244c3.1.055,5.462,2.188,6.336,5.749l.236.963-4.482,1.626-.27-1.1a4.016,4.016,0,0,0-1.107-2.137,1.767,1.767,0,0,0-1.652-.346A1.945,1.945,0,0,0,250,111.4a2.752,2.752,0,0,0-.09,1.934c.448,1.828,2.732,3,5.15,4.241,3.171,1.6,6.343,3.473,7.228,7.081a7,7,0,0,1-3.365,8.087l.551,2.245Zm-6.824-8.757.182.744a6.4,6.4,0,0,0,6.316,5.2h.223l.521,2.125,3.022-.742-.522-2.127.2-.1a6.365,6.365,0,0,0,3.27-7.549c-.828-3.373-3.879-5.165-6.934-6.709-2.538-1.3-4.934-2.533-5.444-4.613a3.293,3.293,0,0,1,.137-2.333,2.491,2.491,0,0,1,1.722-1.238,2.338,2.338,0,0,1,2.158.467,4.551,4.551,0,0,1,1.289,2.434l.119.486,3.406-1.235-.114-.467c-.84-3.422-3-5.365-6-5.315l-.227,0-.522-2.129-3.022.741.521,2.125-.2.1c-2.6,1.362-3.621,4.071-2.8,7.434.82,3.341,3.814,5.2,6.928,6.706,2.683,1.31,4.945,2.561,5.449,4.616a2.855,2.855,0,0,1-2.257,3.669,2.823,2.823,0,0,1-2.427-.432,4.071,4.071,0,0,1-1.418-2.372l-.177-.724Z" transform="translate(-105.443 -44.525)" fill="#263238"/>
            <g id="Grupo_1018018" data-name="Grupo 1018018" transform="translate(139.828 59.271)" opacity="0.3">
              <g id="Grupo_1018017" data-name="Grupo 1018017">
                <g id="Grupo_1018016" data-name="Grupo 1018016" clip-path="url(#clip-path-10)">
                  <path id="Trazado_835580" data-name="Trazado 835580" d="M258.81,132.853l.536,2.184-3.575.877-.536-2.184a6.707,6.707,0,0,1-6.592-5.415l-.243-.993,3.943-1.431.253,1.033c.5,2.026,1.831,3,3.5,2.595a2.568,2.568,0,0,0,2.048-3.324c-.477-1.945-2.714-3.166-5.3-4.427-3.058-1.482-6.213-3.361-7.08-6.9-.848-3.456.216-6.328,2.941-7.753l-.536-2.184,3.574-.877.536,2.184c3.1-.046,5.416,2,6.283,5.533l.175.715-3.944,1.43-.195-.794c-.526-2.145-1.634-3.053-3.1-2.692s-2.08,1.478-1.651,3.226c.477,1.946,2.743,3.117,5.3,4.427,3.029,1.532,6.214,3.362,7.081,6.9a6.671,6.671,0,0,1-3.418,7.87" transform="translate(-245.483 -104.057)"/>
                </g>
              </g>
            </g>
            <path id="Trazado_835581" data-name="Trazado 835581" d="M237.6,163.018a.285.285,0,0,1-.013-.57l4.369-.2a.271.271,0,0,1,.3.271.285.285,0,0,1-.272.3l-4.369.2H237.6" transform="translate(-102.138 -69.831)" fill="#263238"/>
            <path id="Trazado_835582" data-name="Trazado 835582" d="M233.905,160.378a.285.285,0,0,1-.023-.568l3.813-.323a.292.292,0,0,1,.308.26.284.284,0,0,1-.26.308l-3.813.323h-.025" transform="translate(-100.549 -68.642)" fill="#263238"/>
            <path id="Trazado_835583" data-name="Trazado 835583" d="M230.9,157.685a.285.285,0,0,1-.023-.568l3.814-.324a.288.288,0,0,1,.308.26.284.284,0,0,1-.26.308l-3.813.324H230.9" transform="translate(-99.256 -67.482)" fill="#263238"/>
            <path id="Trazado_835584" data-name="Trazado 835584" d="M233.252,106.77h-3.265a.285.285,0,0,1,0-.57h3.265a.285.285,0,0,1,0,.57" transform="translate(-98.862 -45.708)" fill="#263238"/>
            <path id="Trazado_835585" data-name="Trazado 835585" d="M232.818,104.015a.285.285,0,0,1-.013-.57l3.251-.148a.269.269,0,0,1,.3.272.284.284,0,0,1-.272.3l-3.251.148h-.013" transform="translate(-100.081 -44.459)" fill="#263238"/>
            <path id="Trazado_835586" data-name="Trazado 835586" d="M236.39,101.238a.285.285,0,0,1-.026-.568l3.431-.323a.285.285,0,0,1,.053.567l-3.431.324h-.027" transform="translate(-101.619 -43.188)" fill="#263238"/>
            <g id="Grupo_1018021" data-name="Grupo 1018021" transform="translate(125.341 54.441)" opacity="0.3">
              <g id="Grupo_1018020" data-name="Grupo 1018020">
                <g id="Grupo_1018019" data-name="Grupo 1018019" clip-path="url(#clip-path-11)">
                  <path id="Trazado_835587" data-name="Trazado 835587" d="M245.395,136.405c-.023.007-.038.007-.06.015a20.681,20.681,0,1,1-5.359-40.828c.189-.015.384-.015.58-.015-5.042,1.59-13.5,5.653-15.76,14.124-3.211,12.029,4.009,25.694,20.6,26.7" transform="translate(-220.048 -95.577)"/>
                </g>
              </g>
            </g>
            <g id="Grupo_1018024" data-name="Grupo 1018024" transform="translate(148.984 56.182)" opacity="0.1">
              <g id="Grupo_1018023" data-name="Grupo 1018023">
                <g id="Grupo_1018022" data-name="Grupo 1018022" clip-path="url(#clip-path-12)">
                  <path id="Trazado_835588" data-name="Trazado 835588" d="M279.283,117.575a20.683,20.683,0,0,1-16.024,20.146c-.023.007-.038.007-.06.015-.543.12-1.086.226-1.643.309l5.359-39.411a20.682,20.682,0,0,1,12.368,18.941" transform="translate(-261.556 -98.634)"/>
                </g>
              </g>
            </g>
            <path id="Trazado_835589" data-name="Trazado 835589" d="M296.107,59.817a12.509,12.509,0,0,1-14.983,4.349c-.023-.007-.053-.023-.076-.03a12.762,12.762,0,0,1-1.168-.565,11.846,11.846,0,0,1-1.206-.754,12.507,12.507,0,0,1,13.778-20.862c.1.053.189.113.279.174.128.075.256.166.385.256q.294.2.565.43a12.5,12.5,0,0,1,2.427,17" transform="translate(-117.661 -17.253)" fill="#33ece0"/>
            <g id="Grupo_1018027" data-name="Grupo 1018027" transform="translate(157.986 24.139)" opacity="0.4">
              <g id="Grupo_1018026" data-name="Grupo 1018026">
                <g id="Grupo_1018025" data-name="Grupo 1018025" clip-path="url(#clip-path-13)">
                  <path id="Trazado_835590" data-name="Trazado 835590" d="M278.946,60.973s-2.048-6.021.672-10.451c3.414-5.559,8.651-8.09,15.776-6.722,0,0-3.864-2.608-10.328-.758s-9.932,10.745-6.12,17.931" transform="translate(-277.361 -42.378)" fill="#fff"/>
                </g>
              </g>
            </g>
            <path id="Trazado_835591" data-name="Trazado 835591" d="M285.71,65.18a12.8,12.8,0,1,1,6.957-23.522c.126.079.261.167.392.26a12.8,12.8,0,0,1,3.061,17.836l-.232-.165.232.165a12.725,12.725,0,0,1-10.41,5.425m-.056-25.055a12.262,12.262,0,1,0,7.076,2.258c-.122-.086-.246-.169-.37-.244a12.2,12.2,0,0,0-6.706-2.014" transform="translate(-117.443 -17.024)" fill="#263238"/>
            <path id="Trazado_835592" data-name="Trazado 835592" d="M287.281,66.008a12.827,12.827,0,0,1-4.914-.983c-.174-.1-.308-.192-.44-.285a12.8,12.8,0,0,1,12.263-22.278c.174.1.308.193.44.285a12.8,12.8,0,0,1,3.061,17.836l-.232-.165.232.165a12.725,12.725,0,0,1-10.41,5.425m2.005-23.967a12.246,12.246,0,0,0-7.03,22.234c.122.086.246.169.37.245A12.229,12.229,0,0,0,294.3,43.211c-.122-.086-.246-.169-.37-.244a12.144,12.144,0,0,0-4.646-.926" transform="translate(-119.014 -17.852)" fill="#263238"/>
            <path id="Trazado_835593" data-name="Trazado 835593" d="M290.188,65.777l-2.6-1.024.523-1.329a4.37,4.37,0,0,1-1.286-5.178l.32-.813,3,.821-.351.894c-.4,1.016-.151,1.814.662,2.134a1.273,1.273,0,0,0,1.8-.766c.4-1.007-.244-2.314-1.056-3.795-1.065-1.929-1.937-4.005-1.106-6.119a4.184,4.184,0,0,1,4.239-3.005l.523-1.329,2.6,1.024-.521,1.325c1.5,1.148,1.91,3.049,1.091,5.132l-.256.652-3-.821.3-.756c.423-1.077.277-1.764-.432-2.043a1.076,1.076,0,0,0-.907-.009,1.558,1.558,0,0,0-.666.865c-.4,1.012.309,2.366,1.058,3.8,1.018,1.922,1.943,3.979,1.1,6.115a4.345,4.345,0,0,1-4.516,2.9Zm-1.863-1.345,1.541.607.476-1.212.224.033a3.741,3.741,0,0,0,4.13-2.517c.751-1.91-.121-3.834-1.078-5.641-.812-1.553-1.578-3.019-1.084-4.273a2.1,2.1,0,0,1,.935-1.163,1.635,1.635,0,0,1,1.376-.015c.481.189,1.517.838.754,2.781l-.065.166,1.9.518.07-.176c.759-1.93.37-3.6-1.068-4.587l-.187-.128.477-1.212-1.541-.606-.475,1.208-.221-.029c-1.706-.23-3.111.729-3.857,2.625s.077,3.828,1.075,5.636c.882,1.609,1.573,3.041,1.087,4.278a1.833,1.833,0,0,1-2.542,1.088,2.024,2.024,0,0,1-.984-2.873l.119-.3-1.9-.519-.133.338a3.765,3.765,0,0,0,1.266,4.639l.181.129Z" transform="translate(-123.295 -19.913)" fill="#263238"/>
            <g id="Grupo_1018030" data-name="Grupo 1018030" transform="translate(163.455 26.724)" opacity="0.3">
              <g id="Grupo_1018029" data-name="Grupo 1018029">
                <g id="Grupo_1018028" data-name="Grupo 1018028" clip-path="url(#clip-path-14)">
                  <path id="Trazado_835594" data-name="Trazado 835594" d="M290.737,64.42l-.5,1.266-2.072-.815.5-1.266a4.057,4.057,0,0,1-1.366-4.976l.227-.575,2.448.67-.235.6c-.462,1.175-.144,2.123.823,2.5a1.553,1.553,0,0,0,2.172-.927c.443-1.128-.235-2.511-1.071-4.036-.993-1.8-1.9-3.829-1.091-5.878.788-2,2.316-3.05,4.16-2.8l.5-1.266,2.072.815L296.8,49c1.549,1.061,1.978,2.878,1.172,4.927l-.163.414-2.448-.67.181-.46c.489-1.243.259-2.078-.593-2.413s-1.544,0-1.942,1.018c-.444,1.127.267,2.5,1.071,4.035.961,1.814,1.9,3.83,1.09,5.879a4.035,4.035,0,0,1-4.436,2.694" transform="translate(-286.961 -46.916)"/>
                </g>
              </g>
            </g>
            <g id="Grupo_1018033" data-name="Grupo 1018033" transform="translate(155.719 22.834)" opacity="0.3">
              <g id="Grupo_1018032" data-name="Grupo 1018032">
                <g id="Grupo_1018031" data-name="Grupo 1018031" clip-path="url(#clip-path-15)">
                  <path id="Trazado_835595" data-name="Trazado 835595" d="M292.451,41.954c-3.437-.611-7.748-.95-10.084.55-4.289,2.751-6.957,6.218-6.919,11.84s5.291,9.565,5.291,9.565l.309.226a12.508,12.508,0,1,1,11.4-22.182" transform="translate(-273.38 -40.087)"/>
                </g>
              </g>
            </g>
            <g id="Grupo_1018036" data-name="Grupo 1018036" transform="translate(162.219 25.559)" opacity="0.1">
              <g id="Grupo_1018035" data-name="Grupo 1018035">
                <g id="Grupo_1018034" data-name="Grupo 1018034" clip-path="url(#clip-path-16)">
                  <path id="Trazado_835596" data-name="Trazado 835596" d="M301.019,61.876a12.509,12.509,0,0,1-14.983,4.349c-.023-.007-.053-.023-.076-.03a12.76,12.76,0,0,1-1.168-.565l13.8-20.757a12.5,12.5,0,0,1,2.427,17" transform="translate(-284.792 -44.872)"/>
                </g>
              </g>
            </g>
          </g>
        </g>
        <g id="Grupo_1018079" data-name="Grupo 1018079">
          <g id="Grupo_1018078" data-name="Grupo 1018078" clip-path="url(#clip-path)">
            <path id="Trazado_835597" data-name="Trazado 835597" d="M199.054,274.124a75.234,75.234,0,0,1-18.708,16.148,66,66,0,0,1-6.832,3.565c-16.182,7.276-34.627,7.748-51.878,3.565-36.263-8.788-55.505-40.8-57.947-76.336-.658-9.607-2.129-19.977,1.762-29.112,3.856-9.059,11.757-14.8,20.657-18.757a120.319,120.319,0,0,1,19.776-6.381,50.873,50.873,0,0,1,34.224,3.53c7.457,3.538,12.77,9.663,19.041,14.858.666.548,1.332,1.1,2,1.637A187.215,187.215,0,0,0,181.1,200.861c10.543,6.43,21.337,12.5,28.072,23.3,10.738,17.209,1.672,35.951-10.12,49.963" transform="translate(-27.056 -71.155)" fill="#33ece0"/>
            <g id="Grupo_1018041" data-name="Grupo 1018041" transform="translate(35.807 94.171)" opacity="0.4">
              <g id="Grupo_1018040" data-name="Grupo 1018040">
                <g id="Grupo_1018039" data-name="Grupo 1018039" clip-path="url(#clip-path-18)">
                  <path id="Trazado_835598" data-name="Trazado 835598" d="M199.054,274.124a75.234,75.234,0,0,1-18.708,16.148,66,66,0,0,1-6.832,3.565c-16.182,7.276-34.627,7.748-51.878,3.565-36.263-8.788-55.505-40.8-57.947-76.336-.658-9.607-2.129-19.977,1.762-29.112,3.856-9.059,11.757-14.8,20.657-18.757a120.319,120.319,0,0,1,19.776-6.381,50.873,50.873,0,0,1,34.224,3.53c7.457,3.538,12.77,9.663,19.041,14.858.666.548,1.332,1.1,2,1.637A187.215,187.215,0,0,0,181.1,200.861c10.543,6.43,21.337,12.5,28.072,23.3,10.738,17.209,1.672,35.951-10.12,49.963" transform="translate(-62.862 -165.326)" fill="#fff"/>
                </g>
              </g>
            </g>
            <path id="Trazado_835599" data-name="Trazado 835599" d="M142.971,300.11a91.878,91.878,0,0,1-21.618-2.656A71.248,71.248,0,0,1,79.532,269.2c-9.426-13.232-15.076-29.95-16.341-48.346-.082-1.2-.177-2.4-.272-3.62-.677-8.633-1.377-17.559,2.054-25.62,6.366-14.956,23.288-21,40.627-25.3a50.852,50.852,0,0,1,34.416,3.549c5.37,2.548,9.713,6.5,13.913,10.32,1.674,1.524,3.406,3.1,5.187,4.574q1,.824,2,1.634a187.676,187.676,0,0,0,19.919,14q1.047.638,2.1,1.275c9.708,5.887,19.745,11.974,26.072,22.115,11.324,18.15.731,37.37-10.15,50.3a75.2,75.2,0,0,1-18.774,16.208c-10.843,6.5-23.65,9.821-37.308,9.822m-25.077-134.74a50.406,50.406,0,0,0-12.158,1.5c-17.2,4.268-33.972,10.247-40.24,24.974-3.377,7.932-2.682,16.787-2.01,25.351.1,1.218.191,2.428.273,3.627,2.677,38.948,24.8,68.1,57.728,76.081,21.429,5.194,42.2,2.672,58.5-7.1a74.647,74.647,0,0,0,18.63-16.086c10.759-12.783,21.246-31.769,10.1-49.629-6.255-10.025-16.234-16.077-25.884-21.93q-1.05-.637-2.1-1.275a188.422,188.422,0,0,1-19.978-14.044q-1.009-.813-2.008-1.639c-1.791-1.483-3.528-3.063-5.207-4.592-4.361-3.968-8.48-7.715-13.773-10.227a50.849,50.849,0,0,0-21.877-5.009" transform="translate(-26.84 -70.929)" fill="#263238"/>
            <path id="Trazado_835600" data-name="Trazado 835600" d="M123.349,317.941a.285.285,0,0,1-.133-.537,52.276,52.276,0,0,1,8.8-3.541.285.285,0,0,1,.168.544,51.78,51.78,0,0,0-8.7,3.5.284.284,0,0,1-.132.033" transform="translate(-52.966 -135.08)" fill="#263238"/>
            <path id="Trazado_835601" data-name="Trazado 835601" d="M148.152,310.319a.285.285,0,0,1-.064-.562,94.187,94.187,0,0,1,13.177-2.082.285.285,0,1,1,.039.568,93.565,93.565,0,0,0-13.087,2.068.276.276,0,0,1-.064.007" transform="translate(-63.641 -132.421)" fill="#263238"/>
            <path id="Trazado_835602" data-name="Trazado 835602" d="M136.033,302.843a.283.283,0,0,1-.143-.038,46.388,46.388,0,0,0-37.317-1.946.285.285,0,0,1-.205-.532,46.988,46.988,0,0,1,37.809,1.985.285.285,0,0,1-.144.531" transform="translate(-42.259 -127.936)" fill="#263238"/>
            <g id="Grupo_1018044" data-name="Grupo 1018044" transform="translate(44.608 94.171)" opacity="0.1">
              <g id="Grupo_1018043" data-name="Grupo 1018043">
                <g id="Grupo_1018042" data-name="Grupo 1018042" clip-path="url(#clip-path-19)">
                  <path id="Trazado_835603" data-name="Trazado 835603" d="M205.7,274.124A75.234,75.234,0,0,1,187,290.272a65.994,65.994,0,0,1-6.832,3.565,53.062,53.062,0,0,1-5.452-2c-10.627-4.564-19.547-12.264-28.266-19.866-5.257-4.578-10.6-9.225-16.89-12.229A38.862,38.862,0,0,0,102.3,257.5a30.624,30.624,0,0,1,18.021-9.919c-4.495-4.093-10.758-5.812-16.842-5.923s-9.433.638-15.371,1.97c1.983-3.656,7.262-6.964,11.424-6.867a102.631,102.631,0,0,1-11.834-.839c-5.376-.867-7.776-7.186-8.581-12.562-2.219-14.8.028-30.583,8.109-43.173a43.962,43.962,0,0,1,5.529-6.992,120.318,120.318,0,0,1,19.776-6.381,50.873,50.873,0,0,1,34.224,3.53c7.457,3.538,12.77,9.663,19.041,14.858.666.548,1.332,1.1,2,1.637a187.22,187.22,0,0,0,19.949,14.019c10.543,6.43,21.337,12.5,28.072,23.3,10.738,17.209,1.672,35.951-10.12,49.963" transform="translate(-78.314 -165.326)"/>
                </g>
              </g>
            </g>
            <path id="Trazado_835604" data-name="Trazado 835604" d="M305.768,355.593a109.966,109.966,0,0,0,10,7.374c6.774.456,3.737,8.644,3.737,8.644l-5.8,3.726s-9.9-7.872-15.309-10.429,7.367-9.315,7.367-9.315" transform="translate(-127.856 -153.045)" fill="#fff"/>
            <g id="Grupo_1018047" data-name="Grupo 1018047" transform="translate(56.165 92.641)" opacity="0.3">
              <g id="Grupo_1018046" data-name="Grupo 1018046">
                <g id="Grupo_1018045" data-name="Grupo 1018045" clip-path="url(#clip-path-20)">
                  <path id="Trazado_835605" data-name="Trazado 835605" d="M172.246,186.355s-.93-9.189-2.409-11.771l-22.489-4.6v-1.741s.519-3.032-4.494-4.928-15.457.569-18.15,2.607S123,171.474,123,171.474s-9.061,4.592-13.136,6.337a103.245,103.245,0,0,0-9.728,5.126s-1.842,21.116-1.481,26.021-.293,9.519.126,12.236.752,4.263,3.6,6.574,5.435,5.725,12.906,2.339l-1.042-.824,49.18-16.536Z" transform="translate(-98.604 -162.64)"/>
                </g>
              </g>
            </g>
            <path id="Trazado_835606" data-name="Trazado 835606" d="M172.246,186.355s-.93-9.189-2.409-11.771l-22.489-4.6v-1.741s.519-3.032-4.494-4.928-15.457.569-18.15,2.607S123,171.474,123,171.474s-9.061,4.592-13.136,6.337a103.245,103.245,0,0,0-9.728,5.126s-1.842,21.116-1.481,26.021-.293,9.519.126,12.236.752,4.263,3.6,6.574,5.435,5.725,12.906,2.339l-1.042-.824,49.18-16.536Z" transform="translate(-42.439 -70)" fill="#33ece0"/>
            <g id="Grupo_1018050" data-name="Grupo 1018050" transform="translate(56.165 92.641)" opacity="0.05">
              <g id="Grupo_1018049" data-name="Grupo 1018049">
                <g id="Grupo_1018048" data-name="Grupo 1018048" clip-path="url(#clip-path-20)">
                  <path id="Trazado_835607" data-name="Trazado 835607" d="M172.246,186.355s-.93-9.189-2.409-11.771l-22.489-4.6v-1.741s.519-3.032-4.494-4.928-15.457.569-18.15,2.607S123,171.474,123,171.474s-9.061,4.592-13.136,6.337a103.245,103.245,0,0,0-9.728,5.126s-1.842,21.116-1.481,26.021-.293,9.519.126,12.236.752,4.263,3.6,6.574,5.435,5.725,12.906,2.339l-1.042-.824,49.18-16.536Z" transform="translate(-98.604 -162.64)"/>
                </g>
              </g>
            </g>
            <g id="Grupo_1018053" data-name="Grupo 1018053" transform="translate(58.616 105.694)" opacity="0.1">
              <g id="Grupo_1018052" data-name="Grupo 1018052">
                <g id="Grupo_1018051" data-name="Grupo 1018051" clip-path="url(#clip-path-22)">
                  <path id="Trazado_835608" data-name="Trazado 835608" d="M171.986,185.556h-9.408a3.737,3.737,0,0,0-3.686,3.125l-4.638,27.931s-6.384.531-10.906,3.832S127.7,200.211,110.12,200.2c0,0,5.059,11.561,6.181,20.788,0,0-10.988-1.2-12.813,3.1s.829,12.36,5.474,9.242,9-8.338,12.13-5.064,16.973,5.064,16.973,5.064l21.344-10.722,8.277-3.892Z" transform="translate(-102.907 -185.556)"/>
                </g>
              </g>
            </g>
            <g id="Grupo_1018056" data-name="Grupo 1018056" transform="translate(80.237 91.867)" opacity="0.4">
              <g id="Grupo_1018055" data-name="Grupo 1018055">
                <g id="Grupo_1018054" data-name="Grupo 1018054" clip-path="url(#clip-path-23)">
                  <path id="Trazado_835609" data-name="Trazado 835609" d="M158.445,161.282s5.345,1.483,6.21,3.274.776,6.333.776,6.333a21.967,21.967,0,0,1-5.748,7.906l-3.99-7.906.357,8.969s-7.563-1.259-10.773-3.679l-3.21-2.419s-1.381-4.541-1.185-6.1,5.985-4.68,5.985-4.68Z" transform="translate(-140.864 -161.282)" fill="#fff"/>
                </g>
              </g>
            </g>
            <path id="Trazado_835610" data-name="Trazado 835610" d="M307.437,386.959c-.146-.329,2.195-4.46.362-8.672s-4.756-2.588-4.756-2.588-8.321-5.3-11.82-6.968a60.08,60.08,0,0,1-7.262-4.318l-3.7,4.977,3.416,10.574Z" transform="translate(-120.625 -156.841)" fill="#33ece0"/>
            <path id="Trazado_835611" data-name="Trazado 835611" d="M319.716,367.785l10.688,6.532s7.511-4.821,11.1-8.149,11.6-10.408,11.6-10.408l5.117-6.9s-3.557-4.4-9.48-.863c-7.656,4.568-16.991,11.173-23.221,11.109,0,0,1.229,7.65-5.8,8.68" transform="translate(-137.604 -149.184)" fill="#33ece0"/>
            <path id="Trazado_835612" data-name="Trazado 835612" d="M154.516,112.8s4.85,7.336,5.732,9.712a21.625,21.625,0,0,1,1.415,7.582c-.179,1.689-1.949,10.754-2.865,11.018l-.86.972.551,3.839s-3.794,6.56-14.948,1.752c0,0-.435-7.659-1.79-10.062s-3.385.456-5.414-6.488,4.442-14.209,4.442-14.209Z" transform="translate(-58.509 -48.547)" fill="#fff"/>
            <g id="Grupo_1018059" data-name="Grupo 1018059" transform="translate(191.516 197.536)" opacity="0.5">
              <g id="Grupo_1018058" data-name="Grupo 1018058">
                <g id="Grupo_1018057" data-name="Grupo 1018057" clip-path="url(#clip-path-24)">
                  <path id="Trazado_835613" data-name="Trazado 835613" d="M360.707,346.794s-5.491.953-7.276,4.205-5.205,9.3-6.374,12.222-10.832,9.98-10.832,9.98l1.283,1.189s7.863-4.861,12.6-9.48,15.211-16.239,15.211-16.239-.747-.747-4.617-1.878" transform="translate(-336.226 -346.794)" fill="#fff"/>
                </g>
              </g>
            </g>
            <g id="Grupo_1018062" data-name="Grupo 1018062" transform="translate(159.64 210.722)" opacity="0.5">
              <g id="Grupo_1018061" data-name="Grupo 1018061">
                <g id="Grupo_1018060" data-name="Grupo 1018060" clip-path="url(#clip-path-25)">
                  <path id="Trazado_835614" data-name="Trazado 835614" d="M281.621,369.944l-1.356,1.826,4.178,8.671,22.993,8.265,1.066-3.369s.355-3.429-7.716-6.012-12.992-4.311-15.288-6.1-3.878-3.284-3.878-3.284" transform="translate(-280.265 -369.944)" fill="#fff"/>
                </g>
              </g>
            </g>
            <path id="Trazado_835615" data-name="Trazado 835615" d="M139.334,251.251s-7.041-1.057-10.328,4.7-2.951,8.252-2.951,8.252a17.117,17.117,0,0,0,11.047,4.011c6.4-.216,15.719-7.588,18.755-9.973s10.692-9.215,15.916-7.805l.576-4.939s-.508-2.215-4.977-1.619-6.221,3.146-7.658,3.146-2.8-1.386-5.715,3.561c0,0-10.156,1.8-14.665.664" transform="translate(-54.249 -104.921)" fill="#fff"/>
            <path id="Trazado_835616" data-name="Trazado 835616" d="M168.321,139.166a.285.285,0,0,1-.236-.444,4.269,4.269,0,0,0,.723-2.357c0-.12-.013-.15-.018-.158s-.048-.028-.179-.048a3.794,3.794,0,0,1-2.358-.929,3.391,3.391,0,0,1-.657-1.31,19.6,19.6,0,0,1-.647-2.767.285.285,0,0,1,.562-.089,19.04,19.04,0,0,0,.629,2.686,2.872,2.872,0,0,0,.534,1.1,3.335,3.335,0,0,0,2.016.749.826.826,0,0,1,.538.248.788.788,0,0,1,.15.523,4.845,4.845,0,0,1-.82,2.675.285.285,0,0,1-.236.125" transform="translate(-70.991 -56.306)" fill="#263238"/>
            <g id="Grupo_1018065" data-name="Grupo 1018065" transform="translate(160.996 204.837)" opacity="0.1">
              <g id="Grupo_1018064" data-name="Grupo 1018064">
                <g id="Grupo_1018063" data-name="Grupo 1018063" clip-path="url(#clip-path-26)">
                  <path id="Trazado_835617" data-name="Trazado 835617" d="M287.372,359.612l-4.727,5.886s5.186,4.789,10.553,6.564,14.757,5.14,16.329,7.71l-.6-3.095s-14.687-9.011-18.063-11.162a7.785,7.785,0,0,1-3.488-5.9" transform="translate(-282.645 -359.612)"/>
                </g>
              </g>
            </g>
            <g id="Grupo_1018068" data-name="Grupo 1018068" transform="translate(182.112 197.536)" opacity="0.1">
              <g id="Grupo_1018067" data-name="Grupo 1018067">
                <g id="Grupo_1018066" data-name="Grupo 1018066" clip-path="url(#clip-path-27)">
                  <path id="Trazado_835618" data-name="Trazado 835618" d="M319.716,367.859l9.4,5.342a58.351,58.351,0,0,0,6.92-5.524c2.29-2.358,5.083-4.934,6.809-10.182,2.386-7.254,9.223-10.7,9.223-10.7s-9.507,4.474-14.457,7.989-9.773,4.976-12.575,4.738c0,0,2.25,7.123-5.325,8.338" transform="translate(-319.716 -346.794)"/>
                </g>
              </g>
            </g>
            <path id="Trazado_835619" data-name="Trazado 835619" d="M159.617,147.24s3.7,2.9,7.538,1.812c0,0-3.624,7.175-7.538-1.812" transform="translate(-68.698 -63.371)" fill="#fff"/>
            <path id="Trazado_835620" data-name="Trazado 835620" d="M163.605,151.834h-.07c-1.579-.045-3.057-1.625-4.395-4.7a.285.285,0,0,1,.437-.338c.036.028,3.632,2.793,7.284,1.762a.285.285,0,0,1,.332.4c-.06.118-1.474,2.869-3.589,2.869m-3.514-4c1.106,2.218,2.293,3.4,3.46,3.434,1.25.029,2.3-1.239,2.8-2a9.442,9.442,0,0,1-6.264-1.432" transform="translate(-68.483 -63.156)" fill="#263238"/>
            <path id="Trazado_835621" data-name="Trazado 835621" d="M158.3,135.218c.107.8-.133,1.489-.536,1.543s-.816-.55-.922-1.348.133-1.489.535-1.543.816.55.923,1.348" transform="translate(-67.492 -57.616)" fill="#263238"/>
            <path id="Trazado_835622" data-name="Trazado 835622" d="M172.387,132.675c.107.8-.133,1.489-.536,1.543s-.816-.55-.922-1.348.133-1.489.535-1.543.816.55.923,1.348" transform="translate(-73.556 -56.521)" fill="#263238"/>
            <path id="Trazado_835623" data-name="Trazado 835623" d="M151.7,131.449a.285.285,0,0,1-.239-.439,3.122,3.122,0,0,1,4.058-1.368.285.285,0,0,1-.26.506,2.532,2.532,0,0,0-3.319,1.17.286.286,0,0,1-.24.13" transform="translate(-65.17 -55.675)" fill="#263238"/>
            <path id="Trazado_835624" data-name="Trazado 835624" d="M171.451,127.115a.285.285,0,0,1-.236-.125,1.521,1.521,0,0,0-1.077-.731,3.251,3.251,0,0,0-2.1.787.285.285,0,1,1-.371-.432,3.758,3.758,0,0,1,2.544-.92,2.085,2.085,0,0,1,1.473.976.285.285,0,0,1-.236.444" transform="translate(-72.122 -54.09)" fill="#263238"/>
            <path id="Trazado_835625" data-name="Trazado 835625" d="M141.667,148.36c-1.814,0-3.884-2.761-4.406-4.717a4.548,4.548,0,0,1,.406-3.683,1.77,1.77,0,0,1,1.374-.768c1.582-.064,3.026,2.016,3.087,2.105a.285.285,0,0,1-.472.32c-.014-.019-1.317-1.924-2.589-1.856a1.2,1.2,0,0,0-.94.535,3.973,3.973,0,0,0-.316,3.2c.527,1.975,2.665,4.5,4.036,4.281a3.428,3.428,0,0,0,2.187-1.2.285.285,0,0,1,.469.324,3.927,3.927,0,0,1-2.566,1.44,1.716,1.716,0,0,1-.271.021" transform="translate(-58.991 -59.907)" fill="#263238"/>
            <path id="Trazado_835626" data-name="Trazado 835626" d="M160.534,145.959a2.974,2.974,0,0,1-1.632-.44,16.529,16.529,0,0,1-3.347-3.77.285.285,0,0,1,.461-.335,16.442,16.442,0,0,0,3.193,3.626c1.5.958,4.062-.349,4.9-.778a7.427,7.427,0,0,0,3.954-4.121,21.757,21.757,0,0,0,.873-3.47q.084-.434.171-.865l.059-.287a21.622,21.622,0,0,0,.624-4.882,15.819,15.819,0,0,0-1.362-5.144l-.1-.25a18.84,18.84,0,0,1-.7-2.42,16.286,16.286,0,0,0-.787-2.621,12.684,12.684,0,0,0-3.937-4.494.285.285,0,0,1,.363-.439,13.576,13.576,0,0,1,4.1,4.707,16.714,16.714,0,0,1,.817,2.713,18.554,18.554,0,0,0,.674,2.347l.1.249a16.263,16.263,0,0,1,1.4,5.333,22.076,22.076,0,0,1-.636,5.014l-.059.286c-.058.285-.114.572-.17.86a22.207,22.207,0,0,1-.9,3.561,7.952,7.952,0,0,1-4.228,4.428,9.124,9.124,0,0,1-3.837,1.19" transform="translate(-66.927 -49.584)" fill="#263238"/>
            <path id="Trazado_835627" data-name="Trazado 835627" d="M147.181,165.056a.239.239,0,0,1-.04,0,.285.285,0,0,1-.243-.322c.576-4.1-1.811-10.022-1.835-10.082a.285.285,0,0,1,.527-.215c.1.248,2.47,6.125,1.872,10.377a.285.285,0,0,1-.282.245" transform="translate(-62.425 -66.391)" fill="#263238"/>
            <path id="Trazado_835628" data-name="Trazado 835628" d="M136.561,122.556a2.369,2.369,0,0,0,.95-2.112c-.092-.924-.733-1.777-.605-2.7a4.909,4.909,0,0,1,.49-1.269,5.3,5.3,0,0,0-.294-4.793s7.779.364,11.426-1.955,6.422-8.246,4.219-11.08-6.5,1.031-9.676,1.46-14.515,2.233-16.319,6.614.945,5.931,1.03,10.094.081,12.051,6.311,11.328c0,0-2.329-3.013-.713-6.119,1.1-1.323,3.182.53,3.182.53" transform="translate(-54.289 -42.015)" fill="#263238"/>
            <path id="Trazado_835629" data-name="Trazado 835629" d="M168.352,108.07a9.761,9.761,0,0,1,3.725,6.84c.347,3.123,5.887,9.188,1.895,12.648,0,0-.931-3.676-1.478-5.488s-1.244-5.118-2.163-6.273a75.219,75.219,0,0,0-5.783-5.1Z" transform="translate(-70.821 -46.513)" fill="#263238"/>
            <path id="Trazado_835630" data-name="Trazado 835630" d="M155.8,181.99h-.022c-.081-.006-8.182-.684-14.154-6.172a.289.289,0,0,1-.074-.109c-.067-.178-1.636-4.368-1.2-6.263.451-1.943,4.239-3.768,4.4-3.845a.285.285,0,1,1,.245.514c-1.028.49-3.767,2.068-4.09,3.46-.373,1.61.957,5.339,1.151,5.87a25.666,25.666,0,0,0,13.426,5.941l-.781-8.964c-6.967-.161-10.707-2.57-10.865-2.673a.285.285,0,0,1,.313-.476c.038.024,3.866,2.481,10.818,2.584a.285.285,0,0,1,.28.26l.833,9.564a.285.285,0,0,1-.284.309" transform="translate(-60.373 -71.262)" fill="#263238"/>
            <path id="Trazado_835631" data-name="Trazado 835631" d="M170.314,179.921a.3.3,0,0,1-.06-.006.284.284,0,0,1-.193-.146l-4.466-8.5a.285.285,0,0,1,.17-.4,13.979,13.979,0,0,0,5.179-3.342l-.221-3.277a.285.285,0,1,1,.568-.038l.23,3.4a.286.286,0,0,1-.08.218,14.772,14.772,0,0,1-5.187,3.468l4.15,7.9c1.07-.9,5.037-4.458,5.481-8.094.01-1.184-.116-4.553-.829-5.537-.7-.968-3.221-1.6-4.131-1.763a.285.285,0,1,1,.1-.56c.143.025,3.511.637,4.492,1.99.969,1.336.938,5.722.935,5.908-.541,4.455-5.742,8.551-5.963,8.724a.287.287,0,0,1-.175.06" transform="translate(-71.258 -70.255)" fill="#263238"/>
            <g id="Grupo_1018071" data-name="Grupo 1018071" transform="translate(77.855 57.949)" opacity="0.8">
              <g id="Grupo_1018070" data-name="Grupo 1018070">
                <g id="Grupo_1018069" data-name="Grupo 1018069" clip-path="url(#clip-path-28)">
                  <path id="Trazado_835632" data-name="Trazado 835632" d="M136.968,111.606a.292.292,0,0,1-.107-.021.285.285,0,0,1-.158-.371,4.849,4.849,0,0,1,3.867-2.683,16.148,16.148,0,0,1,3.1-.123c.515.013,1.048.026,1.566.012a11.567,11.567,0,0,0,5.891-1.652,7.778,7.778,0,0,0,3.521-4.809.285.285,0,0,1,.557.121,8.354,8.354,0,0,1-3.774,5.17,12.138,12.138,0,0,1-6.18,1.74c-.533.014-1.073,0-1.6-.012a15.863,15.863,0,0,0-2.988.115,4.3,4.3,0,0,0-3.432,2.335.285.285,0,0,1-.264.178" transform="translate(-136.682 -101.735)" fill="#fff"/>
                </g>
              </g>
            </g>
            <g id="Grupo_1018074" data-name="Grupo 1018074" transform="translate(74.178 59.752)" opacity="0.8">
              <g id="Grupo_1018073" data-name="Grupo 1018073">
                <g id="Grupo_1018072" data-name="Grupo 1018072" clip-path="url(#clip-path-29)">
                  <path id="Trazado_835633" data-name="Trazado 835633" d="M130.512,112.7a.29.29,0,0,1-.089-.014.285.285,0,0,1-.181-.36c1.069-3.236,4.488-4.936,7.4-5.183.717-.061,1.443-.055,2.146-.048a19.372,19.372,0,0,0,2.418-.079,4.827,4.827,0,0,0,3.674-1.973.285.285,0,0,1,.487.3,5.469,5.469,0,0,1-4.094,2.243,19.872,19.872,0,0,1-2.49.083c-.689-.007-1.4-.013-2.093.046-2.728.232-5.922,1.8-6.909,4.794a.285.285,0,0,1-.271.2" transform="translate(-130.227 -104.901)" fill="#fff"/>
                </g>
              </g>
            </g>
            <path id="Trazado_835634" data-name="Trazado 835634" d="M109.689,238.42c-3.047,0-5.109-1.773-7.251-3.615-.535-.46-1.089-.936-1.667-1.394-2.76-2.189-2.591-5.445-2.357-9.954a58.512,58.512,0,0,0-.024-8.727c-.846-9.307,1.259-25.211,1.281-25.371a.286.286,0,0,1,.217-.239c.019,0,1.893-.471,6.883-3.524,5.076-3.1,15.824-7.875,15.931-7.923a.285.285,0,1,1,.231.521c-.108.048-10.821,4.8-15.865,7.889a34.9,34.9,0,0,1-6.857,3.537c-.232,1.8-2.045,16.356-1.254,25.059a59,59,0,0,1,.026,8.808c-.234,4.5-.388,7.471,2.142,9.478.587.465,1.145.945,1.684,1.409,3.213,2.763,5.989,5.149,12.167,1.942a.284.284,0,1,1,.263.5,12.123,12.123,0,0,1-5.55,1.6" transform="translate(-42.26 -76.459)" fill="#263238"/>
            <path id="Trazado_835635" data-name="Trazado 835635" d="M111.137,258a.285.285,0,0,1-.252-.418c4.209-7.973,10.154-8.669,12.526-8.6,3.48.105,4.743,3.98,4.755,4.019a.285.285,0,0,1-.543.172c-.011-.035-1.157-3.529-4.229-3.622-2.257-.071-7.945.6-12,8.293a.285.285,0,0,1-.252.152" transform="translate(-47.71 -107.16)" fill="#263238"/>
            <path id="Trazado_835636" data-name="Trazado 835636" d="M124.449,248.42a1.912,1.912,0,0,1-.656-.15,14.18,14.18,0,0,0-8.366-.386.285.285,0,0,1-.145-.551,14.715,14.715,0,0,1,8.68.392,1.562,1.562,0,0,0,.5.125.267.267,0,0,1,.289.28.285.285,0,0,1-.28.289Z" transform="translate(-49.525 -106.247)" fill="#263238"/>
            <path id="Trazado_835637" data-name="Trazado 835637" d="M123.764,231.294a.286.286,0,0,1-.271-.2c-2.627-8.056-5.6-17.188-11.694-23.921a.285.285,0,1,1,.422-.382c6.171,6.823,9.169,16.016,11.814,24.126a.286.286,0,0,1-.183.359.3.3,0,0,1-.088.014" transform="translate(-48.086 -88.963)" fill="#263238"/>
            <path id="Trazado_835638" data-name="Trazado 835638" d="M207.447,183.932a.284.284,0,0,1-.275-.211l-.966-3.622c-.275-.156-1.562-.745-6-1.261-5.3-.616-16.2-3.209-16.312-3.235a.285.285,0,1,1,.132-.554c.109.026,10.983,2.611,16.246,3.223s6.267,1.351,6.363,1.433a.284.284,0,0,1,.09.143l.993,3.726a.284.284,0,0,1-.2.349.274.274,0,0,1-.073.01" transform="translate(-79.055 -75.337)" fill="#263238"/>
            <path id="Trazado_835639" data-name="Trazado 835639" d="M243.211,186.947l-37.248,1.432-3.043,38.308H209.3l32.34-7.244,4.069-31.574Z" transform="translate(-87.335 -80.461)" fill="#fff"/>
            <path id="Trazado_835640" data-name="Trazado 835640" d="M206.325,229.2l40.735-39.049-3.952,30.671Z" transform="translate(-88.801 -81.84)" fill="#33ece0"/>
            <g id="Grupo_1018077" data-name="Grupo 1018077" transform="translate(117.524 108.31)" opacity="0.7">
              <g id="Grupo_1018076" data-name="Grupo 1018076">
                <g id="Grupo_1018075" data-name="Grupo 1018075" clip-path="url(#clip-path-30)">
                  <path id="Trazado_835641" data-name="Trazado 835641" d="M206.325,229.2l40.735-39.049-3.952,30.671Z" transform="translate(-206.325 -190.15)" fill="#fff"/>
                </g>
              </g>
            </g>
            <path id="Trazado_835642" data-name="Trazado 835642" d="M206.11,227.557a.285.285,0,0,1-.284-.31l3.255-36.949a.285.285,0,0,1,.269-.259l37.6-1.973a.285.285,0,0,1,.3.321l-4.069,31.574a.285.285,0,0,1-.227.243l-36.782,7.348a.268.268,0,0,1-.056.006m3.517-36.962-3.2,36.324,36.209-7.233,4-31.033Z" transform="translate(-88.586 -80.942)" fill="#263238"/>
            <path id="Trazado_835643" data-name="Trazado 835643" d="M246.826,216.713c-.254,2.25-1.456,3.961-2.684,3.822s-2.018-2.075-1.763-4.324,1.456-3.961,2.684-3.822,2.018,2.075,1.764,4.324" transform="translate(-104.298 -91.408)" fill="#263238"/>
            <path id="Trazado_835644" data-name="Trazado 835644" d="M247.545,243.98s17.213-.489,22.6,3.064,8.541,21.378,7.8,30.846-7.241,31.192-7.241,31.192l-12.44-14.11s-6.127-22.28-2.785-31.006c0,0-16.524.928-23.022-1.114,0,0-5.828-9.539-15.817-12.7Z" transform="translate(-93.239 -104.998)" fill="#263238"/>
            <path id="Trazado_835645" data-name="Trazado 835645" d="M256.832,334.243l-9.367-5.706c-3.041-1.913-5.783-3.538-8.155-4.831-.39-.213-.817-.484-1.311-.8-.754-.477-1.607-1.02-2.637-1.55-3.1-1.6-7.472-3.552-12.1-5.621-6.98-3.12-14.892-6.657-21.415-10.254-8.89-4.906-13.172-12.017-16.3-17.209-1.571-2.608-2.812-4.669-4.147-5.592-1.983-1.374-5.221-.546-8.97.416-3.673.941-7.836,2.01-12.012,1.365-8.548-1.317-11.544-12.2-11.573-12.312l-.063-.237.225-.1a101.054,101.054,0,0,0,12.407-6.44,36.553,36.553,0,0,0,3.128-2.572c5.684-4.977,16.262-14.241,28-7.944,4.873,2.617,7.526,6.747,10.092,10.741,1.947,3.031,3.96,6.165,6.927,8.571a111.977,111.977,0,0,1,22.964,25.26,84.84,84.84,0,0,0,11.786,13.587h0a44.756,44.756,0,0,0,7.726,5.4c3.8.431,10.5-3.649,16.411-7.25a71.909,71.909,0,0,1,8.434-4.7c3.129-1.289,7.7,1,8.016,1.585l.064.118-.05.136c-.069.17-.2.212-.829.411a21.764,21.764,0,0,0-3.841,1.564c-3.051,1.64-5.583,4.5-7.966,9.008-1.216,2.3-2,3.693-2.4,4.26-3.547,5.04-12.515,10.378-12.9,10.6Zm-78.189-52.858a5.259,5.259,0,0,1,3.08.828c1.435.993,2.7,3.1,4.31,5.767,3.094,5.137,7.33,12.172,16.086,17,6.5,3.586,14.4,7.117,21.373,10.232,4.637,2.072,9.016,4.03,12.13,5.635,1.052.543,1.917,1.092,2.68,1.576.486.308.906.575,1.279.778,2.382,1.3,5.135,2.929,8.182,4.848l9.071,5.525c1.193-.723,9.339-5.758,12.574-10.353.386-.546,1.159-1.92,2.364-4.2,2.439-4.61,5.045-7.547,8.2-9.244a22.276,22.276,0,0,1,3.938-1.6l.207-.065c-1.037-.648-4.547-2.131-7.018-1.116a71.778,71.778,0,0,0-8.355,4.661c-6.015,3.667-12.833,7.829-16.83,7.324l-.1-.031a45.514,45.514,0,0,1-7.887-5.509h0a85.514,85.514,0,0,1-11.881-13.7A111.363,111.363,0,0,0,209.2,274.615c-3.038-2.464-5.076-5.637-7.047-8.706-2.526-3.933-5.138-8-9.882-10.547-11.394-6.11-21.387,2.642-27.359,7.871a36.586,36.586,0,0,1-3.187,2.617,98.959,98.959,0,0,1-12.265,6.388c.482,1.568,3.547,10.508,11.041,11.663,4.061.625,8.163-.426,11.783-1.354a27.775,27.775,0,0,1,6.356-1.161" transform="translate(-64.035 -108.778)" fill="#263238"/>
            <path id="Trazado_835646" data-name="Trazado 835646" d="M244.379,313.431c-5.542,2.24-7.776,5.688-8.629,7.873-7.686-3.961-22.578-9.843-33.51-15.871-13.374-7.38-16.349-19.97-20.421-22.786s-12.638,3.038-21.1,1.734-11.338-12.107-11.338-12.107a100.479,100.479,0,0,0,12.45-6.46c4.557-3.038,15.065-18.067,30.837-10.5,8.712,4.177,10.072,13.685,16.973,19.283a112.161,112.161,0,0,1,22.9,25.194,83.572,83.572,0,0,0,11.834,13.644" transform="translate(-64.293 -108.979)" fill="#263238"/>
            <path id="Trazado_835647" data-name="Trazado 835647" d="M234.432,266.411a.284.284,0,0,1-.255-.159c-.042-.086-4.289-8.571-10.922-10.2a.285.285,0,0,1,.136-.553c6.894,1.694,11.121,10.144,11.3,10.5a.284.284,0,0,1-.129.381.287.287,0,0,1-.126.03" transform="translate(-95.994 -109.961)" fill="#fff"/>
            <path id="Trazado_835648" data-name="Trazado 835648" d="M137.177,268.208c-6.4,0-11.455-4.449-11.52-4.507a.285.285,0,0,1-.076-.313l3.131-8.295a.292.292,0,0,1,.028-.056c2.358-3.569,5.568-4.749,11.842-4.352a71.1,71.1,0,0,0,13.038-.643c.505-.791,2.878-4.315,4.565-3.558.833.371,2.325-.371,4.054-1.231,2.316-1.151,5.2-2.588,7.939-1.988a.285.285,0,0,1-.121.557c-2.546-.557-5.328.829-7.564,1.942-1.935.962-3.464,1.724-4.54,1.241-1.015-.453-2.942,1.876-3.92,3.451a.284.284,0,0,1-.2.131,72.256,72.256,0,0,1-13.289.667c-6.1-.383-9.061.681-11.313,4.072l-3.049,8.077c1.14.944,8.71,6.8,16.628,2.925,3.386-1.657,7.137-4.551,11.108-7.614,6.173-4.762,12.556-9.687,17.6-9.687h.043a.285.285,0,0,1,0,.57c-.013,0-.028,0-.042,0-4.852,0-11.156,4.864-17.254,9.569-3.994,3.082-7.767,5.993-11.206,7.675a13.265,13.265,0,0,1-5.886,1.369" transform="translate(-54.041 -104.639)" fill="#263238"/>
            <path id="Trazado_835649" data-name="Trazado 835649" d="M319.4,377.148c-.2,0-.329-.01-.353-.012l.046-.567a6.112,6.112,0,0,0,4.586-1.7c1.258-1.41,1.6-3.615,1.026-6.552l.559-.11c.614,3.124.223,5.494-1.163,7.045a6.407,6.407,0,0,1-4.7,1.9" transform="translate(-137.315 -158.473)" fill="#263238"/>
            <path id="Trazado_835650" data-name="Trazado 835650" d="M372.6,354.762c-.586,1.163-7.653,7.166-13.754,12.435.018-.082,1.687-3.3,2.42-4.67,1.619-3.031,5.811-11.343,13.795-12.434,1.133.681-2.461,4.67-2.461,4.67" transform="translate(-154.445 -150.678)" fill="#263238"/>
            <path id="Trazado_835651" data-name="Trazado 835651" d="M336.268,373.671l-.342-.456c.079-.059,7.959-5.99,10.764-10.315a32.521,32.521,0,0,0,2.168-4.432c2.094-4.833,4.7-10.846,10.784-12.06l.111.558c-5.791,1.156-8.331,7.018-10.372,11.728a32.846,32.846,0,0,1-2.212,4.516c-2.862,4.41-10.574,10.215-10.9,10.461" transform="translate(-144.581 -149.092)" fill="#263238"/>
            <path id="Trazado_835652" data-name="Trazado 835652" d="M306.428,387.411l-.18-.03c-11.342-1.864-22.826-7.985-22.941-8.047l-.1-.054-.035-.11-3.46-10.713,4.522-6.09.457.339-4.347,5.854,3.335,10.324c1.149.6,11.856,6.114,22.478,7.9a14.764,14.764,0,0,0,1.14-2.282c.576-1.456,1.344-4.263.015-6.7l.5-.273c1.44,2.643.627,5.636.014,7.185a14.607,14.607,0,0,1-1.294,2.543Z" transform="translate(-120.386 -155.961)" fill="#263238"/>
            <path id="Trazado_835653" data-name="Trazado 835653" d="M308.153,390.353a14.352,14.352,0,0,1-1.266,2.489c-11.426-1.878-22.852-8.017-22.852-8.017l-2.946-9.116a16.328,16.328,0,0,0,8.313,5.9c5.564,1.575,15.836,3.422,18.751,8.739" transform="translate(-120.979 -161.704)" fill="#263238"/>
            <path id="Trazado_835654" data-name="Trazado 835654" d="M202.7,225.423h-.024a.285.285,0,0,1-.26-.307l3.043-36.974a.285.285,0,0,1,.273-.261l37.248-1.432a.248.248,0,0,1,.11.017l2.5.922a.285.285,0,0,1-.2.535l-2.446-.9-36.94,1.42-3.022,36.723a.284.284,0,0,1-.284.261" transform="translate(-87.12 -80.245)" fill="#263238"/>
            <path id="Trazado_835655" data-name="Trazado 835655" d="M331.033,366.313a10.955,10.955,0,0,1-1.792-.13l.1-.561c.048.01,5.016.845,8.775-2.224,3.847-3.141,10.122-10.3,10.185-10.373l.428.375c-.063.072-6.369,7.268-10.253,10.44a11.777,11.777,0,0,1-7.444,2.474" transform="translate(-141.704 -151.94)" fill="#263238"/>
            <path id="Trazado_835656" data-name="Trazado 835656" d="M337.85,373.186a.285.285,0,0,1-.271-.2c-1.257-3.806-.02-5.737.033-5.817a.285.285,0,0,1,.476.314c-.011.017-1.13,1.805.032,5.324a.285.285,0,0,1-.181.36.291.291,0,0,1-.089.014" transform="translate(-145.05 -157.975)" fill="#263238"/>
            <path id="Trazado_835657" data-name="Trazado 835657" d="M344.813,370.1a.285.285,0,0,1-.253-.154,7.809,7.809,0,0,1-.475-5.794.285.285,0,0,1,.537.191,7.368,7.368,0,0,0,.444,5.342.285.285,0,0,1-.253.415" transform="translate(-147.942 -156.647)" fill="#263238"/>
            <path id="Trazado_835658" data-name="Trazado 835658" d="M351.81,365.972a.285.285,0,0,1-.267-.184,10.043,10.043,0,0,1,0-6.015.285.285,0,0,1,.541.181,9.619,9.619,0,0,0,0,5.633.285.285,0,0,1-.166.367.3.3,0,0,1-.1.018" transform="translate(-151.096 -154.76)" fill="#263238"/>
            <path id="Trazado_835659" data-name="Trazado 835659" d="M309.033,380.939c-.777-3.064-10.3-6.117-15.984-7.941l-.859-.277a26.415,26.415,0,0,1-10.04-6.438l-.169-.183,4.247-5.108.438.364-3.925,4.721a25.751,25.751,0,0,0,9.623,6.1l.859.276c6.175,1.981,15.507,4.974,16.362,8.344Z" transform="translate(-121.363 -155.369)" fill="#263238"/>
          </g>
        </g>
      </g>
    </g>
  </g>
</svg>
