<svg xmlns="http://www.w3.org/2000/svg" xmlns:xlink="http://www.w3.org/1999/xlink" width="62" height="62" viewBox="0 0 62 62">
  <defs>
    <clipPath id="clip-path">
      <rect id="Rect치ngulo_384979" data-name="Rect치ngulo 384979" width="31.996" height="32" fill="none"/>
    </clipPath>
  </defs>
  <g id="Grupo_1018661" data-name="Grupo 1018661" transform="translate(-463 -5960)">
    <g id="Grupo_1014933" data-name="Grupo 1014933" transform="translate(-58 -6946)">
      <g id="Grupo_1014855" data-name="Grupo 1014855" transform="translate(136.001 10848)">
        <path id="Uni칩n_12" data-name="Uni칩n 12" d="M44.385,58.97a31.027,31.027,0,1,1,10.348-8.025L58.991,62Z" transform="translate(384.999 2058)" fill="#a3bfe4"/>
        <circle id="Elipse_4842" data-name="Elipse 4842" cx="26" cy="26" r="26" transform="translate(389.999 2063)" fill="#fff"/>
      </g>
    </g>
    <g id="Grupo_1016921" data-name="Grupo 1016921" transform="translate(479 5975)">
      <g id="Grupo_1016920" data-name="Grupo 1016920" clip-path="url(#clip-path)">
        <path id="Trazado_833807" data-name="Trazado 833807" d="M32,19.932v8c-.031.087-.061.175-.092.263a1.821,1.821,0,0,1-1.55,1.276,4.873,4.873,0,0,1-.926-.05,1.919,1.919,0,0,1-2.492,1.219,1.9,1.9,0,0,1-3.62.03c-.354.026-.672.068-.992.069-1.374.008-2.749.027-4.123-.006a4.4,4.4,0,0,0-2.122.449,9.334,9.334,0,0,1-4.593.807.621.621,0,0,1,0-1.242c.27-.012.541,0,.812,0a6.42,6.42,0,0,0,3.119-.646,5.748,5.748,0,0,1,3.153-.609c.644.031,1.291.005,1.936.005h.26V23.243h-.39c-1.52,0-3.04-.007-4.561.006a.807.807,0,0,1-.827-.479,3.266,3.266,0,0,0-.4-.6c-1.208-1.505-2.869-1.522-4.593-1.4,0,.125,0,.239,0,.352,0,.681-.187.866-.875.866q-2.921,0-5.841,0c-.487,0-.773.229-.779.615s.289.633.792.634c.7,0,1.4,0,2.093,0,.563,0,.862.22.859.63s-.3.62-.869.62c-1.145,0-2.291,0-3.436,0a.622.622,0,0,0-.64.852.651.651,0,0,0,.677.4q1.765-.006,3.53,0c.453,0,.739.247.738.625s-.286.621-.74.623c-.75,0-1.5,0-2.249,0-.46,0-.745.233-.755.608s.283.639.754.64c.77,0,1.541,0,2.311,0a.625.625,0,1,1,0,1.246c-.364.007-.729,0-1.093,0-.447,0-.734.257-.726.636a.64.64,0,0,0,.72.612c.458,0,.916,0,1.374,0a.623.623,0,1,1-.009,1.244c-.51.008-1.021.016-1.53,0A1.793,1.793,0,0,1,2.856,31.2a1.869,1.869,0,0,1-.228-1.768,1.931,1.931,0,0,1-1.175-.979,1.891,1.891,0,0,1-.076-1.515A1.855,1.855,0,0,1,.014,25.161a1.834,1.834,0,0,1,1.3-1.842c-.021-.437-.057-.849-.058-1.261-.006-1.978,0-3.956-.01-5.935a1.572,1.572,0,0,0-.164-.678A8.906,8.906,0,0,1,.022,11.532C-.014,9.127,0,6.722.011,4.316A1.791,1.791,0,0,1,1.468,2.562a6.269,6.269,0,0,1,1.116-.011,1.911,1.911,0,0,1,2.491-1.2A1.986,1.986,0,0,1,6.566,0h.625a1.971,1.971,0,0,1,1.478,1.31c.446-.021.857-.057,1.268-.058,1.975-.006,3.95,0,5.925-.01a2.1,2.1,0,0,0,.681-.156c.73-.265,1.443-.579,2.182-.813A11.711,11.711,0,0,1,20.187,0h7.748l.232.08a1.78,1.78,0,0,1,1.271,1.4,6.467,6.467,0,0,1,.011,1.105,1.893,1.893,0,0,1,1.181,2.453A2.052,2.052,0,0,1,32,6.561v.625A1.973,1.973,0,0,1,30.68,8.665c.023.427.061.818.063,1.208.006,2.018,0,4.036.009,6.055a1.75,1.75,0,0,0,.131.563c.294.818.612,1.629.894,2.451a8.544,8.544,0,0,1,.219.991m-11.3,2.062h.411c.722,0,.893.175.893.909q0,2.9,0,5.808c0,.485.231.773.617.777s.63-.288.631-.763c0-.708,0-1.416,0-2.124,0-.563.22-.861.631-.857s.619.3.619.869c0,1.145,0,2.29,0,3.435a.63.63,0,0,0,.795.665.652.652,0,0,0,.452-.7c0-1.176,0-2.353,0-3.529,0-.454.245-.739.624-.739s.623.285.624.738c0,.749,0,1.5,0,2.249,0,.472.25.766.637.757s.61-.293.612-.752c0-.749,0-1.5,0-2.249,0-.457.24-.74.618-.744s.626.283.63.733c0,.385-.007.771.005,1.155a.593.593,0,0,0,.444.577.529.529,0,0,0,.639-.2,1.068,1.068,0,0,0,.155-.55c.011-1.978-.024-3.956.016-5.933a9.245,9.245,0,0,0-1.1-4.71,1.438,1.438,0,0,1-.151-.654c-.013-1.551-.007-3.1-.007-4.653v-.28H23.248v.394c0,1.509-.01,3.019.006,4.528a.875.875,0,0,1-.511.873,3.464,3.464,0,0,0-1.859,2.455,22.774,22.774,0,0,0-.19,2.515M2.5,20.759H8.753v-.4c0-1.519.008-3.04-.005-4.559a.83.83,0,0,1,.489-.82,3.8,3.8,0,0,0,1.831-2.238A9.951,9.951,0,0,0,11.256,10h-.31c-.793,0-.944-.156-.944-.953,0-1.915,0-3.831-.005-5.746a1.107,1.107,0,0,0-.126-.53.549.549,0,0,0-.652-.245.616.616,0,0,0-.464.628c-.007.812,0,1.624,0,2.436a.615.615,0,0,1-.4.612.514.514,0,0,1-.629-.122.983.983,0,0,1-.211-.556C7.494,4.408,7.5,3.295,7.5,2.181c0-.083,0-.167,0-.25a.635.635,0,0,0-.622-.678.627.627,0,0,0-.625.674c-.005,1.187,0,2.373,0,3.56,0,.474-.248.766-.635.76S5.006,5.956,5,5.5C5,4.769,5,4.04,5,3.312c0-.514-.222-.8-.617-.809s-.632.293-.633.824c0,.739,0,1.478,0,2.217a.629.629,0,1,1-1.247-.008c0-.4.009-.792-.007-1.187a.615.615,0,0,0-.605-.6.627.627,0,0,0-.635.6c-.007.083,0,.167,0,.25,0,2.123.006,4.247,0,6.37a6.994,6.994,0,0,0,.726,3.384,5.037,5.037,0,0,1,.535,2.636c-.036,1.267-.009,2.537-.009,3.767M22,11.3c0-.206,0-.32,0-.433,0-.684.185-.868.872-.868q2.935,0,5.871,0c.459,0,.744-.235.752-.611s-.284-.636-.756-.637c-.739,0-1.478,0-2.217,0-.482,0-.77-.236-.77-.624s.287-.622.769-.625h.187c1.114,0,2.228,0,3.341,0a.634.634,0,0,0,.693-.7.646.646,0,0,0-.716-.55c-1.145,0-2.29,0-3.435,0-.543,0-.834-.215-.839-.618S26.041,5,26.574,5c.729,0,1.457,0,2.186,0,.45,0,.737-.251.734-.629s-.288-.618-.744-.619c-.76,0-1.52,0-2.28,0a.639.639,0,0,1-.721-.61c-.009-.379.278-.634.725-.638.385,0,.77,0,1.155,0a.525.525,0,0,0,.548-.382.774.774,0,0,0-.082-.6.926.926,0,0,0-.622-.254c-1.978-.018-3.956.021-5.933-.021a9.191,9.191,0,0,0-4.711,1.1,1.438,1.438,0,0,1-.653.154c-1.3.014-2.6.007-3.9.007H11.231V8.748h.387c1.53,0,3.061.007,4.59,0a.812.812,0,0,1,.8.474,3.573,3.573,0,0,0,2.534,1.9A21.615,21.615,0,0,0,22,11.3M10,19.5c.579,0,1.128-.012,1.677,0a5.062,5.062,0,0,1,3.727,1.692c.24.261.419.647.713.771a3.048,3.048,0,0,0,1.111.031H19.5c0-.59-.015-1.149,0-1.708A4.623,4.623,0,0,1,21.239,16.6a1.8,1.8,0,0,0,.771-1.769c-.053-.764-.012-1.534-.012-2.334-.589,0-1.149.015-1.707,0A5.064,5.064,0,0,1,16.6,10.8c-.24-.261-.42-.646-.714-.771A3.043,3.043,0,0,0,14.771,10H12.5c0,.516,0,1,0,1.489a5.118,5.118,0,0,1-2.31,4.4.493.493,0,0,0-.18.345c-.017.7-.008,1.394-.008,2.092V19.5" transform="translate(0.001 -0.001)" fill="#566377"/>
        <path id="Trazado_833808" data-name="Trazado 833808" d="M34.934,130.242a.623.623,0,1,1,.637-.592.629.629,0,0,1-.637.592" transform="translate(-26.195 -98.443)" fill="#566377"/>
      </g>
    </g>
  </g>
</svg>
