<svg xmlns="http://www.w3.org/2000/svg" xmlns:xlink="http://www.w3.org/1999/xlink" width="189" height="189" viewBox="0 0 189 189">
  <defs>
    <clipPath id="clip-path">
      <rect id="Rectángulo_385642" data-name="Rectángulo 385642" width="107.5" height="94.949" fill="none"/>
    </clipPath>
    <radialGradient id="radial-gradient" cx="0.075" cy="0.774" r="1.206" gradientTransform="matrix(0.45, -0.893, 0.771, 0.389, -0.556, 0.54)" gradientUnits="objectBoundingBox">
      <stop offset="0" stop-color="#fec053"/>
      <stop offset="0.327" stop-color="#f2203e"/>
      <stop offset="0.648" stop-color="#b729a8"/>
      <stop offset="1" stop-color="#5342d6"/>
    </radialGradient>
  </defs>
  <g id="Grupo_1018664" data-name="Grupo 1018664" transform="translate(-706 -16692)">
    <g id="Grupo_1018649" data-name="Grupo 1018649" transform="translate(-44 15781)">
      <g id="Grupo_161158" data-name="Grupo 161158" transform="translate(750 911)">
        <path id="Trazado_608379" data-name="Trazado 608379" d="M94.5,0A94.5,94.5,0,1,1,0,94.5,94.5,94.5,0,0,1,94.5,0Z" fill="#fff"/>
      </g>
    </g>
    <g id="Grupo_1018659" data-name="Grupo 1018659" transform="translate(747 16743.025)">
      <g id="Grupo_1018658" data-name="Grupo 1018658" clip-path="url(#clip-path)">
        <path id="Trazado_841846" data-name="Trazado 841846" d="M91.41,77.416H74.265a15.709,15.709,0,0,0-6.034,3.805c-3.368,3.6-7.874,8.654-10.961,12.142a4.7,4.7,0,0,1-7.042,0c-3.086-3.488-7.593-8.539-10.961-12.142a15.706,15.706,0,0,0-6.034-3.805H16.091A16.09,16.09,0,0,1,0,61.326V16.09A16.09,16.09,0,0,1,16.091,0H91.41A16.09,16.09,0,0,1,107.5,16.09V61.326a16.09,16.09,0,0,1-16.09,16.09" fill="url(#radial-gradient)"/>
        <path id="Trazado_841847" data-name="Trazado 841847" d="M91.611,58.681a7.4,7.4,0,0,1,3.953,1.169,9.483,9.483,0,0,1,2.962,12.281C96.908,75.2,90.169,80.957,84.4,85.318a.438.438,0,0,1-.533,0C78.1,80.957,71.363,75.2,69.745,72.131A9.483,9.483,0,0,1,72.707,59.85a7.393,7.393,0,0,1,3.953-1.169c2.429,0,4.349.352,6.232,2.236l1.243,1.695,1.243-1.695c2.008-2.008,3.8-2.236,6.233-2.236" transform="translate(-41.355 -35.356)" fill="#fff"/>
        <path id="Trazado_841848" data-name="Trazado 841848" d="M165.929,81.081l2.588-.239a4.493,4.493,0,0,0,1.257,2.648,3.45,3.45,0,0,0,2.379.823,4.107,4.107,0,0,0,2.176-.568,4.657,4.657,0,0,0,1.534-1.518,8.937,8.937,0,0,0,1-2.566,13.5,13.5,0,0,0,.4-3.291q0-.179-.015-.539a6.172,6.172,0,0,1-2.206,2.087,6,6,0,0,1-3.029.8,6.125,6.125,0,0,1-4.607-1.975,7.225,7.225,0,0,1-1.885-5.206,7.4,7.4,0,0,1,1.967-5.371,6.571,6.571,0,0,1,4.929-2.034,7.031,7.031,0,0,1,3.912,1.152,7.2,7.2,0,0,1,2.693,3.283,16.171,16.171,0,0,1,.92,6.171,19.976,19.976,0,0,1-.913,6.694,7.841,7.841,0,0,1-2.715,3.792,7.029,7.029,0,0,1-4.226,1.3,5.793,5.793,0,0,1-6.163-5.445M176.954,71.4a5.272,5.272,0,0,0-1.234-3.68,3.869,3.869,0,0,0-2.97-1.361,4.1,4.1,0,0,0-3.126,1.466,5.434,5.434,0,0,0-1.331,3.8,4.692,4.692,0,0,0,1.264,3.4,4.164,4.164,0,0,0,3.119,1.309,3.99,3.99,0,0,0,3.074-1.309,5.157,5.157,0,0,0,1.2-3.628" transform="translate(-99.729 -38.64)" fill="#fff"/>
      </g>
    </g>
  </g>
</svg>
