<svg xmlns="http://www.w3.org/2000/svg" xmlns:xlink="http://www.w3.org/1999/xlink" width="189" height="189" viewBox="0 0 189 189">
  <defs>
    <clipPath id="clip-path">
      <rect id="Rectángulo_385640" data-name="Rectángulo 385640" width="107.5" height="94.949" fill="none"/>
    </clipPath>
    <radialGradient id="radial-gradient" cx="0.045" cy="0.752" r="1.227" gradientTransform="matrix(0.472, -0.882, 0.769, 0.411, -0.554, 0.482)" gradientUnits="objectBoundingBox">
      <stop offset="0" stop-color="#fec053"/>
      <stop offset="0.327" stop-color="#f2203e"/>
      <stop offset="0.648" stop-color="#b729a8"/>
      <stop offset="1" stop-color="#5342d6"/>
    </radialGradient>
  </defs>
  <g id="Grupo_1018662" data-name="Grupo 1018662" transform="translate(-706 -16220)">
    <g id="Grupo_1018646" data-name="Grupo 1018646" transform="translate(-44 15309)">
      <g id="Grupo_161158" data-name="Grupo 161158" transform="translate(750 911)">
        <path id="Trazado_608379" data-name="Trazado 608379" d="M94.5,0A94.5,94.5,0,1,1,0,94.5,94.5,94.5,0,0,1,94.5,0Z" fill="#fff"/>
      </g>
    </g>
    <g id="Grupo_1018655" data-name="Grupo 1018655" transform="translate(747 16267.025)">
      <g id="Grupo_1018654" data-name="Grupo 1018654" clip-path="url(#clip-path)">
        <path id="Trazado_841837" data-name="Trazado 841837" d="M91.41,77.416H74.265a15.709,15.709,0,0,0-6.034,3.805c-3.368,3.6-7.874,8.654-10.961,12.142a4.7,4.7,0,0,1-7.042,0c-3.086-3.488-7.593-8.539-10.961-12.142a15.706,15.706,0,0,0-6.034-3.805H16.091A16.09,16.09,0,0,1,0,61.326V16.09A16.09,16.09,0,0,1,16.091,0H91.41A16.09,16.09,0,0,1,107.5,16.09V61.326a16.09,16.09,0,0,1-16.09,16.09" fill="url(#radial-gradient)"/>
        <path id="Trazado_841838" data-name="Trazado 841838" d="M81.581,76.929a16.081,16.081,0,0,0,2.885-9.238,16.242,16.242,0,1,0-7.4,13.617l5.259,1.72A1.068,1.068,0,0,0,83.7,81.563Z" transform="translate(-31.327 -31.002)" fill="#fff"/>
        <path id="Trazado_841839" data-name="Trazado 841839" d="M155.592,86.729h-2.47V68.091h-.116l-5,3.6V69.074l5.114-3.814h2.47Z" transform="translate(-89.175 -39.319)" fill="#fff"/>
        <path id="Trazado_841840" data-name="Trazado 841840" d="M187.092,76.1V73.871h2.2a4.094,4.094,0,0,0,2.926-1.1A3.651,3.651,0,0,0,193.376,70a3.494,3.494,0,0,0-1.156-2.651,4.207,4.207,0,0,0-2.933-1.019,4.758,4.758,0,0,0-2.059.434,3.581,3.581,0,0,0-1.416,1.127,3.11,3.11,0,0,0-.585,1.5h-2.413a5.127,5.127,0,0,1,1.792-3.67,6.731,6.731,0,0,1,4.652-1.589A6.946,6.946,0,0,1,194,65.664a5.23,5.23,0,0,1,1.936,3.9,5.176,5.176,0,0,1-3.973,5.215v.145a4.326,4.326,0,0,1,1.474.4,7.379,7.379,0,0,1,1.488.932,4.374,4.374,0,0,1,1.213,1.6,5.8,5.8,0,0,1-1.531,6.833,7.956,7.956,0,0,1-5.418,1.835,7.589,7.589,0,0,1-4.9-1.517,5.05,5.05,0,0,1-2.008-3.829h2.369a3.144,3.144,0,0,0,1.43,2.218,5.348,5.348,0,0,0,3.178.9,5.051,5.051,0,0,0,3.547-1.142,3.779,3.779,0,0,0,1.293-3.034,3.647,3.647,0,0,0-1.308-2.918,5.006,5.006,0,0,0-3.359-1.112Z" transform="translate(-109.825 -38.64)" fill="#fff"/>
      </g>
    </g>
  </g>
</svg>
