<svg id="Grupo_1018181" data-name="Grupo 1018181" xmlns="http://www.w3.org/2000/svg" xmlns:xlink="http://www.w3.org/1999/xlink" width="400" height="360.506" viewBox="0 0 400 360.506">
  <defs>
    <clipPath id="clip-path">
      <rect id="Rectángulo_385432" data-name="Rectángulo 385432" width="400" height="360.506" fill="none"/>
    </clipPath>
    <clipPath id="clip-path-3">
      <rect id="Rectángulo_385399" data-name="Rectángulo 385399" width="393.191" height="353.672" fill="none"/>
    </clipPath>
  </defs>
  <g id="Grupo_1018180" data-name="Grupo 1018180" clip-path="url(#clip-path)">
    <g id="Grupo_1018163" data-name="Grupo 1018163">
      <g id="Grupo_1018162" data-name="Grupo 1018162" clip-path="url(#clip-path)">
        <path id="Trazado_835860" data-name="Trazado 835860" d="M268.01,17.124S202.255-8.709,139.368,27.75s-93.1,111.47-119.156,171.5S11.754,321.585,61.3,351.147s81.6-11.088,149.994-11.2,87.07,10.547,142.787-27.983,63.439-132.975,16.755-204.318S268.01,17.124,268.01,17.124" transform="translate(-1.407 -1.412)" fill="#fffbe5"/>
      </g>
    </g>
    <g id="Grupo_1018165" data-name="Grupo 1018165">
      <g id="Grupo_1018164" data-name="Grupo 1018164" clip-path="url(#clip-path)">
        <line id="Línea_902" data-name="Línea 902" x2="395.352" transform="translate(0 354.579)" fill="none" stroke="#263238" stroke-miterlimit="10" stroke-width="1"/>
      </g>
    </g>
    <g id="Grupo_1018167" data-name="Grupo 1018167">
      <g id="Grupo_1018166" data-name="Grupo 1018166" clip-path="url(#clip-path)">
        <path id="Trazado_835862" data-name="Trazado 835862" d="M419.747,378.439c1.6.407,5.359-.259,5.361-.26.039-.007-1.052-2.24-1.138-2.373-1-1.532-3.888-3.865-5.984-3.26a2.6,2.6,0,0,0-1.722,3.371c.5,1.359,2.116,2.175,3.482,2.522" transform="translate(-71.256 -63.779)" fill="#263238"/>
        <path id="Trazado_835863" data-name="Trazado 835863" d="M443.419,414.673c.024.08.045.156.068.235l1.464.32c-.1-.318-.2-.641-.307-.974-.3-.941-.637-1.94-1-2.962a30.512,30.512,0,0,0,2.8-1.78,17.682,17.682,0,0,0,4.544,1.984c-.29.963-.581,1.9-.87,2.777-.2.606-.393,1.185-.584,1.744l1.423-.221c.125-.4.252-.806.38-1.229.3-.978.6-2.027.894-3.106a18.24,18.24,0,0,0,5.279-.422c1.363-.52,2.974-1.541,3.463-2.962a2.314,2.314,0,0,0-1.746-3.151c-2.1-.341-4.973,2.359-5.956,4.015-.059.1-.57,1.219-.882,1.93.119-.441.24-.869.356-1.324.237-.9.446-1.8.675-2.773q.14-.707.284-1.43c.105-.476.154-.987.235-1.486.162-1.158.268-2.335.348-3.521a17.016,17.016,0,0,0,5.085.326,5.778,5.778,0,0,0,3.854-2.446,2.327,2.327,0,0,0-1.215-3.4c-2-.648-5.239,1.623-6.462,3.131-.077.094-.835,1.265-1.239,1.914.042-.714.089-1.425.107-2.147.054-2.084.041-4.189.039-6.291,0-.644,0-1.285.01-1.928.284.056,3.666.717,5.26.359a5.778,5.778,0,0,0,3.854-2.446,2.327,2.327,0,0,0-1.215-3.4c-2-.648-5.239,1.623-6.462,3.131-.092.114-1.181,1.8-1.437,2.239.01-1.415.034-2.826.115-4.219a43.115,43.115,0,0,1,.676-5.631c.133.027,3.659.732,5.291.365a5.778,5.778,0,0,0,3.854-2.446,2.327,2.327,0,0,0-1.216-3.4c-2-.648-5.238,1.623-6.462,3.131-.1.119-1.266,1.932-1.454,2.274.022-.108.031-.222.053-.33a32.63,32.63,0,0,1,1.714-5.5c.393-.992.825-1.923,1.265-2.82a16.99,16.99,0,0,0,5.066.894,5.773,5.773,0,0,0,4.082-2.037,2.347,2.347,0,0,0-.813-3.533c-1.9-.862-5.355,1.065-6.734,2.444-.075.075-.755.914-1.242,1.532.206-.4.409-.821.613-1.2.763-1.437,1.551-2.713,2.258-3.837.407-.637.787-1.206,1.15-1.735a18.28,18.28,0,0,0,5.04-1.493c1.234-.785,2.6-2.1,2.769-3.575a2.327,2.327,0,0,0-2.43-2.671c-2.153.11-4.4,3.31-5,5.112-.052.156-.588,2.664-.549,2.657l.045-.007c-.358.5-.736,1.046-1.137,1.646-.733,1.114-1.551,2.378-2.348,3.806a46.57,46.57,0,0,0-2.355,4.712,33.208,33.208,0,0,0-1.856,5.536c-.006.022-.007.046-.013.068-.051-.6-.252-2.289-.283-2.415-.433-1.786-2.372-4.924-4.519-4.971a2.692,2.692,0,0,0-2.689,2.746c.026,1.469,1.268,2.749,2.428,3.5,1.309.845,4.749,1.327,5.023,1.364a43.2,43.2,0,0,0-.835,5.814c-.091,1.134-.148,2.277-.188,3.422-.061-.521-.12-.986-.136-1.05-.434-1.785-2.373-4.924-4.519-4.97a2.692,2.692,0,0,0-2.69,2.747c.026,1.469,1.268,2.749,2.428,3.5a16.475,16.475,0,0,0,4.874,1.342c-.011.439-.027.878-.036,1.318-.045,2.107-.08,4.208-.179,6.274-.035.728-.1,1.444-.156,2.161-.056-.462-.106-.851-.12-.909-.433-1.786-2.372-4.924-4.518-4.971a2.694,2.694,0,0,0-2.69,2.747c.025,1.468,1.268,2.749,2.428,3.5a15.839,15.839,0,0,0,4.735,1.32c-.084.734-.166,1.47-.281,2.18-.09.484-.141.954-.259,1.436s-.211.955-.316,1.425c-.235.9-.471,1.831-.723,2.705-.17.609-.344,1.187-.516,1.769.043-.724.1-2.142.088-2.261a8.829,8.829,0,0,0-1.794-4.4,2.752,2.752,0,0,0-.09-.534,2.42,2.42,0,0,0-3.314-1.586c-2.017.852-2.971,4.55-2.881,6.4.006.109.2,1.28.336,2.016-.149-.417-.288-.824-.447-1.251-.307-.846-.641-1.681-1-2.58l-.569-1.3c-.181-.437-.429-.873-.644-1.314-.52-1.012-1.1-2.011-1.708-3a18.251,18.251,0,0,0,4.6-2.461c1.048-1.013,2.11-2.568,1.95-4.02a2.371,2.371,0,0,0-3-2.07c-2.108.554-3.622,4.1-3.824,5.964-.012.116,0,1.459.017,2.195-.37-.593-.737-1.188-1.132-1.774-1.142-1.7-2.355-3.374-3.556-5.053-.369-.515-.728-1.032-1.091-1.547.279-.108,3.593-1.391,4.772-2.529,1.048-1.013,2.111-2.567,1.951-4.019a2.372,2.372,0,0,0-3-2.07c-2.108.554-3.622,4.1-3.825,5.964-.015.141,0,2.071.031,2.561-.8-1.137-1.584-2.278-2.308-3.437a39.707,39.707,0,0,1-2.626-4.866c.13-.05,3.594-1.374,4.8-2.54,1.048-1.013,2.11-2.567,1.95-4.019a2.372,2.372,0,0,0-3-2.07c-2.108.554-3.622,4.1-3.823,5.964-.016.147,0,2.224.035,2.6-.044-.1-.1-.194-.143-.292a29.558,29.558,0,0,1-1.648-5.313c-.225-1-.38-1.98-.51-2.934a18.579,18.579,0,0,0,4.908-2c1.15-.9,2.375-2.345,2.383-3.815a2.345,2.345,0,0,0-2.722-2.391c-2.144.329-4.042,3.72-4.452,5.561-.022.1-.135,1.135-.206,1.89-.051-.432-.113-.875-.153-1.29-.157-1.558-.2-3-.23-4.278-.01-.728,0-1.387.008-2a18.3,18.3,0,0,0,3.523-3.894c.623-1.289,1.058-3.076.364-4.342a2.5,2.5,0,0,0-3.633-.836c-1.808,1.241-1.929,5-1.429,6.768.044.152,1.01,2.445,1.041,2.419l.035-.031c-.024.593-.043,1.231-.049,1.925,0,1.283.011,2.732.134,4.3a41.375,41.375,0,0,0,.644,5.031,29.788,29.788,0,0,0,1.546,5.422c.008.021.02.041.028.061-.39-.457-1.525-1.7-1.624-1.78-1.395-1.2-4.869-2.668-6.759-1.556a2.486,2.486,0,0,0-.768,3.637c.86,1.16,2.669,1.519,4.1,1.5,1.619-.024,4.881-1.481,5.139-1.6a40.114,40.114,0,0,0,2.593,5.1c.568.956,1.171,1.9,1.788,2.837-.351-.383-.667-.724-.717-.766-1.4-1.2-4.87-2.669-6.759-1.556a2.485,2.485,0,0,0-.768,3.637c.859,1.161,2.669,1.52,4.1,1.5a18.166,18.166,0,0,0,5-1.536c.241.357.477.716.72,1.072,1.164,1.71,2.333,3.41,3.424,5.114.385.6.74,1.208,1.1,1.813-.312-.341-.577-.624-.622-.664-1.4-1.2-4.87-2.668-6.76-1.556a2.486,2.486,0,0,0-.768,3.637c.86,1.161,2.669,1.52,4.1,1.5a17.489,17.489,0,0,0,4.864-1.479c.347.632.7,1.264,1,1.894.2.435.422.838.594,1.287s.361.877.539,1.309c.311.845.636,1.716.917,2.55.2.578.38,1.133.561,1.692-.375-.6-1.138-1.766-1.213-1.856-1.178-1.4-4.349-3.378-6.374-2.548a2.547,2.547,0,0,0-1.322,3.516c.66,1.285,2.375,1.909,3.783,2.1,1.551.209,4.842-.713,5.253-.83.3.925.578,1.829.829,2.687" transform="translate(-71.549 -60.891)" fill="#263238"/>
        <path id="Trazado_835864" data-name="Trazado 835864" d="M465.3,371.684c.035.015.438-2.509.444-2.669.076-1.862-.9-5.437-2.927-6.034a2.721,2.721,0,0,0-3.3,2.006,4.8,4.8,0,0,0,1.347,4.053c1.051,1.211,4.434,2.642,4.436,2.644" transform="translate(-78.673 -62.141)" fill="#263238"/>
        <path id="Trazado_835865" data-name="Trazado 835865" d="M4.758,399.911a10.853,10.853,0,0,0,3.062-.148c.022,0-.6-1.28-.65-1.356-.569-.874-2.221-2.207-3.418-1.861a1.482,1.482,0,0,0-.984,1.925,2.789,2.789,0,0,0,1.989,1.44" transform="translate(-0.459 -67.896)" fill="#263238"/>
        <path id="Trazado_835866" data-name="Trazado 835866" d="M18.279,420.6l.039.134.835.183c-.056-.182-.114-.366-.175-.556-.17-.538-.364-1.108-.569-1.692a17.261,17.261,0,0,0,1.6-1.016,10.1,10.1,0,0,0,2.6,1.133c-.166.55-.332,1.084-.5,1.586q-.169.518-.333,1l.812-.126c.072-.229.144-.461.217-.7.171-.559.341-1.158.511-1.774a10.4,10.4,0,0,0,3.015-.241,3.284,3.284,0,0,0,1.977-1.692,1.321,1.321,0,0,0-1-1.8c-1.2-.195-2.84,1.347-3.4,2.293-.033.056-.326.7-.5,1.1.068-.252.137-.5.2-.756.135-.514.254-1.03.385-1.585q.081-.4.162-.815c.06-.272.089-.564.134-.849.093-.662.153-1.334.2-2.011a9.724,9.724,0,0,0,2.9.186,3.3,3.3,0,0,0,2.2-1.4,1.329,1.329,0,0,0-.694-1.943c-1.143-.37-2.992.927-3.69,1.788-.043.054-.477.723-.707,1.093.024-.407.051-.814.06-1.226.031-1.189.024-2.393.022-3.593,0-.368,0-.734.006-1.1a10.229,10.229,0,0,0,3,.2,3.3,3.3,0,0,0,2.2-1.4,1.329,1.329,0,0,0-.694-1.943c-1.144-.37-2.992.927-3.69,1.788-.052.065-.674,1.028-.82,1.279.006-.808.019-1.614.066-2.41a24.4,24.4,0,0,1,.386-3.216,10.419,10.419,0,0,0,3.022.209,3.3,3.3,0,0,0,2.2-1.4,1.33,1.33,0,0,0-.694-1.943c-1.144-.37-2.992.927-3.69,1.788-.055.067-.724,1.1-.831,1.3.012-.062.017-.127.031-.188a18.578,18.578,0,0,1,.979-3.138c.225-.567.471-1.1.723-1.611a9.715,9.715,0,0,0,2.893.51A3.3,3.3,0,0,0,32,394.9a1.341,1.341,0,0,0-.464-2.018c-1.087-.491-3.059.609-3.847,1.4-.042.043-.431.522-.709.874.117-.23.234-.468.35-.687.436-.82.886-1.549,1.29-2.191.233-.364.45-.689.656-.99a10.472,10.472,0,0,0,2.878-.853,3.215,3.215,0,0,0,1.581-2.042,1.328,1.328,0,0,0-1.387-1.526c-1.23.063-2.512,1.89-2.858,2.919-.03.089-.336,1.522-.313,1.518l.026,0c-.2.288-.421.6-.65.941-.419.636-.885,1.358-1.341,2.173a26.612,26.612,0,0,0-1.345,2.692,19,19,0,0,0-1.061,3.162c0,.012,0,.026-.007.039-.029-.346-.144-1.308-.162-1.38-.248-1.019-1.355-2.812-2.581-2.839a1.538,1.538,0,0,0-1.537,1.569,2.715,2.715,0,0,0,1.387,2,9.889,9.889,0,0,0,2.869.779,24.72,24.72,0,0,0-.477,3.321c-.052.647-.084,1.3-.107,1.954-.036-.3-.069-.564-.078-.6-.248-1.02-1.355-2.813-2.581-2.839A1.538,1.538,0,0,0,20,403.831a2.716,2.716,0,0,0,1.387,2,9.4,9.4,0,0,0,2.784.766c-.007.251-.016.5-.021.753-.026,1.2-.046,2.4-.1,3.584-.019.415-.055.825-.089,1.234-.031-.264-.06-.486-.069-.519-.247-1.02-1.354-2.812-2.58-2.839a1.537,1.537,0,0,0-1.537,1.569,2.715,2.715,0,0,0,1.387,2,9.048,9.048,0,0,0,2.7.754c-.048.419-.094.84-.16,1.245-.051.277-.081.544-.148.82l-.181.814c-.134.514-.269,1.045-.412,1.545-.1.347-.2.678-.3,1.01.024-.414.056-1.223.05-1.291a5.043,5.043,0,0,0-1.024-2.512,1.574,1.574,0,0,0-.051-.3,1.383,1.383,0,0,0-1.894-.906c-1.151.487-1.7,2.6-1.645,3.656,0,.062.115.731.192,1.151-.085-.238-.164-.47-.255-.714-.176-.484-.366-.961-.569-1.474l-.325-.739c-.1-.249-.245-.5-.368-.751-.3-.578-.628-1.149-.975-1.716a10.4,10.4,0,0,0,2.628-1.406,3.1,3.1,0,0,0,1.114-2.3,1.354,1.354,0,0,0-1.711-1.183c-1.2.317-2.069,2.344-2.185,3.406-.007.066,0,.833.01,1.253-.211-.338-.421-.678-.646-1.013-.652-.969-1.344-1.927-2.031-2.887-.211-.293-.416-.588-.623-.883a11.027,11.027,0,0,0,2.726-1.445,3.109,3.109,0,0,0,1.114-2.3,1.354,1.354,0,0,0-1.711-1.182c-1.2.316-2.069,2.343-2.184,3.406-.008.08,0,1.183.017,1.462-.456-.65-.9-1.3-1.318-1.962a22.682,22.682,0,0,1-1.5-2.78,11.185,11.185,0,0,0,2.742-1.451,3.1,3.1,0,0,0,1.114-2.3,1.354,1.354,0,0,0-1.711-1.182c-1.2.316-2.069,2.343-2.185,3.406-.008.084,0,1.27.02,1.484-.025-.056-.057-.11-.081-.167a16.816,16.816,0,0,1-.941-3.035c-.128-.574-.218-1.13-.292-1.675a10.633,10.633,0,0,0,2.8-1.141,3.165,3.165,0,0,0,1.36-2.178,1.338,1.338,0,0,0-1.555-1.366c-1.224.188-2.308,2.124-2.543,3.176-.013.057-.077.648-.117,1.079-.03-.246-.065-.5-.088-.737-.09-.89-.115-1.714-.132-2.443-.006-.416,0-.791,0-1.144a10.419,10.419,0,0,0,2.012-2.224,2.9,2.9,0,0,0,.208-2.48,1.43,1.43,0,0,0-2.075-.478c-1.032.709-1.1,2.858-.815,3.865.025.087.577,1.4.594,1.382l.02-.017c-.014.339-.025.7-.028,1.1,0,.733.007,1.56.076,2.456a23.817,23.817,0,0,0,.368,2.873,17.082,17.082,0,0,0,.883,3.1c0,.012.012.023.017.035-.223-.261-.872-.968-.928-1.017-.8-.683-2.78-1.523-3.86-.889a1.42,1.42,0,0,0-.438,2.078,2.918,2.918,0,0,0,2.344.856,10.913,10.913,0,0,0,2.935-.913,22.759,22.759,0,0,0,1.481,2.911c.323.546.668,1.085,1.021,1.62-.2-.219-.381-.413-.409-.438-.8-.683-2.781-1.524-3.86-.888a1.419,1.419,0,0,0-.439,2.077,2.919,2.919,0,0,0,2.345.856,10.377,10.377,0,0,0,2.854-.878c.138.2.273.409.411.612.665.976,1.332,1.948,1.956,2.921.22.343.423.69.627,1.035-.178-.194-.33-.356-.356-.379-.8-.683-2.78-1.524-3.86-.889a1.42,1.42,0,0,0-.438,2.078,2.915,2.915,0,0,0,2.344.855,9.995,9.995,0,0,0,2.778-.844c.2.361.4.722.572,1.082.113.249.24.478.339.735l.308.748c.177.483.363.98.523,1.456.114.331.216.647.321.966-.215-.344-.651-1.008-.694-1.059-.673-.8-2.484-1.929-3.64-1.454a1.454,1.454,0,0,0-.755,2.008,2.839,2.839,0,0,0,2.161,1.2,10.592,10.592,0,0,0,3-.475c.17.529.33,1.045.473,1.535" transform="translate(-0.627 -66.246)" fill="#263238"/>
        <path id="Trazado_835867" data-name="Trazado 835867" d="M30.776,396.052c.02.008.249-1.433.254-1.525.044-1.063-.516-3.105-1.672-3.446a1.554,1.554,0,0,0-1.885,1.145,2.735,2.735,0,0,0,.769,2.315,9.643,9.643,0,0,0,2.534,1.511" transform="translate(-4.695 -66.96)" fill="#263238"/>
      </g>
    </g>
    <g id="Grupo_1018169" data-name="Grupo 1018169">
      <g id="Grupo_1018168" data-name="Grupo 1018168" clip-path="url(#clip-path)">
        <circle id="Elipse_5854" data-name="Elipse 5854" cx="13.446" cy="13.446" r="13.446" transform="translate(14.93 86.727) rotate(-80.411)" fill="none" stroke="#263238" stroke-miterlimit="10" stroke-width="1"/>
        <path id="Trazado_835868" data-name="Trazado 835868" d="M40.5,88.519a4.766,4.766,0,1,1-4.765-4.765A4.766,4.766,0,0,1,40.5,88.519Z" transform="translate(-5.302 -14.342)" fill="none" stroke="#263238" stroke-miterlimit="10" stroke-width="1"/>
        <path id="Trazado_835869" data-name="Trazado 835869" d="M35.044,105.6a13.37,13.37,0,0,0,8.086-2.722,8.2,8.2,0,0,0-16.172,0A13.37,13.37,0,0,0,35.044,105.6Z" transform="translate(-4.616 -16.444)" fill="none" stroke="#263238" stroke-miterlimit="10" stroke-width="1"/>
        <circle id="Elipse_5855" data-name="Elipse 5855" cx="13.446" cy="13.446" r="13.446" transform="translate(14.93 120.484) rotate(-80.411)" fill="none" stroke="#263238" stroke-miterlimit="10" stroke-width="1"/>
        <path id="Trazado_835870" data-name="Trazado 835870" d="M40.5,129.251a4.766,4.766,0,1,1-4.765-4.765A4.766,4.766,0,0,1,40.5,129.251Z" transform="translate(-5.302 -21.317)" fill="none" stroke="#263238" stroke-miterlimit="10" stroke-width="1"/>
        <path id="Trazado_835871" data-name="Trazado 835871" d="M35.044,146.331a13.365,13.365,0,0,0,8.086-2.722,8.2,8.2,0,0,0-16.172,0A13.365,13.365,0,0,0,35.044,146.331Z" transform="translate(-4.616 -23.419)" fill="none" stroke="#263238" stroke-miterlimit="10" stroke-width="1"/>
        <circle id="Elipse_5856" data-name="Elipse 5856" cx="13.446" cy="13.446" r="13.446" transform="translate(14.853 154.131) rotate(-80.008)" fill="none" stroke="#263238" stroke-miterlimit="10" stroke-width="1"/>
        <path id="Trazado_835872" data-name="Trazado 835872" d="M40.5,169.982a4.766,4.766,0,1,1-4.765-4.765A4.765,4.765,0,0,1,40.5,169.982Z" transform="translate(-5.302 -28.292)" fill="none" stroke="#263238" stroke-miterlimit="10" stroke-width="1"/>
        <path id="Trazado_835873" data-name="Trazado 835873" d="M35.044,187.063a13.365,13.365,0,0,0,8.086-2.722,8.2,8.2,0,0,0-16.172,0A13.365,13.365,0,0,0,35.044,187.063Z" transform="translate(-4.616 -30.394)" fill="none" stroke="#263238" stroke-miterlimit="10" stroke-width="1"/>
        <circle id="Elipse_5857" data-name="Elipse 5857" cx="13.446" cy="13.446" r="13.446" transform="translate(14.853 187.888) rotate(-80.008)" fill="none" stroke="#263238" stroke-miterlimit="10" stroke-width="1"/>
        <path id="Trazado_835874" data-name="Trazado 835874" d="M40.5,210.714a4.766,4.766,0,1,1-4.765-4.765A4.766,4.766,0,0,1,40.5,210.714Z" transform="translate(-5.302 -35.267)" fill="none" stroke="#263238" stroke-miterlimit="10" stroke-width="1"/>
        <path id="Trazado_835875" data-name="Trazado 835875" d="M35.044,227.795a13.365,13.365,0,0,0,8.086-2.722,8.2,8.2,0,0,0-16.172,0A13.365,13.365,0,0,0,35.044,227.795Z" transform="translate(-4.616 -37.369)" fill="none" stroke="#263238" stroke-miterlimit="10" stroke-width="1"/>
        <rect id="Rectángulo_385403" data-name="Rectángulo 385403" width="57.552" height="3.874" transform="translate(318.198 47.472)" fill="none" stroke="#263238" stroke-miterlimit="10" stroke-width="1"/>
        <rect id="Rectángulo_385404" data-name="Rectángulo 385404" width="28.483" height="3.874" transform="translate(318.198 55.22)" fill="none" stroke="#263238" stroke-miterlimit="10" stroke-width="1"/>
        <rect id="Rectángulo_385405" data-name="Rectángulo 385405" width="38.917" height="3.874" transform="translate(318.198 62.967)" fill="none" stroke="#263238" stroke-miterlimit="10" stroke-width="1"/>
        <rect id="Rectángulo_385406" data-name="Rectángulo 385406" width="24.008" height="3.874" transform="translate(318.198 70.715)" fill="none" stroke="#263238" stroke-miterlimit="10" stroke-width="1"/>
        <rect id="Rectángulo_385407" data-name="Rectángulo 385407" width="44.084" height="3.874" transform="translate(318.197 78.462)" fill="none" stroke="#263238" stroke-miterlimit="10" stroke-width="1"/>
        <rect id="Rectángulo_385408" data-name="Rectángulo 385408" width="30.603" height="3.874" transform="translate(318.197 86.21)" fill="none" stroke="#263238" stroke-miterlimit="10" stroke-width="1"/>
        <rect id="Rectángulo_385409" data-name="Rectángulo 385409" width="34.33" height="3.874" transform="translate(318.198 93.957)" fill="none" stroke="#263238" stroke-miterlimit="10" stroke-width="1"/>
        <line id="Línea_903" data-name="Línea 903" x2="28.957" transform="translate(318.703 40.112)" fill="none" stroke="#263238" stroke-miterlimit="10" stroke-width="1"/>
        <line id="Línea_904" data-name="Línea 904" x2="28.957" transform="translate(318.703 35.238)" fill="none" stroke="#263238" stroke-miterlimit="10" stroke-width="1"/>
        <path id="Trazado_835876" data-name="Trazado 835876" d="M162,57.154,194.734.5h7.973" transform="translate(-27.741 -0.086)" fill="none" stroke="#263238" stroke-miterlimit="10" stroke-width="1"/>
        <line id="Línea_905" data-name="Línea 905" x2="20.144" transform="translate(182.52 0.834)" fill="none" stroke="#263238" stroke-miterlimit="10" stroke-width="1"/>
        <line id="Línea_906" data-name="Línea 906" x2="20.144" transform="translate(182.52 5.87)" fill="none" stroke="#263238" stroke-miterlimit="10" stroke-width="1"/>
        <line id="Línea_907" data-name="Línea 907" x2="20.144" transform="translate(182.52 10.906)" fill="none" stroke="#263238" stroke-miterlimit="10" stroke-width="1"/>
      </g>
    </g>
    <g id="Grupo_1018171" data-name="Grupo 1018171">
      <g id="Grupo_1018170" data-name="Grupo 1018170" clip-path="url(#clip-path)">
        <path id="Trazado_835877" data-name="Trazado 835877" d="M390.488,168.324s-8.309,1.543-9.971,5.935.831,5.578.831,5.578-6.766,3.68-5.46,7.953,6.053,6.41,6.053,6.41,1.9,1.306,1.543,2.137-1.543.593-1.543.593a14.093,14.093,0,0,0,5.935,3.086c3.561.831,9.258,1.9,14.244.831A30.434,30.434,0,0,0,410.9,197.4s-3.323.238-1.9-2.017,7.24-3.2,6.528-9.852-2.73-5.816-4.273-8.665.475-4.866-4.273-8.19-13.057-5.816-15.668-4.867-.831,4.511-.831,4.511" transform="translate(-64.339 -28.017)" fill="#263238"/>
        <path id="Trazado_835878" data-name="Trazado 835878" d="M390.488,168.324s-8.309,1.543-9.971,5.935.831,5.578.831,5.578-6.766,3.68-5.46,7.953,6.053,6.41,6.053,6.41,1.9,1.306,1.543,2.137-1.543.593-1.543.593a14.093,14.093,0,0,0,5.935,3.086c3.561.831,9.258,1.9,14.244.831A30.434,30.434,0,0,0,410.9,197.4s-3.323.238-1.9-2.017,7.24-3.2,6.528-9.852-2.73-5.816-4.273-8.665.475-4.866-4.273-8.19-13.057-5.816-15.668-4.867S390.488,168.324,390.488,168.324Z" transform="translate(-64.339 -28.017)" fill="none" stroke="#263238" stroke-miterlimit="10" stroke-width="1"/>
        <path id="Trazado_835879" data-name="Trazado 835879" d="M373.025,259.982a53.826,53.826,0,0,0-9.778,26.655c-1.209,15.717,9.942,49.3,10.21,50.645s1.478,13.165,5.776,22.971,7.12,24.719,7.12,24.719-.672,3.09-.672,3.493-5.508,5.642-7.388,6.716-5.911,1.478-5.776,3.359,9.135,2.149,12.091,2.015,9.672-1.075,10.612-1.075,5.239.269,5.105-2.417-3.784-14.105-3.784-14.105-2.53-17.464-2.53-22.972-.268-18.538-.268-18.538,9.941,21.225,12.091,27,4.3,14.105,4.567,15.046.941,11.284,3.9,14.778,4.847,3.177,6.653,3.237c1.98.066,4.631-1.759,3.019-6.6s-5.642-8.195-6.449-13.031-1.209-16.927-1.209-29.286-4.836-24.719-4.836-24.719,3.627-20.957,1.88-37.077a84.861,84.861,0,0,0-8.164-28.09l-.433-1.734-30.629-2.955Z" transform="translate(-62.187 -44.184)" fill="#33ece0"/>
        <path id="Trazado_835880" data-name="Trazado 835880" d="M373.025,259.982a53.826,53.826,0,0,0-9.778,26.655c-1.209,15.717,9.942,49.3,10.21,50.645s1.478,13.165,5.776,22.971,7.12,24.719,7.12,24.719-.672,3.09-.672,3.493-5.508,5.642-7.388,6.716-5.911,1.478-5.776,3.359,9.135,2.149,12.091,2.015,9.672-1.075,10.612-1.075,5.239.269,5.105-2.417-3.784-14.105-3.784-14.105-2.53-17.464-2.53-22.972-.268-18.538-.268-18.538,9.941,21.225,12.091,27,4.3,14.105,4.567,15.046.941,11.284,3.9,14.778,4.847,3.177,6.653,3.237c1.98.066,4.631-1.759,3.019-6.6s-5.642-8.195-6.449-13.031-1.209-16.927-1.209-29.286-4.836-24.719-4.836-24.719,3.627-20.957,1.88-37.077a84.861,84.861,0,0,0-8.164-28.09l-.433-1.734-30.629-2.955Z" transform="translate(-62.187 -44.184)" fill="none" stroke="#263238" stroke-miterlimit="10" stroke-width="1"/>
        <path id="Trazado_835881" data-name="Trazado 835881" d="M396.992,337.2c-1.141-4.9-2.674-12.047-2.888-15.892-.346-6.228-.145-23.395-.145-23.395" transform="translate(-67.452 -51.016)" fill="none" stroke="#263238" stroke-miterlimit="10" stroke-width="1"/>
        <path id="Trazado_835882" data-name="Trazado 835882" d="M399.011,351.024s-.285-1.114-.706-2.861" transform="translate(-68.207 -59.62)" fill="none" stroke="#263238" stroke-miterlimit="10" stroke-width="1"/>
        <path id="Trazado_835883" data-name="Trazado 835883" d="M382.515,288.474c1.794,2.628,4.45,5.989,6.871,7" transform="translate(-65.503 -49.399)" fill="none" stroke="#263238" stroke-miterlimit="10" stroke-width="1"/>
        <path id="Trazado_835884" data-name="Trazado 835884" d="M379.95,284.391s.36.643.967,1.611" transform="translate(-65.063 -48.7)" fill="none" stroke="#263238" stroke-miterlimit="10" stroke-width="1"/>
        <line id="Línea_908" data-name="Línea 908" y1="9.403" x2="7.147" transform="translate(328.848 234.999)" fill="none" stroke="#263238" stroke-miterlimit="10" stroke-width="1"/>
        <path id="Trazado_835885" data-name="Trazado 835885" d="M401.048,419a19.123,19.123,0,0,1-3.707.145c-4.66-.186-9.725-3.723-9.725-3.723,0,.4-5.508,5.642-7.388,6.717s-5.911,1.478-5.776,3.358,9.135,2.15,12.091,2.015,9.672-1.074,10.612-1.074,5.239.269,5.105-2.418a14.279,14.279,0,0,0-1.211-5.02" transform="translate(-64.121 -71.137)" fill="#fff"/>
        <path id="Trazado_835886" data-name="Trazado 835886" d="M401.048,419a19.123,19.123,0,0,1-3.707.145c-4.66-.186-9.725-3.723-9.725-3.723,0,.4-5.508,5.642-7.388,6.717s-5.911,1.478-5.776,3.358,9.135,2.15,12.091,2.015,9.672-1.074,10.612-1.074,5.239.269,5.105-2.418A14.279,14.279,0,0,0,401.048,419Z" transform="translate(-64.121 -71.137)" fill="none" stroke="#263238" stroke-miterlimit="10" stroke-width="1"/>
        <path id="Trazado_835887" data-name="Trazado 835887" d="M428.237,410.957c-.841,1.417-1.969,3.208-3.614,3.318-2.017.134-3.448-1.473-4.092-2.382.441,3.468,1.372,9.947,3.59,12.567,2.955,3.493,4.847,3.177,6.653,3.238,1.98.065,4.631-1.76,3.019-6.6-1.272-3.817-4.046-6.716-5.557-10.146" transform="translate(-72.013 -70.373)" fill="#fff"/>
        <path id="Trazado_835888" data-name="Trazado 835888" d="M428.237,410.957c-.841,1.417-1.969,3.208-3.614,3.318-2.017.134-3.448-1.473-4.092-2.382.441,3.468,1.372,9.947,3.59,12.567,2.955,3.493,4.847,3.177,6.653,3.238,1.98.065,4.631-1.76,3.019-6.6C432.521,417.285,429.748,414.386,428.237,410.957Z" transform="translate(-72.013 -70.373)" fill="none" stroke="#263238" stroke-miterlimit="10" stroke-width="1"/>
        <path id="Trazado_835889" data-name="Trazado 835889" d="M382.7,194.782s.475,6.884.119,8.072-4.51,1.3-5.223,1.067-5.578-1.187-7.952,0-5.461,6.41-6.054,7.478a13.937,13.937,0,0,1-2.374,2.611s-4.273-16.5-4.273-17.8a17.166,17.166,0,0,0-1.9-10.327c-2.73-5.1-4.866-8.427-6.884-9.969s-4.035-1.662-4.155-.475.831,1.9,1.543,2.729a38.939,38.939,0,0,1,2.493,4.51s-4.392,7.241-4.51,8.9-.356,2.018.83,3.323,5.223,3.323,5.223,3.323a59.428,59.428,0,0,0,.593,10.564c.831,4.986-1.305,12.107,1.78,18.28s7.478,7.6,8.191,7,8.428-5.936,8.428-5.936.949,11.87,1.068,12.345-.594,3.917,0,5.222,2.611,3.918,13.531,4.511,18.042-.831,18.635-1.78.356-2.611.356-3.443,1.781-13.53,1.781-13.53,3.917,9.376,4.392,10.682,1.425,4.866,1.425,4.866-.356,9.14,1.187,13.294,3.323,8.19,3.323,8.19l2.118,13.583a8.759,8.759,0,0,0-.95,4.036c.238,1.662.676,5.585.676,6.178s0,2.374.95,2.611,1.781-2.255,1.781-2.255a52.248,52.248,0,0,1,.474,5.341c-.118.712,1.11,2.944,2.137.593.384-.877.713-2.374.95-2.848a23.877,23.877,0,0,0,1.781-4.748c.356-1.78.515-3.7-.8-7.841-.32-1.012-1.305-3.086-1.305-3.442s.612-16.313-.1-22.486a56.608,56.608,0,0,0-2.731-11.632s-2.848-18.635-2.848-19.347.475-9.377-2.611-13.53-8.546-4.987-11.87-5.817a46.961,46.961,0,0,1-7.478-2.492c-.593-.357-.712-8.191-.712-8.191Z" transform="translate(-58.81 -29.905)" fill="#fff"/>
        <path id="Trazado_835890" data-name="Trazado 835890" d="M382.7,194.782s.475,6.884.119,8.072-4.51,1.3-5.223,1.067-5.578-1.187-7.952,0-5.461,6.41-6.054,7.478a13.937,13.937,0,0,1-2.374,2.611s-4.273-16.5-4.273-17.8a17.166,17.166,0,0,0-1.9-10.327c-2.73-5.1-4.866-8.427-6.884-9.969s-4.035-1.662-4.155-.475.831,1.9,1.543,2.729a38.939,38.939,0,0,1,2.493,4.51s-4.392,7.241-4.51,8.9-.356,2.018.83,3.323,5.223,3.323,5.223,3.323a59.428,59.428,0,0,0,.593,10.564c.831,4.986-1.305,12.107,1.78,18.28s7.478,7.6,8.191,7,8.428-5.936,8.428-5.936.949,11.87,1.068,12.345-.594,3.917,0,5.222,2.611,3.918,13.531,4.511,18.042-.831,18.635-1.78.356-2.611.356-3.443,1.781-13.53,1.781-13.53,3.917,9.376,4.392,10.682,1.425,4.866,1.425,4.866-.356,9.14,1.187,13.294,3.323,8.19,3.323,8.19l2.118,13.583a8.759,8.759,0,0,0-.95,4.036c.238,1.662.676,5.585.676,6.178s0,2.374.95,2.611,1.781-2.255,1.781-2.255a52.248,52.248,0,0,1,.474,5.341c-.118.712,1.11,2.944,2.137.593.384-.877.713-2.374.95-2.848a23.877,23.877,0,0,0,1.781-4.748c.356-1.78.515-3.7-.8-7.841-.32-1.012-1.305-3.086-1.305-3.442s.612-16.313-.1-22.486a56.608,56.608,0,0,0-2.731-11.632s-2.848-18.635-2.848-19.347.475-9.377-2.611-13.53-8.546-4.987-11.87-5.817a46.961,46.961,0,0,1-7.478-2.492c-.593-.357-.712-8.191-.712-8.191Z" transform="translate(-58.81 -29.905)" fill="none" stroke="#263238" stroke-miterlimit="10" stroke-width="1"/>
        <path id="Trazado_835891" data-name="Trazado 835891" d="M366.595,236.243c2.468-1.735,5.66-3.945,5.66-3.945s.95,11.869,1.068,12.344-.593,3.917,0,5.223,2.611,3.917,13.531,4.51,18.042-.831,18.635-1.78.356-2.611.356-3.443,1.78-13.531,1.78-13.531,3.165,7.577,4.15,10.055a26.137,26.137,0,0,0,10.046-3.288c-.8-5.3-1.733-11.583-1.733-11.99,0-.712.475-9.377-2.611-13.531s-8.546-4.986-11.87-5.816a46.843,46.843,0,0,1-7.478-2.493c-.593-.356-.712-8.19-.712-8.19l-11.039-1.425s.475,6.885.119,8.071-4.511,1.306-5.223,1.068-5.579-1.187-7.953,0-5.46,6.41-6.054,7.478a13.966,13.966,0,0,1-2.374,2.611s3.561,4.748,3.442,9.852a20.941,20.941,0,0,1-1.742,8.218" transform="translate(-62.485 -34.068)" fill="#fff"/>
        <path id="Trazado_835892" data-name="Trazado 835892" d="M366.595,236.243c2.468-1.735,5.66-3.945,5.66-3.945s.95,11.869,1.068,12.344-.593,3.917,0,5.223,2.611,3.917,13.531,4.51,18.042-.831,18.635-1.78.356-2.611.356-3.443,1.78-13.531,1.78-13.531,3.165,7.577,4.15,10.055a26.137,26.137,0,0,0,10.046-3.288c-.8-5.3-1.733-11.583-1.733-11.99,0-.712.475-9.377-2.611-13.531s-8.546-4.986-11.87-5.816a46.843,46.843,0,0,1-7.478-2.493c-.593-.356-.712-8.19-.712-8.19l-11.039-1.425s.475,6.885.119,8.071-4.511,1.306-5.223,1.068-5.579-1.187-7.953,0-5.46,6.41-6.054,7.478a13.966,13.966,0,0,1-2.374,2.611s3.561,4.748,3.442,9.852A20.941,20.941,0,0,1,366.595,236.243Z" transform="translate(-62.485 -34.068)" fill="none" stroke="#263238" stroke-miterlimit="10" stroke-width="1"/>
        <path id="Trazado_835893" data-name="Trazado 835893" d="M407.9,210.746a43.016,43.016,0,0,1-6.318-2.186c-.593-.356-.712-8.191-.712-8.191l-11.039-1.424s.475,6.884.119,8.071c-.322,1.071-3.729,1.271-4.915,1.125.037,2.635.915,8.651,8,10.032,6.093,1.187,11.761-3.9,14.865-7.428" transform="translate(-65.933 -34.068)" fill="#fff"/>
        <path id="Trazado_835894" data-name="Trazado 835894" d="M407.9,210.746a43.016,43.016,0,0,1-6.318-2.186c-.593-.356-.712-8.191-.712-8.191l-11.039-1.424s.475,6.884.119,8.071c-.322,1.071-3.729,1.271-4.915,1.125.037,2.635.915,8.651,8,10.032C399.125,219.361,404.793,214.271,407.9,210.746Z" transform="translate(-65.933 -34.068)" fill="none" stroke="#263238" stroke-miterlimit="10" stroke-width="1"/>
        <path id="Trazado_835895" data-name="Trazado 835895" d="M396.041,203.455l-4.7.322-.522-4.832Z" transform="translate(-66.924 -34.068)" fill="#263238"/>
        <path id="Trazado_835896" data-name="Trazado 835896" d="M396.041,203.455l-4.7.322-.522-4.832Z" transform="translate(-66.924 -34.068)" fill="none" stroke="#263238" stroke-miterlimit="10" stroke-width="1"/>
        <path id="Trazado_835897" data-name="Trazado 835897" d="M394.236,222.147S391.743,232,392.1,234.61" transform="translate(-67.138 -38.041)" fill="none" stroke="#263238" stroke-miterlimit="10" stroke-width="1"/>
        <path id="Trazado_835898" data-name="Trazado 835898" d="M374.527,223.923a19.481,19.481,0,0,1,1.276-2.493" transform="translate(-64.135 -37.918)" fill="none" stroke="#263238" stroke-miterlimit="10" stroke-width="1"/>
        <path id="Trazado_835899" data-name="Trazado 835899" d="M373.6,236.968a14.575,14.575,0,0,1-.831-6.528,15.812,15.812,0,0,1,.882-4.223" transform="translate(-63.827 -38.738)" fill="none" stroke="#263238" stroke-miterlimit="10" stroke-width="1"/>
        <line id="Línea_909" data-name="Línea 909" y1="7.93" x2="1.386" transform="translate(345.14 193.624)" fill="none" stroke="#263238" stroke-miterlimit="10" stroke-width="1"/>
        <path id="Trazado_835900" data-name="Trazado 835900" d="M394.442,170.73l-7.6,5.223s-.238,3.085-.238,6.41-.95,6.172.713,9.258,5.222,7,7.953,7a15.316,15.316,0,0,0,8.308-3.2,11.79,11.79,0,0,0,3.2-4.866s2.968-1.187,2.73-3.086-.593-3.2-1.068-3.323-1.543-.356-1.543-.356l-1.543-6.41s-8.783-3.679-10.92-6.647" transform="translate(-66.157 -29.236)" fill="#fff"/>
        <path id="Trazado_835901" data-name="Trazado 835901" d="M394.442,170.73l-7.6,5.223s-.238,3.085-.238,6.41-.95,6.172.713,9.258,5.222,7,7.953,7a15.316,15.316,0,0,0,8.308-3.2,11.79,11.79,0,0,0,3.2-4.866s2.968-1.187,2.73-3.086-.593-3.2-1.068-3.323-1.543-.356-1.543-.356l-1.543-6.41S396.579,173.7,394.442,170.73Z" transform="translate(-66.157 -29.236)" fill="none" stroke="#263238" stroke-miterlimit="10" stroke-width="1"/>
        <path id="Trazado_835902" data-name="Trazado 835902" d="M396.605,180.326v1.78s-2.611,2.137-1.543,2.968a1.834,1.834,0,0,0,2.137.237" transform="translate(-67.607 -30.879)" fill="none" stroke="#263238" stroke-miterlimit="10" stroke-width="1"/>
        <path id="Trazado_835903" data-name="Trazado 835903" d="M393.253,191.018s2.848,3.086,7.122-.237" transform="translate(-67.341 -32.67)" fill="none" stroke="#263238" stroke-miterlimit="10" stroke-width="1"/>
        <path id="Trazado_835904" data-name="Trazado 835904" d="M389.816,178.826a4.832,4.832,0,0,1,4.51-.831" transform="translate(-66.753 -30.448)" fill="none" stroke="#263238" stroke-miterlimit="10" stroke-width="1"/>
        <path id="Trazado_835905" data-name="Trazado 835905" d="M399.555,177.823a4.572,4.572,0,0,1,4.866.95" transform="translate(-68.421 -30.395)" fill="none" stroke="#263238" stroke-miterlimit="10" stroke-width="1"/>
        <path id="Trazado_835906" data-name="Trazado 835906" d="M393.389,181.621c0,.557-.319,1.009-.712,1.009s-.713-.452-.713-1.009.319-1.009.713-1.009.712.452.712,1.009" transform="translate(-67.121 -30.928)" fill="#263238"/>
        <path id="Trazado_835907" data-name="Trazado 835907" d="M403.128,181.621c0,.557-.319,1.009-.712,1.009s-.713-.452-.713-1.009.319-1.009.713-1.009.712.452.712,1.009" transform="translate(-68.788 -30.928)" fill="#263238"/>
        <path id="Trazado_835908" data-name="Trazado 835908" d="M386.006,186.553s-2.375-1.306-2.494,1.068a5.777,5.777,0,0,0,2.018,4.155Z" transform="translate(-65.673 -31.884)" fill="#fff"/>
        <path id="Trazado_835909" data-name="Trazado 835909" d="M386.006,186.553s-2.375-1.306-2.494,1.068a5.777,5.777,0,0,0,2.018,4.155Z" transform="translate(-65.673 -31.884)" fill="none" stroke="#263238" stroke-miterlimit="10" stroke-width="1"/>
        <path id="Trazado_835910" data-name="Trazado 835910" d="M348.245,184.312a2.852,2.852,0,0,0-3.332,1.321c-1.007,2.014.671,4.14,1.9,4.923s2.238.559,2.35-.9-1.343-3.356-1.343-3.356Z" transform="translate(-59.011 -31.542)" fill="#fff"/>
        <path id="Trazado_835911" data-name="Trazado 835911" d="M348.245,184.312a2.852,2.852,0,0,0-3.332,1.321c-1.007,2.014.671,4.14,1.9,4.923s2.238.559,2.35-.9-1.343-3.356-1.343-3.356Z" transform="translate(-59.011 -31.542)" fill="none" stroke="#263238" stroke-miterlimit="10" stroke-width="1"/>
        <path id="Trazado_835912" data-name="Trazado 835912" d="M344.041,187.55s-2.126,1.678-1.9,3.021,2.8,3.133,4.14,3.021.9-1.9.9-1.9-2.573-2.461-3.133-4.14" transform="translate(-58.586 -32.116)" fill="#fff"/>
        <path id="Trazado_835913" data-name="Trazado 835913" d="M344.041,187.55s-2.126,1.678-1.9,3.021,2.8,3.133,4.14,3.021.9-1.9.9-1.9S344.6,189.228,344.041,187.55Z" transform="translate(-58.586 -32.116)" fill="none" stroke="#263238" stroke-miterlimit="10" stroke-width="1"/>
        <path id="Trazado_835914" data-name="Trazado 835914" d="M342.736,192.95s-1.678,1.231-.783,2.8,3.245,2.014,4.028,1.119a2.577,2.577,0,0,0,.224-2.35s-3.356-.783-3.468-1.566" transform="translate(-58.512 -33.041)" fill="#fff"/>
        <path id="Trazado_835915" data-name="Trazado 835915" d="M342.736,192.95s-1.678,1.231-.783,2.8,3.245,2.014,4.028,1.119a2.577,2.577,0,0,0,.224-2.35S342.848,193.733,342.736,192.95Z" transform="translate(-58.512 -33.041)" fill="none" stroke="#263238" stroke-miterlimit="10" stroke-width="1"/>
        <path id="Trazado_835916" data-name="Trazado 835916" d="M354.646,195.751a7.382,7.382,0,0,1-.9-3.8c.112-2.126,2.014-4.811,2.014-4.811a11.253,11.253,0,0,1-.559-1.79c-.224-1.007-1.566-4.7-.336-6.265s2.238,1.007,3.021,3.356,1.343,3.58,1.343,3.58a11,11,0,0,1,.448,4.811c-.448,2.126-1.678,5.93-1.678,5.93" transform="translate(-60.576 -30.584)" fill="#fff"/>
        <path id="Trazado_835917" data-name="Trazado 835917" d="M354.646,195.751a7.382,7.382,0,0,1-.9-3.8c.112-2.126,2.014-4.811,2.014-4.811a11.253,11.253,0,0,1-.559-1.79c-.224-1.007-1.566-4.7-.336-6.265s2.238,1.007,3.021,3.356,1.343,3.58,1.343,3.58a11,11,0,0,1,.448,4.811c-.448,2.126-1.678,5.93-1.678,5.93" transform="translate(-60.576 -30.584)" fill="none" stroke="#263238" stroke-miterlimit="10" stroke-width="1"/>
      </g>
    </g>
    <path id="Trazado_835918" data-name="Trazado 835918" d="M234.109,330.9h0Z" transform="translate(-40.089 -56.665)" fill="#fff"/>
    <line id="Línea_910" data-name="Línea 910" x2="65.819" transform="translate(194.02 274.238)" fill="none" stroke="#263238" stroke-miterlimit="10" stroke-width="1"/>
    <rect id="Rectángulo_385412" data-name="Rectángulo 385412" width="4.411" height="4.411" transform="translate(186 271.425)" fill="#33ece0"/>
    <path id="Trazado_835919" data-name="Trazado 835919" d="M234.109,342.515h0Z" transform="translate(-40.089 -58.653)" fill="#fff"/>
    <line id="Línea_911" data-name="Línea 911" x2="65.819" transform="translate(194.02 283.862)" fill="none" stroke="#263238" stroke-miterlimit="10" stroke-width="1"/>
    <rect id="Rectángulo_385413" data-name="Rectángulo 385413" width="4.411" height="4.411" transform="translate(186 281.048)" fill="#33ece0"/>
    <path id="Trazado_835920" data-name="Trazado 835920" d="M234.109,354.126h0Z" transform="translate(-40.089 -60.641)" fill="#fff"/>
    <line id="Línea_912" data-name="Línea 912" x2="65.819" transform="translate(194.02 293.485)" fill="none" stroke="#263238" stroke-miterlimit="10" stroke-width="1"/>
    <rect id="Rectángulo_385414" data-name="Rectángulo 385414" width="4.411" height="4.411" transform="translate(186 290.672)" fill="#33ece0"/>
    <path id="Trazado_835921" data-name="Trazado 835921" d="M234.109,365.739h0Z" transform="translate(-40.089 -62.63)" fill="#fff"/>
    <line id="Línea_913" data-name="Línea 913" x2="65.819" transform="translate(194.02 303.109)" fill="none" stroke="#263238" stroke-miterlimit="10" stroke-width="1"/>
    <rect id="Rectángulo_385415" data-name="Rectángulo 385415" width="4.411" height="4.411" transform="translate(186 300.295)" fill="#33ece0"/>
    <rect id="Rectángulo_385416" data-name="Rectángulo 385416" width="161.605" height="100.239" transform="translate(135.173 220.689)" fill="none" stroke="#263238" stroke-miterlimit="10" stroke-width="1"/>
    <rect id="Rectángulo_385417" data-name="Rectángulo 385417" width="161.605" height="8.052" transform="translate(135.173 220.69)" fill="none" stroke="#263238" stroke-miterlimit="10" stroke-width="1"/>
    <line id="Línea_914" data-name="Línea 914" y2="90.766" transform="translate(177.509 229.306)" fill="none" stroke="#263238" stroke-miterlimit="10" stroke-width="1"/>
    <g id="Grupo_1018173" data-name="Grupo 1018173">
      <g id="Grupo_1018172" data-name="Grupo 1018172" clip-path="url(#clip-path)">
        <circle id="Elipse_5858" data-name="Elipse 5858" cx="13.95" cy="13.95" r="13.95" transform="translate(185.19 236.016)" fill="none" stroke="#263238" stroke-miterlimit="10" stroke-width="1"/>
        <circle id="Elipse_5859" data-name="Elipse 5859" cx="4.944" cy="4.944" r="4.944" transform="translate(194.197 243.433)" fill="none" stroke="#263238" stroke-miterlimit="10" stroke-width="1"/>
        <path id="Trazado_835922" data-name="Trazado 835922" d="M238.555,316.4a13.871,13.871,0,0,0,8.39-2.824,8.506,8.506,0,0,0-16.779,0A13.871,13.871,0,0,0,238.555,316.4Z" transform="translate(-39.414 -52.48)" fill="none" stroke="#263238" stroke-miterlimit="10" stroke-width="1"/>
        <circle id="Elipse_5860" data-name="Elipse 5860" cx="6.71" cy="6.71" r="6.71" transform="translate(149.961 242.237)" fill="none" stroke="#263238" stroke-miterlimit="10" stroke-width="1"/>
        <circle id="Elipse_5861" data-name="Elipse 5861" cx="2.379" cy="2.379" r="2.379" transform="matrix(0.23, -0.973, 0.973, 0.23, 153.81, 249.951)" fill="none" stroke="#263238" stroke-miterlimit="10" stroke-width="1"/>
        <path id="Trazado_835923" data-name="Trazado 835923" d="M188.21,307.5a6.672,6.672,0,0,0,4.035-1.358,4.091,4.091,0,0,0-8.07,0A6.671,6.671,0,0,0,188.21,307.5Z" transform="translate(-31.539 -51.839)" fill="none" stroke="#263238" stroke-miterlimit="10" stroke-width="1"/>
        <circle id="Elipse_5862" data-name="Elipse 5862" cx="6.71" cy="6.71" r="6.71" transform="translate(149.961 270.332)" fill="none" stroke="#263238" stroke-miterlimit="10" stroke-width="1"/>
        <circle id="Elipse_5863" data-name="Elipse 5863" cx="2.379" cy="2.379" r="2.379" transform="translate(154.293 273.9)" fill="none" stroke="#263238" stroke-miterlimit="10" stroke-width="1"/>
        <path id="Trazado_835924" data-name="Trazado 835924" d="M188.21,341.4a6.672,6.672,0,0,0,4.035-1.358,4.091,4.091,0,0,0-8.07,0A6.672,6.672,0,0,0,188.21,341.4Z" transform="translate(-31.539 -57.644)" fill="none" stroke="#263238" stroke-miterlimit="10" stroke-width="1"/>
        <circle id="Elipse_5864" data-name="Elipse 5864" cx="6.71" cy="6.71" r="6.71" transform="translate(149.961 298.428)" fill="none" stroke="#263238" stroke-miterlimit="10" stroke-width="1"/>
        <circle id="Elipse_5865" data-name="Elipse 5865" cx="2.379" cy="2.379" r="2.379" transform="translate(154.293 301.995)" fill="none" stroke="#263238" stroke-miterlimit="10" stroke-width="1"/>
        <path id="Trazado_835925" data-name="Trazado 835925" d="M188.21,375.3a6.672,6.672,0,0,0,4.035-1.358,4.091,4.091,0,0,0-8.07,0A6.672,6.672,0,0,0,188.21,375.3Z" transform="translate(-31.539 -63.449)" fill="none" stroke="#263238" stroke-miterlimit="10" stroke-width="1"/>
        <line id="Línea_915" data-name="Línea 915" x2="35.318" transform="translate(220.596 242.021)" fill="none" stroke="#263238" stroke-miterlimit="10" stroke-width="1"/>
        <line id="Línea_916" data-name="Línea 916" x2="35.318" transform="translate(220.596 250.144)" fill="none" stroke="#263238" stroke-miterlimit="10" stroke-width="1"/>
        <line id="Línea_917" data-name="Línea 917" x2="35.318" transform="translate(220.596 258.266)" fill="none" stroke="#263238" stroke-miterlimit="10" stroke-width="1"/>
      </g>
    </g>
    <rect id="Rectángulo_385419" data-name="Rectángulo 385419" width="111.061" height="163.72" transform="translate(188.398 28.762)" fill="none" stroke="#263238" stroke-miterlimit="10" stroke-width="1"/>
    <g id="Grupo_1018175" data-name="Grupo 1018175">
      <g id="Grupo_1018174" data-name="Grupo 1018174" clip-path="url(#clip-path)">
        <path id="Trazado_835926" data-name="Trazado 835926" d="M319.156,89.392a35.569,35.569,0,1,0-35.569,35.569,35.569,35.569,0,0,0,35.569-35.569" transform="translate(-42.471 -9.217)" fill="#fff"/>
        <circle id="Elipse_5866" data-name="Elipse 5866" cx="35.569" cy="35.569" r="35.569" transform="translate(205.548 44.606)" fill="none" stroke="#263238" stroke-miterlimit="10" stroke-width="1"/>
        <line id="Línea_918" data-name="Línea 918" x2="74.948" transform="translate(204.277 127.211)" fill="#fff"/>
        <line id="Línea_919" data-name="Línea 919" x2="74.948" transform="translate(204.277 127.211)" fill="none" stroke="#263238" stroke-miterlimit="10" stroke-width="1"/>
        <line id="Línea_920" data-name="Línea 920" x2="74.948" transform="translate(204.277 134.833)" fill="#fff"/>
        <line id="Línea_921" data-name="Línea 921" x2="74.948" transform="translate(204.277 134.833)" fill="none" stroke="#263238" stroke-miterlimit="10" stroke-width="1"/>
        <line id="Línea_922" data-name="Línea 922" x2="65.819" transform="translate(213.407 147.665)" fill="#fff"/>
        <line id="Línea_923" data-name="Línea 923" x2="65.819" transform="translate(213.407 147.665)" fill="none" stroke="#263238" stroke-miterlimit="10" stroke-width="1"/>
        <rect id="Rectángulo_385420" data-name="Rectángulo 385420" width="4.411" height="4.411" transform="translate(205.387 144.852)" fill="#33ece0"/>
        <line id="Línea_924" data-name="Línea 924" x2="65.819" transform="translate(213.407 157.288)" fill="#fff"/>
        <line id="Línea_925" data-name="Línea 925" x2="65.819" transform="translate(213.407 157.288)" fill="none" stroke="#263238" stroke-miterlimit="10" stroke-width="1"/>
        <rect id="Rectángulo_385421" data-name="Rectángulo 385421" width="4.411" height="4.411" transform="translate(205.387 154.475)" fill="#33ece0"/>
        <line id="Línea_926" data-name="Línea 926" x2="65.819" transform="translate(213.407 166.912)" fill="#fff"/>
        <line id="Línea_927" data-name="Línea 927" x2="65.819" transform="translate(213.407 166.912)" fill="none" stroke="#263238" stroke-miterlimit="10" stroke-width="1"/>
        <rect id="Rectángulo_385422" data-name="Rectángulo 385422" width="4.411" height="4.411" transform="translate(205.387 164.099)" fill="#33ece0"/>
        <line id="Línea_928" data-name="Línea 928" x2="65.819" transform="translate(213.407 176.536)" fill="#fff"/>
        <line id="Línea_929" data-name="Línea 929" x2="65.819" transform="translate(213.407 176.536)" fill="none" stroke="#263238" stroke-miterlimit="10" stroke-width="1"/>
        <rect id="Rectángulo_385423" data-name="Rectángulo 385423" width="4.411" height="4.411" transform="translate(205.387 173.723)" fill="#33ece0"/>
        <path id="Trazado_835927" data-name="Trazado 835927" d="M278.256,66.687A17.063,17.063,0,0,1,293.2,59.049c10.294.332,12.784,11.623,12.452,14.943a15.893,15.893,0,0,1-1.494,5.479l-4.483-3.819a30.963,30.963,0,0,1,7.009,10.824c2.49,6.642,1.293,15.243-1.861,17.236s-5.313,1.162-5.313,1.162l.331-4.483s-2.989,5.313-7.969,6.309-19.26,1.66-21.418-.83a12.272,12.272,0,0,1-2.656-5.312l-.332,4.316s-4.483-3.32-4.649-7.139,2.159-9.132,3.321-11.955,1.992-4.317,2.325-8.634-.166-6.641,2.823-9.464,6.973-1,6.973-1" transform="translate(-45.003 -10.11)" fill="#263238"/>
        <path id="Trazado_835928" data-name="Trazado 835928" d="M278.256,66.687A17.063,17.063,0,0,1,293.2,59.049c10.294.332,12.784,11.623,12.452,14.943a15.893,15.893,0,0,1-1.494,5.479l-4.483-3.819a30.963,30.963,0,0,1,7.009,10.824c2.49,6.642,1.293,15.243-1.861,17.236s-5.313,1.162-5.313,1.162l.331-4.483s-2.989,5.313-7.969,6.309-19.26,1.66-21.418-.83a12.272,12.272,0,0,1-2.656-5.312l-.332,4.316s-4.483-3.32-4.649-7.139,2.159-9.132,3.321-11.955,1.992-4.317,2.325-8.634-.166-6.641,2.823-9.464S278.256,66.687,278.256,66.687Z" transform="translate(-45.003 -10.11)" fill="none" stroke="#263238" stroke-linecap="round" stroke-linejoin="round" stroke-width="1"/>
        <path id="Trazado_835929" data-name="Trazado 835929" d="M270.969,120.163c-2.756,1.182-7.21,2.234-10.232,3.589a35.551,35.551,0,0,0,49.939.113,18.66,18.66,0,0,0-3.637-1.337c-5.322-1.479-12.875-5.8-13.762-7.276s-1.762-6.66-1.762-6.66l-12.286-1.66s.609,6.431.609,7.614-4.731,3.843-8.87,5.617" transform="translate(-44.649 -18.311)" fill="#fff"/>
        <path id="Trazado_835930" data-name="Trazado 835930" d="M270.969,120.163c-2.756,1.182-7.21,2.234-10.232,3.589a35.551,35.551,0,0,0,49.939.113,18.66,18.66,0,0,0-3.637-1.337c-5.322-1.479-12.875-5.8-13.762-7.276s-1.762-6.66-1.762-6.66l-12.286-1.66s.609,6.431.609,7.614S275.108,118.389,270.969,120.163Z" transform="translate(-44.649 -18.311)" fill="none" stroke="#263238" stroke-linecap="round" stroke-linejoin="round" stroke-width="1"/>
        <path id="Trazado_835931" data-name="Trazado 835931" d="M278.127,86.769s1-7.471,3.32-11.457,7.305-2.822,9.3-1.494,5.147,8.468,6.973,13.117,2.657,7.306,2.657,7.306-2.893,6.044-6.807,8.468c-4.178,2.587-8.716,2.483-12.286-1.661a19.044,19.044,0,0,1-2.989-4.815s-4.15-1.328-5.147-4.815-.167-5.312,1.5-5.81,3.487,1.162,3.487,1.162" transform="translate(-46.7 -12.427)" fill="#fff"/>
        <path id="Trazado_835932" data-name="Trazado 835932" d="M278.127,86.769s1-7.471,3.32-11.457,7.305-2.822,9.3-1.494,5.147,8.468,6.973,13.117,2.657,7.306,2.657,7.306-2.893,6.044-6.807,8.468c-4.178,2.587-8.716,2.483-12.286-1.661a19.044,19.044,0,0,1-2.989-4.815s-4.15-1.328-5.147-4.815-.167-5.312,1.5-5.81S278.127,86.769,278.127,86.769Z" transform="translate(-46.7 -12.427)" fill="none" stroke="#263238" stroke-linecap="round" stroke-linejoin="round" stroke-width="1"/>
        <path id="Trazado_835933" data-name="Trazado 835933" d="M294.665,86.7a7.413,7.413,0,0,0,1.162,4.317c1.328,1.827.167,3.819-2.158,3.321" transform="translate(-50.288 -14.846)" fill="none" stroke="#263238" stroke-linecap="round" stroke-linejoin="round" stroke-width="1"/>
        <path id="Trazado_835934" data-name="Trazado 835934" d="M294.558,98.971s-5.646,2.656-8.3-2.656" transform="translate(-49.019 -16.493)" fill="none" stroke="#263238" stroke-linecap="round" stroke-linejoin="round" stroke-width="1"/>
        <path id="Trazado_835935" data-name="Trazado 835935" d="M287.458,89.628c0,.733.3,1.328.664,1.328s.665-.6.665-1.328-.3-1.328-.665-1.328-.664.6-.664,1.328" transform="translate(-49.225 -15.121)" fill="#263238"/>
        <path id="Trazado_835936" data-name="Trazado 835936" d="M297.275,89.628c0,.733.3,1.328.664,1.328s.665-.6.665-1.328-.3-1.328-.665-1.328-.664.6-.664,1.328" transform="translate(-50.906 -15.121)" fill="#263238"/>
        <path id="Trazado_835937" data-name="Trazado 835937" d="M289.073,82.8a3,3,0,0,0-3.819.5" transform="translate(-48.847 -14.098)" fill="none" stroke="#263238" stroke-linecap="round" stroke-linejoin="round" stroke-width="1"/>
        <path id="Trazado_835938" data-name="Trazado 835938" d="M295.672,83.1a2.791,2.791,0,0,1,3.154-.664" transform="translate(-50.631 -14.074)" fill="none" stroke="#263238" stroke-linecap="round" stroke-linejoin="round" stroke-width="1"/>
        <path id="Trazado_835939" data-name="Trazado 835939" d="M299.174,121.711,286.3,133.917l-12.483-12.61c-.937.467-1.905.916-2.844,1.318-2.756,1.182-7.21,2.234-10.233,3.589a35.551,35.551,0,0,0,49.94.114,18.6,18.6,0,0,0-3.637-1.338,42.8,42.8,0,0,1-7.866-3.279" transform="translate(-44.649 -20.773)" fill="#33ece0"/>
        <path id="Trazado_835940" data-name="Trazado 835940" d="M299.174,121.711,286.3,133.917l-12.483-12.61c-.937.467-1.905.916-2.844,1.318-2.756,1.182-7.21,2.234-10.233,3.589a35.551,35.551,0,0,0,49.94.114,18.6,18.6,0,0,0-3.637-1.338A42.8,42.8,0,0,1,299.174,121.711Z" transform="translate(-44.649 -20.773)" fill="none" stroke="#263238" stroke-miterlimit="10" stroke-width="1"/>
      </g>
    </g>
    <rect id="Rectángulo_385425" data-name="Rectángulo 385425" width="111.061" height="163.72" transform="translate(60.485 28.762)" fill="none" stroke="#263238" stroke-miterlimit="10" stroke-width="1"/>
    <path id="Trazado_835941" data-name="Trazado 835941" d="M92.143,153.5h0Z" transform="translate(-15.779 -26.285)" fill="#fff"/>
    <line id="Línea_930" data-name="Línea 930" x2="74.949" transform="translate(76.364 127.211)" fill="none" stroke="#263238" stroke-miterlimit="10" stroke-width="1"/>
    <path id="Trazado_835942" data-name="Trazado 835942" d="M92.143,162.693h0Z" transform="translate(-15.779 -27.86)" fill="#fff"/>
    <line id="Línea_931" data-name="Línea 931" x2="74.949" transform="translate(76.364 134.833)" fill="none" stroke="#263238" stroke-miterlimit="10" stroke-width="1"/>
    <path id="Trazado_835943" data-name="Trazado 835943" d="M103.158,178.176h0Z" transform="translate(-17.665 -30.511)" fill="#fff"/>
    <line id="Línea_932" data-name="Línea 932" x2="65.819" transform="translate(85.493 147.665)" fill="none" stroke="#263238" stroke-miterlimit="10" stroke-width="1"/>
    <rect id="Rectángulo_385426" data-name="Rectángulo 385426" width="4.411" height="4.411" transform="translate(77.474 144.852)" fill="#33ece0"/>
    <path id="Trazado_835944" data-name="Trazado 835944" d="M103.158,189.788h0Z" transform="translate(-17.665 -32.5)" fill="#fff"/>
    <line id="Línea_933" data-name="Línea 933" x2="65.819" transform="translate(85.493 157.288)" fill="none" stroke="#263238" stroke-miterlimit="10" stroke-width="1"/>
    <rect id="Rectángulo_385427" data-name="Rectángulo 385427" width="4.411" height="4.411" transform="translate(77.474 154.475)" fill="#33ece0"/>
    <path id="Trazado_835945" data-name="Trazado 835945" d="M103.158,201.4h0Z" transform="translate(-17.665 -34.488)" fill="#fff"/>
    <line id="Línea_934" data-name="Línea 934" x2="65.819" transform="translate(85.493 166.912)" fill="none" stroke="#263238" stroke-miterlimit="10" stroke-width="1"/>
    <rect id="Rectángulo_385428" data-name="Rectángulo 385428" width="4.411" height="4.411" transform="translate(77.474 164.099)" fill="#33ece0"/>
    <path id="Trazado_835946" data-name="Trazado 835946" d="M103.158,213.012h0Z" transform="translate(-17.665 -36.477)" fill="#fff"/>
    <line id="Línea_935" data-name="Línea 935" x2="65.819" transform="translate(85.493 176.536)" fill="none" stroke="#263238" stroke-miterlimit="10" stroke-width="1"/>
    <rect id="Rectángulo_385429" data-name="Rectángulo 385429" width="4.411" height="4.411" transform="translate(77.474 173.723)" fill="#33ece0"/>
    <g id="Grupo_1018177" data-name="Grupo 1018177">
      <g id="Grupo_1018176" data-name="Grupo 1018176" clip-path="url(#clip-path)">
        <path id="Trazado_835947" data-name="Trazado 835947" d="M164.813,89.392a35.569,35.569,0,1,0-35.569,35.569,35.569,35.569,0,0,0,35.569-35.569" transform="translate(-16.041 -9.217)" fill="#fff"/>
        <circle id="Elipse_5867" data-name="Elipse 5867" cx="35.569" cy="35.569" r="35.569" transform="translate(77.634 44.606)" fill="none" stroke="#263238" stroke-miterlimit="10" stroke-width="1"/>
        <path id="Trazado_835948" data-name="Trazado 835948" d="M112.423,115.334l-8.865,7.092a35.552,35.552,0,0,0,54.3.525l-13.481-8.792Z" transform="translate(-17.733 -19.549)" fill="#263238"/>
        <path id="Trazado_835949" data-name="Trazado 835949" d="M112.423,115.334l-8.865,7.092a35.552,35.552,0,0,0,54.3.525l-13.481-8.792Z" transform="translate(-17.733 -19.549)" fill="none" stroke="#263238" stroke-linecap="round" stroke-linejoin="round" stroke-width="1"/>
        <path id="Trazado_835950" data-name="Trazado 835950" d="M125.044,103.368s-7.821,1.014-9.994,4.2-3.766,6.228-2.172,8.111a57.477,57.477,0,0,0,8.69,7.676c2.607,1.739,6.674,7.683,6.674,7.683a71.727,71.727,0,0,0,.568-7.538c0-3.187-2.752-6.662-3.332-9.559s4.2-7.532,7.532-6.083,5.938,5.793,5.794,7.821.579,4.49,1.3,7.966,1.3,6.453,1.3,6.453,4.924-5,6.517-10.364.869-10.863-5.07-14.483-17.815-1.883-17.815-1.883" transform="translate(-19.219 -17.63)" fill="#33ece0"/>
        <path id="Trazado_835951" data-name="Trazado 835951" d="M125.044,103.368s-7.821,1.014-9.994,4.2-3.766,6.228-2.172,8.111a57.477,57.477,0,0,0,8.69,7.676c2.607,1.739,6.674,7.683,6.674,7.683a71.727,71.727,0,0,0,.568-7.538c0-3.187-2.752-6.662-3.332-9.559s4.2-7.532,7.532-6.083,5.938,5.793,5.794,7.821.579,4.49,1.3,7.966,1.3,6.453,1.3,6.453,4.924-5,6.517-10.364.869-10.863-5.07-14.483S125.044,103.368,125.044,103.368Z" transform="translate(-19.219 -17.63)" fill="none" stroke="#263238" stroke-linecap="round" stroke-linejoin="round" stroke-width="1"/>
        <path id="Trazado_835952" data-name="Trazado 835952" d="M145.831,107.236a14.061,14.061,0,0,0-2.56-1.986c-5.939-3.621-17.815-1.882-17.815-1.882s-7.822,1.014-9.994,4.2c-.253.371-.5.74-.73,1.106a7.827,7.827,0,0,0,1.309,5.557c3.245,5.169,9.979,7.643,13.171,9.081-.1-3.135-2.754-6.531-3.322-9.371-.579-2.9,4.2-7.531,7.532-6.083s5.938,5.794,5.793,7.822.579,4.489,1.3,7.965c.042.2.084.411.124.626.246-.237.495-.491.745-.77a18.852,18.852,0,0,0,4.924-12.891,12.176,12.176,0,0,0-.482-3.374" transform="translate(-19.631 -17.629)" fill="#fff"/>
        <path id="Trazado_835953" data-name="Trazado 835953" d="M145.831,107.236a14.061,14.061,0,0,0-2.56-1.986c-5.939-3.621-17.815-1.882-17.815-1.882s-7.822,1.014-9.994,4.2c-.253.371-.5.74-.73,1.106a7.827,7.827,0,0,0,1.309,5.557c3.245,5.169,9.979,7.643,13.171,9.081-.1-3.135-2.754-6.531-3.322-9.371-.579-2.9,4.2-7.531,7.532-6.083s5.938,5.794,5.793,7.822.579,4.489,1.3,7.965c.042.2.084.411.124.626.246-.237.495-.491.745-.77a18.852,18.852,0,0,0,4.924-12.891A12.176,12.176,0,0,0,145.831,107.236Z" transform="translate(-19.631 -17.629)" fill="none" stroke="#263238" stroke-linecap="round" stroke-linejoin="round" stroke-width="1"/>
        <path id="Trazado_835954" data-name="Trazado 835954" d="M126.118,96.638s.869,10.428,1.159,13.325,1.883,10.284,6.807,11.732,7.821-4.2,7.1-8.4-2.028-8.111-2.028-9.559a7.21,7.21,0,0,0-.145-1.883Z" transform="translate(-21.597 -16.548)" fill="#fff"/>
        <path id="Trazado_835955" data-name="Trazado 835955" d="M126.118,96.638s.869,10.428,1.159,13.325,1.883,10.284,6.807,11.732,7.821-4.2,7.1-8.4-2.028-8.111-2.028-9.559a7.21,7.21,0,0,0-.145-1.883Z" transform="translate(-21.597 -16.548)" fill="none" stroke="#263238" stroke-linecap="round" stroke-linejoin="round" stroke-width="1"/>
        <path id="Trazado_835956" data-name="Trazado 835956" d="M139.008,101.852l-12.89-5.215s.661,7.935,1.023,11.884l12.01-5.066a6.626,6.626,0,0,0-.142-1.6" transform="translate(-21.597 -16.548)" fill="#263238"/>
        <path id="Trazado_835957" data-name="Trazado 835957" d="M139.008,101.852l-12.89-5.215s.661,7.935,1.023,11.884l12.01-5.066A6.626,6.626,0,0,0,139.008,101.852Z" transform="translate(-21.597 -16.548)" fill="none" stroke="#263238" stroke-linecap="round" stroke-linejoin="round" stroke-width="1"/>
        <path id="Trazado_835958" data-name="Trazado 835958" d="M140.3,72.162s2.315,12.731,2.315,15.046-2.122,9.067-3.087,10.61-5.786,2.507-7.716,1.735-7.33-5.786-8.486-7.909a15.97,15.97,0,0,1-1.543-4.05s-2.7,1.157-4.823-1.929-.965-5.98,1.157-6.173l1.929.578s-3.472-5.979-2.315-8.68,15.045-3.665,17.938-3.665,4.63,4.436,4.63,4.436" transform="translate(-19.836 -11.598)" fill="#fff"/>
        <path id="Trazado_835959" data-name="Trazado 835959" d="M140.3,72.162s2.315,12.731,2.315,15.046-2.122,9.067-3.087,10.61-5.786,2.507-7.716,1.735-7.33-5.786-8.486-7.909a15.97,15.97,0,0,1-1.543-4.05s-2.7,1.157-4.823-1.929-.965-5.98,1.157-6.173l1.929.578s-3.472-5.979-2.315-8.68,15.045-3.665,17.938-3.665S140.3,72.162,140.3,72.162Z" transform="translate(-19.836 -11.598)" fill="none" stroke="#263238" stroke-linecap="round" stroke-linejoin="round" stroke-width="1"/>
        <path id="Trazado_835960" data-name="Trazado 835960" d="M131.89,76.846l-3.076,1.363a.838.838,0,0,0-.395,1.172l.114.206a.838.838,0,0,0,1.126.336l2.963-1.569a.838.838,0,0,0-.732-1.508" transform="translate(-21.973 -13.147)" fill="#263238"/>
        <path id="Trazado_835961" data-name="Trazado 835961" d="M131.89,76.846l-3.076,1.363a.838.838,0,0,0-.395,1.172l.114.206a.838.838,0,0,0,1.126.336l2.963-1.569a.838.838,0,0,0-.732-1.508Z" transform="translate(-21.973 -13.147)" fill="none" stroke="#263238" stroke-linecap="round" stroke-linejoin="round" stroke-width="1"/>
        <path id="Trazado_835962" data-name="Trazado 835962" d="M139.518,75.946,139.5,76a.681.681,0,0,0,.507.843l2.372.535a.68.68,0,0,0,.315-1.324l-2.357-.59a.681.681,0,0,0-.822.482" transform="translate(-23.885 -12.919)" fill="#263238"/>
        <path id="Trazado_835963" data-name="Trazado 835963" d="M139.518,75.946,139.5,76a.681.681,0,0,0,.507.843l2.372.535a.68.68,0,0,0,.315-1.324l-2.357-.59A.681.681,0,0,0,139.518,75.946Z" transform="translate(-23.885 -12.919)" fill="none" stroke="#263238" stroke-linecap="round" stroke-linejoin="round" stroke-width="1"/>
        <path id="Trazado_835964" data-name="Trazado 835964" d="M143.972,95.094s-.377-4.4-1.257-5.028-7.416-.126-7.416-.126-6.662-1.885-6.788-.377c-.092,1.106.2,6.994.48,9.75a22.51,22.51,0,0,0,4.989,3.881c1.929.772,6.752-.193,7.717-1.736a32.724,32.724,0,0,0,2.28-6.336l0-.027m-1.508.754c-.754,2.514-2.388,4.023-3.143,3.646s-1.382-2.766-2.011-3.018-1.131,1.006-1.885,2.137a2.813,2.813,0,0,1-3.645.754c-.88-.754-1.886-7.668-1.886-8.548s9.177.5,9.177.5a17.772,17.772,0,0,1,2.891-.126c.629.126,1.257,2.137.5,4.651" transform="translate(-22.003 -15.237)" fill="#818181"/>
        <path id="Trazado_835965" data-name="Trazado 835965" d="M143.972,95.094s-.377-4.4-1.257-5.028-7.416-.126-7.416-.126-6.662-1.885-6.788-.377c-.092,1.106.2,6.994.48,9.75a22.51,22.51,0,0,0,4.989,3.881c1.929.772,6.752-.193,7.717-1.736a32.724,32.724,0,0,0,2.28-6.336Zm-1.508.754c-.754,2.514-2.388,4.023-3.143,3.646s-1.382-2.766-2.011-3.018-1.131,1.006-1.885,2.137a2.813,2.813,0,0,1-3.645.754c-.88-.754-1.886-7.668-1.886-8.548s9.177.5,9.177.5a17.772,17.772,0,0,1,2.891-.126C142.589,91.323,143.218,93.334,142.463,95.848Z" transform="translate(-22.003 -15.237)" fill="none" stroke="#545454" stroke-linecap="round" stroke-linejoin="round" stroke-width="1"/>
        <path id="Trazado_835966" data-name="Trazado 835966" d="M132,91.959s3.646,2.514,7.543,1.634" transform="translate(-22.604 -15.747)" fill="none" stroke="#263238" stroke-linecap="round" stroke-linejoin="round" stroke-width="1"/>
        <path id="Trazado_835967" data-name="Trazado 835967" d="M138.131,79.218s1.759,7.668,1.885,8.3-1.257,2.64-2.766,1.508a4.414,4.414,0,0,1-1.759-2.263" transform="translate(-23.202 -13.565)" fill="#fff"/>
        <path id="Trazado_835968" data-name="Trazado 835968" d="M138.131,79.218s1.759,7.668,1.885,8.3-1.257,2.64-2.766,1.508a4.414,4.414,0,0,1-1.759-2.263" transform="translate(-23.202 -13.565)" fill="none" stroke="#263238" stroke-linecap="round" stroke-linejoin="round" stroke-width="1"/>
        <path id="Trazado_835969" data-name="Trazado 835969" d="M133.7,83.5c.2.664.125,1.276-.173,1.367s-.705-.373-.908-1.037-.126-1.276.173-1.367.705.373.908,1.037" transform="translate(-22.69 -14.12)" fill="#263238"/>
        <path id="Trazado_835970" data-name="Trazado 835970" d="M142.683,82.232c.079.69-.108,1.278-.418,1.314s-.627-.494-.706-1.183.106-1.278.416-1.314.627.494.708,1.183" transform="translate(-24.238 -13.879)" fill="#263238"/>
        <path id="Trazado_835971" data-name="Trazado 835971" d="M116.462,61.918s-5.016,5.016-3.086,9.26,6.751,12.153,6.751,12.153h.965l-.193-3.279s3.086-1.158,2.508-3.858a11.917,11.917,0,0,0-1.929-4.437,10.489,10.489,0,0,0,7.137,1.929c3.858-.579,5.593-5.209,6.944-3.666s3.472,2.508,7.523.386,6.635-9.309,2.2-12.2-8.564-.336-10.878.242-4.051-3.279-9.259-1.736a21.707,21.707,0,0,0-8.68,5.208" transform="translate(-19.339 -9.648)" fill="#263238"/>
        <path id="Trazado_835972" data-name="Trazado 835972" d="M116.462,61.918s-5.016,5.016-3.086,9.26,6.751,12.153,6.751,12.153h.965l-.193-3.279s3.086-1.158,2.508-3.858a11.917,11.917,0,0,0-1.929-4.437,10.489,10.489,0,0,0,7.137,1.929c3.858-.579,5.593-5.209,6.944-3.666s3.472,2.508,7.523.386,6.635-9.309,2.2-12.2-8.564-.336-10.878.242-4.051-3.279-9.259-1.736A21.707,21.707,0,0,0,116.462,61.918Z" transform="translate(-19.339 -9.648)" fill="none" stroke="#263238" stroke-linecap="round" stroke-linejoin="round" stroke-width="1"/>
      </g>
    </g>
    <g id="Grupo_1018179" data-name="Grupo 1018179">
      <g id="Grupo_1018178" data-name="Grupo 1018178" clip-path="url(#clip-path)">
        <circle id="Elipse_5868" data-name="Elipse 5868" cx="12.099" cy="12.099" r="12.099" transform="translate(130.768 146.867) rotate(-16.845)" fill="none" stroke="#263238" stroke-miterlimit="10" stroke-width="2"/>
        <line id="Línea_936" data-name="Línea 936" x2="13.067" y2="17.422" transform="translate(152.63 165.587)" fill="none" stroke="#263238" stroke-miterlimit="10" stroke-width="3"/>
        <path id="Trazado_835973" data-name="Trazado 835973" d="M153.33,174.745a15.036,15.036,0,0,1,.678,4.882c-.136,2.441.136,5.966.814,6.509s2.577,1.9,2.034,2.983a4.011,4.011,0,0,1-1.763,1.628,26.072,26.072,0,0,1-2.034,6.1c-1.357,2.577-2.306,4.339-3.932,4.475a5.84,5.84,0,0,1-2.577-.272l-1.763,1.764-13.425-2.848.406-5.966s-4.068-6.916-4.068-13.968,7.187-11.119,11.39-11.39,12.069,1.492,14.239,6.1" transform="translate(-21.868 -28.874)" fill="#fff"/>
        <path id="Trazado_835974" data-name="Trazado 835974" d="M153.33,174.745a15.036,15.036,0,0,1,.678,4.882c-.136,2.441.136,5.966.814,6.509s2.577,1.9,2.034,2.983a4.011,4.011,0,0,1-1.763,1.628,26.072,26.072,0,0,1-2.034,6.1c-1.357,2.577-2.306,4.339-3.932,4.475a5.84,5.84,0,0,1-2.577-.272l-1.763,1.764-13.425-2.848.406-5.966s-4.068-6.916-4.068-13.968,7.187-11.119,11.39-11.39S151.161,170.134,153.33,174.745Z" transform="translate(-21.868 -28.874)" fill="none" stroke="#263238" stroke-miterlimit="10" stroke-width="1"/>
        <path id="Trazado_835975" data-name="Trazado 835975" d="M156.344,170.182a5.818,5.818,0,0,1-1.085,3.8c-1.356,2.035-5.017,2.713-5.017,2.713s-.136,2.984-.95,4.2a8.307,8.307,0,0,1-2.712,2.17s-2.713.272-1.9,3.255,1.492,3.39.136,5.831-9.357,5.7-12.069,3.8S128,193.1,126.375,187.4s-3.255-13.7,1.356-19.121,15.052-4.068,15.052-4.068-2.712-2.577,1.085-2.441a10.122,10.122,0,0,1,6.374,2.848s.407-2.712,2.441-2.034,3.39,6.1,3.661,7.594" transform="translate(-21.356 -27.702)" fill="#263238"/>
        <path id="Trazado_835976" data-name="Trazado 835976" d="M156.344,170.182a5.818,5.818,0,0,1-1.085,3.8c-1.356,2.035-5.017,2.713-5.017,2.713s-.136,2.984-.95,4.2a8.307,8.307,0,0,1-2.712,2.17s-2.713.272-1.9,3.255,1.492,3.39.136,5.831-9.357,5.7-12.069,3.8S128,193.1,126.375,187.4s-3.255-13.7,1.356-19.121,15.052-4.068,15.052-4.068-2.712-2.577,1.085-2.441a10.122,10.122,0,0,1,6.374,2.848s.407-2.712,2.441-2.034S156.073,168.69,156.344,170.182Z" transform="translate(-21.356 -27.702)" fill="none" stroke="#263238" stroke-miterlimit="10" stroke-width="1"/>
        <path id="Trazado_835977" data-name="Trazado 835977" d="M151.422,189.283s-2.306-4.339-4.068-2.713,0,10.306,2.984,8.679" transform="translate(-25.113 -31.886)" fill="#fff"/>
        <path id="Trazado_835978" data-name="Trazado 835978" d="M151.422,189.283s-2.306-4.339-4.068-2.713,0,10.306,2.984,8.679" transform="translate(-25.113 -31.886)" fill="none" stroke="#263238" stroke-miterlimit="10" stroke-width="1"/>
        <line id="Línea_937" data-name="Línea 937" x2="10.984" transform="translate(125.224 155.363)" fill="none" stroke="#263238" stroke-miterlimit="10" stroke-width="1"/>
        <path id="Trazado_835979" data-name="Trazado 835979" d="M158.883,184.137a3.51,3.51,0,0,1,2.252-.157,3.423,3.423,0,0,1,2.461,2.533,3.466,3.466,0,0,1-1.3,3.585" transform="translate(-27.207 -31.485)" fill="none" stroke="#263238" stroke-miterlimit="10" stroke-width="1"/>
        <path id="Trazado_835980" data-name="Trazado 835980" d="M146.808,212.542s0-3.031-3.978-5.3-11.932-5.3-15.532-4.925-5.682,5.493-5.682,5.493,14.206,1.326,17.615,2.084a46.812,46.812,0,0,1,7.577,2.652" transform="translate(-20.826 -34.639)" fill="#fff"/>
        <path id="Trazado_835981" data-name="Trazado 835981" d="M146.808,212.542s0-3.031-3.978-5.3-11.932-5.3-15.532-4.925-5.682,5.493-5.682,5.493,14.206,1.326,17.615,2.084A46.812,46.812,0,0,1,146.808,212.542Z" transform="translate(-20.826 -34.639)" fill="none" stroke="#263238" stroke-miterlimit="10" stroke-width="1"/>
        <path id="Trazado_835982" data-name="Trazado 835982" d="M73.729,238.431s-4.546,5.3-10.607,12.88-10.986,15.343-10.986,15.343-5.682,4.924-6.439,7.008-2.652,8.145-3.41,9.85,2.651-.569,3.22-1.895a20.978,20.978,0,0,1,1.136-2.272l4.925-2.273s-1.516,3.788,0,4.357,1.7-2.083,3.41-4.167,3.22-3.6,3.41-6.062a40.17,40.17,0,0,0,0-5.114l24.244-15.721Z" transform="translate(-7.222 -40.829)" fill="#fff"/>
        <path id="Trazado_835983" data-name="Trazado 835983" d="M73.729,238.431s-4.546,5.3-10.607,12.88-10.986,15.343-10.986,15.343-5.682,4.924-6.439,7.008-2.652,8.145-3.41,9.85,2.651-.569,3.22-1.895a20.978,20.978,0,0,1,1.136-2.272l4.925-2.273s-1.516,3.788,0,4.357,1.7-2.083,3.41-4.167,3.22-3.6,3.41-6.062a40.17,40.17,0,0,0,0-5.114l24.244-15.721Z" transform="translate(-7.222 -40.829)" fill="none" stroke="#263238" stroke-miterlimit="10" stroke-width="1"/>
        <path id="Trazado_835984" data-name="Trazado 835984" d="M47.566,286.409l2.243-3.374a12.086,12.086,0,0,0,3.032-1.36,8.4,8.4,0,0,0,2.2-1.987" transform="translate(-8.145 -47.895)" fill="none" stroke="#263238" stroke-miterlimit="10" stroke-width="1"/>
        <path id="Trazado_835985" data-name="Trazado 835985" d="M179.577,224.608l6.139-12.912a51.505,51.505,0,0,1,1.481-5.715c.423-.741,2.964-4.762,3.916-4.868s1.905.317,2.011,1.164a2.364,2.364,0,0,1-.317,1.482,7.3,7.3,0,0,1,2.434,2.011,6.806,6.806,0,0,1,1.27,3.281c.212.846.953.952.106,2.751a6.686,6.686,0,0,1-2.964,2.858,23.475,23.475,0,0,1-2.54,1.376s-.105,12.171-1.587,16.934a28.025,28.025,0,0,1-2.54,6.35s-2.54-8.679-4.022-10.372-3.386-4.339-3.386-4.339" transform="translate(-30.751 -34.436)" fill="#fff"/>
        <path id="Trazado_835986" data-name="Trazado 835986" d="M179.577,224.608l6.139-12.912a51.505,51.505,0,0,1,1.481-5.715c.423-.741,2.964-4.762,3.916-4.868s1.905.317,2.011,1.164a2.364,2.364,0,0,1-.317,1.482,7.3,7.3,0,0,1,2.434,2.011,6.806,6.806,0,0,1,1.27,3.281c.212.846.953.952.106,2.751a6.686,6.686,0,0,1-2.964,2.858,23.475,23.475,0,0,1-2.54,1.376s-.105,12.171-1.587,16.934a28.025,28.025,0,0,1-2.54,6.35s-2.54-8.679-4.022-10.372S179.577,224.608,179.577,224.608Z" transform="translate(-30.751 -34.436)" fill="none" stroke="#263238" stroke-miterlimit="10" stroke-width="1"/>
        <path id="Trazado_835987" data-name="Trazado 835987" d="M83.2,271.22s-8.075,20.831-9.46,25.681-4.661,14.709-6.052,27.226a79.963,79.963,0,0,0,.07,15.3,129.047,129.047,0,0,0-5.774,13.4c-3,8.084-13.189,48.161-13.189,48.161a5.947,5.947,0,0,0,6.005,2.079l4.157-.694a7.557,7.557,0,0,0,3-.23c1.617-.462,5.312-.231,5.543-1.848s-.924-2.079-2.31-3.7-3.464-6.7-3.464-6.7,11.548-20.24,15.7-27.631,9.956-21.224,10.187-23.3,11.768-32.62,11.768-32.62h2.541l18.233,30.517s-.693,12.241,1.386,19.4,6.928,34.183,6.928,34.183l-.462,4.85a15.78,15.78,0,0,1,.924,3v2.54s.693,1.617,5.312,1.617c2.079,0,9.007-.693,10.162-.924s9.931-.462,10.162-1.616.462-2.079-.924-2.541-11.318-5.081-11.318-5.081V388.13a7.613,7.613,0,0,1-2.309-2.771c-.462-1.387.462-38.571,0-45.038s.23-6.467-1.617-12.241-9.181-46.253-9.181-46.253l-3.74-6.435L86.22,267.308Z" transform="translate(-8.355 -45.774)" fill="#263238"/>
        <path id="Trazado_835988" data-name="Trazado 835988" d="M83.2,271.22s-8.075,20.831-9.46,25.681-4.661,14.709-6.052,27.226a79.963,79.963,0,0,0,.07,15.3,129.047,129.047,0,0,0-5.774,13.4c-3,8.084-13.189,48.161-13.189,48.161a5.947,5.947,0,0,0,6.005,2.079l4.157-.694a7.557,7.557,0,0,0,3-.23c1.617-.462,5.312-.231,5.543-1.848s-.924-2.079-2.31-3.7-3.464-6.7-3.464-6.7,11.548-20.24,15.7-27.631,9.956-21.224,10.187-23.3,11.768-32.62,11.768-32.62h2.541l18.233,30.517s-.693,12.241,1.386,19.4,6.928,34.183,6.928,34.183l-.462,4.85a15.78,15.78,0,0,1,.924,3v2.54s.693,1.617,5.312,1.617c2.079,0,9.007-.693,10.162-.924s9.931-.462,10.162-1.616.462-2.079-.924-2.541-11.318-5.081-11.318-5.081V388.13a7.613,7.613,0,0,1-2.309-2.771c-.462-1.387.462-38.571,0-45.038s.23-6.467-1.617-12.241-9.181-46.253-9.181-46.253l-3.74-6.435L86.22,267.308Z" transform="translate(-8.355 -45.774)" fill="none" stroke="#263238" stroke-miterlimit="10" stroke-width="1"/>
        <path id="Trazado_835989" data-name="Trazado 835989" d="M176.706,229.639s.757-2.462,3.977-1.326,8.145,10.417,7.009,15.343-4.167,6.629-6.819,6.439-5.872-3.409-5.114-3.788.947-16.668.947-16.668" transform="translate(-30.078 -39.046)" fill="#fff"/>
        <path id="Trazado_835990" data-name="Trazado 835990" d="M176.706,229.639s.757-2.462,3.977-1.326,8.145,10.417,7.009,15.343-4.167,6.629-6.819,6.439-5.872-3.409-5.114-3.788S176.706,229.639,176.706,229.639Z" transform="translate(-30.078 -39.046)" fill="none" stroke="#263238" stroke-miterlimit="10" stroke-width="1"/>
        <path id="Trazado_835991" data-name="Trazado 835991" d="M89.921,227.191s-1.326,0-3.22-.19-4.547,3.031-6.062,4.925-3.41,3.03-2.084,7.008,4.924,9.092,10.229,9.471a11.5,11.5,0,0,0,8.334-2.463Z" transform="translate(-13.375 -38.871)" fill="#fff"/>
        <path id="Trazado_835992" data-name="Trazado 835992" d="M89.921,227.191s-1.326,0-3.22-.19-4.547,3.031-6.062,4.925-3.41,3.03-2.084,7.008,4.924,9.092,10.229,9.471a11.5,11.5,0,0,0,8.334-2.463Z" transform="translate(-13.375 -38.871)" fill="none" stroke="#263238" stroke-miterlimit="10" stroke-width="1"/>
        <path id="Trazado_835993" data-name="Trazado 835993" d="M115.236,208.889s-3.031-.379-9.47,3.22S85.5,226.883,84.551,228.777s1.7,10.417,5.114,11.932a9.165,9.165,0,0,0,6.439.38l-6.818,20.077s7.576-.379,20.267,1.894,25.759,8.713,25.759,8.713.947-.189,1.137-2.651a12.61,12.61,0,0,1,1.515-5.114c.569-1.136,7.765-25.57,7.765-25.57s14.207,6.25,17.995,6.25,5.114-6.819,3.6-11.933-4.736-6.629-4.736-6.629a25.448,25.448,0,0,1-7.955-4.357c-3.6-3.03-14.206-8.144-14.206-8.144s-15.153-6.44-25.192-4.736" transform="translate(-14.445 -35.721)" fill="#33ece0"/>
        <path id="Trazado_835994" data-name="Trazado 835994" d="M115.236,208.889s-3.031-.379-9.47,3.22S85.5,226.883,84.551,228.777s1.7,10.417,5.114,11.932a9.165,9.165,0,0,0,6.439.38l-6.818,20.077s7.576-.379,20.267,1.894,25.759,8.713,25.759,8.713.947-.189,1.137-2.651a12.61,12.61,0,0,1,1.515-5.114c.569-1.136,7.765-25.57,7.765-25.57s14.207,6.25,17.995,6.25,5.114-6.819,3.6-11.933-4.736-6.629-4.736-6.629a25.448,25.448,0,0,1-7.955-4.357c-3.6-3.03-14.206-8.144-14.206-8.144S125.274,207.184,115.236,208.889Z" transform="translate(-14.445 -35.721)" fill="none" stroke="#263238" stroke-miterlimit="10" stroke-width="1"/>
        <path id="Trazado_835995" data-name="Trazado 835995" d="M151.432,239.8l5.493,3.978-7.2-1.7" transform="translate(-25.64 -41.064)" fill="none" stroke="#263238" stroke-miterlimit="10" stroke-width="1"/>
        <line id="Línea_938" data-name="Línea 938" y1="3.079" x2="0.985" transform="translate(88.062 182.26)" fill="none" stroke="#263238" stroke-miterlimit="10" stroke-width="1"/>
        <line id="Línea_939" data-name="Línea 939" y1="17.06" x2="5.453" transform="translate(81.66 188.308)" fill="none" stroke="#263238" stroke-miterlimit="10" stroke-width="1"/>
      </g>
    </g>
  </g>
</svg>
