<svg id="Grupo_1018558" data-name="Grupo 1018558" xmlns="http://www.w3.org/2000/svg" xmlns:xlink="http://www.w3.org/1999/xlink" width="195.145" height="160.622" viewBox="0 0 195.145 160.622">
  <defs>
    <clipPath id="clip-path">
      <rect id="Rectángulo_385600" data-name="Rectángulo 385600" width="195.145" height="160.622" fill="none"/>
    </clipPath>
    <clipPath id="clip-path-3">
      <rect id="Rectángulo_385596" data-name="Rectángulo 385596" width="31.449" height="31.682" transform="translate(55.242 46.624)" fill="none"/>
    </clipPath>
    <clipPath id="clip-path-4">
      <rect id="Rectángulo_385597" data-name="Rectángulo 385597" width="2.518" height="2.566" transform="translate(59.043 78.644)" fill="none"/>
    </clipPath>
    <clipPath id="clip-path-5">
      <rect id="Rectángulo_385598" data-name="Rectángulo 385598" width="3.149" height="0.806" transform="translate(66.322 154.61)" fill="none"/>
    </clipPath>
  </defs>
  <g id="Grupo_1018557" data-name="Grupo 1018557" clip-path="url(#clip-path)">
    <g id="Grupo_1018556" data-name="Grupo 1018556">
      <g id="Grupo_1018555" data-name="Grupo 1018555" clip-path="url(#clip-path)">
        <path id="Trazado_836902" data-name="Trazado 836902" d="M0,120.716l7.96,28.242s1.216,6.053,5.5,7.179l54.207.239s6.239-1.112,6.356-7.391l-8.2-27.923s-1.217-6.577-7.727-6.577H3.184A7.2,7.2,0,0,0,0,120.716" fill="#33ece0"/>
        <path id="Trazado_836903" data-name="Trazado 836903" d="M78.5,151.257H95.792a10.4,10.4,0,0,1,.895-2.167,2.7,2.7,0,0,0-.179-3.391c-1.19-1.355-1.647-1.508-4.841-1.721s-8.183.184-8.944.64a4.985,4.985,0,0,0-2.707,2.828c-.67,1.856-1.518,3.811-1.518,3.811" fill="#fff"/>
        <rect id="Rectángulo_385593" data-name="Rectángulo 385593" width="98.994" height="75.144" transform="translate(94.944 30.307)" fill="#fff"/>
        <path id="Trazado_837006" data-name="Trazado 837006" d="M0,0H41.454V51.6H0Z" transform="translate(142.379 39.045)" fill="#fff198"/>
        <path id="Trazado_836904" data-name="Trazado 836904" d="M154.991,41.794s2.495-1.239,3.428-1.023a18.258,18.258,0,0,1,5.009,1.924,8.806,8.806,0,0,0,6.874.854c2.293-.717,4.584,2.432,4.584,3.005s.561,6.079-.9,8.808a3.2,3.2,0,0,1,1.715,1.592c.752,1.755.486,4.539-3.153,4.968,0,0-.572,10.865.254,11.187s12.638,2.664,12.638,6.249v9.661h-40.9l-.138-4.095s0-2.164.966-2.9l.735-1.587s6.479-7.527,14.795-7.111l-.287-3.5s-5.824.209-6.329-4.2,1.08.261,1.424-14.8c0,0-4.176-.071-3.136-5.966.207-1.171,2.422-3.068,2.422-3.068" fill="#fff"/>
        <rect id="Rectángulo_385595" data-name="Rectángulo 385595" width="98.995" height="10.103" transform="translate(96.15 21.82)" fill="#1a1a1a"/>
        <path id="Trazado_836905" data-name="Trazado 836905" d="M122.972,121.953c-3.043-9.491-9.371-16.975-11.8-20.808S94.994,82.46,80.083,83.042c0,0-.828,7.868-6.319,8.118s-5.743-6.105-5.743-6.105-9.242-.732-21.045,9.6S33.6,111.266,33.6,111.266l28.224.222s5.183-.784,7.46,6.7,8.261,28.9,8.261,28.9-.227,3.666-1.1,4.176H78.5s1.656-5.886,3.788-6.391a34.692,34.692,0,0,1,8.194-.9c2.43.118,6.023.324,6.632,2.938s-1.519,2.447-1.307,4.357h7.327s2.028.969,1.477,2.088c0,0,8.54-.343,13.451-6.558s7.952-15.341,4.911-24.834m-18.984,3.53c-2.067,5.633-9.31,8.469-9.31,8.469l5.044-23.187s6.655,8.208,4.266,14.718" fill="#1a1a1a"/>
        <path id="Trazado_836906" data-name="Trazado 836906" d="M156.99,120.822s1.64-1.789.148-6.262.148-9.247,5.815-9.843,8.5,4.772,7.755,8.351-1.044,4.623,0,8.053.448,13.122-9.395,12.824c-8.84-.267-7.755-9.4-4.323-13.123" fill="#fff"/>
        <path id="Trazado_836907" data-name="Trazado 836907" d="M169.916,98.549c0,2.265-1.2,4.1-2.685,4.1s-2.683-1.835-2.683-4.1,1.2-4.1,2.683-4.1,2.685,1.836,2.685,4.1" fill="#fff"/>
        <path id="Trazado_836908" data-name="Trazado 836908" d="M158.612,142.881c-7.745-.226-8.836-1.666-8.836-1.666v.746c-1.511-.137-7.965-.276-8.119,7.176-.174,8.443,8.119,8.828,8.119,8.828v1.06s1.411,1.252,9.122,1.252,8.542-1.393,8.542-1.393V141.215s-1.083,1.892-8.828,1.666m-14.249,5.478c.386-4.061,5.3-3.643,5.3-3.643l.112-.712v11.168c-2.181-.581-5.8-2.756-5.413-6.813" fill="#1a1a1a"/>
        <path id="Trazado_836909" data-name="Trazado 836909" d="M167.44,141.08c0,1-3.954,1.8-8.832,1.8s-8.831-.8-8.831-1.8,3.954-1.8,8.831-1.8,8.832.805,8.832,1.8" fill="#fff"/>
        <path id="Trazado_836910" data-name="Trazado 836910" d="M40.512,134.181c.649,2.2-.326,4.428-2.18,4.975s-3.883-.792-4.532-2.993.327-4.425,2.18-4.974,3.882.794,4.532,2.992" fill="#fff"/>
        <g id="Grupo_1018548" data-name="Grupo 1018548" opacity="0.2">
          <g id="Grupo_1018547" data-name="Grupo 1018547">
            <g id="Grupo_1018546" data-name="Grupo 1018546" clip-path="url(#clip-path-3)">
              <path id="Trazado_836911" data-name="Trazado 836911" d="M56.257,62.711l14.836-3.7s-.628-4.59-.174-5.429l5.457,6.663s2.195-1.325,4.437,2.529c0,0,1.287,2.946-.483,5.087,0,0,2.049,2.371.4,6.349s-1.841,4.1-1.841,4.1,7.124-2.98,7.8-5.757a95.9,95.9,0,0,1-2.449-11.986,52.906,52.906,0,0,1-.181-6.419,10.457,10.457,0,0,0-8.853-7.362,32.469,32.469,0,0,0-16.342,2.651s-5.941,2.783-2.61,13.278"/>
            </g>
          </g>
        </g>
        <path id="Trazado_836912" data-name="Trazado 836912" d="M54.381,63.445,71.093,59.01s-.808-4.021-.445-4.36L74.6,61.785s1.335-1.671,2.44-1.735a4.04,4.04,0,0,1,4.011,3.515c.643,2.931-.586,4.788-3.394,5.2,0,0,1.708,1.911.637,5.454a29.843,29.843,0,0,1-2.053,5.312l2.156-.821,1.691,4.327s-.9,6.543-5.192,7.957-6.271-3.07-6.87-5.944l-.827-4.339s-5.878,1.268-8.651-3.98c-2.7-5.108-4.162-13.291-4.162-13.291" fill="#fff"/>
        <g id="Grupo_1018551" data-name="Grupo 1018551" opacity="0.2">
          <g id="Grupo_1018550" data-name="Grupo 1018550">
            <g id="Grupo_1018549" data-name="Grupo 1018549" clip-path="url(#clip-path-4)">
              <path id="Trazado_836913" data-name="Trazado 836913" d="M60.218,79.009l-.239-.365-.936,2.567L61.56,80Z"/>
            </g>
          </g>
        </g>
        <path id="Trazado_836914" data-name="Trazado 836914" d="M91.917,151.257H93.4V148.19s-1.688,1.4-1.483,3.067" fill="#3a3a3a"/>
        <path id="Trazado_836915" data-name="Trazado 836915" d="M66.979,10.379,64.595,0,90.861,7.984,71.082,24.949,67.909,12.833,89.447,8.177Z" fill="#aeb3b8"/>
        <path id="Trazado_836916" data-name="Trazado 836916" d="M68.955,16.65l-5.871.749,3.895-7.021,23.2-2.392L67.909,12.833Z" fill="#aeb3b8"/>
        <path id="Trazado_836917" data-name="Trazado 836917" d="M177.7,24.765a1.242,1.242,0,1,1-1.242-1.242,1.241,1.241,0,0,1,1.242,1.242" fill="#fff"/>
        <path id="Trazado_836918" data-name="Trazado 836918" d="M182.54,24.765a1.241,1.241,0,1,1-1.242-1.242,1.242,1.242,0,0,1,1.242,1.242" fill="#fff"/>
        <path id="Trazado_836919" data-name="Trazado 836919" d="M187.15,24.765a1.241,1.241,0,1,1-1.241-1.242,1.241,1.241,0,0,1,1.241,1.242" fill="#fff"/>
        <path id="Trazado_836920" data-name="Trazado 836920" d="M24.539,82.063c-.378-.236-.378-.453-.244-.588L27.42,78.35a.34.34,0,0,1,.487,0,.345.345,0,0,1,0,.487l-3.125,3.125a.335.335,0,0,1-.243.1" fill="#1a1a1a"/>
        <path id="Trazado_836921" data-name="Trazado 836921" d="M27.663,82.063c-.243-.1-3.368-3.226-3.368-3.226a.345.345,0,0,1,0-.487.34.34,0,0,1,.487,0l3.125,3.125a.345.345,0,0,1,0,.487.336.336,0,0,1-.244.1" fill="#1a1a1a"/>
        <path id="Trazado_836922" data-name="Trazado 836922" d="M21.712,76.4a1.513,1.513,0,1,1,1.512-1.514A1.514,1.514,0,0,1,21.712,76.4m0-2.337a.824.824,0,1,0,.822.823.824.824,0,0,0-.822-.823" fill="#1a1a1a"/>
        <path id="Trazado_836923" data-name="Trazado 836923" d="M184.232,123.6a1.236,1.236,0,1,1,1.237-1.237,1.239,1.239,0,0,1-1.237,1.237m0-1.784a.548.548,0,1,0,.547.547.548.548,0,0,0-.547-.547" fill="#1a1a1a"/>
        <path id="Trazado_836924" data-name="Trazado 836924" d="M62.988,17.7c-.332-.131-.394-.34-.3-.508l3.786-6.975c.269-.179,24.356-2.573,24.356-2.573a.347.347,0,0,1,.376.309.343.343,0,0,1-.308.377L66.989,10.7l-3.7,6.816a.343.343,0,0,1-.3.179" fill="#1a1a1a"/>
        <path id="Trazado_836925" data-name="Trazado 836925" d="M63.084,17.744c-.375-.333-.345-.494-.237-.6l4.885-4.6a.345.345,0,1,1,.472.5l-4.112,3.87,4.819-.615a.348.348,0,0,1,.386.3.345.345,0,0,1-.3.386l-5.871.749a.332.332,0,0,1-.044,0" fill="#1a1a1a"/>
        <path id="Trazado_836926" data-name="Trazado 836926" d="M66.979,10.723a.347.347,0,0,1-.337-.267L64.259.078c.436-.408,26.906,7.579,26.906,7.579a.345.345,0,0,1-.065.673L67.013,10.721a.194.194,0,0,1-.034,0M65.063.5l2.184,9.5L89.3,7.815Z" fill="#1a1a1a"/>
        <path id="Trazado_836927" data-name="Trazado 836927" d="M71.082,25.293c-.333-.258-3.448-12.406-3.448-12.406C67.9,12.464,91,7.65,91,7.65a.348.348,0,0,1,.379.186.344.344,0,0,1-.086.414L71.306,25.212a.347.347,0,0,1-.224.081m-2.69-12.229,2.887,11.267L89.81,8.6Z" fill="#1a1a1a"/>
        <path id="Trazado_836928" data-name="Trazado 836928" d="M11.235,106.547a15.483,15.483,0,0,1-2.224-2.515.345.345,0,0,1,.553-.412c.79,1.063,1.484,1.865,1.926,2.351a.345.345,0,0,1-.255.576m-3.672-4.918a15.552,15.552,0,0,1-1.812-2.866.345.345,0,0,1,.615-.312c.456.9.957,1.789,1.49,2.652a.347.347,0,0,1-.112.476.351.351,0,0,1-.181.05M4.787,96.161a12.97,12.97,0,0,1-1.353-3.137.344.344,0,1,1,.659-.2c.294.964.634,1.927,1.014,2.863a.345.345,0,0,1-.19.45.37.37,0,0,1-.13.025M3,90.295a.347.347,0,0,1-.337-.275c-.21-1.01-.374-2.04-.49-3.058a.343.343,0,0,1,.3-.382.351.351,0,0,1,.382.3c.113,1,.275,2.007.481,3A.344.344,0,0,1,3,90.295M2.311,84.2a.345.345,0,0,1-.345-.337c0-.234-.006-.471-.006-.708,0-.788.027-1.591.082-2.389a.345.345,0,0,1,.688.049c-.055.779-.081,1.567-.081,2.34,0,.234,0,.464.006.695a.343.343,0,0,1-.337.35Zm.424-6.113a.354.354,0,0,1-.342-.4c.16-1.007.366-2.028.614-3.039a.35.35,0,0,1,.416-.251.345.345,0,0,1,.253.417c-.243.991-.446,1.992-.6,2.98a.342.342,0,0,1-.339.29m1.454-5.957c-.29-.076-.387-.271-.328-.451.319-.968.681-1.944,1.075-2.9a.341.341,0,0,1,.45-.187.345.345,0,0,1,.188.45c-.389.941-.744,1.9-1.058,2.854a.345.345,0,0,1-.327.235m2.328-5.673c-.323-.118-.393-.324-.31-.5.362-.735.754-1.485,1.164-2.227q.143-.256.292-.506a.345.345,0,0,1,.591.355q-.144.239-.28.485c-.405.733-.791,1.471-1.148,2.2a.345.345,0,0,1-.309.191m28.661-3.183c-.39-.4-.3-.6-.123-.667a5.068,5.068,0,0,0,1.85-1.292c.146-.154.283-.308.409-.461a.345.345,0,0,1,.531.442q-.2.243-.438.493A5.745,5.745,0,0,1,35.3,63.254a.317.317,0,0,1-.123.024m-3-.007a7.664,7.664,0,0,1-2.805-1.726.345.345,0,0,1,.468-.507A7.25,7.25,0,0,0,32.293,62.6a.344.344,0,0,1-.115.669M9.746,61.266c-.368-.206-.386-.424-.262-.568A19.255,19.255,0,0,1,11.7,58.5a.344.344,0,0,1,.445.526,18.764,18.764,0,0,0-2.135,2.121.348.348,0,0,1-.263.12M27.626,59.3a11.924,11.924,0,0,1-1.832-2.861.344.344,0,1,1,.622-.295,19.833,19.833,0,0,0,1.494,2.617.344.344,0,0,1-.09.479.339.339,0,0,1-.194.06m11.248-.607a.351.351,0,0,1-.344-.375,3.038,3.038,0,0,0-1.05-2.432.346.346,0,0,1-.018-.488.35.35,0,0,1,.487-.016,3.618,3.618,0,0,1,1.282,2.7c-.03.479-.18.614-.357.614M14.4,57.306c-.393-.323-.344-.536-.182-.637A23.886,23.886,0,0,1,16.964,55.2a.345.345,0,1,1,.286.627,23.4,23.4,0,0,0-2.667,1.423.329.329,0,0,1-.181.053m5.57-2.545a.344.344,0,0,1-.1-.672,28.624,28.624,0,0,1,3.007-.778.342.342,0,0,1,.406.27.346.346,0,0,1-.269.406,28.239,28.239,0,0,0-2.935.758.348.348,0,0,1-.1.016m15.1-.305a17.67,17.67,0,0,0-3.026-.755.346.346,0,0,1-.286-.4.355.355,0,0,1,.394-.287,16.229,16.229,0,0,1,3.036.77.344.344,0,0,1-.118.667m-10.107-.669a.341.341,0,0,1-.327-.235,27.469,27.469,0,0,1-.807-3,.345.345,0,1,1,.676-.14,26.393,26.393,0,0,0,.785,2.924.347.347,0,0,1-.22.437.365.365,0,0,1-.107.016m1.012-.238a.345.345,0,0,1-.031-.688,27.1,27.1,0,0,1,3.107-.11.343.343,0,0,1,.334.355.37.37,0,0,1-.352.334,26.883,26.883,0,0,0-3.026.107.172.172,0,0,1-.032,0m-2.27-5.756a.344.344,0,0,1-.342-.312c-.082-.868-.125-1.747-.125-2.609,0-.166,0-.331.006-.5a.344.344,0,0,1,.688.013c0,.162,0,.324,0,.485,0,.842.04,1.7.121,2.545a.345.345,0,0,1-.311.375.189.189,0,0,1-.034,0m.122-6.126a.352.352,0,0,1-.342-.391,24.733,24.733,0,0,1,.62-3.05.345.345,0,0,1,.665.182,24.087,24.087,0,0,0-.6,2.962.344.344,0,0,1-.34.3m1.611-5.907c-.309-.1-.392-.3-.317-.479a22.167,22.167,0,0,1,1.407-2.776.344.344,0,0,1,.591.354,21.637,21.637,0,0,0-1.364,2.692.343.343,0,0,1-.317.209M28.569,30.5c-.361-.188-.388-.4-.272-.555.635-.822,1.309-1.616,2.007-2.361a.341.341,0,0,1,.487-.016.344.344,0,0,1,.016.487c-.682.729-1.343,1.506-1.964,2.312a.345.345,0,0,1-.274.133m4.186-4.474c-.385-.259-.371-.477-.228-.6.773-.68,1.589-1.331,2.426-1.932a.344.344,0,1,1,.4.559c-.819.589-1.616,1.224-2.372,1.89a.342.342,0,0,1-.228.085m4.975-3.576c-.393-.336-.338-.547-.173-.643.886-.513,1.811-.993,2.751-1.427a.345.345,0,0,1,.289.627c-.921.423-1.827.894-2.694,1.4a.357.357,0,0,1-.173.045M43.3,19.888c-.388-.409-.3-.606-.116-.669.959-.34,1.956-.645,2.965-.9a.343.343,0,1,1,.171.665c-.989.257-1.966.556-2.905.888a.362.362,0,0,1-.115.02m5.934-1.545a.344.344,0,0,1-.057-.683c1.011-.176,2.044-.311,3.071-.405a.33.33,0,0,1,.375.312.344.344,0,0,1-.312.374c-1.009.092-2.024.226-3.018.4a.288.288,0,0,1-.059.005m9.178-.423a25.717,25.717,0,0,0-2.778-.132c-.476,0-.63-.147-.633-.336a.343.343,0,0,1,.338-.35,27.6,27.6,0,0,1,3.116.131.345.345,0,0,1-.043.687" fill="#1a1a1a"/>
        <path id="Trazado_836929" data-name="Trazado 836929" d="M149.777,155.519c-.129-.02-5.431-1.26-5.747-6.415a4.143,4.143,0,0,1,1.154-3.413c1.665-1.591,4.478-1.307,4.6-1.294a.344.344,0,0,1-.074.685c-.027,0-2.622-.259-4.054,1.109a3.489,3.489,0,0,0-.938,2.871c.283,4.63,4.935,5.731,5.133,5.776a.345.345,0,0,1-.075.681" fill="#1a1a1a"/>
        <path id="Trazado_836930" data-name="Trazado 836930" d="M149.581,158.309c-.122-.01-8.854-.966-8.268-9.2a7.871,7.871,0,0,1,2.617-5.776,8.335,8.335,0,0,1,5.775-1.653.345.345,0,0,1,.3.383.353.353,0,0,1-.382.3,7.714,7.714,0,0,0-5.259,1.5,7.217,7.217,0,0,0-2.364,5.29c-.54,7.57,7.28,8.429,7.613,8.461a.344.344,0,0,1-.033.687" fill="#1a1a1a"/>
        <path id="Trazado_836931" data-name="Trazado 836931" d="M158.661,160.622c-.945,0-9.222-.049-9.222-1.739a.345.345,0,0,1,.69,0c.258.4,3.454,1.051,8.532,1.051,5.45,0,8.228-.723,8.443-1.092a.323.323,0,0,1,.34-.324.359.359,0,0,1,.341.365c0,1.69-8.191,1.739-9.124,1.739" fill="#1a1a1a"/>
        <path id="Trazado_836932" data-name="Trazado 836932" d="M159.32,132.706c-.148,0-.3,0-.451-.007-4.192-.127-5.918-2.164-6.626-3.851-1.376-3.269-.034-7.574,2.059-9.849.012-.013,1.473-1.731.076-5.92a8.384,8.384,0,0,1,.565-7.2,7.163,7.163,0,0,1,5.542-3.092,8.011,8.011,0,0,1,.892-.047,7.054,7.054,0,0,1,5.577,2.636,7.731,7.731,0,0,1,1.658,6.173l-.1.457c-.662,3.164-.884,4.23.088,7.426a12.194,12.194,0,0,1-1.657,9.828c-1.7,2.287-4.262,3.447-7.627,3.447m2.057-29.279a7.733,7.733,0,0,0-.821.044,6.5,6.5,0,0,0-5.033,2.781,7.7,7.7,0,0,0-.49,6.609c1.537,4.613-.151,6.526-.223,6.6-1.9,2.07-3.184,6.142-1.933,9.115.906,2.153,2.985,3.338,6.013,3.43,3.363.116,5.874-.966,7.5-3.162a11.585,11.585,0,0,0,1.552-9.216c-1.024-3.366-.774-4.564-.1-7.767l.094-.457a7.015,7.015,0,0,0-1.516-5.6,6.3,6.3,0,0,0-5.043-2.382" fill="#1a1a1a"/>
        <path id="Trazado_836933" data-name="Trazado 836933" d="M167.231,101.534c-1.67,0-3.028-1.994-3.028-4.446s1.358-4.443,3.028-4.443,3.03,1.993,3.03,4.443-1.359,4.446-3.03,4.446m0-8.2c-1.29,0-2.338,1.685-2.338,3.755s1.048,3.758,2.338,3.758,2.34-1.686,2.34-3.758-1.05-3.755-2.34-3.755" fill="#1a1a1a"/>
        <path id="Trazado_836934" data-name="Trazado 836934" d="M167.44,159.227a.345.345,0,0,1-.345-.344V141.214a.345.345,0,0,1,.69,0v17.669a.345.345,0,0,1-.345.344" fill="#1a1a1a"/>
        <path id="Trazado_836935" data-name="Trazado 836935" d="M149.777,159.368a.345.345,0,0,1-.345-.344V141.067a.345.345,0,0,1,.69,0v17.957a.345.345,0,0,1-.345.344" fill="#1a1a1a"/>
        <path id="Trazado_836936" data-name="Trazado 836936" d="M158.608,143.225c-3.407,0-9.176-.424-9.176-2.01s5.769-2.011,9.176-2.011,9.177.423,9.177,2.011-5.769,2.01-9.177,2.01m0-3.333c-5.366,0-8.378.863-8.487,1.326.109.455,3.121,1.319,8.487,1.319s8.378-.863,8.488-1.326c-.11-.456-3.121-1.319-8.488-1.319" fill="#1a1a1a"/>
        <path id="Trazado_836937" data-name="Trazado 836937" d="M154.245,104.166H119.12a.344.344,0,0,1,0-.688h35.125a.344.344,0,1,1,0,.688" fill="#1a1a1a"/>
        <path id="Trazado_836938" data-name="Trazado 836938" d="M191.7,104.166H170.671a.344.344,0,1,1,0-.688h20.683v-83.5H93.05V82a.345.345,0,1,1-.689,0V19.638a.344.344,0,0,1,.344-.344H191.7a.344.344,0,0,1,.344.344v84.184a.345.345,0,0,1-.344.344" fill="#1a1a1a"/>
        <path id="Trazado_836939" data-name="Trazado 836939" d="M191.7,29.019H92.706a.345.345,0,0,1-.345-.344V19.638a.345.345,0,0,1,.345-.344H191.7a.345.345,0,0,1,.345.344v9.037a.345.345,0,0,1-.345.344m-98.649-.688h98.3V19.982h-98.3Z" fill="#1a1a1a"/>
        <path id="Trazado_836940" data-name="Trazado 836940" d="M185.473,88.715H144.441a.345.345,0,0,1-.345-.344V37.407a.345.345,0,0,1,.345-.344h41.032a.345.345,0,0,1,.345.344V88.371a.345.345,0,0,1-.345.344m-40.687-.688h40.342V37.751H144.786Z" fill="#1a1a1a"/>
        <path id="Trazado_836941" data-name="Trazado 836941" d="M160.645,73.016a.345.345,0,0,1-.344-.344l0-2.952a.344.344,0,0,1,.689,0l0,2.952a.344.344,0,0,1-.343.344Z" fill="#1a1a1a"/>
        <path id="Trazado_836942" data-name="Trazado 836942" d="M160.342,70.074a8.182,8.182,0,0,1-4.419-1.1c-2.847-1.824-2.112-5.072-1.577-7.446a14.619,14.619,0,0,0,.3-1.516c.246-2.149.683-10.843.686-10.93a.345.345,0,0,1,.689.035c-.017.357-.44,8.8-.689,10.973-.052.461-.177,1.01-.307,1.591-.519,2.294-1.166,5.15,1.274,6.712,3.127,2,8.388.337,8.442.319a.345.345,0,1,1,.213.656,16.472,16.472,0,0,1-4.607.71" fill="#1a1a1a"/>
        <path id="Trazado_836943" data-name="Trazado 836943" d="M169.7,57.061a.354.354,0,0,1-.342-.4c.383-2.581-.98-5.528-1.391-6.343a26.012,26.012,0,0,1-12.313-.9.345.345,0,0,1-.21-.44.35.35,0,0,1,.441-.209,25.842,25.842,0,0,0,12.2.829.342.342,0,0,1,.371.171c.083.151,2.065,3.748,1.583,7a.344.344,0,0,1-.34.294" fill="#1a1a1a"/>
        <path id="Trazado_836944" data-name="Trazado 836944" d="M173.982,55.7c-.283-.072-.385-.265-.328-.447.023-.076,2.327-7.561.173-9.975-1.561-1.751-2.389-1.564-3.889-1.225a14.067,14.067,0,0,1-2.032.344c-1.648.157-3.127-.686-4.689-1.564-2.093-1.178-4.259-2.4-7.027-1.27a5.3,5.3,0,0,0-3.472,5.27,3.953,3.953,0,0,0,2.944,3.736.345.345,0,0,1-.17.669,4.629,4.629,0,0,1-3.463-4.358,5.99,5.99,0,0,1,3.9-5.957c3.077-1.252,5.493.107,7.625,1.309,1.467.825,2.85,1.6,4.293,1.48a13.752,13.752,0,0,0,1.938-.331c1.582-.357,2.725-.613,4.556,1.439,2.412,2.7.07,10.316-.03,10.637a.346.346,0,0,1-.33.243" fill="#1a1a1a"/>
        <path id="Trazado_836945" data-name="Trazado 836945" d="M167.218,54.016a6.992,6.992,0,0,0-1.706-.946.346.346,0,0,1-.251-.42.353.353,0,0,1,.418-.249,4.54,4.54,0,0,1,1.778,1.022.344.344,0,0,1-.239.593" fill="#1a1a1a"/>
        <path id="Trazado_836946" data-name="Trazado 836946" d="M157.047,53.8c-.371-.213-.383-.43-.257-.574a3.311,3.311,0,0,1,1.738-.829.356.356,0,0,1,.391.289.344.344,0,0,1-.288.392,2.6,2.6,0,0,0-1.327.607.342.342,0,0,1-.257.115" fill="#1a1a1a"/>
        <path id="Trazado_836947" data-name="Trazado 836947" d="M158.779,61.9c-.352-.41-.534-2.694.887-6.659a.351.351,0,0,1,.441-.208.345.345,0,0,1,.208.441,18.314,18.314,0,0,0-1.2,5.607l1.229-.4a.345.345,0,1,1,.216.656l-1.674.551a.362.362,0,0,1-.108.016" fill="#1a1a1a"/>
        <path id="Trazado_836948" data-name="Trazado 836948" d="M172.606,62.188a3.711,3.711,0,0,1-2.027-.6.343.343,0,0,1-.1-.476.347.347,0,0,1,.477-.1,3.043,3.043,0,1,0-1.11-3.834.342.342,0,0,1-.457.169.347.347,0,0,1-.168-.458,3.732,3.732,0,1,1,3.387,5.3" fill="#1a1a1a"/>
        <path id="Trazado_836949" data-name="Trazado 836949" d="M165.465,76.574c-5.049-.007-5.164-3.858-5.164-3.9a.343.343,0,0,1,.338-.349.349.349,0,0,1,.35.338c0,.132.123,3.213,4.456,3.22,4.845,0,6.419-2.571,6.657-3.021V61.844a.344.344,0,0,1,.689,0v11.1c-.1.286-1.684,3.628-7.326,3.628" fill="#1a1a1a"/>
        <path id="Trazado_836950" data-name="Trazado 836950" d="M157.3,56.96a.393.393,0,0,1-.371-.411l.057-1.1a.392.392,0,0,1,.783.041l-.057,1.1a.393.393,0,0,1-.412.37" fill="#1a1a1a"/>
        <path id="Trazado_836951" data-name="Trazado 836951" d="M163.887,57.232a.4.4,0,0,1-.371-.413l.057-1.1a.392.392,0,0,1,.783.04l-.057,1.1a.4.4,0,0,1-.412.372" fill="#1a1a1a"/>
        <path id="Trazado_836952" data-name="Trazado 836952" d="M160.883,64.953c-.184-.054-2.306-1.4-2.306-1.4a.345.345,0,1,1,.369-.582l1.852,1.175,1.743-2.322a.344.344,0,1,1,.551.412l-1.933,2.577a.344.344,0,0,1-.276.138" fill="#1a1a1a"/>
        <path id="Trazado_836953" data-name="Trazado 836953" d="M144.441,83.745c-.3-.087-.389-.287-.323-.465,3.365-8.992,15.947-10.611,16.482-10.676a.345.345,0,0,1,.082.685c-.126.015-12.7,1.635-15.917,10.232a.345.345,0,0,1-.324.224" fill="#1a1a1a"/>
        <path id="Trazado_836954" data-name="Trazado 836954" d="M185.473,78.913c-5.158-4.634-12.988-5.614-13.066-5.624a.345.345,0,1,1,.081-.685c.329.041,8.133,1.019,13.219,5.712a.344.344,0,0,1-.234.6" fill="#1a1a1a"/>
        <path id="Trazado_836955" data-name="Trazado 836955" d="M133.459,43.831H112.371a.885.885,0,0,1-.884-.884V36.331a.885.885,0,0,1,.884-.884h21.088a.885.885,0,0,1,.884.884v6.616a.885.885,0,0,1-.884.884m-21.088-7.7c-.194.2-.194,6.812-.194,6.812.194.2,21.282.2,21.282.2.194-.2.194-6.812.194-6.812-.194-.2-21.282-.2-21.282-.2"/>
        <path id="Trazado_836956" data-name="Trazado 836956" d="M126.3,39.995H114.283a.276.276,0,0,1,0-.553H126.3a.276.276,0,0,1,0,.553"/>
        <path id="Trazado_836957" data-name="Trazado 836957" d="M128.47,37.969H114.283a.277.277,0,0,1,0-.553H128.47a.277.277,0,0,1,0,.553"/>
        <path id="Trazado_836958" data-name="Trazado 836958" d="M123.957,42.145h-9.674a.277.277,0,0,1,0-.553h9.674a.277.277,0,0,1,0,.553"/>
        <path id="Trazado_836959" data-name="Trazado 836959" d="M133.459,69.894H112.371a.884.884,0,0,1-.884-.882V62.394a.885.885,0,0,1,.884-.883h21.088a.885.885,0,0,1,.884.883v6.618a.884.884,0,0,1-.884.882M112.371,62.2c-.194.195-.194,6.813-.194,6.813.194.193,21.282.193,21.282.193.194-.193.194-6.811.194-6.811-.194-.195-21.282-.195-21.282-.195"/>
        <path id="Trazado_836960" data-name="Trazado 836960" d="M126.3,65.919H114.283a.276.276,0,0,1,0-.552H126.3a.276.276,0,0,1,0,.552"/>
        <path id="Trazado_836961" data-name="Trazado 836961" d="M128.47,63.891H114.283a.276.276,0,0,1,0-.552H128.47a.276.276,0,1,1,0,.552"/>
        <path id="Trazado_836962" data-name="Trazado 836962" d="M123.957,68.067h-9.674a.276.276,0,0,1,0-.552h9.674a.276.276,0,0,1,0,.552"/>
        <path id="Trazado_836963" data-name="Trazado 836963" d="M120.381,56.827H99.293a.885.885,0,0,1-.884-.883V49.328a.885.885,0,0,1,.885-.884h21.087a.884.884,0,0,1,.884.884v6.616a.885.885,0,0,1-.884.883M99.294,49.133c-.195.195-.195,6.811-.195,6.811.194.194,21.282.194,21.282.194.195-.194.195-6.81.195-6.81-.195-.195-21.282-.195-21.282-.195"/>
        <path id="Trazado_836964" data-name="Trazado 836964" d="M113.2,52.851H101.177a.276.276,0,0,1,0-.552H113.2a.276.276,0,1,1,0,.552"/>
        <path id="Trazado_836965" data-name="Trazado 836965" d="M115.365,50.823H101.177a.277.277,0,0,1,0-.553h14.188a.277.277,0,0,1,0,.553"/>
        <path id="Trazado_836966" data-name="Trazado 836966" d="M110.85,55h-9.673a.276.276,0,0,1,0-.552h9.673a.276.276,0,1,1,0,.552"/>
        <path id="Trazado_836967" data-name="Trazado 836967" d="M133.459,95.888H112.371a.885.885,0,0,1-.884-.883V88.389a.884.884,0,0,1,.884-.884h21.088a.884.884,0,0,1,.884.883V95a.885.885,0,0,1-.884.883m-21.088-7.695c-.194.2-.194,6.812-.194,6.812.194.195,21.282.195,21.282.195.194-.195.194-6.812.194-6.812-.194-.195-21.282-.195-21.282-.195"/>
        <path id="Trazado_836968" data-name="Trazado 836968" d="M126.3,91.912H114.283a.276.276,0,0,1,0-.552H126.3a.276.276,0,0,1,0,.552"/>
        <path id="Trazado_836969" data-name="Trazado 836969" d="M128.47,89.884H114.283a.277.277,0,0,1,0-.553H128.47a.277.277,0,0,1,0,.553"/>
        <path id="Trazado_836970" data-name="Trazado 836970" d="M123.957,94.06h-9.674a.276.276,0,0,1,0-.552h9.674a.276.276,0,1,1,0,.552"/>
        <path id="Trazado_836971" data-name="Trazado 836971" d="M120.381,82.821H99.293a.886.886,0,0,1-.884-.884V75.321a.884.884,0,0,1,.885-.883h21.087a.883.883,0,0,1,.884.883v6.616a.885.885,0,0,1-.884.884m-21.087-7.7c-.195.2-.195,6.812-.195,6.812.194.194,21.282.194,21.282.194.195-.194.195-6.81.195-6.81-.195-.2-21.282-.2-21.282-.2"/>
        <path id="Trazado_836972" data-name="Trazado 836972" d="M113.2,78.845H101.177a.276.276,0,0,1,0-.552H113.2a.276.276,0,1,1,0,.552"/>
        <path id="Trazado_836973" data-name="Trazado 836973" d="M115.365,76.817H101.177a.277.277,0,0,1,0-.553h14.188a.277.277,0,0,1,0,.553"/>
        <path id="Trazado_836974" data-name="Trazado 836974" d="M110.85,80.993h-9.673a.277.277,0,0,1,0-.553h9.673a.276.276,0,1,1,0,.553"/>
        <path id="Trazado_836975" data-name="Trazado 836975" d="M173.37,60.407c-.156-.037-2.864-1.406-2.864-1.406-.072-.565,2.635-2.969,2.635-2.969a.345.345,0,0,1,.458.516l-2.328,2.066,2.254,1.142a.344.344,0,0,1-.155.651" fill="#1a1a1a"/>
        <g id="Grupo_1018554" data-name="Grupo 1018554" opacity="0.2">
          <g id="Grupo_1018553" data-name="Grupo 1018553">
            <g id="Grupo_1018552" data-name="Grupo 1018552" clip-path="url(#clip-path-5)">
              <path id="Trazado_836976" data-name="Trazado 836976" d="M66.67,155.415a.347.347,0,0,1-.347-.335c0-.178-.007-.263.344-.321a1.506,1.506,0,0,1,.529-.057c.357-.027.859-.055,1.565-.092.556-.007.708.146.71.334a.343.343,0,0,1-.337.347c-2.386.124-2.439.124-2.464.124" fill="#1a1a1a"/>
            </g>
          </g>
        </g>
        <path id="Trazado_836977" data-name="Trazado 836977" d="M62.683,74.257A11.631,11.631,0,0,1,60.328,72.6c.077-.564,1.861-1.458,1.861-1.458A23.884,23.884,0,0,0,61.145,64.2.345.345,0,1,1,61.806,64a23.251,23.251,0,0,1,1.065,7.376,8.98,8.98,0,0,1-1.7,1.04A9.779,9.779,0,0,0,62.834,73.6a.345.345,0,0,1-.151.655" fill="#1a1a1a"/>
        <path id="Trazado_836978" data-name="Trazado 836978" d="M58.867,69.017a.54.54,0,0,1-.67-.365l-.429-1.457a.54.54,0,1,1,1.036-.3l.428,1.456a.541.541,0,0,1-.365.67" fill="#1a1a1a"/>
        <path id="Trazado_836979" data-name="Trazado 836979" d="M67.512,66.732a.543.543,0,0,1-.671-.365l-.428-1.457a.539.539,0,1,1,1.035-.3l.428,1.456a.541.541,0,0,1-.364.67" fill="#1a1a1a"/>
        <path id="Trazado_836980" data-name="Trazado 836980" d="M53.579,63.965a.344.344,0,0,1-.087-.677l17.189-4.525c-.2-.9-.679-3.264-.36-4.222.64-.04,2.634,3.18,4.583,7.091a.345.345,0,1,1-.617.308c-1.316-2.641-2.652-4.965-3.378-6.189a20.836,20.836,0,0,0,.518,3.179.343.343,0,0,1-.247.414l-17.513,4.61a.332.332,0,0,1-.088.011" fill="#1a1a1a"/>
        <path id="Trazado_836981" data-name="Trazado 836981" d="M76.158,79.915c-.331-.133-.394-.341-.3-.508,4.026-7.407,1.689-10.274,1.665-10.3a.345.345,0,0,1,.518-.456c.111.126,2.708,3.2-1.578,11.086a.344.344,0,0,1-.3.18" fill="#1a1a1a"/>
        <path id="Trazado_836982" data-name="Trazado 836982" d="M76.158,79.915c-.392-.383-.311-.586-.135-.66,4.51-1.936,10.691-5.308,10.311-6.745C83,59.917,83.554,54.731,83.66,54a9.054,9.054,0,0,0-5.854-6.157c-7.147-2.64-18.509.864-21.578,2.879-.239.138-5.383,3.208-2.32,12.789a.345.345,0,0,1-.224.434.342.342,0,0,1-.433-.223c-3.241-10.144,2.56-13.554,2.619-13.588C59,48.081,70.686,44.48,78.045,47.2a9.717,9.717,0,0,1,6.3,6.684c0,.207-.833,5.28,2.656,18.45.67,2.529-8.8,6.736-10.706,7.553a.34.34,0,0,1-.136.027" fill="#1a1a1a"/>
        <path id="Trazado_836983" data-name="Trazado 836983" d="M57.572,82.051c-.331-.133-.394-.341-.3-.508l.217-.4a14.539,14.539,0,0,0,1.426-3.123.341.341,0,0,1,.425-.237.345.345,0,0,1,.238.426,15.3,15.3,0,0,1-1.484,3.265l-.217.4a.344.344,0,0,1-.3.18" fill="#1a1a1a"/>
        <path id="Trazado_836984" data-name="Trazado 836984" d="M57.572,82.051a.344.344,0,0,1-.1-.674A25.283,25.283,0,0,0,61.4,79.7a.344.344,0,1,1,.317.61,25.133,25.133,0,0,1-4.049,1.73.338.338,0,0,1-.1.015" fill="#1a1a1a"/>
        <path id="Trazado_836985" data-name="Trazado 836985" d="M69.83,155.358H16.717c-4.98,0-6.861-4.021-8.044-7.957l-2.362-8.388a.344.344,0,0,1,.238-.425.34.34,0,0,1,.426.237l2.361,8.382c1.592,5.3,3.731,7.463,7.381,7.463H69.83a7.375,7.375,0,0,0,7.368-7.321L69.323,119.39c-1.613-5.158-3.89-7.464-7.381-7.464H8.829a7.377,7.377,0,0,0-7.368,7.323L4.8,131.121a.344.344,0,0,1-.239.425.34.34,0,0,1-.425-.237L.783,119.39a8.068,8.068,0,0,1,8.046-8.152H61.942c4.978,0,6.974,4.54,8.042,7.956l7.892,28.013a8.069,8.069,0,0,1-8.046,8.151" fill="#1a1a1a"/>
        <path id="Trazado_836986" data-name="Trazado 836986" d="M67.423,155.358a.344.344,0,1,1,0-.688,7.25,7.25,0,0,0,7.368-7.056l-7.874-27c-1.612-4.978-3.89-7.2-7.383-7.2H4.3a.344.344,0,1,1,0-.689H59.534c4.976,0,6.973,4.389,8.042,7.69l7.891,27.06a7.935,7.935,0,0,1-8.044,7.888" fill="#1a1a1a"/>
        <path id="Trazado_836987" data-name="Trazado 836987" d="M102.731,155.358H70.291a.344.344,0,1,1,0-.688h32.44a1.535,1.535,0,0,0,0-3.069H76.446a.344.344,0,1,1,0-.688h26.285a2.223,2.223,0,1,1,0,4.445" fill="#1a1a1a"/>
        <path id="Trazado_836988" data-name="Trazado 836988" d="M78.591,151.6c-.266-.055-.38-.242-.334-.425.06-.249,1.513-6.065,4.408-6.819a34.993,34.993,0,0,1,11.314-.481,5.643,5.643,0,0,1,2.278,1.115,3.227,3.227,0,0,1,.686,4.436,4.284,4.284,0,0,0-.8,1.882.356.356,0,0,1-.393.289.345.345,0,0,1-.289-.393,4.941,4.941,0,0,1,.923-2.184,2.534,2.534,0,0,0-.549-3.481,5.011,5.011,0,0,0-1.981-.985,34.67,34.67,0,0,0-11.018.467c-2.5.654-3.9,6.261-3.913,6.316a.346.346,0,0,1-.335.263" fill="#1a1a1a"/>
        <path id="Trazado_836989" data-name="Trazado 836989" d="M68.616,70.312A4.883,4.883,0,1,1,73.5,65.431a4.861,4.861,0,0,1-4.883,4.881m0-9.079a4.2,4.2,0,1,0,2.964,1.232,4.2,4.2,0,0,0-2.964-1.232" fill="#1a1a1a"/>
        <path id="Trazado_836990" data-name="Trazado 836990" d="M57.436,72.764a4.884,4.884,0,1,1,4.884-4.882,4.892,4.892,0,0,1-4.884,4.882m0-9.08a4.2,4.2,0,1,0,4.191,4.2,4.2,4.2,0,0,0-4.191-4.2" fill="#1a1a1a"/>
        <path id="Trazado_836991" data-name="Trazado 836991" d="M61.956,67.215c-.261-.052-.377-.232-.337-.416a1.445,1.445,0,0,1,.72-.915,2.16,2.16,0,0,1,1.871.1.344.344,0,0,1-.269.633,1.6,1.6,0,0,0-1.278-.128.741.741,0,0,0-.371.457.347.347,0,0,1-.336.265" fill="#1a1a1a"/>
        <path id="Trazado_836992" data-name="Trazado 836992" d="M104.609,153.689a.345.345,0,0,1-.027-.688,19.057,19.057,0,0,0,12.808-6c7.378-7.707,7.753-20.612,3.856-28.636-17.974-37.008-40.9-35.017-41.128-34.983a.334.334,0,0,1-.361-.223l-1.583-4.328a.345.345,0,0,1,.648-.237l1.494,4.085c2.659-.1,24.408.09,41.55,35.384,4,8.237,3.607,21.49-3.977,29.415a20,20,0,0,1-13.254,6.209Z" fill="#1a1a1a"/>
        <path id="Trazado_836993" data-name="Trazado 836993" d="M50.711,111.926a.348.348,0,0,1-.344-.365A50.97,50.97,0,0,1,53.2,99.118a.344.344,0,1,1,.644.243A50.314,50.314,0,0,0,51.055,111.6a.343.343,0,0,1-.344.323" fill="#1a1a1a"/>
        <path id="Trazado_836994" data-name="Trazado 836994" d="M80.771,146.6a.345.345,0,0,1-.341-.289c-.988-6.031,4.256-8.365,10.328-11.066,3.466-1.541,7.049-3.136,9.927-5.588a9.068,9.068,0,0,0,3.381-6.682c.335-7.454-7.6-15.637-7.676-15.718a.345.345,0,1,1,.492-.484c.336.344,8.22,8.484,7.873,16.233a9.733,9.733,0,0,1-3.623,7.177c-2.954,2.516-6.584,4.13-10.093,5.692-5.812,2.585-10.831,4.817-9.928,10.326a.345.345,0,0,1-.285.4.34.34,0,0,1-.055,0" fill="#1a1a1a"/>
        <path id="Trazado_836995" data-name="Trazado 836995" d="M94.5,134.3c-.261-.05-.378-.234-.336-.42l5.22-23.187a.336.336,0,0,1,.412-.261.345.345,0,0,1,.26.413l-5.219,23.187a.344.344,0,0,1-.337.268" fill="#1a1a1a"/>
        <path id="Trazado_836996" data-name="Trazado 836996" d="M93.4,151.6a.345.345,0,0,1-.345-.344v-2.312a6.194,6.194,0,0,0-.8,2.044.345.345,0,0,1-.676-.139c.053-.256.545-2.508,1.689-2.978.477.318.477,3.385.477,3.385a.345.345,0,0,1-.345.344" fill="#1a1a1a"/>
        <path id="Trazado_836997" data-name="Trazado 836997" d="M35.961,137.75a4.421,4.421,0,0,1-4.015-3.362c-.7-2.379.38-4.8,2.412-5.4a3.4,3.4,0,0,1,.945-.136,4.42,4.42,0,0,1,4.015,3.362c.7,2.379-.38,4.8-2.412,5.4a3.354,3.354,0,0,1-.945.137m-.658-8.212a2.611,2.611,0,0,0-.75.108c-1.668.492-2.54,2.532-1.946,4.546a3.73,3.73,0,0,0,3.354,2.868,2.607,2.607,0,0,0,.75-.109c1.667-.492,2.54-2.532,1.946-4.546a3.73,3.73,0,0,0-3.354-2.867" fill="#1a1a1a"/>
        <path id="Trazado_836998" data-name="Trazado 836998" d="M68.269,77.08c-.087-.012-3.618-.944-3.618-.944a.344.344,0,1,1,.175-.665l3.224.851,1.272-3.634a.345.345,0,0,1,.651.227L68.6,76.849a.346.346,0,0,1-.326.231" fill="#1a1a1a"/>
        <path id="Trazado_836999" data-name="Trazado 836999" d="M65.3,81.144c-5.968,0-7.648-5.125-8.268-7.011-.056-.174-.1-.32-.147-.437-.591-1.6-2.714-9.805-2.8-10.154a.345.345,0,0,1,.668-.172c.089.347,2.2,8.514,2.783,10.089.045.122.1.276.156.458.757,2.312,2.769,8.449,11.307,5.952a.345.345,0,0,1,.194.663,13.947,13.947,0,0,1-3.889.612" fill="#1a1a1a"/>
        <path id="Trazado_837000" data-name="Trazado 837000" d="M33.6,111.61c-.339-.145-.394-.356-.3-.52C47.725,86.638,64.688,84.842,67.6,84.719L66.8,80.9a.345.345,0,0,1,.267-.407.341.341,0,0,1,.409.268l.88,4.225c-.559.4-18.938.133-34.463,26.455a.347.347,0,0,1-.3.169" fill="#1a1a1a"/>
        <path id="Trazado_837001" data-name="Trazado 837001" d="M77.418,69.114a.344.344,0,0,1-.012-.688,3.41,3.41,0,0,0,2.912-1.393,4.478,4.478,0,0,0,.259-3.853c-.32-.841-1.557-3.522-4.116-2.6a2.7,2.7,0,0,0-1.521,2.474.345.345,0,0,1-.69.007,3.359,3.359,0,0,1,1.979-3.131c2.5-.888,4.218.966,4.992,3.005a5.142,5.142,0,0,1-.329,4.479,4.048,4.048,0,0,1-3.462,1.7Z" fill="#1a1a1a"/>
        <path id="Trazado_837002" data-name="Trazado 837002" d="M79.147,66.406c-.039,0-3.027-.341-3.027-.341-.283-.465,1.252-4.442,1.252-4.442a.34.34,0,0,1,.444-.2.345.345,0,0,1,.2.445l-1.374,3.561,2.544.288a.345.345,0,0,1-.038.687" fill="#1a1a1a"/>
        <path id="Trazado_837003" data-name="Trazado 837003" d="M73.655,91.506c-5.222,0-5.97-6.349-5.978-6.414a.346.346,0,0,1,.306-.38.341.341,0,0,1,.38.306c.025.238.691,5.8,5.293,5.8,4.824-.083,6.073-7.75,6.085-7.828a.362.362,0,0,1,.393-.287.347.347,0,0,1,.288.4c-.053.339-1.35,8.316-6.652,8.408-.039,0-.077,0-.115,0" fill="#1a1a1a"/>
        <path id="Trazado_837004" data-name="Trazado 837004" d="M192.857,155.354H167.44a.344.344,0,1,1,0-.688h25.417a.344.344,0,1,1,0,.688" fill="#1a1a1a"/>
        <path id="Trazado_837005" data-name="Trazado 837005" d="M143.488,155.354H102.82a.344.344,0,1,1,0-.688h40.668a.344.344,0,1,1,0,.688" fill="#1a1a1a"/>
      </g>
    </g>
  </g>
</svg>
