<svg xmlns="http://www.w3.org/2000/svg" xmlns:xlink="http://www.w3.org/1999/xlink" width="62" height="62" viewBox="0 0 62 62">
  <defs>
    <clipPath id="clip-path">
      <rect id="Rect치ngulo_384981" data-name="Rect치ngulo 384981" width="34.98" height="31.292" fill="none"/>
    </clipPath>
  </defs>
  <g id="Grupo_1018664" data-name="Grupo 1018664" transform="translate(-1081 -5958)">
    <g id="Grupo_1014936" data-name="Grupo 1014936" transform="translate(-184 -6948)">
      <g id="Grupo_1014859" data-name="Grupo 1014859" transform="translate(880.001 10848)">
        <path id="Uni칩n_12" data-name="Uni칩n 12" d="M44.385,58.97a31.027,31.027,0,1,1,10.348-8.025L58.991,62Z" transform="translate(384.999 2058)" fill="#a3bfe4"/>
        <circle id="Elipse_4842" data-name="Elipse 4842" cx="26" cy="26" r="26" transform="translate(389.999 2063)" fill="#fff"/>
      </g>
    </g>
    <g id="Grupo_1016925" data-name="Grupo 1016925" transform="translate(1093.319 5974.508)">
      <g id="Grupo_1016924" data-name="Grupo 1016924" clip-path="url(#clip-path)">
        <path id="Trazado_833815" data-name="Trazado 833815" d="M19.363,7.08c.086.147.144.24.195.337.335.646.656,1.3,1.005,1.937a.667.667,0,0,0,1.225.025q.888-1.766,1.711-3.565a.667.667,0,0,0-.65-.962.76.76,0,0,0-.632.5c-.339.711-.683,1.42-1.053,2.187-.4-.763-.762-1.467-1.123-2.173a.771.771,0,0,0-.692-.523c-.372,0-.558.248-.7.555-.328.7-.667,1.393-1.018,2.124-.068-.116-.122-.2-.168-.289-.336-.645-.664-1.294-1.006-1.936a.687.687,0,0,0-.93-.388c-.391.177-.5.58-.262,1.045.532,1.043,1.075,2.08,1.61,3.121.169.329.325.675.769.675.465,0,.612-.365.775-.709.3-.642.616-1.28.948-1.968M20.8.066a.7.7,0,0,0-.669.686A.678.678,0,0,0,21.484.735.7.7,0,0,0,20.8.066" transform="translate(-12.197 -0.053)" fill="#566377"/>
        <path id="Trazado_833816" data-name="Trazado 833816" d="M34.981,29.321a2.7,2.7,0,0,1-.9,1.487,2.309,2.309,0,0,1-2.819.008,5.682,5.682,0,0,1-.454-.413q-2.49-2.486-4.972-4.979a.361.361,0,0,0-.515-.079A8.877,8.877,0,0,1,12.7,20.122a8.746,8.746,0,0,1,.01-5.276c.033-.106.058-.214.1-.353h-.4q-4.765,0-9.529,0A2.709,2.709,0,0,1,.108,12.453a3.365,3.365,0,0,1-.1-.877Q0,7.255,0,2.933A2.756,2.756,0,0,1,2.936.008c.831,0,1.662,0,2.493,0A.706.706,0,0,1,6.2.586c.077.43-.256.781-.767.785-.831.008-1.662,0-2.493,0A1.4,1.4,0,0,0,1.368,2.953q0,4.3,0,8.608a1.4,1.4,0,0,0,1.554,1.564q5.106,0,10.212-.007a.56.56,0,0,0,.419-.177,9.106,9.106,0,0,1,3.725-3.416c.039-.02.074-.048.131-.084L16.149,7.01l-.956,1.979a4.041,4.041,0,0,1-.183.366.66.66,0,0,1-1.173.005C13.2,8.18,12.586,6.985,11.981,5.787a.667.667,0,0,1,.284-.911.677.677,0,0,1,.945.341c.394.73.768,1.471,1.172,2.249.064-.108.117-.185.157-.269.292-.6.586-1.207.869-1.815.147-.316.325-.587.716-.587.372,0,.554.253.706.554.354.7.721,1.392,1.11,2.139.319-.662.617-1.283.917-1.9a3.813,3.813,0,0,1,.255-.481.652.652,0,0,1,.868-.232.632.632,0,0,1,.314.81c-.17.432-.382.849-.581,1.27-.3.627-.6,1.251-.9,1.877-.008.017,0,.042,0,.1a9.21,9.21,0,0,1,3.634-.227c-.2-.393-.368-.725-.539-1.056-.308-.6-.625-1.187-.925-1.787a.7.7,0,0,1,.242-.982.691.691,0,0,1,.969.354c.2.359.377.727.565,1.09s.378.725.589,1.129c.063-.1.114-.165.15-.239.313-.644.627-1.288.933-1.936a.7.7,0,0,1,1.329-.011c.367.718.742,1.432,1.134,2.189.064-.1.115-.169.151-.244.306-.635.606-1.273.916-1.906.223-.457.588-.62.961-.446A.694.694,0,0,1,29.2,5.884C28.67,7,28.13,8.119,27.6,9.237a.708.708,0,0,1-.655.467.72.72,0,0,1-.661-.46c-.373-.726-.751-1.45-1.158-2.234L24.116,9.092c.1.048.181.1.271.133a8.789,8.789,0,0,1,4.366,3.66.439.439,0,0,0,.431.246c.979-.012,1.958,0,2.937-.006a1.375,1.375,0,0,0,1.492-1.488q0-4.373,0-8.745a1.384,1.384,0,0,0-1.532-1.518H11.794a2.486,2.486,0,0,1-.408-.017A.68.68,0,0,1,10.8.7a.686.686,0,0,1,.6-.677,2.235,2.235,0,0,1,.341-.013C18.507.007,25.27.017,32.033,0a2.8,2.8,0,0,1,2.9,2.307.369.369,0,0,0,.044.092v9.7a1.27,1.27,0,0,0-.055.159A2.556,2.556,0,0,1,33.42,14.2a3.978,3.978,0,0,1-1.351.28c-.824.044-1.653.012-2.5.012a9.023,9.023,0,0,1-2.8,9.933L32,29.659a.77.77,0,0,0,.077.067.947.947,0,0,0,1.519-.561.979.979,0,0,0-.328-.921c-.654-.649-1.3-1.3-1.956-1.954a.726.726,0,0,1-.239-.857.679.679,0,0,1,1.157-.151c.548.53,1.07,1.087,1.623,1.611a3.5,3.5,0,0,1,1.128,1.745ZM21.166,9.984a7.515,7.515,0,1,0,7.528,7.509,7.539,7.539,0,0,0-7.528-7.509" transform="translate(0 0)" fill="#566377"/>
        <path id="Trazado_833817" data-name="Trazado 833817" d="M19.363,26.925c-.332.688-.643,1.326-.948,1.968-.164.344-.31.709-.775.709-.444,0-.6-.346-.769-.675-.535-1.041-1.078-2.079-1.61-3.121-.238-.465-.129-.869.262-1.045a.687.687,0,0,1,.93.388c.342.642.671,1.291,1.006,1.936.046.089.1.173.168.289.351-.732.69-1.426,1.018-2.124.144-.307.331-.554.7-.555a.771.771,0,0,1,.692.523c.361.706.728,1.409,1.123,2.173.37-.767.714-1.476,1.053-2.187a.76.76,0,0,1,.632-.5.667.667,0,0,1,.65.962q-.823,1.8-1.711,3.565a.667.667,0,0,1-1.225-.025c-.349-.638-.67-1.291-1.005-1.937-.05-.1-.109-.189-.195-.337" transform="translate(-12.196 -19.898)" fill="#566377"/>
        <path id="Trazado_833818" data-name="Trazado 833818" d="M41.508.066a.7.7,0,0,1,.686.669.678.678,0,0,1-1.355.016.7.7,0,0,1,.669-.686" transform="translate(-32.907 -0.053)" fill="#566377"/>
        <path id="Trazado_833819" data-name="Trazado 833819" d="M151.985,120.494a.7.7,0,0,1,.683.669.681.681,0,0,1-.668.678.69.69,0,0,1-.687-.663.706.706,0,0,1,.672-.684" transform="translate(-121.925 -97.092)" fill="#566377"/>
        <path id="Trazado_833820" data-name="Trazado 833820" d="M84.109,71.174a6.012,6.012,0,1,1,6.016-5.989,6.033,6.033,0,0,1-6.016,5.989m0-10.657a4.645,4.645,0,1,0,4.651,4.647,4.661,4.661,0,0,0-4.651-4.647" transform="translate(-62.935 -47.662)" fill="#566377"/>
        <path id="Trazado_833821" data-name="Trazado 833821" d="M109.315,77.312a.682.682,0,1,1-1.362.039,1.724,1.724,0,0,0-1.434-1.669c-.112-.02-.227-.017-.339-.037a.686.686,0,0,1-.609-.736.7.7,0,0,1,.737-.615,3.1,3.1,0,0,1,3.007,3.018" transform="translate(-85.064 -59.865)" fill="#566377"/>
      </g>
    </g>
  </g>
</svg>
