<svg xmlns="http://www.w3.org/2000/svg" xmlns:xlink="http://www.w3.org/1999/xlink" width="400" height="210" viewBox="0 0 400 210">
  <defs>
    <clipPath id="clip-path">
      <rect id="Rectángulo_385591" data-name="Rectángulo 385591" width="330.622" height="209.099" fill="none"/>
    </clipPath>
    <clipPath id="clip-path-3">
      <rect id="Rectángulo_385584" data-name="Rectángulo 385584" width="98.83" height="11.864" fill="none"/>
    </clipPath>
  </defs>
  <g id="Grupo_1018536" data-name="Grupo 1018536" transform="translate(-285 -1815)">
    <g id="Grupo_1018535" data-name="Grupo 1018535" transform="translate(320 1815.45)">
      <g id="Grupo_1018534" data-name="Grupo 1018534" clip-path="url(#clip-path)">
        <g id="Grupo_1018533" data-name="Grupo 1018533">
          <g id="Grupo_1018532" data-name="Grupo 1018532" clip-path="url(#clip-path)">
            <path id="Trazado_836710" data-name="Trazado 836710" d="M350.457,204.621H47.627s.689-92.661,70.584-70.117,28.726-89.38,109.709-92.8,54.229,96.452,84.967,102.018,37.569,60.894,37.569,60.894" transform="translate(-24.643 -21.537)" fill="#f2f2f4"/>
            <path id="Trazado_836711" data-name="Trazado 836711" d="M194.506,148.469a5.325,5.325,0,1,1-5.325-5.325,5.325,5.325,0,0,1,5.325,5.325" transform="translate(-95.131 -74.066)" fill="#f2f2f4"/>
            <path id="Trazado_836712" data-name="Trazado 836712" d="M226.347,171.717a10.491,10.491,0,1,1-10.491-10.491,10.491,10.491,0,0,1,10.491,10.491" transform="translate(-106.261 -83.422)" fill="#f2f2f4"/>
            <path id="Trazado_836713" data-name="Trazado 836713" d="M349.636,371.166c0,9.11-70.043,16.495-156.444,16.495S36.747,380.276,36.747,371.166s70.043-16.495,156.445-16.495,156.444,7.385,156.444,16.495" transform="translate(-19.014 -183.515)" fill="#dddde8"/>
            <path id="Trazado_836714" data-name="Trazado 836714" d="M87.638,402.526C35.554,399.11.5,392.714.5,385.387c0-2.092,2.859-4.109,8.157-6" transform="translate(-0.259 -196.302)" fill="none" stroke="#1f2326" stroke-miterlimit="10" stroke-width="1"/>
            <path id="Trazado_836715" data-name="Trazado 836715" d="M397.169,425.266c-28.385,2.289-63.07,3.634-100.519,3.634-21.069,0-41.264-.426-59.953-1.206" transform="translate(-122.472 -220.042)" fill="none" stroke="#1f2326" stroke-miterlimit="10" stroke-width="1"/>
            <path id="Trazado_836716" data-name="Trazado 836716" d="M608.244,203.522a10.077,10.077,0,1,1-10.077-10.077,10.077,10.077,0,0,1,10.077,10.077" transform="translate(-304.291 -100.093)" fill="#f2f2f4"/>
            <path id="Trazado_836717" data-name="Trazado 836717" d="M501,74.029a108.141,108.141,0,0,0,15.63-6.5l.38-3.062,2.4,1.49c5.676-3.427,9.946-7.6,7.8-11.785-2.188-4.248-7.089-5.03-12.074-2.918l-.365,3.715-2.477-2.2C506.6,56.438,501.482,63.824,501,74.029" transform="translate(-259.23 -25.933)" fill="#60a2f4"/>
            <path id="Trazado_836718" data-name="Trazado 836718" d="M522.563,60.154S500.971,62.5,495.082,87.572" transform="translate(-256.167 -31.125)" fill="none" stroke="#080808" stroke-miterlimit="10" stroke-width="1.575"/>
            <path id="Trazado_836719" data-name="Trazado 836719" d="M399.845,63.994a108.1,108.1,0,0,1-15.63-6.5l-.38-3.062-2.4,1.489c-5.676-3.427-9.946-7.6-7.8-11.785,2.189-4.248,7.09-5.03,12.074-2.918l.365,3.715,2.477-2.2c5.691,3.678,10.813,11.064,11.291,21.268" transform="translate(-193.036 -20.74)" fill="#fff198"/>
            <path id="Trazado_836720" data-name="Trazado 836720" d="M377.526,50.119s21.592,2.343,27.48,27.418" transform="translate(-195.341 -25.933)" fill="none" stroke="#080808" stroke-miterlimit="10" stroke-width="1.575"/>
            <path id="Trazado_836721" data-name="Trazado 836721" d="M467.708,45.165s7.652-9.118,17.226-19.338l-1.824-4.506s2.933.334,5.342.653c8.343-10.053,4.18-17.1,2.386-19.08-1.588-1.747-9.787-6.4-18.176,1.831l.509,4.437H469.03c-.448.654-.889,1.345-1.322,2.09-9.825,16.717,0,33.912,0,33.912" transform="translate(-239.743 0)" fill="#fff198"/>
            <path id="Trazado_836722" data-name="Trazado 836722" d="M492.453,6s-18.869,14.754-20.389,33.37S470.5,71.157,470.5,71.157" transform="translate(-243.448 -3.105)" fill="none" stroke="#080808" stroke-miterlimit="10" stroke-width="1.575"/>
            <path id="Trazado_836723" data-name="Trazado 836723" d="M409.212,29.6l2.8-.479-.76,2.211c10.364,8.579,11.6,7.7,15.774,13.062,0,0,4.719-17.2-5.942-26.853l-3.123,1.064.41-3.138c-13.244-8.525-20.113,4.3-9.164,14.133" transform="translate(-208.921 -6.561)" fill="#60a2f4"/>
            <path id="Trazado_836724" data-name="Trazado 836724" d="M408.9,18.934S429.42,27.1,431.13,58.256" transform="translate(-211.576 -9.797)" fill="none" stroke="#080808" stroke-miterlimit="10" stroke-width="1.575"/>
            <path id="Trazado_836725" data-name="Trazado 836725" d="M572.629,262.654a45.646,45.646,0,0,0-8.435-7.113v-1.826l-1.281.893c-4.762-3.774-4.537-7.549.116-8.08a6.518,6.518,0,0,1,3.774.64l-.109,1.778,1.9-.436c2.269,2.337,3.836,6.827,4.033,14.144" transform="translate(-289.467 -127.534)" fill="#60a2f4"/>
            <path id="Trazado_836726" data-name="Trazado 836726" d="M606.445,231.319a16.955,16.955,0,0,1-2.371,2.535l-2.773-.831.436,2.786a135.941,135.941,0,0,1-11.677,7.957c-.3-6.786,1.042-14.9,6.881-18.456l2.044.981-.634-1.717a12.82,12.82,0,0,1,1.335-.491c8.176-2.473,9.968,2.725,6.759,7.235" transform="translate(-305.29 -115.615)" fill="#60a2f4"/>
            <path id="Trazado_836727" data-name="Trazado 836727" d="M572.512,216.575a51.3,51.3,0,0,1-8.291-5.3v-2.221l-1.56.858c-2.371-2.269-3.931-4.8-2.786-7.072,1.294-2.562,4.2-2.759,6.935-1.124l.116,2.146,1.607-.838c2.848,2.657,4.994,7.419,3.979,13.551" transform="translate(-289.493 -103.829)" fill="#60a2f4"/>
            <path id="Trazado_836728" data-name="Trazado 836728" d="M608.188,205.831,605.422,205v1.894c-4.449,1.6-9.913,3.168-9.913,3.168.988-5.171,3.386-9.811,8.3-11.3l1.1,1.049.743-1.444c.341-.048.688-.075,1.049-.1,6.874-.341,5.961,5.668,1.485,7.562" transform="translate(-308.13 -102.581)" fill="#60a2f4"/>
            <path id="Trazado_836729" data-name="Trazado 836729" d="M574.154,183.745s-4.687-5.212-10.206-10.71l.77-2.814-2.95.675c-.055-.055-.116-.109-.17-.164-6.472-6.247-3.284-14.763,6.363-11.016a10.976,10.976,0,0,1,2.446,1.308l-.347,2.384,2.384-.511c4.6,5.512,3.386,15.165,1.71,20.847" transform="translate(-288.833 -82.165)" fill="#60a2f4"/>
            <path id="Trazado_836730" data-name="Trazado 836730" d="M613.727,173.03a9.774,9.774,0,0,1-2.351,2.991l-2.568.279.265,1.533a50.5,50.5,0,0,1-9.654,4.946s.109-7.869,5.382-12.9a2.876,2.876,0,0,1,.225-.2l2.132.715-.184-2.139c4.619-2.589,8.9.143,6.752,4.776" transform="translate(-310.154 -86.541)" fill="#60a2f4"/>
            <path id="Trazado_836731" data-name="Trazado 836731" d="M586.685,282.291h-26.4l4.258,27.145v10.07a2.171,2.171,0,0,0,.654,1.474,2.4,2.4,0,0,0,1.7.581c.1,0,.207,0,.314-.012,2.165-.161,2.09-4.416,2.029-7.835-.006-.353-.012-.694-.015-1.021h10.006c0,.327-.009.668-.015,1.021-.061,3.419-.137,7.674,2.029,7.835.108.008.212.012.314.012a2.4,2.4,0,0,0,1.7-.581,2.169,2.169,0,0,0,.654-1.474v-9.663Zm-18.129,31.436c.05,2.8.125,7.031-1.4,7.143a1.93,1.93,0,0,1-1.491-.383,1.494,1.494,0,0,1-.443-.98v-6.813h3.316c0,.331.009.677.015,1.033m14.233,6.755a1.928,1.928,0,0,1-1.5.388c-1.524-.112-1.449-4.343-1.4-7.143.006-.357.012-.7.016-1.033h3.316v6.813a1.492,1.492,0,0,1-.437.975" transform="translate(-289.904 -146.064)" fill="#070707"/>
            <rect id="Rectángulo_385576" data-name="Rectángulo 385576" width="29.296" height="4.258" transform="translate(268.848 134.098)" fill="#252728"/>
            <path id="Trazado_836732" data-name="Trazado 836732" d="M606.354,172.7s-18.224,7.494-19.161,34.065,0,30.658,0,30.658" transform="translate(-303.611 -89.36)" fill="none" stroke="#252728" stroke-miterlimit="10" stroke-width="1.412"/>
            <path id="Trazado_836733" data-name="Trazado 836733" d="M562.168,250.115a16.823,16.823,0,0,1,11.875,14.421" transform="translate(-290.879 -129.415)" fill="none" stroke="#252728" stroke-miterlimit="10" stroke-width="1.412"/>
            <path id="Trazado_836734" data-name="Trazado 836734" d="M604.764,226.82s-17.808,9.084-17.988,27.933" transform="translate(-303.611 -117.362)" fill="none" stroke="#252728" stroke-miterlimit="10" stroke-width="1.412"/>
            <path id="Trazado_836735" data-name="Trazado 836735" d="M562.168,206.232a18.851,18.851,0,0,1,12.292,17.884" transform="translate(-290.879 -106.709)" fill="none" stroke="#252728" stroke-miterlimit="10" stroke-width="1.412"/>
            <path id="Trazado_836736" data-name="Trazado 836736" d="M565.226,163.525s14.458,10.038,12.556,26.765" transform="translate(-292.461 -84.612)" fill="none" stroke="#252728" stroke-miterlimit="10" stroke-width="1.412"/>
            <path id="Trazado_836737" data-name="Trazado 836737" d="M606.8,203.761s-18.224,1.817-19.161,21.347" transform="translate(-304.058 -105.431)" fill="none" stroke="#252728" stroke-miterlimit="10" stroke-width="1.412"/>
            <path id="Trazado_836738" data-name="Trazado 836738" d="M63.069,285.114A85.521,85.521,0,0,1,50.7,279.968l-.3-2.423-1.9,1.178c-4.49-2.711-7.869-6.011-6.168-9.323,1.731-3.361,5.609-3.98,9.552-2.309l.289,2.94,1.96-1.744c4.5,2.909,8.554,8.753,8.933,16.826" transform="translate(-21.674 -137.737)" fill="#fff198"/>
            <path id="Trazado_836739" data-name="Trazado 836739" d="M45.411,274.137s17.082,1.854,21.741,21.691" transform="translate(-23.497 -141.845)" fill="none" stroke="#080808" stroke-miterlimit="10" stroke-width="1.246"/>
            <path id="Trazado_836740" data-name="Trazado 836740" d="M71.335,250.416s-6.053-7.214-13.628-15.3l1.443-3.565s-2.32.264-4.226.517c-6.6-7.953-3.307-13.532-1.888-15.1,1.257-1.383,7.743-5.061,14.379,1.449l-.4,3.511h3.276c.355.517.7,1.064,1.046,1.653,7.773,13.225,0,26.829,0,26.829" transform="translate(-26.363 -111.082)" fill="#fff198"/>
            <path id="Trazado_836741" data-name="Trazado 836741" d="M58.7,219.431s14.929,11.672,16.131,26.4,1.236,25.148,1.236,25.148" transform="translate(-30.372 -113.539)" fill="none" stroke="#080808" stroke-miterlimit="10" stroke-width="1.246"/>
            <path id="Trazado_836742" data-name="Trazado 836742" d="M114.764,264.931l-2.218-.379.6,1.749c-8.2,6.787-9.18,6.09-12.479,10.333,0,0-3.733-13.6,4.7-21.244l2.471.842-.325-2.483c10.478-6.744,15.912,3.4,7.25,11.181" transform="translate(-51.662 -130.154)" fill="#fff198"/>
            <path id="Trazado_836743" data-name="Trazado 836743" d="M116.767,256.49s-16.231,6.462-17.583,31.109" transform="translate(-51.32 -132.714)" fill="none" stroke="#080808" stroke-miterlimit="10" stroke-width="1.246"/>
            <path id="Trazado_836744" data-name="Trazado 836744" d="M93.194,313.58H63.54s-1.311,11.331,1.3,20.788v13.057a3.276,3.276,0,0,0,1.869,2.951,3.846,3.846,0,0,0,1.635.415,2.379,2.379,0,0,0,1.334-.391c1.124-.746,1.779-2.531,1.96-5.332a13.18,13.18,0,0,0,14.331-.5c.132,3.089.8,5.043,1.984,5.837a2.406,2.406,0,0,0,1.334.391,3.848,3.848,0,0,0,1.641-.415,3.281,3.281,0,0,0,1.864-2.951V331.115h-.018a66.488,66.488,0,0,0,.421-17.535M69.347,349.9a2.344,2.344,0,0,1-2.381-.066,2.686,2.686,0,0,1-1.527-2.41V336.3a16.982,16.982,0,0,0,5.621,8.368c-.162,3.421-.98,4.749-1.713,5.236m22.843-2.477a2.679,2.679,0,0,1-1.521,2.41,2.355,2.355,0,0,1-2.386.066c-.776-.517-1.635-1.96-1.725-5.813,2.861-2.44,4.6-6.191,5.633-10.243Z" transform="translate(-32.707 -162.253)" fill="#070707"/>
            <rect id="Rectángulo_385577" data-name="Rectángulo 385577" width="32.863" height="5.01" transform="translate(29.228 148.823)" fill="#2a2832"/>
            <path id="Trazado_836745" data-name="Trazado 836745" d="M343.041,81.164v3.569H152.34V81.164a9.179,9.179,0,0,1,9.178-9.178H333.863a9.179,9.179,0,0,1,9.178,9.178" transform="translate(-78.824 -37.247)" fill="#b5c2fd"/>
            <path id="Trazado_836746" data-name="Trazado 836746" d="M343.041,98.4V221.108a9.179,9.179,0,0,1-9.178,9.178H161.518a9.179,9.179,0,0,1-9.178-9.178V98.4Z" transform="translate(-78.824 -50.915)" fill="#e8ebef"/>
            <path id="Trazado_836747" data-name="Trazado 836747" d="M486.631,83.061a2.974,2.974,0,1,1-2.975-2.975,2.974,2.974,0,0,1,2.975,2.975" transform="translate(-248.716 -41.438)" fill="#8fa9ed"/>
            <path id="Trazado_836748" data-name="Trazado 836748" d="M506.311,83.061a2.974,2.974,0,1,1-2.975-2.975,2.975,2.975,0,0,1,2.975,2.975" transform="translate(-258.899 -41.438)" fill="#8fa9ed"/>
            <path id="Trazado_836749" data-name="Trazado 836749" d="M525.99,83.061a2.974,2.974,0,1,1-2.975-2.975,2.975,2.975,0,0,1,2.975,2.975" transform="translate(-269.081 -41.438)" fill="#8fa9ed"/>
            <rect id="Rectángulo_385578" data-name="Rectángulo 385578" width="59.104" height="81.736" transform="translate(197.127 59.177)" fill="#fff"/>
            <line id="Línea_968" data-name="Línea 968" y2="81.58" transform="translate(207.651 59.333)" fill="none" stroke="#e8ebef" stroke-miterlimit="10" stroke-width="1"/>
            <line id="Línea_969" data-name="Línea 969" y2="81.58" transform="translate(217.928 59.333)" fill="none" stroke="#e8ebef" stroke-miterlimit="10" stroke-width="1"/>
            <line id="Línea_970" data-name="Línea 970" y2="81.58" transform="translate(228.205 59.333)" fill="none" stroke="#e8ebef" stroke-miterlimit="10" stroke-width="1"/>
            <line id="Línea_971" data-name="Línea 971" y2="81.58" transform="translate(238.482 59.333)" fill="none" stroke="#e8ebef" stroke-miterlimit="10" stroke-width="1"/>
            <line id="Línea_972" data-name="Línea 972" y2="81.58" transform="translate(248.759 59.333)" fill="none" stroke="#e8ebef" stroke-miterlimit="10" stroke-width="1"/>
            <line id="Línea_973" data-name="Línea 973" x2="59.641" transform="translate(196.591 68.414)" fill="none" stroke="#e8ebef" stroke-miterlimit="10" stroke-width="1"/>
            <line id="Línea_974" data-name="Línea 974" x2="59.641" transform="translate(196.591 77.046)" fill="none" stroke="#e8ebef" stroke-miterlimit="10" stroke-width="1"/>
            <line id="Línea_975" data-name="Línea 975" x2="59.641" transform="translate(196.591 85.677)" fill="none" stroke="#e8ebef" stroke-miterlimit="10" stroke-width="1"/>
            <line id="Línea_976" data-name="Línea 976" x2="59.641" transform="translate(196.591 94.309)" fill="none" stroke="#e8ebef" stroke-miterlimit="10" stroke-width="1"/>
            <line id="Línea_977" data-name="Línea 977" x2="59.641" transform="translate(196.591 102.94)" fill="none" stroke="#e8ebef" stroke-miterlimit="10" stroke-width="1"/>
            <line id="Línea_978" data-name="Línea 978" x2="59.641" transform="translate(196.591 111.571)" fill="none" stroke="#e8ebef" stroke-miterlimit="10" stroke-width="1"/>
            <line id="Línea_979" data-name="Línea 979" x2="59.641" transform="translate(196.591 120.203)" fill="none" stroke="#e8ebef" stroke-miterlimit="10" stroke-width="1"/>
            <line id="Línea_980" data-name="Línea 980" x1="59.641" transform="translate(196.591 128.834)" fill="none" stroke="#e8ebef" stroke-miterlimit="10" stroke-width="1"/>
            <line id="Línea_981" data-name="Línea 981" x2="59.641" transform="translate(196.591 137.465)" fill="none" stroke="#e8ebef" stroke-miterlimit="10" stroke-width="1"/>
            <path id="Trazado_836750" data-name="Trazado 836750" d="M408.488,208.366s8.235-.913,11.314-11.914,10.307-4.248,17.184-10.765,3.448-24.992,13.291-26.13,10.276,8.788,10.276,8.788" transform="translate(-211.361 -82.512)" fill="none" stroke="#f99595" stroke-miterlimit="10" stroke-width="2"/>
            <path id="Trazado_836751" data-name="Trazado 836751" d="M494.039,157.123a2,2,0,1,1-2-2,2,2,0,0,1,2,2" transform="translate(-253.554 -80.263)" fill="#60a2f4"/>
            <path id="Trazado_836752" data-name="Trazado 836752" d="M515.845,175.717a2,2,0,1,1-2-2,2,2,0,0,1,2,2" transform="translate(-264.837 -89.884)" fill="#60a2f4"/>
            <path id="Trazado_836753" data-name="Trazado 836753" d="M470.865,208.358a2,2,0,1,1-2-2,2,2,0,0,1,2,2" transform="translate(-241.563 -106.773)" fill="#60a2f4"/>
            <path id="Trazado_836754" data-name="Trazado 836754" d="M449.035,217.839a2,2,0,1,1-2-2,2,2,0,0,1,2,2" transform="translate(-230.268 -111.678)" fill="#60a2f4"/>
            <path id="Trazado_836755" data-name="Trazado 836755" d="M428.141,244.331a2,2,0,1,1-2-2,2,2,0,0,1,2,2" transform="translate(-219.457 -125.386)" fill="#60a2f4"/>
            <path id="Trazado_836756" data-name="Trazado 836756" d="M225.382,144.9a19.792,19.792,0,1,1-19.791-19.791A19.791,19.791,0,0,1,225.382,144.9" transform="translate(-96.137 -64.732)" fill="#f7f7f7"/>
            <rect id="Rectángulo_385579" data-name="Rectángulo 385579" width="60.087" height="5.045" transform="translate(87.909 104.96)" fill="#b5c2fd"/>
            <rect id="Rectángulo_385580" data-name="Rectángulo 385580" width="60.087" height="5.045" transform="translate(87.909 114.604)" fill="#f7f7f7"/>
            <rect id="Rectángulo_385581" data-name="Rectángulo 385581" width="35.289" height="5.045" transform="translate(87.909 124.511)" fill="#f7f7f7"/>
            <rect id="Rectángulo_385582" data-name="Rectángulo 385582" width="66.489" height="27.653" transform="translate(234.223 165.623)" fill="#fff"/>
            <path id="Trazado_836757" data-name="Trazado 836757" d="M547.133,371.564l16.556-26.995h20.122v26.995Z" transform="translate(-283.099 -178.288)" fill="#d1deee"/>
            <path id="Trazado_836758" data-name="Trazado 836758" d="M495.366,388.258a2.839,2.839,0,1,1-2.839-2.839,2.84,2.84,0,0,1,2.839,2.839" transform="translate(-253.376 -199.425)" fill="#a8bbd1"/>
            <path id="Trazado_836759" data-name="Trazado 836759" d="M495.436,389.289a1.878,1.878,0,1,1-1.878-1.878,1.878,1.878,0,0,1,1.878,1.878" transform="translate(-254.406 -200.455)" fill="#344b7e"/>
            <path id="Trazado_836760" data-name="Trazado 836760" d="M514.345,388.258a2.839,2.839,0,1,1-2.839-2.839,2.84,2.84,0,0,1,2.839,2.839" transform="translate(-263.196 -199.425)" fill="#344b7e"/>
            <path id="Trazado_836761" data-name="Trazado 836761" d="M567.382,196.253q1.649,7.132,3.26,14.273c.229,1.015.956,2.658.828,3.68-.1.8-.842.948-1.669,1.122a25.466,25.466,0,0,1-5.266.084c-2.049,0-4.135.112-6.181,0-2.506-.137-4.206-2.469-4.527-4.829a15.889,15.889,0,0,1,.831-6.242c.558-2.053,1.106-4.109,1.614-6.175.3-1.238.613-2.481.838-3.737.222-1.236-.835-2.493.432-3.494a4.776,4.776,0,0,1,2.735-.734,7.663,7.663,0,0,1,3.908.45c1.99,1,2.7,3.433,3.2,5.6" transform="translate(-286.523 -98.389)" fill="#1f2326"/>
            <path id="Trazado_836762" data-name="Trazado 836762" d="M532.112,235.851c-1.087,2.161-1.336,4.923-2.108,7.325a96.816,96.816,0,0,1-13.628,26.978c1.791,1.715,4.826,1.421,6.869.016s3.328-3.641,4.545-5.8c3.149-5.591,6.616-11.105,9.487-16.843a31.948,31.948,0,0,0,1.688-5.471c.627-2.068,2.27-4.349,2.27-6.567-.021-3.567-3.357-3.785-6-2.653a6.085,6.085,0,0,0-3.125,3.018" transform="translate(-267.185 -120.159)" fill="#4498e2"/>
            <path id="Trazado_836763" data-name="Trazado 836763" d="M543.951,251.668c-.137-5.431,3.4-10.243,4.526-15.559a173.151,173.151,0,0,0-.111,19.077c.1,1.94-1.041,4.239-2.763,2.21-1.187-1.4-1.607-3.965-1.652-5.729" transform="translate(-281.451 -122.168)" fill="#2d7fc9"/>
            <path id="Trazado_836764" data-name="Trazado 836764" d="M519.716,313.563l-13.32,1.581c-3.285.39-12.827,3.855-7.924,8.084A10.867,10.867,0,0,0,501.81,325a58.433,58.433,0,0,0,8.074,2.4c2.907.64,4.643.155,7.514-.2l15.58-1.906,10.806-11.736Z" transform="translate(-257.21 -162.245)" fill="#c47a7a"/>
            <path id="Trazado_836765" data-name="Trazado 836765" d="M565.154,317.591c.573.311,1.2.737,1.263,1.386a1.405,1.405,0,0,1-.683,1.237,3.988,3.988,0,0,1-1.391.493c-3.237.7-7.666,3.119-10.8,1.12-2.023-1.292-3.225-6.034-3.309-8.24.009.242,6.694,1,7.229,1.118a29.947,29.947,0,0,1,7.688,2.886" transform="translate(-284.705 -162.257)" fill="#c47a7a"/>
            <path id="Trazado_836766" data-name="Trazado 836766" d="M543.935,329.636a8.967,8.967,0,0,0,4.026,3.682c4.187,2.042,9.26,1.514,13.683.682,3.057-.575,5.89-1.853,7.049-4.841.871-2.246,1.684-7.319-1.2-8.6-2.8-1.25-9.313,2.257-12.271,2.469-5.183.372-6.945,1.708-8.208,2.019-3.46.851-3.991,2.75-3.082,4.595" transform="translate(-281.241 -165.723)" fill="#f99595"/>
            <path id="Trazado_836767" data-name="Trazado 836767" d="M573.317,266.4c.132,2.311.2,4.624.187,6.938-.02,3.493-2.935,4.128-5.777,2.481-2.944-1.706-6.018-3.376-9.467-3.706-4.968-.475-5.294-1.7-5.254-7.078.04-5.259-2.334-10.032-3.773-14.977a23.225,23.225,0,0,1-1.282-7.522c.175-2.641,1.717-5.429,2.706-7.9,2.074-5.188,9.274-4.917,13.811-4.3,2.545.347,5.394.5,6.981,2.627,2.154,2.884,2.4,6.974,1.608,10.361-.994,4.258-2.828,8.538-2.056,12.842.5,2.792,1.927,4.852,2.146,7.713q.1,1.26.169,2.522" transform="translate(-283.511 -119.01)" fill="#fff198"/>
            <path id="Trazado_836768" data-name="Trazado 836768" d="M572.806,302.05a7.945,7.945,0,0,1-1.99,4.9c-3.518-1.505-6.435-4.046-10.215-5.053-4.4-1.172-9.03-1.172-13.532-1.632-3.114-.333.123-5.5.851-6.929a18.027,18.027,0,0,0,2-8.821c4.536,2.5,10.82,4.936,13.622,9.408,1.011,1.613,2.128,3.858,3.885,4.8,1.582.848,3.628.123,4.835,1.772a2.9,2.9,0,0,1,.545,1.56" transform="translate(-282.378 -147.212)" fill="#fff198"/>
            <path id="Trazado_836769" data-name="Trazado 836769" d="M555.442,231.071c-.065.415-3.584,1.389-3.969,2.6s-2.988,9.106-2.988,9.106l1.432,16.276-2.24,13.882-5.542-1.491,3.727-16.411-1.311-13.575,4.015-9.774a11.627,11.627,0,0,1,6-1.679c3.747-.094.877,1.071.877,1.071" transform="translate(-280.513 -119.004)" fill="#4498e2"/>
            <path id="Trazado_836770" data-name="Trazado 836770" d="M574.393,229.025s-4.925,8.956-4.735,14.6c.268,7.974-1.565,16.769.789,24.741.905,3.067,3.158,5.114,5.493,7.139,1.039.9,2.768,2,3.388,3.258.715,1.454-.1,3.065,1.264,4.481a5.547,5.547,0,0,0,3.545,1.516,16.519,16.519,0,0,0,3.919-.29c-2.06.319-2.394-14.077-2.558-15.524-.818-7.217-1.668-14.463-2.675-21.63-.209-1.485-.242-16.12-1.1-16.348Z" transform="translate(-294.532 -118.503)" fill="#60a2f4"/>
            <path id="Trazado_836771" data-name="Trazado 836771" d="M581.02,250.394A119.721,119.721,0,0,1,577,264.337a47.58,47.58,0,0,1-3.088,6.686c-.927,1.632-1.486,3.473-2.391,5.02a55.993,55.993,0,0,1-2.243-6.065c-.358-2.821.89-3.685,2.6-5.845a100.014,100.014,0,0,0,9.146-13.739" transform="translate(-294.523 -129.56)" fill="#5397e0"/>
            <path id="Trazado_836772" data-name="Trazado 836772" d="M571.755,290.986c-.035.116,1.974,3.344,2.129,3.6a19.736,19.736,0,0,0,3.555,4.321c.15.137,4.016-6.516,4.312-7.146a48.563,48.563,0,0,0,2.95-8.587c.929-3.566.281-6.818-.187-10.425l-12.759,18.24" transform="translate(-295.839 -141.125)" fill="#5397e0"/>
            <path id="Trazado_836773" data-name="Trazado 836773" d="M568.908,232.984c-3.378.806-1.734,6.742-1.909,9.2a24.756,24.756,0,0,1-1.368,7.612,40.833,40.833,0,0,1-5.926,9.835A108.706,108.706,0,0,1,547.141,272.3c.827-.747,4.924.712,6.088.64,2.455-.152,4.977-1.559,7.024-2.822A31.46,31.46,0,0,0,573.3,253.068a37.178,37.178,0,0,0,1.843-10.809c.068-3.09-.183-6.007-2.638-8.182a4.165,4.165,0,0,0-3.537-1.107l-.057.013" transform="translate(-283.103 -120.507)" fill="#60a2f4"/>
            <path id="Trazado_836774" data-name="Trazado 836774" d="M555.27,190.935a13.738,13.738,0,0,0-.225,2.061,5.425,5.425,0,0,0,.986,3.647l1.758-5.373a4.3,4.3,0,0,0,.313-2.168c-.292-1.414-1.6-2.012-2.184-.473a13.33,13.33,0,0,0-.648,2.307" transform="translate(-287.189 -97.132)" fill="#c86f31"/>
            <path id="Trazado_836775" data-name="Trazado 836775" d="M572.461,222.474a4.237,4.237,0,0,1-3.282,2.533c-.875.205-3.833.583-4.429-.166-.411-.511-.046-1.253.245-1.843a6.383,6.383,0,0,0,.55-1.645,7.6,7.6,0,0,0-.908-5.079c.007-.007.007-.007,0-.007-.126-.246-.265-.471-.411-.7a.006.006,0,0,1-.006-.006l.311-.173a2.637,2.637,0,0,1,.325-.112,15.708,15.708,0,0,1,2.261-.259,31.726,31.726,0,0,0,4.058-1.008c.245-.073.484-.139.722-.205-1.744.464.948,7.492.564,8.672" transform="translate(-291.94 -110.626)" fill="#e9b98a"/>
            <path id="Trazado_836776" data-name="Trazado 836776" d="M571.174,214.228a13.925,13.925,0,0,1-5.629,7.347,7.6,7.6,0,0,0-.908-5.079c.006-.007.006-.007,0-.007-.193-.537-.365-.676-.411-.7a.007.007,0,0,1-.007-.007l.312-.172a2.745,2.745,0,0,1,.325-.113,15.708,15.708,0,0,1,2.261-.258,31.867,31.867,0,0,0,4.058-1.008" transform="translate(-291.94 -110.846)" fill="#ca876f"/>
            <path id="Trazado_836777" data-name="Trazado 836777" d="M568.958,190.958c1.081,2.261.5,4.178-.109,6.427-.387,1.42-1.9,4.028-3.826,3.051a3,3,0,0,0-.162.346c-1.33,2.887-6.5,5.661-8.943,2.53-1.893-2.424-1.889-6.454-1.381-9.336.043-.247.092-.479.145-.693a17.054,17.054,0,0,1,1.417-4.349,4.225,4.225,0,0,1,2.268-1.63c3.684-1.438,8.808-.073,10.59,3.655" transform="translate(-286.781 -96.624)" fill="#e9b98a"/>
            <path id="Trazado_836778" data-name="Trazado 836778" d="M573.989,206.612a2.812,2.812,0,0,0-2.6.159c-1.4.663-2.261,1.067-3.793.53a5.243,5.243,0,0,1-2.758-2.486c-1.167-2.148-1.1-4.257-.888-6.571.206-2.228,1.591-4.363,1.34-6.617a7.952,7.952,0,0,1-.126-1.677c.013-.106.033-.212.053-.325-.02.106-.046.212-.066.318-.252,1.22-.5,2.44-.749,3.654a25.908,25.908,0,0,0-2.32-1.233c-1.161-.643-.9-.212-.968-1.5a7.243,7.243,0,0,1,.252-1.863c.093-.425.2-.842.259-1.22-.14.391-.279.775-.418,1.167-.3.855-.617,1.717-.922,2.573-.922-.312-1.837-.623-2.752-.935.139-1.034.278-2.062.418-3.1.066-.491.132-.988.2-1.479-.193.424-.378.849-.57,1.273-.411.922-.829,1.837-1.24,2.758l-3.839-.995a7.8,7.8,0,0,1,1.458-4.409c.133-.186.272-.371.418-.544a5.528,5.528,0,0,1,3.355-1.863c.252-.073.511-.159.8-.259a11.507,11.507,0,0,1,3.905-.948c2.314-.027,5.961,1.127,5.662,4.078a2.283,2.283,0,0,1,.822.066,2.747,2.747,0,0,1,1.028.544,2.942,2.942,0,0,1,.65.756,6.083,6.083,0,0,1,.477,3.587c-.033.4-.066.789-.073,1.161a34.892,34.892,0,0,0,.259,5.39,36.119,36.119,0,0,0,1.054,5.291c.238.862.51,1.724.816,2.566.159.431.477,1.923.862,2.155" transform="translate(-285.876 -93.663)" fill="#1f2326"/>
            <path id="Trazado_836779" data-name="Trazado 836779" d="M517.52,323.275c1.585.8,8.342,3.477,8.314,5.659a2.431,2.431,0,0,1-1.8,2.1,7.127,7.127,0,0,1-2.931.084c-2.961-.326-5.922-.653-8.866-1.1a106.626,106.626,0,0,1-12.9-2.8c-2.757-.78-12.959-6.339-6.56-9.692a5.487,5.487,0,0,1,2.313-.48c5.053-.238,9.248,1.223,13.972,2.758a60.653,60.653,0,0,1,8.457,3.475" transform="translate(-253.902 -164.031)" fill="#db8686"/>
            <path id="Trazado_836780" data-name="Trazado 836780" d="M561.543,204.63s-1.3,3.278-2.282,3.941,1.7,1.267,2.606,0c0,0-.935.452-1-.362a20.592,20.592,0,0,1,.671-3.579" transform="translate(-289.264 -105.88)" fill="#ca876f"/>
            <path id="Trazado_836781" data-name="Trazado 836781" d="M558.47,205.633c-.021.552.182,1.007.453,1.017s.509-.429.53-.98-.182-1.007-.454-1.017-.508.428-.529.98" transform="translate(-288.965 -105.892)" fill="#1f2326"/>
            <path id="Trazado_836782" data-name="Trazado 836782" d="M566.97,207.418c-.021.552.182,1.007.453,1.017s.509-.428.53-.98-.182-1.007-.454-1.017-.508.428-.529.98" transform="translate(-293.363 -106.816)" fill="#1f2326"/>
            <path id="Trazado_836783" data-name="Trazado 836783" d="M558.261,214.984a4.7,4.7,0,0,0,3.651.392,2.634,2.634,0,0,1-2.292.785c-1.387-.242-1.359-1.177-1.359-1.177" transform="translate(-288.857 -111.238)" fill="#fff"/>
            <rect id="Rectángulo_385583" data-name="Rectángulo 385583" width="23.482" height="1.795" transform="translate(256.231 151.953)" fill="#304573"/>
            <path id="Trazado_836784" data-name="Trazado 836784" d="M478.556,298.79,471.1,281.917a.988.988,0,0,1,.9-1.388h32.112a.988.988,0,0,1,.911.606l7.527,17.943Z" transform="translate(-243.711 -145.152)" fill="#304573"/>
            <path id="Trazado_836785" data-name="Trazado 836785" d="M475.088,298.79l-7.461-16.873a.988.988,0,0,1,.9-1.388h32.112a.988.988,0,0,1,.911.606l7.527,17.943Z" transform="translate(-241.917 -145.152)" fill="#344b7e"/>
            <path id="Trazado_836786" data-name="Trazado 836786" d="M509.316,294.256a2.7,2.7,0,1,1-3.52-2.139,2.932,2.932,0,0,1,3.52,2.139" transform="translate(-260.814 -151.088)" fill="#fff"/>
            <path id="Trazado_836787" data-name="Trazado 836787" d="M572.635,191.344a21.236,21.236,0,0,1-5.908-.1.023.023,0,0,0-.013-.007,21.377,21.377,0,0,1-3.786-.948,1.466,1.466,0,0,1-.159-.053,21.1,21.1,0,0,1-3.255-1.459c-.126-.067-.252-.139-.371-.206a20.3,20.3,0,0,1-3.62-2.646c.133-.186.272-.372.418-.544a5.527,5.527,0,0,1,3.355-1.863,11,11,0,0,0,1.492.908,26.869,26.869,0,0,0,5.205,1.8,16.838,16.838,0,0,0,4.847.821c.225-.006.444-.026.669-.052a2.949,2.949,0,0,1,.65.755,6.086,6.086,0,0,1,.477,3.587" transform="translate(-287.44 -94.957)" fill="#1f2326"/>
            <path id="Trazado_836788" data-name="Trazado 836788" d="M530.424,366.591a2.824,2.824,0,0,0,2.919-.54c2.438-2.107,4.077-6.1,5.7-8.891,2.74-4.723,14.071-23.173,5.11-27.49a4.109,4.109,0,0,0-4.224.734,10,10,0,0,0-2.564,3.678c-2.907,6.218-3.725,12.959-5.666,19.469-.573,1.923-3.989,11.73-1.27,13.039" transform="translate(-273.917 -170.418)" fill="#f99595"/>
            <path id="Trazado_836789" data-name="Trazado 836789" d="M520.741,402.175l-8.115,6.883s4.228,5.1,6.894,3.5,5.151-8.835,5.151-8.835Z" transform="translate(-265.244 -208.095)" fill="#e9b98a"/>
            <path id="Trazado_836790" data-name="Trazado 836790" d="M513.682,411.922a1.466,1.466,0,0,0,.08.232c.8,1.792,3.828,1,5.1.221a23.363,23.363,0,0,0,3.855-3.556c-1.356,3.243-2.5,7.923-6.407,9.006-2.339.649-5.624-.745-5.973-3.369-.432-3.246,3.431-4.912,5.577-6.484-.953.7-2.58,2.57-2.228,3.951" transform="translate(-264.041 -211.094)"/>
            <path id="Trazado_836791" data-name="Trazado 836791" d="M132.286,298.677a1.232,1.232,0,0,0,1.157-.81l32.206-88.2,32.093,88.2a1.232,1.232,0,0,0,2.315-.844l-33.251-91.374a1.232,1.232,0,0,0-2.315,0l-33.363,91.374a1.233,1.233,0,0,0,1.157,1.654" transform="translate(-67.81 -105.988)" fill="#37539a"/>
            <path id="Trazado_836792" data-name="Trazado 836792" d="M193.135,230.058h18.252a1.232,1.232,0,0,0,0-2.464H193.135a1.232,1.232,0,0,0,0,2.464" transform="translate(-99.295 -117.762)" fill="#37539a"/>
            <path id="Trazado_836793" data-name="Trazado 836793" d="M183.4,257.889h17.395a1.232,1.232,0,1,0,0-2.464H183.4a1.232,1.232,0,0,0,0,2.464" transform="translate(-94.257 -132.163)" fill="#37539a"/>
            <path id="Trazado_836794" data-name="Trazado 836794" d="M223.478,257.889h16.661a1.233,1.233,0,0,0,0-2.464H223.478a1.233,1.233,0,0,0,0,2.464" transform="translate(-115.022 -132.163)" fill="#37539a"/>
            <path id="Trazado_836795" data-name="Trazado 836795" d="M173.663,285.721h17.395a1.232,1.232,0,0,0,0-2.464H173.663a1.232,1.232,0,0,0,0,2.464" transform="translate(-89.22 -146.564)" fill="#37539a"/>
            <path id="Trazado_836796" data-name="Trazado 836796" d="M230.956,285.721h17.395a1.232,1.232,0,1,0,0-2.464H230.956a1.232,1.232,0,0,0,0,2.464" transform="translate(-118.864 -146.564)" fill="#37539a"/>
            <path id="Trazado_836797" data-name="Trazado 836797" d="M163.928,313.551h17.395a1.232,1.232,0,1,0,0-2.464H163.928a1.232,1.232,0,1,0,0,2.464" transform="translate(-84.183 -160.964)" fill="#37539a"/>
            <path id="Trazado_836798" data-name="Trazado 836798" d="M188.5,297.6a16.52,16.52,0,0,0,2.878,2.97c.566.374.693.738,1.177,1.214a28.616,28.616,0,0,1-9.576.806,3.173,3.173,0,0,1-2.478-1.041,3.351,3.351,0,0,1-.108-2.625,2.956,2.956,0,0,1,1.15-2.058,2.653,2.653,0,0,1,1.1-.252c1.961-.135,4.535-.469,5.854.987" transform="translate(-93.232 -153.409)"/>
            <path id="Trazado_836799" data-name="Trazado 836799" d="M179.56,306.6a3.137,3.137,0,0,0,1.158.208c3.3.088,6.637.075,9.935.04,1.012-.011,2.031-.016,3.04-.111a2.433,2.433,0,0,0,1.282-.371,1.089,1.089,0,0,0,.038-1.641c-.649-.646-3.421-2.106-4.332-1.572a2.415,2.415,0,0,0-.32.273,2.22,2.22,0,0,1-.935.408,12.4,12.4,0,0,1-5.1.134,5.723,5.723,0,0,1-2.611-.706c-.319-.208-2.319-1.345-2.143-1.85a11.59,11.59,0,0,0-.792,3.843,1.305,1.305,0,0,0,.777,1.346" transform="translate(-92.506 -155.958)"/>
            <path id="Trazado_836800" data-name="Trazado 836800" d="M241.553,313.551h17.394a1.232,1.232,0,1,0,0-2.464H241.553a1.232,1.232,0,1,0,0,2.464" transform="translate(-124.348 -160.964)" fill="#37539a"/>
            <path id="Trazado_836801" data-name="Trazado 836801" d="M154.194,341.383h17.395a1.232,1.232,0,0,0,0-2.464H154.194a1.232,1.232,0,1,0,0,2.464" transform="translate(-79.146 -175.364)" fill="#37539a"/>
            <path id="Trazado_836802" data-name="Trazado 836802" d="M251.33,341.383h17.395a1.232,1.232,0,1,0,0-2.464H251.33a1.232,1.232,0,0,0,0,2.464" transform="translate(-129.406 -175.364)" fill="#37539a"/>
            <path id="Trazado_836803" data-name="Trazado 836803" d="M144.459,369.215h17.394a1.232,1.232,0,1,0,0-2.464H144.459a1.232,1.232,0,1,0,0,2.464" transform="translate(-74.109 -189.765)" fill="#37539a"/>
            <path id="Trazado_836804" data-name="Trazado 836804" d="M261.352,369.215h17.395a1.232,1.232,0,1,0,0-2.464H261.352a1.232,1.232,0,1,0,0,2.464" transform="translate(-134.592 -189.765)" fill="#37539a"/>
            <path id="Trazado_836805" data-name="Trazado 836805" d="M201.608,207.3H219.86a1.232,1.232,0,0,0,0-2.464H201.608a1.232,1.232,0,1,0,0,2.464" transform="translate(-103.679 -105.988)" fill="#37539a"/>
            <path id="Trazado_836806" data-name="Trazado 836806" d="M170.891,298.576a1.232,1.232,0,0,0,1.157-.81l32.087-88.095,32.169,88.2a1.232,1.232,0,1,0,2.314-.844l-33.326-91.374a1.232,1.232,0,0,0-2.315,0l-33.243,91.274a1.232,1.232,0,0,0,1.157,1.654" transform="translate(-87.785 -105.988)" fill="#60a2f4"/>
            <path id="Trazado_836807" data-name="Trazado 836807" d="M204.782,100.772,192.668,109.2l4.3,4.171,8.91-9.829Z" transform="translate(-99.691 -52.142)" fill="#ecb781"/>
            <path id="Trazado_836808" data-name="Trazado 836808" d="M214.245,71.475c-.192,7.378.486,21.368,6.234,39.184l36.42-27.3c-11.639-8.572-24.041-14.8-36.6-16.951a5.1,5.1,0,0,0-6.051,5.072" transform="translate(-110.841 -34.316)" fill="#5985d3"/>
            <path id="Trazado_836809" data-name="Trazado 836809" d="M227.876,101.966c-.683-6.236-2.949-11.28-5.062-11.265s-3.272,5.083-2.59,11.319,2.949,11.28,5.062,11.264,3.272-5.082,2.59-11.319" transform="translate(-113.848 -46.931)" fill="#b5c2fd"/>
            <path id="Trazado_836810" data-name="Trazado 836810" d="M222.878,66.407a5.122,5.122,0,0,0-3.671.728,65.547,65.547,0,0,1,24.12,23.476,12.141,12.141,0,0,1,1.063,4.062l15.092-11.315c-11.639-8.572-24.041-14.8-36.6-16.951" transform="translate(-113.423 -34.32)" fill="#2b52c1"/>
            <path id="Trazado_836811" data-name="Trazado 836811" d="M170.5,298.142c.211.28.426.58.665.889a4.35,4.35,0,0,0,2.256,1.55,3.133,3.133,0,0,1,1.893,1.17,28.616,28.616,0,0,1-9.576.806c-1.3-.111-2.567-.428-2.271-2.007l.383-2.039q.146-.772.291-1.544c.12-.639,3.033-.56,3.522-.537a3.44,3.44,0,0,1,2.837,1.713" transform="translate(-84.557 -153.371)"/>
            <path id="Trazado_836812" data-name="Trazado 836812" d="M168.169,306.469c2.128,0,4.223-.012,6.343-.175.6-.636.175-1.761-.572-2.216a6.219,6.219,0,0,0-2.538-.571,10.426,10.426,0,0,1-4.26-1.515,8.036,8.036,0,0,0-2.261-1.221c-2.425-.589-2.3,2.088-2.223,3.707a2.343,2.343,0,0,0,.388,1.5,2.667,2.667,0,0,0,1.792.48c1.108.049,2.223.015,3.331.012" transform="translate(-84.147 -155.582)"/>
            <path id="Trazado_836813" data-name="Trazado 836813" d="M162.415,233.16a10.365,10.365,0,0,1-.145,1.866.7.7,0,0,0,.174.583c.285.227.838.089,1.146.058,1.034-.1,2.073.037,3.108-.048a6.863,6.863,0,0,0,2.757-.784c1.24-.7-.571-10.453-.579-12.395a91.074,91.074,0,0,1,.433-11.973c.587-4.464,2.673-8.4,3.862-12.665,1.359-4.874,1.8-10.2,2.665-15.184a12.977,12.977,0,0,0,.208-5c-.883-3.982-7.334-4.8-10.2-2.325-1.485,1.285-1.71,3.466-1.831,5.426-.45,7.317-.416,14.722-1.365,21.972-1.319,10.081-1.824,20.383-.236,30.465" transform="translate(-83.525 -89.977)" fill="#304573"/>
            <path id="Trazado_836814" data-name="Trazado 836814" d="M185.284,176.675q-.178-1.1-.383-2.191c-.729-3.864-2.283-8.27-6.039-9.433a8.19,8.19,0,0,0-6.325,1.021c-2.106,1.192-4,3.325-3.765,5.733.224,2.279,2.077,3.577,3.3,5.31,1.783,2.536,2.318,5.585,3.285,8.469.888,2.645,2.555,5.143,3.019,7.919s-.47,5.2-1.035,7.94c-.631,3.054-4.871,28.153-2.014,28.761,2.326.494,4.534-1.435,6.935-1.241-.343-4.516-.716-9.871.193-14.367,1.05-5.189,2.9-10.232,4.079-15.4.853-3.517.505-7.2.152-10.8-.384-3.915-.769-7.835-1.4-11.716" transform="translate(-87.316 -85.261)" fill="#344b7e"/>
            <path id="Trazado_836815" data-name="Trazado 836815" d="M176.068,170.794c2.97.507,5.557,2.258,8.039,3.966l-2.864-12.323c-.054-.23-10.2-1.443-10.962-1.066-2.506,1.246-2.792,7.361-3.3,10.04,3.008.31,6.069-1.132,9.089-.617" transform="translate(-86.399 -83.46)" fill="#304573"/>
            <path id="Trazado_836816" data-name="Trazado 836816" d="M199.83,63.721l1.163,2.2a.825.825,0,0,1-.729,1.211h-1.093Z" transform="translate(-103.056 -32.971)" fill="#ecb781"/>
            <path id="Trazado_836817" data-name="Trazado 836817" d="M189.671,55.167c.079-1.689.386-4.469-1.068-5.73-1.3-1.13-3.674-.729-4.992.093a7.587,7.587,0,0,0-3.009,4.175,22.56,22.56,0,0,0-.828,5.175q-.351,4.317-.7,8.635c.047-.58,4.349,2.15,4.659,2.495.6-.465,1.621-.31,2.388-.348a8.18,8.18,0,0,1-.3-5.016,1.252,1.252,0,0,1,.349-.749,1.983,1.983,0,0,1,1.067-.243c3.13-.394,2.34-6.53,2.432-8.488" transform="translate(-92.655 -25.22)" fill="#ecb781"/>
            <path id="Trazado_836818" data-name="Trazado 836818" d="M182.313,91.426c.847,2.772.805,5.664,1.374,8.482.367,1.816,2.549,3.931,2.387,5.615-.241,2.494-3.878,3.82-3.938,6.326a5.241,5.241,0,0,0,.5,1.851c1.019,2.819.686,5.867.513,8.792-.107,1.8,1.325,6.756-.237,8.025-.988.8-6.973-.934-8.394-1.08a34.8,34.8,0,0,0-10.265.734c-1.732-4.286-.259-7.665.361-12.123a63.043,63.043,0,0,0,.233-15.536c-.429-3.92-1.223-7.92-.334-11.762.568-2.455,1.334-4.762,4.036-5.558q.1-1.034.194-2.067a16.838,16.838,0,0,1,9.728.056c-.219-.068.1,2.292.208,2.522a6.569,6.569,0,0,0,1.417,1.654,10.291,10.291,0,0,1,2.216,4.07" transform="translate(-84.567 -42.653)" fill="#fff198"/>
            <path id="Trazado_836819" data-name="Trazado 836819" d="M181.068,106.744c.2,5.313.421,10.749,2.406,15.681a8.911,8.911,0,0,0,2.8,4.044,4.072,4.072,0,0,0,4.658.249c.384-.282-3.7-10.524-4.147-11.551-1.369-3.115-3.723-5.623-5.722-8.423" transform="translate(-93.689 -55.232)" fill="#fff198"/>
            <path id="Trazado_836820" data-name="Trazado 836820" d="M186.909,42.448a9.131,9.131,0,0,0-.1,1.627,2.255,2.255,0,0,1-.055.261,7.354,7.354,0,0,1-.508,1.642c-.04.089-.079.173-.118.247-.562,1.06-1.228.873-2.465,1.129s-2.016,1.429-2.667,2.5c-.222.37-.449.74-.656,1.119a8.878,8.878,0,0,0-1.011,2.49c-.557-.251-1.351-.917-1.858-.355-1.153,1.277.38,2.036,1.375,2.307-.2,0-.631,2.874-1,3.076a1.352,1.352,0,0,1-.538.133c-.67.074-1.341.143-2.006.217a3.648,3.648,0,0,1-1.312-.025c-1.558-.424-3.219-3.12-3.835-4.486a9.324,9.324,0,0,1-.414-6.512,4.543,4.543,0,0,1,.961-1.814,2.524,2.524,0,0,1,.937-.636,1.954,1.954,0,0,1,.907-.124c-.547-3.475,5.723-4.032,7.9-3.4,1.094.32,2.115.882,3.224,1.158a3.482,3.482,0,0,0,3.234-.562" transform="translate(-87.623 -21.537)" fill="#1f2326"/>
            <path id="Trazado_836821" data-name="Trazado 836821" d="M186.751,47.245a7.363,7.363,0,0,1-.508,1.642c-.04.089-.079.172-.118.247-.562,1.059-1.228.872-2.465,1.128s-2.016,1.43-2.667,2.5c-.222.37-.449.74-.656,1.119a29.093,29.093,0,0,1-10.944.513,9.331,9.331,0,0,1,.35-3.668,4.537,4.537,0,0,1,.961-1.814,2.535,2.535,0,0,1,.937-.636,21.4,21.4,0,0,0,15.109-1.036" transform="translate(-87.623 -24.446)" fill="#1f2326"/>
            <path id="Trazado_836822" data-name="Trazado 836822" d="M198.807,113.4c1.664-1.023,3.2-2.322,4.875-3.3,1.836-1.07,3.65-1.745,5.266-3.213a5.4,5.4,0,0,0,1.634-2.238c.546-1.7-.267-3.713.841-5.287.961-1.365,4.311-2.578,5.818-3.081.483.663-1.1,1.782-1.537,2.476-.035.055,1.14.749,1.228,1.894.054.694-1.287,4.256-1.727,2.721.323,1.127-2.34,4.591-2.973,5.386A74.516,74.516,0,0,1,206.9,114.9c-3.579,3.606-7.534,5.465-10.779.064q1.338-.735,2.682-1.561" transform="translate(-101.48 -49.817)" fill="#ecb781"/>
            <path id="Trazado_836823" data-name="Trazado 836823" d="M188.954,101.327c-.619-1.769-1.147-4.666-3.328-5.007a4.542,4.542,0,0,0-2.9.656,7.209,7.209,0,0,0-3.372,4.4c-.394,1.521-.4,3.873.705,5.127.408.462,1.03.593,1.4,1.151a9.831,9.831,0,0,1,.593,2.024,3.708,3.708,0,0,0,.853,1.151,3.993,3.993,0,0,1,.549.725,1.91,1.91,0,0,0,.351.467c.375.335.932.414,1.256.814a4.094,4.094,0,0,1,.34.6c.164.293.378.554.547.845.326.561.672,1.577,1.5,1.356,1.464-.391,2.219-1.819,3.417-2.6.4-.261.983-.516,1.227-.96a1.363,1.363,0,0,0-.018-1.063,2.959,2.959,0,0,0-.88-1.225,5.106,5.106,0,0,1-.979-1.463,9.873,9.873,0,0,1-.549-2.1,8.569,8.569,0,0,1-.194-1.212c-.029-.429,0-.86-.006-1.29a7.782,7.782,0,0,0-.513-2.385" transform="translate(-92.679 -49.817)" fill="#fff198"/>
            <path id="Trazado_836824" data-name="Trazado 836824" d="M198.411,60.057c0,.4-.224.726-.5.726s-.5-.325-.5-.726.224-.726.5-.726.5.325.5.726" transform="translate(-102.145 -30.699)" fill="#1f2326"/>
            <path id="Trazado_836825" data-name="Trazado 836825" d="M198.2,57.972a1.387,1.387,0,0,0-1.749.161" transform="translate(-101.649 -29.879)" fill="none" stroke="#1f2326" stroke-linecap="round" stroke-miterlimit="10" stroke-width="0.5"/>
            <path id="Trazado_836826" data-name="Trazado 836826" d="M196.036,72.339s1.756,1,2.235.571" transform="translate(-101.433 -37.43)" fill="none" stroke="#1f2326" stroke-linecap="round" stroke-miterlimit="10" stroke-width="0.5"/>
            <path id="Trazado_836827" data-name="Trazado 836827" d="M397.1,190.923c-.459.978-.88,1.967-1.244,2.97-.457,1.254-.375,2.907.752,3.622s2.6.117,3.717-.592c2.872-1.817,5.89-4.567,6.8-7.924.739-2.741,1.145-5.661,1.738-8.448.43-2.021,2.349-5.915-.8-5.861-2.6.044-4.137,3.241-5.054,5.124-1.805,3.707-4.134,7.331-5.9,11.11" transform="translate(-204.689 -90.388)" fill="#ca876f"/>
            <path id="Trazado_836828" data-name="Trazado 836828" d="M402.746,184.6a3.136,3.136,0,0,0-.4,2.745c.787,1.554,3.456,1.091,4.386,2.563l3.523-7.149a9.885,9.885,0,0,0,1.04-2.789,3.341,3.341,0,0,0-.71-2.8c-2.623-2.793-6.844,5.473-7.839,7.427" transform="translate(-208.086 -91.38)" fill="#c47a7a"/>
            <path id="Trazado_836829" data-name="Trazado 836829" d="M379.494,203.219c-.464-.212-.924-.426-1.375-.657-2.149-1.1-4.106-2.517-6.218-3.678-1.349-.707-2.677-1.459-4.018-2.181-1-.539-2.212-1.65-3.32-1.875a2.8,2.8,0,0,0,.649,2.359c-1.992.27-3.983.655-6.01.871a2.387,2.387,0,0,0,.652,2.435,3.923,3.923,0,0,0,2.41,1.005c2.3.209,4.736-.841,6.988-.047,1.507.531,2.73,2.2,3.891,3.281,1.68,1.562,3.354,3.087,5.137,4.528a2.736,2.736,0,0,0,2.089-2.412c.282-1.3.333-3.077-.874-3.629" transform="translate(-185.799 -100.809)" fill="#ca876f"/>
            <path id="Trazado_836830" data-name="Trazado 836830" d="M425.947,359.948c.73,1.46,3.344,6.588,1.577,7.9a3.184,3.184,0,0,1-.841.4l-1.946.7a41.743,41.743,0,0,1-11.55,2.293,1.605,1.605,0,0,1-1.15-.2c-1.423-1.147,1.452-1.436,1.907-1.658a13.977,13.977,0,0,0,3.453-3.2,21.8,21.8,0,0,0,3.273-4.338c.562-1.045.195-1.013,1.134-1.662a37.62,37.62,0,0,1,3.718-1.058c.139.265.283.543.426.83" transform="translate(-212.994 -185.816)" fill="#344b7e"/>
            <path id="Trazado_836831" data-name="Trazado 836831" d="M407.083,248.016c.008-.381.013-.763.021-1.144l12.363-10.824c.289.448.558.909.8,1.38a14.506,14.506,0,0,1,1.642,6.286,21.135,21.135,0,0,1-.779,5.9c-.568,2.216-1.2,4.41-1.667,6.65-.5,2.432-.921,4.911-1.64,7.293-.568,1.882-1.4,3.659-1.3,5.67a8.285,8.285,0,0,0,.424,2.529,8.925,8.925,0,0,0,1.358,2.145,26.772,26.772,0,0,1,3.241,5.177,18.217,18.217,0,0,1,1.436,6.125,46.17,46.17,0,0,0,.776,6.824c.18.759.56,1.44.757,2.19a4.983,4.983,0,0,1,.055,1.893l-5.372,1.253a7.531,7.531,0,0,1-.526-1.768c-.117-.749-.063-1.514-.163-2.268a14.485,14.485,0,0,0-1.67-4.783c-.925-1.786-1.845-3.573-2.651-5.419a41.439,41.439,0,0,0-2.321-5.018,31,31,0,0,0-3.382-3.97,4.9,4.9,0,0,1-1.3-2.717,17.594,17.594,0,0,1,.047-2.673c.037-.756.026-1.516,0-2.272-.071-2.176-.148-4.35-.181-6.525-.073-4.152.567-8.781-.1-12.824-.635-3.852-1.342-7.152,1.715-10.363a9.629,9.629,0,0,1,11.189-1.8,1.681,1.681,0,0,1-.647,1.958" transform="translate(-210.281 -121.032)" fill="#6278c7"/>
            <path id="Trazado_836832" data-name="Trazado 836832" d="M410.668,365.429c.392,1.584,1.819,7.16-.192,8.054a3.19,3.19,0,0,1-.908.205l-2.051.256a95.632,95.632,0,0,1-10.953.618c-1.717.019-4.068-.876-1.2-1.931a24.772,24.772,0,0,0,5.593-3,21.771,21.771,0,0,0,4.144-3.516c.777-.9.412-.946,1.469-1.373a37.626,37.626,0,0,1,3.86-.219c.078.29.157.592.234.9" transform="translate(-203.874 -188.611)" fill="#344b7e"/>
            <path id="Trazado_836833" data-name="Trazado 836833" d="M414.333,237.071c2.429-1.621,7.246-2.428,9.734-.377,2.575,2.123.9,5.392.25,8.62-1.738,8.691-5.9,15.387-8.873,23.41-1.579,4.254,1.038,7.477,1.928,11.469,1.226,5.495-.408,10.941-.209,16.411a4.986,4.986,0,0,1-.362,1.858l-5.515.041a7.518,7.518,0,0,1-.124-1.84c.051-.757.271-1.491.34-2.248a14.487,14.487,0,0,0-.578-5.033c-.891-3.4-1.643-7.413-2.8-10.951-1.275-3.885-2.582-5.974-2.141-10.146.7-6.584,3.078-12.783,4.121-19.286.7-4.383.023-9.118,4.234-11.927" transform="translate(-210.017 -121.838)" fill="#799cdf"/>
            <path id="Trazado_836834" data-name="Trazado 836834" d="M409.195,246.329a12.5,12.5,0,0,0,6.451,3.962,10.063,10.063,0,0,0,7.423-1.092,4.528,4.528,0,0,0,1.939-2.041,2.3,2.3,0,0,0-.527-2.62,3.613,3.613,0,0,0-2.1-.566l-15-.856a5.844,5.844,0,0,0,4.742,5.17" transform="translate(-210.786 -125.794)" fill="#6278c7"/>
            <path id="Trazado_836835" data-name="Trazado 836835" d="M423.613,196.695c.188,1.444.385,2.892.516,4.347.207,2.29.224,4.12-1.6,5.711a9.353,9.353,0,0,1-5.816,1.906c-6.025.26-15.355-1.565-12.723-9.068a31.866,31.866,0,0,0,1.457-12.064c-.157-1.969-.567-3.916-.637-5.891-.133-3.761,1.768-5.385,3.481-8.362,1.46-2.536,3.128-4.537,6.095-5.249a8.61,8.61,0,0,1,6.6,1.357c.794.481,2.533,1.287,2.96,2.129.485.959-.191,2.675-.282,3.69-.454,5.042-.474,10.11-.577,15.168a49.205,49.205,0,0,0,.528,6.326" transform="translate(-208.797 -86.836)" fill="#f99595"/>
            <path id="Trazado_836836" data-name="Trazado 836836" d="M431.225,193.518a9.536,9.536,0,0,0,1.408,2.808q2.026,3.123,4.133,6.212.465-3.116.929-6.232a32.452,32.452,0,0,0,.052-5.263,7.747,7.747,0,0,0-1.059-3.348c-3.192-4.606-6.128,3.143-5.463,5.822" transform="translate(-223.077 -96.377)" fill="#c47a7a"/>
            <path id="Trazado_836837" data-name="Trazado 836837" d="M435.913,141.862a4.882,4.882,0,0,1,2.4,1.681,7.293,7.293,0,0,1,1.1,4.36c-.031,1.525-.321,3.032-.43,4.553a8.675,8.675,0,0,0,.654,4.472c-.148-.3-1.434-.77-1.76-1.008a9.891,9.891,0,0,1-1.611-1.475,10.253,10.253,0,0,1-2.11-3.8c-.212-.71-.212-1.446-.385-2.152a7.308,7.308,0,0,0-.783-1.56,4.655,4.655,0,0,1,.1-4.3,2.3,2.3,0,0,1,2.82-.766" transform="translate(-223.793 -73.313)" fill="#fff198"/>
            <path id="Trazado_836838" data-name="Trazado 836838" d="M424.053,138.485c0,2.877-.859,6.339-3.317,6.564a10.716,10.716,0,0,1-7.193-2.478,11.169,11.169,0,0,1-3.567-5.22v0c-.04-.13-.08-.265-.115-.395a3.984,3.984,0,0,1,.62-3.392,7.786,7.786,0,0,1,2.078-2,3.953,3.953,0,0,1,1.069-.479,9.734,9.734,0,0,0,1.544-.69c2.872-1.5,5.779.47,7.437,2.982a9.509,9.509,0,0,1,1.034,2.033,6.42,6.42,0,0,1,.28,1.219,12.469,12.469,0,0,1,.13,1.858" transform="translate(-211.997 -67.198)" fill="#e3bd4a"/>
            <path id="Trazado_836839" data-name="Trazado 836839" d="M427.146,159.717c.355-.71-.641-3.976-.7-4.865-.121-1.718-.011-3.434.008-5.151-.753.208-6.567,2.71-6.608,2.465.319,1.873.857,3.805,1.1,5.668.165,1.278-.36,3.348.9,4.238,1.791,1.261,4.556-.769,5.3-2.354" transform="translate(-217.236 -77.459)" fill="#f0caa2"/>
            <path id="Trazado_836840" data-name="Trazado 836840" d="M422.118,162.837s3.547-.614,4.558-2.6.476.079.476.079-.972,5.813-4.723,5.763Z" transform="translate(-218.413 -82.463)" fill="#ca876f"/>
            <path id="Trazado_836841" data-name="Trazado 836841" d="M413.337,139.8a17.291,17.291,0,0,0-.349,4.908,10.549,10.549,0,0,0,1.129,4.4,5.382,5.382,0,0,0,2.423,2.622,3.5,3.5,0,0,0,2.868-.368,5.439,5.439,0,0,0,2.526-2.3,6.728,6.728,0,0,0,.256-2.62.664.664,0,0,0,.755.633,1.08,1.08,0,0,0,.806-.711,3.189,3.189,0,0,0,.154-1.111,2.516,2.516,0,0,0-.11-.975.856.856,0,0,0-.728-.579.527.527,0,0,0-.517.655,7.3,7.3,0,0,0-3.2-5.581,5.484,5.484,0,0,0-3.371-.965,3.352,3.352,0,0,0-2.474,1.489,2.809,2.809,0,0,0-.17.51" transform="translate(-213.671 -71.285)" fill="#f0caa2"/>
            <path id="Trazado_836842" data-name="Trazado 836842" d="M422.045,138.63a4.082,4.082,0,0,0-.6-1.61,6.5,6.5,0,0,0-4.73-2.667c-1.991-.151-6.866,1.525-4.943,4.354a4.9,4.9,0,0,0,2.386,1.59c2.615,1.024,5.559,1.706,8.207.771-.12-.709-.161-1.606-.318-2.437" transform="translate(-212.831 -69.512)" fill="#e3bd4a"/>
            <path id="Trazado_836843" data-name="Trazado 836843" d="M424.111,140.34c-4.508,1.518-9.453.4-13.937-1.159-.172-2.607,2.13-1.366,3.658-1.145a18.655,18.655,0,0,0,6.5-.195,18.306,18.306,0,0,0,2.508-.709,9.541,9.541,0,0,1,1.034,2.033,3.467,3.467,0,0,1,.236,1.175" transform="translate(-212.228 -70.955)" fill="#f4d763"/>
            <path id="Trazado_836844" data-name="Trazado 836844" d="M419.086,149.7a7.02,7.02,0,0,1-.551,3.485c-.784,1.629,1.648,1.024,1.648,1.024a.954.954,0,0,1-.9-1.2,10.951,10.951,0,0,0-.2-3.3" transform="translate(-216.479 -77.459)" fill="#e2b68d"/>
            <path id="Trazado_836845" data-name="Trazado 836845" d="M424.911,153.039c0,.39-.166.706-.37.706s-.369-.317-.369-.706.166-.706.369-.706.37.317.37.706" transform="translate(-219.476 -78.821)" fill="#1f2326"/>
            <path id="Trazado_836846" data-name="Trazado 836846" d="M416.781,152.7c0,.39-.166.706-.37.706s-.369-.317-.369-.706.166-.706.369-.706.37.317.37.706" transform="translate(-215.27 -78.643)" fill="#1f2326"/>
            <path id="Trazado_836847" data-name="Trazado 836847" d="M423.12,150.648s1.608-.583,2.493.362" transform="translate(-218.932 -77.857)" fill="none" stroke="#e3bd4a" stroke-linecap="round" stroke-miterlimit="10" stroke-width="0.75"/>
            <path id="Trazado_836848" data-name="Trazado 836848" d="M414.953,149.486a1.6,1.6,0,0,1,1.789.187" transform="translate(-214.706 -77.244)" fill="none" stroke="#e3bd4a" stroke-linecap="round" stroke-miterlimit="10" stroke-width="0.75"/>
            <path id="Trazado_836849" data-name="Trazado 836849" d="M418.074,160.715a10.071,10.071,0,0,0,3.312-.106,2.035,2.035,0,0,1-1.7.907,1.511,1.511,0,0,1-1.615-.8" transform="translate(-216.321 -83.103)" fill="#fff"/>
            <path id="Trazado_836850" data-name="Trazado 836850" d="M331.8,365.57v14.888c0,3.343-22.578,6.053-50.44,6.053s-50.431-2.71-50.431-6.053V365.57Z" transform="translate(-119.487 -189.154)" fill="#fff198"/>
            <path id="Trazado_836851" data-name="Trazado 836851" d="M331.8,359.082c0,3.344-22.581,6.054-50.435,6.054s-50.435-2.711-50.435-6.054,22.581-6.054,50.435-6.054,50.435,2.711,50.435,6.054" transform="translate(-119.487 -182.665)" fill="#fff198"/>
            <g id="Grupo_1018531" data-name="Grupo 1018531" transform="translate(113.481 169.076)" opacity="0.2">
              <g id="Grupo_1018530" data-name="Grupo 1018530">
                <g id="Grupo_1018529" data-name="Grupo 1018529" clip-path="url(#clip-path-3)">
                  <path id="Trazado_836852" data-name="Trazado 836852" d="M333.986,356.292c0,3.276-22.124,5.932-49.415,5.932s-49.415-2.656-49.415-5.932,22.124-5.932,49.415-5.932,49.415,2.656,49.415,5.932" transform="translate(-235.156 -350.36)" fill="#3a3429"/>
                </g>
              </g>
            </g>
            <path id="Trazado_836853" data-name="Trazado 836853" d="M259.62,311.218c3.478-6.02,9.31-13.027,18.452-15.826l-7.339-28.89s-6.649,14.155-17.508,43.307c-.576,1.545,1.44,2.92,2.937,2.92h.981a2.882,2.882,0,0,0,2.477-1.511" transform="translate(-130.973 -137.894)" fill="#e28bd9"/>
            <path id="Trazado_836854" data-name="Trazado 836854" d="M270.733,266.5s-6.649,14.154-17.508,43.307c-.455,1.222.711,2.335,1.959,2.748,3.951-14.218,10.438-27.3,17-40.355Z" transform="translate(-130.972 -137.894)" fill="#b5c2fd"/>
            <path id="Trazado_836855" data-name="Trazado 836855" d="M257.392,318.669a3.165,3.165,0,0,0,.978.172h.981a2.882,2.882,0,0,0,2.477-1.511c3.478-6.02,9.31-13.027,18.452-15.826l-5.891-23.191c-6.559,13.053-13.046,26.137-17,40.356" transform="translate(-133.18 -144.005)" fill="#5985d3"/>
            <path id="Trazado_836856" data-name="Trazado 836856" d="M392.239,311.218c-3.478-6.02-9.31-13.027-18.452-15.826l7.339-28.89s6.649,14.155,17.508,43.307c.576,1.545-1.439,2.92-2.937,2.92h-.981a2.882,2.882,0,0,1-2.477-1.511" transform="translate(-193.406 -137.894)" fill="#2b52c1"/>
            <path id="Trazado_836857" data-name="Trazado 836857" d="M335.346,335.466H317.921a1.517,1.517,0,0,1-1.435-1.281l-.957-4.714a1.608,1.608,0,0,1,1.436-2.008H336.3a1.608,1.608,0,0,1,1.435,2.008l-.956,4.714a1.518,1.518,0,0,1-1.435,1.281" transform="translate(-163.243 -169.437)" fill="#fff198"/>
            <path id="Trazado_836858" data-name="Trazado 836858" d="M285.966,178.736s2.674,27.436,10.94,44.821a34.239,34.239,0,0,1,28.688,0s9.482-14.669,11.426-46.994c1.121-18.627-.218-39.893-5.739-58.216H292.719c-5.133,14.926-8.787,34.97-6.754,60.389" transform="translate(-147.669 -61.235)" fill="#fff"/>
            <path id="Trazado_836859" data-name="Trazado 836859" d="M335.733,140.205a138.455,138.455,0,0,0-4.559-21.738H292.612c-5.132,14.926-8.787,34.97-6.754,60.389a205.914,205.914,0,0,0,3.291,20.473c22.985-9.626,39.813-32.784,46.584-59.124" transform="translate(-147.613 -61.298)" fill="#fff"/>
            <path id="Trazado_836860" data-name="Trazado 836860" d="M335.388,297.035a96.628,96.628,0,0,0-3.044-56.178s-9.754,24.787-2.673,56.094a2.89,2.89,0,0,0,5.717.084" transform="translate(-169.246 -124.625)" fill="#e28bd9"/>
            <path id="Trazado_836861" data-name="Trazado 836861" d="M332.075,242.386c-1.411,4-7.782,24.057-3.55,49.5,4.83-15.834,4.965-32.669,3.55-49.5" transform="translate(-169.246 -125.416)" fill="#5985d3"/>
            <path id="Trazado_836862" data-name="Trazado 836862" d="M333.877,240.857s-.1.259-.27.738c1.415,16.831,1.28,33.666-3.55,49.5q.48,2.885,1.147,5.857a2.89,2.89,0,0,0,5.717.084,96.632,96.632,0,0,0-3.044-56.178" transform="translate(-170.779 -124.625)" fill="#2b52c1"/>
            <path id="Trazado_836863" data-name="Trazado 836863" d="M339.507,143.541a13.671,13.671,0,1,1-13.67-13.671,13.671,13.671,0,0,1,13.67,13.671" transform="translate(-161.522 -67.198)" fill="#fff198"/>
            <path id="Trazado_836864" data-name="Trazado 836864" d="M333.8,138.6c-2.625,5.321-4.949,10.7-7.58,15.971a9.495,9.495,0,0,0,4.338,2.614c2.2-5.926,4.789-11.6,7.5-17.215A9.449,9.449,0,0,0,333.8,138.6" transform="translate(-168.794 -71.717)" fill="#47649f"/>
            <path id="Trazado_836865" data-name="Trazado 836865" d="M342.715,141.445c-2.715,5.615-5.3,11.289-7.5,17.215a9.479,9.479,0,0,0,7.5-17.215" transform="translate(-173.446 -73.187)" fill="#344b7e"/>
            <path id="Trazado_836866" data-name="Trazado 836866" d="M330.318,138.532a9.481,9.481,0,0,0-6.888,16.006c2.631-5.268,4.955-10.65,7.58-15.971-.229-.016-.458-.035-.692-.035" transform="translate(-166.003 -71.68)" fill="#344b7e"/>
            <path id="Trazado_836867" data-name="Trazado 836867" d="M339.7,205.422a10.938,10.938,0,1,1-10.938-10.938A10.938,10.938,0,0,1,339.7,205.422" transform="translate(-164.452 -100.63)" fill="#fff198"/>
            <path id="Trazado_836868" data-name="Trazado 836868" d="M335.139,201.473c-2.1,4.258-3.96,8.564-6.065,12.779a7.6,7.6,0,0,0,3.471,2.091c1.761-4.741,3.832-9.28,6-13.774a7.564,7.564,0,0,0-3.41-1.1" transform="translate(-170.27 -104.247)" fill="#47649f"/>
            <path id="Trazado_836869" data-name="Trazado 836869" d="M342.27,203.745c-2.173,4.493-4.243,9.032-6,13.774a7.584,7.584,0,0,0,6-13.774" transform="translate(-173.992 -105.422)" fill="#344b7e"/>
            <path id="Trazado_836870" data-name="Trazado 836870" d="M332.352,201.415a7.586,7.586,0,0,0-5.512,12.807c2.105-4.215,3.965-8.521,6.065-12.779-.183-.014-.366-.028-.554-.028" transform="translate(-168.038 -104.217)" fill="#344b7e"/>
            <path id="Trazado_836871" data-name="Trazado 836871" d="M304.449,121.835a1.04,1.04,0,1,1-1.04-1.04,1.04,1.04,0,0,1,1.04,1.04" transform="translate(-156.453 -62.502)" fill="#344b7e"/>
            <path id="Trazado_836872" data-name="Trazado 836872" d="M313.134,121.835a1.04,1.04,0,1,1-1.039-1.04,1.04,1.04,0,0,1,1.039,1.04" transform="translate(-160.947 -62.502)" fill="#344b7e"/>
            <path id="Trazado_836873" data-name="Trazado 836873" d="M321.818,121.835a1.04,1.04,0,1,1-1.039-1.04,1.04,1.04,0,0,1,1.039,1.04" transform="translate(-165.44 -62.502)" fill="#344b7e"/>
            <path id="Trazado_836874" data-name="Trazado 836874" d="M330.5,121.835a1.04,1.04,0,1,1-1.04-1.04,1.04,1.04,0,0,1,1.04,1.04" transform="translate(-169.934 -62.502)" fill="#344b7e"/>
            <path id="Trazado_836875" data-name="Trazado 836875" d="M339.186,121.835a1.04,1.04,0,1,1-1.039-1.04,1.04,1.04,0,0,1,1.039,1.04" transform="translate(-174.427 -62.502)" fill="#344b7e"/>
            <path id="Trazado_836876" data-name="Trazado 836876" d="M347.871,121.835a1.04,1.04,0,1,1-1.04-1.04,1.04,1.04,0,0,1,1.04,1.04" transform="translate(-178.921 -62.502)" fill="#344b7e"/>
            <path id="Trazado_836877" data-name="Trazado 836877" d="M356.555,121.835a1.04,1.04,0,1,1-1.04-1.04,1.04,1.04,0,0,1,1.04,1.04" transform="translate(-183.414 -62.502)" fill="#344b7e"/>
            <path id="Trazado_836878" data-name="Trazado 836878" d="M365.239,121.835a1.04,1.04,0,1,1-1.039-1.04,1.04,1.04,0,0,1,1.039,1.04" transform="translate(-187.907 -62.502)" fill="#344b7e"/>
            <path id="Trazado_836879" data-name="Trazado 836879" d="M373.924,121.835a1.04,1.04,0,1,1-1.04-1.04,1.04,1.04,0,0,1,1.04,1.04" transform="translate(-192.401 -62.502)" fill="#344b7e"/>
            <path id="Trazado_836880" data-name="Trazado 836880" d="M339.1,117.266c0,.4-8.669.719-19.363.719s-19.363-.322-19.363-.719,8.669-.719,19.363-.719,19.363.322,19.363.719" transform="translate(-155.421 -60.304)" fill="#fff198"/>
            <path id="Trazado_836881" data-name="Trazado 836881" d="M370.94,291.6c0,2.494-1.161,4.516-2.592,4.516s-2.592-2.022-2.592-4.516,1.161-4.516,2.592-4.516,2.592,2.022,2.592,4.516" transform="translate(-189.25 -148.545)" fill="#c5d9ef"/>
            <path id="Trazado_836882" data-name="Trazado 836882" d="M373.519,291.6c0,2.494-1.161,4.516-2.592,4.516s-2.592-2.022-2.592-4.516,1.161-4.516,2.592-4.516,2.592,2.022,2.592,4.516" transform="translate(-190.584 -148.545)" fill="#60a2f4"/>
            <path id="Trazado_836883" data-name="Trazado 836883" d="M373.121,296.072s37.272-4.219,37.868,16.675.349,31.758,21.223,29.1" transform="translate(-193.061 -153.014)" fill="none" stroke="#455157" stroke-miterlimit="10" stroke-width="1.503"/>
            <path id="Trazado_836884" data-name="Trazado 836884" d="M384.372,218.714c-2.237.417-4.6,1.245-7.626,1.613a54.018,54.018,0,0,0-9.143,1.507c-.739.221-1.945.328-1.444,1.218.539.957,2.286.19,3.02.052-1.094.205-2.526,1.685-3.626,2.156-.679.29-2.354.309-2.29,1.188.074,1.024,3.224,1.768,4.02,1.662a16.719,16.719,0,0,0,5.7-2.464,8.5,8.5,0,0,1,1.895-.994,25.532,25.532,0,0,1,6.087-.581c4.964-.233,8.023-1.67,12.031-4.365-3.043-.262-5.447-1.582-8.627-.991" transform="translate(-187.96 -113.09)" fill="#f0caa2"/>
            <path id="Trazado_836885" data-name="Trazado 836885" d="M414.489,197.674a17.511,17.511,0,0,1-4.463,4.139,2.986,2.986,0,0,0-1.525,2.611,2.418,2.418,0,0,0,1.768,1.905,4.621,4.621,0,0,0,2.706-.162c3.111-1,18.656-14.336,11.44-17.751-2.518-1.191-3.819,1.337-5.053,3.024-1.551,2.12-3.211,4.157-4.852,6.208l-.021.026" transform="translate(-211.361 -97.331)" fill="#f0caa2"/>
            <path id="Trazado_836886" data-name="Trazado 836886" d="M427.683,184.449a2.927,2.927,0,0,0-.37,3.173,6.675,6.675,0,0,0,1.712,1.989l3.442,3.064c1.508-1.036,2.248-2.746,3.256-4.194a17.16,17.16,0,0,0,2.627-4.983,9.766,9.766,0,0,0,.364-4.706c-.437-1.994-1.607-4.251-4.125-3.336a3.844,3.844,0,0,0-1.3.918c-2.412,2.327-3.787,5.328-5.605,8.073" transform="translate(-220.938 -90.677)" fill="#f99595"/>
            <path id="Trazado_836887" data-name="Trazado 836887" d="M103.315,105.113H87.185a2.584,2.584,0,0,1-2.584-2.584V88.7a2.017,2.017,0,0,1,2.016-2.017h16.7a2.016,2.016,0,0,1,2.016,2.017v14.4a2.016,2.016,0,0,1-2.016,2.016" transform="translate(-43.774 -44.852)" fill="#f99595"/>
            <path id="Trazado_836888" data-name="Trazado 836888" d="M102.465,104.06c1.759.03,3.539.054,5.156-.058.512-.036.955-.849.332-1.106a1.15,1.15,0,0,0,.641-.557.55.55,0,0,0-.311-.726c.61.151.85-.817.374-1.13a1.423,1.423,0,0,0,.514-.824.826.826,0,0,0-.371-.853,1.329,1.329,0,0,0-.634-.11l-2.194-.016a5.066,5.066,0,0,0-.324-3.4c-.175-.3-.646-.666-1.02-.433-.35.218-.253.761-.235,1.1a3.865,3.865,0,0,1-1.994,3.527s.083,3.032.065,4.579" transform="translate(-52.984 -49.039)" fill="#f9f9f9"/>
            <rect id="Rectángulo_385585" data-name="Rectángulo 385585" width="2.658" height="4.575" transform="translate(46.185 50.441)" fill="#f9f9f9"/>
            <path id="Trazado_836889" data-name="Trazado 836889" d="M306.707,36.967H287.875a3.421,3.421,0,0,1-3.42-3.421V19.116a3.421,3.421,0,0,1,3.42-3.421h18.832a3.421,3.421,0,0,1,3.421,3.421v14.43a3.421,3.421,0,0,1-3.421,3.421" transform="translate(-147.183 -8.121)" fill="#fff198"/>
            <rect id="Rectángulo_385586" data-name="Rectángulo 385586" width="3.069" height="4.038" transform="translate(141.448 19.876)" fill="#f7f7f7"/>
            <rect id="Rectángulo_385587" data-name="Rectángulo 385587" width="3.069" height="6.784" transform="translate(146.198 17.13)" fill="#f7f7f7"/>
            <rect id="Rectángulo_385588" data-name="Rectángulo 385588" width="3.069" height="8.883" transform="translate(150.949 15.031)" fill="#f7f7f7"/>
            <rect id="Rectángulo_385589" data-name="Rectángulo 385589" width="3.069" height="12.033" transform="translate(155.699 11.881)" fill="#f7f7f7"/>
            <path id="Trazado_836890" data-name="Trazado 836890" d="M570.292,108.236l15.685.11a3.563,3.563,0,0,0,3.588-3.538l.108-15.39a3.563,3.563,0,0,0-3.538-3.588l-15.685-.11a3.563,3.563,0,0,0-3.588,3.538l-.108,15.39a3.563,3.563,0,0,0,3.538,3.588" transform="translate(-293.251 -44.353)" fill="#60a2f4"/>
            <path id="Trazado_836891" data-name="Trazado 836891" d="M573.337,103.3l0,.645a.584.584,0,0,0,.481.58l.76.139a3.934,3.934,0,0,0,.386.951l-.448.635a.583.583,0,0,0,.06.749l.453.459a.584.584,0,0,0,.748.07l.622-.429a3.935,3.935,0,0,0,.945.4l.128.76a.584.584,0,0,0,.573.489l.655,0a.585.585,0,0,0,.581-.481l.139-.758a3.913,3.913,0,0,0,.951-.386l.63.448a.585.585,0,0,0,.75-.06l.459-.453a.584.584,0,0,0,.07-.748l-.439-.636a3.956,3.956,0,0,0,.4-.945l.76-.128a.584.584,0,0,0,.489-.574l0-.645a.584.584,0,0,0-.481-.58l-.758-.139a3.944,3.944,0,0,0-.387-.951l.448-.63a.584.584,0,0,0-.06-.749l-.453-.459a.583.583,0,0,0-.748-.071l-.634.42a3.93,3.93,0,0,0-.945-.4l-.128-.76a.584.584,0,0,0-.574-.489l-.657,0a.585.585,0,0,0-.568.481l-.137.777a3.961,3.961,0,0,0-.951.386l-.629-.448a.586.586,0,0,0-.75.048l-.459.453a.585.585,0,0,0-.07.749l.439.636a3.967,3.967,0,0,0-.4.945l-.762.128a.585.585,0,0,0-.489.571m3.334.356v-.01a1.748,1.748,0,1,1,0,.01" transform="translate(-296.656 -51.002)" fill="#fff"/>
            <path id="Trazado_836892" data-name="Trazado 836892" d="M594.592,114.444l0,.322a.292.292,0,0,0,.24.29l.38.069a1.989,1.989,0,0,0,.193.475l-.224.318a.292.292,0,0,0,.03.374l.226.23a.292.292,0,0,0,.374.035l.311-.215a1.978,1.978,0,0,0,.472.2l.064.38a.292.292,0,0,0,.287.245l.328,0a.292.292,0,0,0,.29-.24l.07-.379a2,2,0,0,0,.475-.193l.315.224a.293.293,0,0,0,.375-.03l.229-.226a.292.292,0,0,0,.036-.374l-.22-.318a1.956,1.956,0,0,0,.2-.472l.38-.064a.292.292,0,0,0,.244-.287l0-.322a.292.292,0,0,0-.24-.29l-.379-.069a1.972,1.972,0,0,0-.193-.475l.224-.315a.293.293,0,0,0-.03-.375l-.226-.23a.293.293,0,0,0-.374-.035l-.317.21a1.977,1.977,0,0,0-.472-.2l-.064-.38a.292.292,0,0,0-.287-.244l-.329,0a.292.292,0,0,0-.284.24l-.068.388a1.96,1.96,0,0,0-.475.194l-.315-.224a.292.292,0,0,0-.374.024l-.23.226a.292.292,0,0,0-.035.374l.22.318a1.977,1.977,0,0,0-.2.472l-.381.064a.291.291,0,0,0-.244.286m1.667.178v0a.871.871,0,1,1,.864.876.87.87,0,0,1-.864-.876" transform="translate(-307.654 -57.993)" fill="#fff"/>
            <path id="Trazado_836893" data-name="Trazado 836893" d="M593.366,95.886l0,.411a.372.372,0,0,0,.306.37l.484.088a2.5,2.5,0,0,0,.246.606l-.286.4a.372.372,0,0,0,.038.478l.289.292a.372.372,0,0,0,.477.045l.4-.274a2.525,2.525,0,0,0,.6.254l.082.484a.372.372,0,0,0,.365.311l.417,0a.373.373,0,0,0,.37-.306l.088-.483a2.531,2.531,0,0,0,.606-.246l.4.286a.373.373,0,0,0,.478-.039l.292-.288a.372.372,0,0,0,.045-.477l-.28-.4a2.525,2.525,0,0,0,.254-.6l.484-.082a.371.371,0,0,0,.311-.365l0-.411a.373.373,0,0,0-.306-.37l-.483-.088a2.509,2.509,0,0,0-.246-.606l.286-.4a.372.372,0,0,0-.039-.478l-.288-.292a.372.372,0,0,0-.477-.045l-.4.268a2.517,2.517,0,0,0-.6-.255l-.082-.484a.373.373,0,0,0-.365-.311l-.419,0a.372.372,0,0,0-.362.306l-.087.5a2.5,2.5,0,0,0-.606.246l-.4-.286a.373.373,0,0,0-.478.031l-.292.288a.373.373,0,0,0-.045.477l.28.4a2.506,2.506,0,0,0-.254.6l-.485.082a.372.372,0,0,0-.312.364m2.124.226v-.006a1.114,1.114,0,1,1,0,.006" transform="translate(-307.02 -48.056)" fill="#fff"/>
            <path id="Trazado_836894" data-name="Trazado 836894" d="M645.514,263.052l-14.675.037a2.075,2.075,0,0,1,0-4.1l14.675-.037a2.075,2.075,0,0,1,0,4.1" transform="translate(-325.495 -133.986)" fill="#b1dcfb"/>
            <path id="Trazado_836895" data-name="Trazado 836895" d="M240.524,19.8l-30.011.037a1.924,1.924,0,0,1-1.769-2.049,1.926,1.926,0,0,1,1.764-2.055l30.011-.037a1.925,1.925,0,0,1,1.769,2.05,1.926,1.926,0,0,1-1.764,2.055" transform="translate(-108.009 -8.121)" fill="#b1dcfb"/>
            <path id="Trazado_836896" data-name="Trazado 836896" d="M375.894,24.394l-2.593,0a1.437,1.437,0,0,1-1.439-1.435l0-3.278a1.436,1.436,0,0,1,1.434-1.438l2.593,0a1.436,1.436,0,0,1,1.439,1.434l0,3.278a1.436,1.436,0,0,1-1.434,1.438" transform="translate(-192.408 -9.44)" fill="#b1dcfb"/>
            <path id="Trazado_836897" data-name="Trazado 836897" d="M35.846,272.544l-2.593,0a1.437,1.437,0,0,1-1.439-1.435l0-3.278a1.436,1.436,0,0,1,1.434-1.438l2.593,0a1.437,1.437,0,0,1,1.439,1.435l0,3.278a1.437,1.437,0,0,1-1.434,1.438" transform="translate(-16.459 -137.838)" fill="#b1dcfb"/>
            <path id="Trazado_836898" data-name="Trazado 836898" d="M28.869,323.482l-2.279,0a1.261,1.261,0,0,1-1.263-1.26l0-2.88a1.262,1.262,0,0,1,1.26-1.263l2.278,0a1.262,1.262,0,0,1,1.264,1.26l0,2.88a1.262,1.262,0,0,1-1.26,1.263" transform="translate(-13.103 -164.581)" fill="#fff"/>
            <path id="Trazado_836899" data-name="Trazado 836899" d="M660.388,159.072l-2.278,0a1.261,1.261,0,0,1-1.264-1.26l0-2.88a1.262,1.262,0,0,1,1.26-1.263l2.279,0a1.262,1.262,0,0,1,1.264,1.26l0,2.88a1.262,1.262,0,0,1-1.26,1.263" transform="translate(-339.865 -79.512)" fill="#fff"/>
            <path id="Trazado_836900" data-name="Trazado 836900" d="M54.292,77.181H39.671a2.044,2.044,0,0,1,0-4.042H54.292a2.044,2.044,0,0,1,0,4.042" transform="translate(-19.627 -37.844)" fill="#fff"/>
            <path id="Trazado_836901" data-name="Trazado 836901" d="M604.668,66.176h-14.62a2.043,2.043,0,0,1,0-4.042h14.62a2.044,2.044,0,0,1,0,4.042" transform="translate(-304.404 -32.15)" fill="#60a2f4"/>
          </g>
        </g>
      </g>
    </g>
    <rect id="Rectángulo_385592" data-name="Rectángulo 385592" width="400" height="210" transform="translate(285 1815)" fill="none"/>
  </g>
</svg>
