<svg xmlns="http://www.w3.org/2000/svg" xmlns:xlink="http://www.w3.org/1999/xlink" width="62" height="62" viewBox="0 0 62 62">
  <defs>
    <clipPath id="clip-path">
      <rect id="Rect치ngulo_384980" data-name="Rect치ngulo 384980" width="39.018" height="36.9" fill="none"/>
    </clipPath>
  </defs>
  <g id="Grupo_1018662" data-name="Grupo 1018662" transform="translate(-668 -5956)">
    <g id="Grupo_1014934" data-name="Grupo 1014934" transform="translate(-101 -6950)">
      <g id="Grupo_1014857" data-name="Grupo 1014857" transform="translate(384.001 10848)">
        <path id="Uni칩n_12" data-name="Uni칩n 12" d="M44.385,58.97a31.027,31.027,0,1,1,10.348-8.025L58.991,62Z" transform="translate(384.999 2058)" fill="#a3bfe4"/>
        <circle id="Elipse_4842" data-name="Elipse 4842" cx="26" cy="26" r="26" transform="translate(389.999 2063)" fill="#fff"/>
      </g>
    </g>
    <g id="Grupo_1016923" data-name="Grupo 1016923" transform="translate(681 5970)">
      <g id="Grupo_1016922" data-name="Grupo 1016922" clip-path="url(#clip-path)">
        <path id="Trazado_833809" data-name="Trazado 833809" d="M128.553,12.866a3.876,3.876,0,0,1-.651.6c-1.238.714-2.493,1.4-3.743,2.094a2.327,2.327,0,0,1-.34.167.75.75,0,0,1-.923-.318.7.7,0,0,1,.214-.974c1.458-.838,2.926-1.661,4.41-2.454.4-.213.735,0,1.033.5Z" transform="translate(-89.534 -8.679)" fill="#566377"/>
        <path id="Trazado_833810" data-name="Trazado 833810" d="M15.427,29.1c.307.532.594,1.023.874,1.517a.833.833,0,0,1-.35,1.33c-.59.345-1.183.684-1.8,1.039.589,1.022,1.185,2.009,1.732,3.022a9.4,9.4,0,0,1,.883,1.959A2.923,2.923,0,0,1,15.321,41.1a3.019,3.019,0,0,1-3.478-.324,4.559,4.559,0,0,1-.8-1Q9.248,36.727,7.5,33.651c-.131-.229-.233-.284-.5-.2A5.319,5.319,0,0,1,.5,30.625a5.272,5.272,0,0,1,1.987-6.712c2.086-1.279,4.231-2.462,6.344-3.7a1.953,1.953,0,0,0,.536-.466Q14.205,13.6,19.028,7.44a2.392,2.392,0,0,1,2.345-1.093,2.294,2.294,0,0,1,1.7,1.218c.846,1.474,1.7,2.942,2.54,4.421a.513.513,0,0,0,.56.32c.809-.069,1.622-.1,2.432-.157a.908.908,0,0,1,.932.516c.442.785.886,1.568,1.351,2.339a.942.942,0,0,1-.042,1.129c-.439.637-.845,1.3-1.29,1.93a.554.554,0,0,0-.031.7c.789,1.331,1.57,2.667,2.324,4.019a2.282,2.282,0,0,1-1.544,3.4q-1.552.288-3.1.593-5.711,1.117-11.422,2.238c-.1.019-.2.048-.356.088m3.658-19.3a1.955,1.955,0,0,1-.1.169q-4.126,5.259-8.257,10.512a.346.346,0,0,0-.006.466q1.871,3.226,3.726,6.461a.369.369,0,0,0,.473.221c3.059-.61,6.122-1.2,9.183-1.8,1.255-.245,2.509-.5,3.8-.752L19.084,9.807M13.176,28.256l-3.8-6.585c-1.629.939-3.222,1.856-4.813,2.776-.471.273-.952.534-1.4.841a3.8,3.8,0,0,0,4.135,6.373c1.9-1.073,3.778-2.176,5.665-3.266.065-.038.126-.081.217-.139M20.118,8.534c.076.135.142.256.212.377l3.309,5.735q2.824,4.894,5.65,9.787c.063.108.157.3.21.295a2.572,2.572,0,0,0,.887-.242A.622.622,0,0,0,30.6,23.7a2.216,2.216,0,0,0-.189-.372q-4.3-7.448-8.6-14.895a2.739,2.739,0,0,0-.159-.259.734.734,0,0,0-1.2-.064c-.118.131-.218.277-.33.421M8.675,32.632c.051.1.083.163.12.227q1.8,3.112,3.593,6.223a2.611,2.611,0,0,0,.231.348,1.518,1.518,0,0,0,2.425-.1,1.536,1.536,0,0,0,0-1.753q-1.8-3.108-3.6-6.222c-.043-.074-.093-.144-.154-.239L8.675,32.632M26.669,13.8l1.811,3.135c.311-.468.588-.874.848-1.292a.315.315,0,0,0,0-.268c-.281-.51-.574-1.013-.871-1.514-.04-.068-.126-.159-.188-.157-.515.019-1.029.058-1.6.095M13.389,31.667,14.7,30.9l-.762-1.318-1.315.765.761,1.316" transform="translate(0 -4.608)" fill="#566377"/>
        <path id="Trazado_833811" data-name="Trazado 833811" d="M124.792,38.52l.795.212c.684.183,1.37.359,2.051.55a.762.762,0,1,1-.376,1.465c-.931-.239-1.86-.483-2.785-.745a.754.754,0,0,1-.608-.876c.074-.384.386-.623.922-.606" transform="translate(-90.313 -28.087)" fill="#566377"/>
        <path id="Trazado_833812" data-name="Trazado 833812" d="M108.023,3.55c.025-.106.067-.3.119-.5.215-.806.424-1.614.653-2.416a.762.762,0,0,1,.94-.607.753.753,0,0,1,.519.988c-.242.956-.493,1.909-.767,2.856a.729.729,0,0,1-.9.556.763.763,0,0,1-.564-.88" transform="translate(-78.768 -0.001)" fill="#566377"/>
        <path id="Trazado_833813" data-name="Trazado 833813" d="M14.323,89.628a2.348,2.348,0,0,1-2.091-1.055.749.749,0,0,1,.132-1.054.741.741,0,0,1,1.051.126c.517.558.713.587,1.38.2.319-.183.633-.375.957-.55a.779.779,0,0,1,1.128.235.766.766,0,0,1-.35,1.068c-.467.28-.939.557-1.43.791a4.317,4.317,0,0,1-.778.235" transform="translate(-8.806 -63.556)" fill="#566377"/>
        <path id="Trazado_833814" data-name="Trazado 833814" d="M35.152,81.537a.742.742,0,1,1-.781.712.739.739,0,0,1,.781-.712" transform="translate(-25.062 -59.455)" fill="#566377"/>
      </g>
    </g>
  </g>
</svg>
