<svg xmlns="http://www.w3.org/2000/svg" xmlns:xlink="http://www.w3.org/1999/xlink" width="62" height="62" viewBox="0 0 62 62">
  <defs>
    <clipPath id="clip-path">
      <rect id="Rect치ngulo_384978" data-name="Rect치ngulo 384978" width="37.934" height="29.175" fill="none"/>
    </clipPath>
  </defs>
  <g id="Grupo_1018660" data-name="Grupo 1018660" transform="translate(-261 -5960)">
    <g id="Grupo_1014932" data-name="Grupo 1014932" transform="translate(-12 -6946)">
      <g id="Grupo_1014856" data-name="Grupo 1014856" transform="translate(-111.999 10848)">
        <path id="Uni칩n_12" data-name="Uni칩n 12" d="M44.385,58.97a31.027,31.027,0,1,1,10.348-8.025L58.991,62Z" transform="translate(384.999 2058)" fill="#a3bfe4"/>
        <circle id="Elipse_4842" data-name="Elipse 4842" cx="26" cy="26" r="26" transform="translate(389.999 2063)" fill="#fff"/>
      </g>
    </g>
    <g id="Grupo_1016919" data-name="Grupo 1016919" transform="translate(275 5977.425)">
      <g id="Grupo_1016918" data-name="Grupo 1016918" transform="translate(0 0)" clip-path="url(#clip-path)">
        <path id="Trazado_833805" data-name="Trazado 833805" d="M37.934,3.394a4.54,4.54,0,0,1-1.448,2.218c-2.16,2.136-4.3,4.294-6.449,6.437a.784.784,0,0,0-.254.613q.013,4.445.005,8.89a3.114,3.114,0,0,1-3.336,3.329q-6.26,0-12.52-.006a.632.632,0,0,0-.6.317c-.685,1.011-1.388,2.011-2.09,3.011a1.938,1.938,0,0,1-3.354.014q-1.076-1.528-2.133-3.071a.546.546,0,0,0-.512-.27,19.29,19.29,0,0,1-2.66-.065A3,3,0,0,1,.007,21.787q-.013-7.427,0-14.853A3.1,3.1,0,0,1,2.994,3.851c.172-.009.346-.006.518-.006q11.26,0,22.521-.008a3.608,3.608,0,0,1,2.859.969c.119-.113.218-.2.312-.3,1.18-1.178,2.389-2.327,3.53-3.541a2.993,2.993,0,0,1,5.144,1.4.738.738,0,0,0,.055.135ZM28.169,5.583A2.025,2.025,0,0,0,26.6,4.9q-11.7,0-23.409,0a2.048,2.048,0,0,0-2.14,2.154q-.008,7.315,0,14.631a2.063,2.063,0,0,0,2.154,2.142c.815.005,1.63.012,2.445,0a.794.794,0,0,1,.738.388c.774,1.13,1.562,2.251,2.347,3.373a.9.9,0,0,0,1.639.013c.765-1.091,1.537-2.178,2.28-3.284a1.007,1.007,0,0,1,.946-.493q6.482.021,12.964.007a2.063,2.063,0,0,0,2.175-2.158q.009-3.982,0-7.964a2.412,2.412,0,0,0-.028-.264l-.095-.054a2.829,2.829,0,0,1-.245.326c-1.324,1.33-2.64,2.668-3.987,3.975a4.446,4.446,0,0,1-1.2.842c-1.4.645-2.825,1.231-4.235,1.851a1.043,1.043,0,0,1-1.432-1.449c.543-1.216,1.09-2.43,1.592-3.662a5.458,5.458,0,0,1,1.451-2.112c.348-.3.686-.619,1.028-.929L21.5,12.1h-.431q-7.019,0-14.038,0c-.147,0-.33.036-.434-.036A.953.953,0,0,1,6.2,11.6a.434.434,0,0,1,.36-.522,1.433,1.433,0,0,1,.366-.036c.63,0,1.259,0,1.889,0q6.741,0,13.483-.006a.782.782,0,0,0,.5-.136c1.788-1.756,3.562-3.526,5.365-5.318m6.685.079-2.6-2.577L20.911,14.4l2.6,2.6L34.854,5.662M35.7,4.9c.262-.275.538-.523.766-.81a1.872,1.872,0,0,0-1.093-3.007A2.234,2.234,0,0,0,33.03,2.234L35.7,4.9M20.231,15.358l-.79,1.82,1.377,1.282,1.733-.785-2.32-2.318m-1.295,2.971-.521,1.216,1.222-.56-.7-.656" transform="translate(0 0)" fill="#566377"/>
        <path id="Trazado_833806" data-name="Trazado 833806" d="M27.053,59.211h4.182a2.7,2.7,0,0,1,.369.014.435.435,0,0,1,.423.472.973.973,0,0,1-.333.511c-.079.074-.258.053-.391.053q-4.257,0-8.513,0a1.564,1.564,0,0,1-.3-.011.5.5,0,0,1-.454-.54.476.476,0,0,1,.5-.493c.468-.013.937-.008,1.406-.008h3.109" transform="translate(-15.85 -42.581)" fill="#566377"/>
      </g>
    </g>
  </g>
</svg>
