<svg xmlns="http://www.w3.org/2000/svg" xmlns:xlink="http://www.w3.org/1999/xlink" width="62" height="62" viewBox="0 0 62 62">
  <defs>
    <clipPath id="clip-path">
      <rect id="Rect치ngulo_384983" data-name="Rect치ngulo 384983" width="38.629" height="38.8" fill="none"/>
    </clipPath>
  </defs>
  <g id="Grupo_1018665" data-name="Grupo 1018665" transform="translate(-1288 -5958)">
    <g id="Grupo_1016917" data-name="Grupo 1016917" transform="translate(23 -6948)">
      <g id="Grupo_1014859" data-name="Grupo 1014859" transform="translate(880.001 10848)">
        <path id="Uni칩n_12" data-name="Uni칩n 12" d="M44.385,58.97a31.027,31.027,0,1,1,10.348-8.025L58.991,62Z" transform="translate(384.999 2058)" fill="#a3bfe4"/>
        <circle id="Elipse_4842" data-name="Elipse 4842" cx="26" cy="26" r="26" transform="translate(389.999 2063)" fill="#fff"/>
      </g>
    </g>
    <g id="Grupo_1016929" data-name="Grupo 1016929" transform="translate(1300.371 5969.6)">
      <g id="Grupo_1016928" data-name="Grupo 1016928" clip-path="url(#clip-path)">
        <path id="Trazado_833825" data-name="Trazado 833825" d="M19.773,0c.141.048.281.1.423.144a2.84,2.84,0,0,1,.044,5.38c-.181.062-.335.084-.334.355.013,2.588.008,5.177.009,7.766a1.609,1.609,0,0,0,.026.188,12.509,12.509,0,0,1,5,1.331l4.769-6a3,3,0,0,1-.633-1.851,2.834,2.834,0,1,1,3.572,2.77A2.728,2.728,0,0,1,30.9,9.993a.318.318,0,0,0-.445.107c-1.477,1.874-2.962,3.741-4.475,5.646a12.856,12.856,0,0,1,4.155,4.339l2.881-1.8a10.21,10.21,0,0,1,.014-1.614,2.783,2.783,0,0,1,2.512-2.264,2.84,2.84,0,0,1,1.938,5.106,2.784,2.784,0,0,1-3.411-.042.478.478,0,0,0-.675-.042c-.886.578-1.79,1.13-2.706,1.7a12.41,12.41,0,0,1,.312,9.55,12.183,12.183,0,0,1-4.892,6.093A12.488,12.488,0,0,1,7.939,21.151c-.083-.06-.169-.13-.261-.188-.833-.525-1.671-1.04-2.5-1.576a.383.383,0,0,0-.55.032,2.77,2.77,0,0,1-3.119.32A2.836,2.836,0,1,1,5.6,17.861c-.023.11-.051.219-.083.356l2.972,1.864a12.842,12.842,0,0,1,4.165-4.332L11.333,14.08c-1.037-1.3-2.077-2.606-3.106-3.917A.394.394,0,0,0,7.7,10a2.783,2.783,0,1,1,1.221-.846l4.773,6.006a12.569,12.569,0,0,1,5-1.32,3.064,3.064,0,0,0,.033-.308q0-3.807.005-7.614a.328.328,0,0,0-.255-.38A2.785,2.785,0,0,1,16.5,2.686,2.816,2.816,0,0,1,18.733.066.714.714,0,0,0,18.864,0Zm-.438,37.617A11.312,11.312,0,1,0,8.013,26.341,11.321,11.321,0,0,0,19.335,37.618M19.3,4.479a1.636,1.636,0,0,0,1.677-1.628,1.662,1.662,0,0,0-3.325-.028A1.637,1.637,0,0,0,19.3,4.479M33.566,7.348a1.656,1.656,0,0,0-1.65-1.664,1.672,1.672,0,0,0-1.672,1.65A1.692,1.692,0,0,0,31.9,9.007a1.672,1.672,0,0,0,1.664-1.658m-28.5,0A1.671,1.671,0,0,0,6.731,9.007,1.692,1.692,0,0,0,8.392,7.337,1.672,1.672,0,0,0,6.723,5.684,1.654,1.654,0,0,0,5.071,7.346m32.376,9.9a1.653,1.653,0,1,0-1.659,1.645,1.636,1.636,0,0,0,1.659-1.645m-34.6-1.661A1.653,1.653,0,1,0,4.5,17.243a1.642,1.642,0,0,0-1.648-1.662" transform="translate(0 -0.001)" fill="#566377"/>
        <path id="Trazado_833826" data-name="Trazado 833826" d="M61.283,121.761q-3.067,0-6.135,0c-.612,0-.787-.18-.778-.791a6.906,6.906,0,0,1,13.77-.516c.119,1,.148,1.343-1.139,1.317-1.905-.038-3.812-.01-5.718-.01m-5.674-1.19H66.934a5.691,5.691,0,0,0-11.325,0" transform="translate(-41.953 -88.182)" fill="#566377"/>
        <path id="Trazado_833827" data-name="Trazado 833827" d="M72.824,86.04A3.491,3.491,0,1,1,76.3,82.53a3.488,3.488,0,0,1-3.472,3.51M72.8,84.87a2.314,2.314,0,1,0-2.3-2.321,2.324,2.324,0,0,0,2.3,2.321" transform="translate(-53.49 -61.003)" fill="#566377"/>
      </g>
    </g>
  </g>
</svg>
