<svg xmlns="http://www.w3.org/2000/svg" xmlns:xlink="http://www.w3.org/1999/xlink" width="295" height="241" viewBox="0 0 295 241">
  <defs>
    <clipPath id="clip-path">
      <rect id="Rectángulo_385515" data-name="Rectángulo 385515" width="244.738" height="240.189" fill="none"/>
    </clipPath>
    <clipPath id="clip-path-9">
      <path id="Trazado_836438" data-name="Trazado 836438" d="M116.756,348.485a.3.3,0,0,0,.072-.351,16.917,16.917,0,0,1-.605-10.793.3.3,0,0,0-.083-.291l-7.676-7.394,7.086-6.173c.2.19.529.511.959.918.473.449,1.45,1.362,2.681,2.443,3.478,3.055,5.8,4.576,6.957,4.576.02,0,.037,0,.073.046,1.037,1.315-1.515,13.089-3.386,20.284-.815.543-6.718,4.405-9.111,4.144a.943.943,0,0,1-.608-.247,19.674,19.674,0,0,1-3.011-4.691.5.5,0,0,1,.162-.02c.357,0,1.177.27,2.653,2.029a.3.3,0,0,0,.211.108.293.293,0,0,0,.223-.08L115,351.483a.3.3,0,0,0,.01-.434l-3.127-3.142c.622-.306,2.188-.775,4.52.613a.3.3,0,0,0,.355-.036m-1.734-24.942-7,6.1,7.913,7.622a17.309,17.309,0,0,0,.623,10.994c-3.245-1.932-5.157-.413-5.157-.413l3.4,3.412-1.645,1.51c-2.589-3.087-3.427-1.922-3.427-1.922a20.671,20.671,0,0,0,3.176,5.007,1.239,1.239,0,0,0,.794.337c2.7.3,9.4-4.258,9.4-4.258s5.442-20.864,3.046-20.817c-1.3.022-4.282-2.33-6.753-4.5-1.032-.906-1.982-1.781-2.672-2.435-.712-.674-1.155-1.109-1.155-1.109Z" transform="translate(-108.018 -323.074)" fill="none"/>
    </clipPath>
    <clipPath id="clip-path-10">
      <rect id="Rectángulo_385501" data-name="Rectángulo 385501" width="11.371" height="32.649" fill="none"/>
    </clipPath>
    <clipPath id="clip-path-12">
      <rect id="Rectángulo_385502" data-name="Rectángulo 385502" width="16.972" height="9.165" fill="none"/>
    </clipPath>
    <clipPath id="clip-path-13">
      <rect id="Rectángulo_385503" data-name="Rectángulo 385503" width="23.672" height="23.779" fill="none"/>
    </clipPath>
    <clipPath id="clip-path-14">
      <rect id="Rectángulo_385504" data-name="Rectángulo 385504" width="21.636" height="21.392" fill="none"/>
    </clipPath>
    <clipPath id="clip-path-15">
      <rect id="Rectángulo_385505" data-name="Rectángulo 385505" width="46.844" height="34.477" fill="none"/>
    </clipPath>
    <clipPath id="clip-path-16">
      <rect id="Rectángulo_385506" data-name="Rectángulo 385506" width="26.304" height="34.815" fill="none"/>
    </clipPath>
    <clipPath id="clip-path-17">
      <rect id="Rectángulo_385507" data-name="Rectángulo 385507" width="25.142" height="15.189" fill="none"/>
    </clipPath>
    <clipPath id="clip-path-18">
      <rect id="Rectángulo_385508" data-name="Rectángulo 385508" width="26.011" height="21.948" fill="none"/>
    </clipPath>
    <clipPath id="clip-path-19">
      <rect id="Rectángulo_385509" data-name="Rectángulo 385509" width="50.612" height="54.838" fill="none"/>
    </clipPath>
    <clipPath id="clip-path-20">
      <path id="Trazado_836483" data-name="Trazado 836483" d="M273.313,236.742c-2.511-6.6-.27-14.192.859-17.253,9.425-5.193,28.532,12.741,30.169,14.3-.228,1.423-2.251,12.583-10.089,17.11a13.382,13.382,0,0,1-1.823.122c-7.6,0-16.024-6.146-19.116-14.283m4.827-18.5a8.353,8.353,0,0,0-4.206,1.032.006.006,0,0,0-.007.005c-1.214,3.255-3.445,10.863-.9,17.566,3.226,8.493,12.791,15.56,21.32,14.343,8.612-4.925,10.312-17.508,10.312-17.508s-15.82-15.437-26.522-15.438h0" transform="translate(-271.861 -218.246)" fill="none"/>
    </clipPath>
    <clipPath id="clip-path-21">
      <rect id="Rectángulo_385511" data-name="Rectángulo 385511" width="32.802" height="33.083" fill="none"/>
    </clipPath>
    <clipPath id="clip-path-23">
      <rect id="Rectángulo_385513" data-name="Rectángulo 385513" width="1.806" height="1.479" fill="none"/>
    </clipPath>
  </defs>
  <g id="Grupo_1018353" data-name="Grupo 1018353" transform="translate(-180 -4217)">
    <g id="Grupo_1018352" data-name="Grupo 1018352" transform="translate(206.761 4217.405)">
      <g id="Grupo_1018351" data-name="Grupo 1018351" clip-path="url(#clip-path)">
        <g id="Grupo_1018299" data-name="Grupo 1018299">
          <g id="Grupo_1018298" data-name="Grupo 1018298" clip-path="url(#clip-path)">
            <path id="Trazado_836391" data-name="Trazado 836391" d="M9.964,82.851c21.331-21.323,39.394-3.434,47-32.067,17.191-64.676,88.483-64.046,97.858-18.039,16.892,82.9,90.456,30.253,89.909,89.63-.584,63.393-47.2,112.766-130.811,117.7C38.968,244.5-25.378,118.181,9.964,82.851" transform="translate(0 0)" fill="#33ece0"/>
            <g id="Grupo_1018297" data-name="Grupo 1018297" opacity="0.7">
              <g id="Grupo_1018296" data-name="Grupo 1018296">
                <g id="Grupo_1018295" data-name="Grupo 1018295" clip-path="url(#clip-path)">
                  <path id="Trazado_836392" data-name="Trazado 836392" d="M9.964,82.851c21.331-21.323,39.394-3.434,47-32.067,17.191-64.676,88.483-64.046,97.858-18.039,16.892,82.9,90.456,30.253,89.909,89.63-.584,63.393-47.2,112.766-130.811,117.7C38.968,244.5-25.378,118.181,9.964,82.851" transform="translate(0 0)" fill="#fff"/>
                </g>
              </g>
            </g>
          </g>
        </g>
        <g id="Grupo_1018301" data-name="Grupo 1018301">
          <g id="Grupo_1018300" data-name="Grupo 1018300" clip-path="url(#clip-path)">
            <path id="Trazado_836393" data-name="Trazado 836393" d="M104.4,75.569a1.706,1.706,0,1,1,3.383-.4l.43,3.67a1.706,1.706,0,1,1-3.383.4Zm1.556,3.619c.058.5.29.678.656.635.351-.042.55-.275.492-.77l-.448-3.829c-.058-.494-.306-.676-.657-.635-.367.043-.55.275-.492.77Zm4.339-6.04,1.037-.122-3.1,11.684-1.037.122ZM110.41,79a1.705,1.705,0,1,1,3.382-.4l.43,3.67a1.705,1.705,0,1,1-3.382.4Zm1.556,3.619c.058.494.289.678.656.635.351-.041.55-.275.492-.77l-.448-3.829c-.058-.494-.306-.676-.657-.634-.367.043-.55.274-.492.769Z" transform="translate(-41.511 -29.044)" fill="#263238"/>
            <path id="Trazado_836394" data-name="Trazado 836394" d="M101.216,84.19A1.43,1.43,0,0,1,99.8,82.929L98.221,69.46a1.947,1.947,0,0,1,.57-1.624l5.444-5.366a1.957,1.957,0,0,1,2.392-.28l6.537,3.962a1.95,1.95,0,0,1,.931,1.449l1.577,13.469a1.427,1.427,0,0,1-1.252,1.584l-13.039,1.527a1.414,1.414,0,0,1-.166.01m4.4-21.682a1.355,1.355,0,0,0-.953.391l-5.444,5.366a1.348,1.348,0,0,0-.4,1.125L100.4,82.859a.824.824,0,0,0,.915.723l13.039-1.527a.826.826,0,0,0,.723-.915L113.5,67.671a1.352,1.352,0,0,0-.645-1L106.316,62.7a1.355,1.355,0,0,0-.7-.2" transform="translate(-39.059 -24.621)" fill="#263238"/>
            <path id="Trazado_836395" data-name="Trazado 836395" d="M109.83,66.238a1.139,1.139,0,1,1,1.13-1.271,1.139,1.139,0,0,1-1,1.263,1.239,1.239,0,0,1-.132.008m0-1.675c-.021,0-.042,0-.063,0a.536.536,0,1,0,.482.865.537.537,0,0,0-.419-.869" transform="translate(-43.229 -25.438)" fill="#263238"/>
            <path id="Trazado_836396" data-name="Trazado 836396" d="M110.487,59.666a1.178,1.178,0,0,1-.137-.008.3.3,0,0,1,.066-.6.438.438,0,0,0,.416-.157c1.008-1.165-.193-6.891-.74-9a.3.3,0,0,1,.583-.152c.21.807,2.008,7.931.613,9.544a1.029,1.029,0,0,1-.8.369" transform="translate(-43.781 -19.698)" fill="#263238"/>
            <path id="Trazado_836397" data-name="Trazado 836397" d="M109.3,57.863a.275.275,0,0,1-.054,0,.3.3,0,0,1-.242-.351c.5-2.742,2.926-7.222,3.029-7.411a.3.3,0,0,1,.529.288c-.025.045-2.483,4.584-2.967,7.232a.3.3,0,0,1-.3.247" transform="translate(-43.352 -19.862)" fill="#263238"/>
            <path id="Trazado_836398" data-name="Trazado 836398" d="M109.954,65.605l-.034,0a1.026,1.026,0,0,1-.9-.728.3.3,0,1,1,.569-.2.432.432,0,0,0,.4.328.3.3,0,0,1-.033.6" transform="translate(-43.352 -25.643)" fill="#263238"/>
            <path id="Trazado_836399" data-name="Trazado 836399" d="M134.356,63.2a.3.3,0,0,1-.282-.2,16.214,16.214,0,0,0-4.989-6.891.3.3,0,0,1,.378-.469,16.813,16.813,0,0,1,5.175,7.147.3.3,0,0,1-.176.388.3.3,0,0,1-.106.019" transform="translate(-51.295 -22.103)" fill="#263238"/>
            <path id="Trazado_836400" data-name="Trazado 836400" d="M85.443,62.456a.3.3,0,0,1-.291-.377,16.841,16.841,0,0,1,25.312-9.987.3.3,0,0,1-.322.509,16.239,16.239,0,0,0-24.407,9.63.3.3,0,0,1-.291.225" transform="translate(-33.862 -19.678)" fill="#263238"/>
            <path id="Trazado_836401" data-name="Trazado 836401" d="M90.355,91.587a.3.3,0,0,1-.2-.074,16.833,16.833,0,0,1-5.6-10.254.3.3,0,0,1,.6-.087,16.235,16.235,0,0,0,5.4,9.887.3.3,0,0,1-.2.528" transform="translate(-33.629 -32.181)" fill="#263238"/>
            <path id="Trazado_836402" data-name="Trazado 836402" d="M105.349,103.168h-.012a16.791,16.791,0,0,1-8.632-2.786.3.3,0,0,1,.332-.5,16.184,16.184,0,0,0,8.323,2.686.3.3,0,0,1-.011.6" transform="translate(-38.407 -39.704)" fill="#263238"/>
            <path id="Trazado_836403" data-name="Trazado 836403" d="M116,92.314a.3.3,0,0,1-.043-.6A16.233,16.233,0,0,0,129.669,73.3a.3.3,0,0,1,.6-.087,16.838,16.838,0,0,1-14.219,19.1.276.276,0,0,1-.044,0" transform="translate(-46.016 -29.015)" fill="#263238"/>
          </g>
        </g>
        <g id="Grupo_1018303" data-name="Grupo 1018303">
          <g id="Grupo_1018302" data-name="Grupo 1018302" clip-path="url(#clip-path)">
            <path id="Trazado_836404" data-name="Trazado 836404" d="M58.654,182.517a1.292,1.292,0,0,1-.248-.024L39.56,178.86a1.3,1.3,0,0,1-1.029-1.52l2.4-12.435a.3.3,0,0,1,.352-.238l20.8,4.011a.3.3,0,0,1,.239.352l-2.4,12.435a1.3,1.3,0,0,1-1.272,1.053m-17.19-17.2-2.34,12.14a.7.7,0,0,0,.552.815L58.519,181.9a.7.7,0,0,0,.815-.552l2.34-12.14Z" transform="translate(-15.315 -65.488)" fill="#263238"/>
            <path id="Trazado_836405" data-name="Trazado 836405" d="M63.8,166.607a.311.311,0,0,1-.057-.005l-21.859-4.214a.3.3,0,0,1-.239-.352l.632-3.281a1.3,1.3,0,0,1,1.52-1.029h0l19.9,3.837a1.3,1.3,0,0,1,1.029,1.521l-.633,3.28a.3.3,0,0,1-.3.244M42.3,161.854l21.267,4.1.576-2.985a.7.7,0,0,0-.552-.815l-19.9-3.837a.7.7,0,0,0-.815.552Z" transform="translate(-16.562 -62.721)" fill="#263238"/>
            <path id="Trazado_836406" data-name="Trazado 836406" d="M56.3,179.292a.27.27,0,0,1-.058-.006l-2.974-.573a.3.3,0,0,1-.239-.352l3.407-17.674a.3.3,0,0,1,.354-.238l2.973.574a.3.3,0,0,1,.239.352L56.6,179.047a.3.3,0,0,1-.295.245m-2.622-1.114,2.383.46,3.293-17.082-2.383-.46Z" transform="translate(-21.089 -63.81)" fill="#263238"/>
            <path id="Trazado_836407" data-name="Trazado 836407" d="M69.125,161.115a.918.918,0,0,1-.181-.017.3.3,0,0,1,.114-.591c.319.057.707-.332.9-.915a2.046,2.046,0,0,0-1.093-2.6c-1.824-.871-5.842,1.578-7.235,2.6a.3.3,0,1,1-.355-.486c.217-.158,5.331-3.858,7.85-2.652a2.649,2.649,0,0,1,1.405,3.328c-.268.814-.828,1.335-1.4,1.335" transform="translate(-24.321 -62.128)" fill="#263238"/>
            <path id="Trazado_836408" data-name="Trazado 836408" d="M67.582,161.739a3.124,3.124,0,0,1-.588-.054.3.3,0,0,1,.114-.591,2.542,2.542,0,0,0,2.28-.664.365.365,0,0,0,.007-.448c-.245-.382-2.313.2-4.421,1.251a.3.3,0,0,1-.268-.54c1.041-.518,4.492-2.126,5.2-1.038a.958.958,0,0,1-.013,1.112,2.9,2.9,0,0,1-2.3.973" transform="translate(-25.668 -63.35)" fill="#263238"/>
            <path id="Trazado_836409" data-name="Trazado 836409" d="M61.683,157.645a.3.3,0,0,1-.263-.446c.821-1.492,2.053-4.173,1.863-5.012a.3.3,0,0,1,.293-.367l1.455,0h0a.3.3,0,0,1,.287.21c.02.067.5,1.669-1.26,4.323a.3.3,0,0,1-.5-.332,5.691,5.691,0,0,0,1.224-3.6H63.9c-.04,1.543-1.744,4.686-1.954,5.068a.3.3,0,0,1-.264.156" transform="translate(-24.413 -60.38)" fill="#263238"/>
            <path id="Trazado_836410" data-name="Trazado 836410" d="M55.977,158.059a.3.3,0,0,1-.255-.141c-.917-1.463-3.746-5.231-5.752-5.1a2.046,2.046,0,0,0-1.98,2c-.039.614.174,1.123.5,1.185a.3.3,0,1,1-.114.591c-.638-.123-1.041-.868-.982-1.813a2.65,2.65,0,0,1,2.542-2.567c2.773-.172,6.159,5.153,6.3,5.38a.3.3,0,0,1-.1.416.3.3,0,0,1-.16.046" transform="translate(-18.845 -60.538)" fill="#263238"/>
            <path id="Trazado_836411" data-name="Trazado 836411" d="M55.2,158.939a.3.3,0,0,1-.225-.1c-1.567-1.757-3.267-3.068-3.64-2.805a.365.365,0,0,0-.16.419,2.543,2.543,0,0,0,1.87,1.464.3.3,0,0,1-.114.591,3.079,3.079,0,0,1-2.344-1.928.959.959,0,0,1,.4-1.038c1.053-.744,3.662,2.029,4.436,2.9a.3.3,0,0,1-.225.5" transform="translate(-20.109 -61.811)" fill="#263238"/>
            <path id="Trazado_836412" data-name="Trazado 836412" d="M60.244,157.015a.3.3,0,0,1-.3-.264c-.053-.433-.467-3.984.07-5.431l-.813-.328a5.763,5.763,0,0,0-.2,3.794.3.3,0,1,1-.59.122c-.644-3.116.393-4.426.437-4.48a.3.3,0,0,1,.346-.089l1.349.543a.3.3,0,0,1,.135.45c-.487.708-.34,3.655-.132,5.345a.3.3,0,0,1-.262.335l-.037,0" transform="translate(-23.146 -59.783)" fill="#263238"/>
            <path id="Trazado_836413" data-name="Trazado 836413" d="M91.3,161.174a.3.3,0,0,1-.3-.26,20.783,20.783,0,0,0-4.285-10.03.3.3,0,1,1,.472-.374,21.393,21.393,0,0,1,4.41,10.323.3.3,0,0,1-.257.339.245.245,0,0,1-.041,0" transform="translate(-34.461 -59.815)" fill="#263238"/>
            <path id="Trazado_836414" data-name="Trazado 836414" d="M28.28,149.08a.3.3,0,0,1-.267-.44,21.423,21.423,0,0,1,34.21-5.27.3.3,0,1,1-.427.425,20.821,20.821,0,0,0-33.248,5.122.3.3,0,0,1-.267.163" transform="translate(-11.128 -54.512)" fill="#263238"/>
            <path id="Trazado_836415" data-name="Trazado 836415" d="M28.441,184.107a.3.3,0,0,1-.243-.123,21.415,21.415,0,0,1-4.062-14.3.3.3,0,1,1,.6.046,20.812,20.812,0,0,0,3.947,13.893.3.3,0,0,1-.065.42.3.3,0,0,1-.178.058" transform="translate(-9.574 -67.377)" fill="#263238"/>
            <path id="Trazado_836416" data-name="Trazado 836416" d="M43.884,202.763a.313.313,0,0,1-.078-.01,21.359,21.359,0,0,1-9.925-5.884.3.3,0,1,1,.435-.417,20.764,20.764,0,0,0,9.645,5.719.3.3,0,0,1-.077.592" transform="translate(-13.442 -78.096)" fill="#263238"/>
            <path id="Trazado_836417" data-name="Trazado 836417" d="M58.389,194.921c-.563,0-1.126-.022-1.692-.066a.3.3,0,0,1-.277-.323.291.291,0,0,1,.324-.276,20.815,20.815,0,0,0,22.363-19.142.3.3,0,0,1,.324-.277.3.3,0,0,1,.277.323,21.42,21.42,0,0,1-21.318,19.762" transform="translate(-22.439 -69.535)" fill="#263238"/>
          </g>
        </g>
        <g id="Grupo_1018305" data-name="Grupo 1018305">
          <g id="Grupo_1018304" data-name="Grupo 1018304" clip-path="url(#clip-path)">
            <path id="Trazado_836418" data-name="Trazado 836418" d="M231.911,79.883a.3.3,0,0,1-.137-.033L230,78.944a.3.3,0,0,1-.142-.382,5.231,5.231,0,0,0,.24-2.276.3.3,0,0,1,.128-.272.3.3,0,0,1,.3-.027c.579.267,1.163.541,1.714.8a.3.3,0,0,1,.171.285c-.036.85-.1,1.7-.2,2.54a.3.3,0,0,1-.157.231.309.309,0,0,1-.143.036m-1.4-1.355,1.146.587c.063-.617.111-1.243.141-1.866-.349-.166-.71-.336-1.073-.5a5.628,5.628,0,0,1-.214,1.784" transform="translate(-91.411 -30.21)" fill="#263238"/>
            <path id="Trazado_836419" data-name="Trazado 836419" d="M234.258,90.048a2.719,2.719,0,0,1-.611-.081,8.438,8.438,0,0,1-1.807-.7c-.626-.32-2.633-1.433-2.189-2.3a20.439,20.439,0,0,0,1.861-6.885c.1-.821.161-1.661.2-2.5a.3.3,0,0,1,.431-.259c1,.479,1.89.915,2.388,1.169a5.95,5.95,0,0,0,1.7.568.3.3,0,0,1,.245.243,16.328,16.328,0,0,1-1.478,10.392.745.745,0,0,1-.734.354M232.288,78.06c-.039.7-.1,1.4-.178,2.086a21.05,21.05,0,0,1-1.923,7.09c-.011.159.557.79,1.93,1.492s2.215.794,2.342.684a15.71,15.71,0,0,0,1.452-9.8,6.6,6.6,0,0,1-1.658-.585c-.426-.218-1.139-.569-1.966-.967" transform="translate(-91.311 -30.74)" fill="#263238"/>
            <path id="Trazado_836420" data-name="Trazado 836420" d="M235.254,70.432a6.541,6.541,0,0,1-2.987-.722c-.494-.253-1.376-.686-2.374-1.162-.549-.262-1.129-.535-1.705-.8-1.623-.748-2.8-1.246-3.389-1.438a.3.3,0,0,1-.186-.172.3.3,0,0,1,.01-.252l6.064-11.855a.3.3,0,0,1,.446-.106c1.237.9,5.612,3.29,7.128,4.065a6.586,6.586,0,0,1-3.008,12.442m-9.936-4.579c.831.308,2.122.887,3.123,1.348.579.267,1.162.541,1.713.8,1,.479,1.89.915,2.388,1.17a5.977,5.977,0,0,0,8.408-7.162,5.911,5.911,0,0,0-2.961-3.485c-1.191-.61-5.295-2.822-6.92-3.914Z" transform="translate(-89.324 -21.424)" fill="#263238"/>
            <path id="Trazado_836421" data-name="Trazado 836421" d="M218.07,61.417a.3.3,0,0,1-.095-.015,29.977,29.977,0,0,0-7.9-1.482l-2.354-.123a.3.3,0,0,1-.252-.438l9.038-17.667a.3.3,0,0,1,.237-.163.305.305,0,0,1,.266.111l1.476,1.836h0a29.982,29.982,0,0,0,5.823,5.539.3.3,0,0,1,.092.381l-6.064,11.855a.3.3,0,0,1-.269.164m-9.852-2.2,1.889.1a30.588,30.588,0,0,1,7.811,1.431l5.831-11.4a30.611,30.611,0,0,1-5.731-5.5l-1.185-1.474Z" transform="translate(-82.501 -16.517)" fill="#263238"/>
            <path id="Trazado_836422" data-name="Trazado 836422" d="M204.521,59.767a.965.965,0,0,1-.439-.106l-.782-.4a.967.967,0,0,1-.42-1.3l10.58-20.681a.968.968,0,0,1,1.3-.42l.783.4a.967.967,0,0,1,.42,1.3l-10.58,20.68a.962.962,0,0,1-.563.479.975.975,0,0,1-.3.047m-1.105-1.532a.364.364,0,0,0,.158.489l.783.4a.354.354,0,0,0,.276.022.359.359,0,0,0,.212-.18l10.58-20.681a.363.363,0,0,0-.157-.488l-.783-.4a.365.365,0,0,0-.489.158Z" transform="translate(-80.646 -14.618)" fill="#263238"/>
            <line id="Línea_953" data-name="Línea 953" x1="4.077" y1="2.086" transform="translate(118.739 28.51)" fill="#757575"/>
            <path id="Trazado_836423" data-name="Trazado 836423" d="M201.026,49.526a.3.3,0,0,1-.137-.033l-4.077-2.086a.3.3,0,1,1,.274-.537l4.077,2.086a.3.3,0,0,1-.137.569" transform="translate(-78.21 -18.628)" fill="#263238"/>
            <line id="Línea_954" data-name="Línea 954" x1="2.569" y1="4.497" transform="translate(125.023 19.557)" fill="#757575"/>
            <path id="Trazado_836424" data-name="Trazado 836424" d="M209.953,37.071a.3.3,0,0,1-.262-.152l-2.569-4.5a.3.3,0,0,1,.523-.3l2.57,4.5a.3.3,0,0,1-.113.411.3.3,0,0,1-.149.04" transform="translate(-82.36 -12.716)" fill="#263238"/>
            <line id="Línea_955" data-name="Línea 955" x1="5.151" y2="0.548" transform="translate(115.157 38.295)" fill="#757575"/>
            <path id="Trazado_836425" data-name="Trazado 836425" d="M191,64.233a.3.3,0,0,1-.031-.6l5.151-.548a.3.3,0,1,1,.063.6l-5.151.548-.032,0" transform="translate(-75.844 -25.089)" fill="#263238"/>
            <path id="Trazado_836426" data-name="Trazado 836426" d="M247.772,26.99a.3.3,0,0,1-.2-.08,26.945,26.945,0,0,0-12.532-6.544.3.3,0,0,1,.128-.588,27.55,27.55,0,0,1,12.814,6.69.3.3,0,0,1-.2.522" transform="translate(-93.383 -7.863)" fill="#263238"/>
            <path id="Trazado_836427" data-name="Trazado 836427" d="M243.034,78.02a.3.3,0,0,1-.117-.578,26.988,26.988,0,0,0,9.954-42.451.3.3,0,0,1,.457-.393A27.59,27.59,0,0,1,243.151,78a.3.3,0,0,1-.117.024" transform="translate(-96.539 -13.719)" fill="#263238"/>
            <path id="Trazado_836428" data-name="Trazado 836428" d="M213.679,105.588a27.578,27.578,0,0,1-17.95-6.64.3.3,0,0,1,.392-.457,26.979,26.979,0,0,0,17.558,6.494.3.3,0,1,1,0,.6" transform="translate(-77.803 -39.143)" fill="#263238"/>
            <path id="Trazado_836429" data-name="Trazado 836429" d="M187.364,86.132a.3.3,0,0,1-.225-.1A27.5,27.5,0,0,1,180.575,72.7a.3.3,0,0,1,.592-.11,26.9,26.9,0,0,0,6.422,13.038.3.3,0,0,1-.225.5" transform="translate(-71.815 -28.773)" fill="#263238"/>
            <path id="Trazado_836430" data-name="Trazado 836430" d="M180.108,46.615a.3.3,0,0,1-.3-.3,27.613,27.613,0,0,1,27.582-27.582.3.3,0,1,1,0,.6,27.01,27.01,0,0,0-26.979,26.979.3.3,0,0,1-.3.3" transform="translate(-71.512 -7.45)" fill="#263238"/>
          </g>
        </g>
        <g id="Grupo_1018307" data-name="Grupo 1018307">
          <g id="Grupo_1018306" data-name="Grupo 1018306" clip-path="url(#clip-path)">
            <path id="Trazado_836431" data-name="Trazado 836431" d="M124.075,145.154a.3.3,0,0,1-.229-.106c-.1-.12-.229-.27-.364-.443a19.524,19.524,0,0,1-3.867-7.71,6.924,6.924,0,0,1,1.427-6.179,4.638,4.638,0,0,1,4.03-1.449,4.932,4.932,0,0,1,4.326,4.024,4.928,4.928,0,0,1,5.866.667h0a4.64,4.64,0,0,1,1.521,4.009,6.916,6.916,0,0,1-3.768,5.1,19.46,19.46,0,0,1-8.369,2.078c-.217.01-.413.011-.572.011m.352-15.329a3.987,3.987,0,0,0-2.946,1.3,6.335,6.335,0,0,0-1.275,5.651,18.929,18.929,0,0,0,3.749,7.455c.093.118.181.225.259.318.122,0,.26,0,.409-.01a18.859,18.859,0,0,0,8.1-2,6.328,6.328,0,0,0,3.465-4.638,3.993,3.993,0,0,0-1.323-3.5,4.454,4.454,0,0,0-5.524-.4.3.3,0,0,1-.45-.207,4.458,4.458,0,0,0-3.9-3.941,4.27,4.27,0,0,0-.564-.038" transform="translate(-47.503 -51.395)" fill="#263238"/>
            <path id="Trazado_836432" data-name="Trazado 836432" d="M123.2,159.574a.307.307,0,0,1-.117-.023.3.3,0,0,1-.161-.394c.221-.525.384-.831.391-.843a.3.3,0,0,1,.531.285s-.158.3-.367.792a.3.3,0,0,1-.278.184" transform="translate(-48.878 -62.901)" fill="#263238"/>
            <path id="Trazado_836433" data-name="Trazado 836433" d="M139.5,179.887l-.175,0a.3.3,0,0,1,.013-.6l.163,0a7.49,7.49,0,0,0,1.533-.161.3.3,0,1,1,.123.589,8.1,8.1,0,0,1-1.657.174m-1.92-.249a.3.3,0,0,1-.076-.01,8.593,8.593,0,0,1-1.714-.656.3.3,0,1,1,.273-.537,8.011,8.011,0,0,0,1.593.61.3.3,0,0,1-.076.593m-3.152-1.582a.3.3,0,0,1-.183-.062,11.857,11.857,0,0,1-1.355-1.218.3.3,0,1,1,.435-.416,11.251,11.251,0,0,0,1.285,1.156.3.3,0,0,1-.183.54m-3.762-2.371q-.263,0-.536-.02a.3.3,0,0,1,.043-.6,6.4,6.4,0,0,0,1.308-.035c-.258-.379-.5-.775-.723-1.18a.3.3,0,0,1,.528-.29,13.884,13.884,0,0,0,.93,1.467.381.381,0,0,1-.238.531,6.668,6.668,0,0,1-1.311.128m-2.256-.343a.3.3,0,0,1-.085-.012,11.547,11.547,0,0,1-1.7-.657.3.3,0,1,1,.259-.544,11,11,0,0,0,1.61.623.3.3,0,0,1-.085.59m5.169-.382a.3.3,0,0,1-.145-.565,5.7,5.7,0,0,0,1.335-1.02.3.3,0,1,1,.431.42,6.287,6.287,0,0,1-1.476,1.127.305.305,0,0,1-.145.037m-8.4-1.123a.254.254,0,0,1-.139-.043l-.057-.036a9.816,9.816,0,0,1-1.4-1.071.3.3,0,0,1,.409-.442,9.168,9.168,0,0,0,1.311,1.005.332.332,0,0,1,.12.434.3.3,0,0,1-.249.153m10.856-1.373a.3.3,0,0,1-.146-.038.3.3,0,0,1-.117-.409,6.784,6.784,0,0,0,.628-1.575.3.3,0,1,1,.583.151,7.363,7.363,0,0,1-.684,1.715.3.3,0,0,1-.264.155m-5.772-.064a.3.3,0,0,1-.28-.191,12.543,12.543,0,0,1-.546-1.735.3.3,0,0,1,.587-.137,12.021,12.021,0,0,0,.519,1.651.3.3,0,0,1-.17.391.307.307,0,0,1-.11.02m-7.632-.97a.3.3,0,0,1-.249-.131,7.921,7.921,0,0,1-.858-1.629.3.3,0,0,1,.562-.217,7.314,7.314,0,0,0,.793,1.505.3.3,0,0,1-.078.419.3.3,0,0,1-.17.053m14.277-2.369a.3.3,0,0,1-.3-.3,4.738,4.738,0,0,0-.3-1.633.3.3,0,0,1,.562-.217,5.351,5.351,0,0,1,.344,1.84.3.3,0,0,1-.3.307Zm-7.421-.111a.3.3,0,0,1-.3-.292c0-.084,0-.168,0-.251a5.636,5.636,0,0,1,.213-1.6.3.3,0,1,1,.578.172,5.048,5.048,0,0,0-.189,1.43c0,.076,0,.153,0,.231a.3.3,0,0,1-.291.31h-.01m-8.136-.8a.3.3,0,0,1-.3-.255,10.122,10.122,0,0,1-.116-1.549c0-.092,0-.183,0-.274a.3.3,0,0,1,.6.014q0,.129,0,.26a9.535,9.535,0,0,0,.109,1.457.3.3,0,0,1-.251.344.308.308,0,0,1-.046,0m14.235-2.272a.3.3,0,0,1-.2-.073,3.194,3.194,0,0,0-1.445-.7.3.3,0,1,1,.124-.589,3.791,3.791,0,0,1,1.715.829.3.3,0,0,1-.2.529m-4.975-.169a.3.3,0,0,1-.193-.532,3.066,3.066,0,0,1,1.454-.653q.166-.03.328-.051a.3.3,0,0,1,.078.6c-.1.013-.2.028-.3.046a2.482,2.482,0,0,0-1.174.523.3.3,0,0,1-.192.07m-9.193-1.095a.286.286,0,0,1-.051,0,.3.3,0,0,1-.247-.348,15.183,15.183,0,0,1,.413-1.763.3.3,0,1,1,.578.171,14.5,14.5,0,0,0-.4,1.693.3.3,0,0,1-.3.251" transform="translate(-48.099 -64.543)" fill="#263238"/>
            <path id="Trazado_836434" data-name="Trazado 836434" d="M157.085,189.644a.3.3,0,0,1-.121-.577q.391-.171.789-.386a.3.3,0,1,1,.287.529q-.42.228-.835.408a.3.3,0,0,1-.12.025" transform="translate(-62.355 -75.027)" fill="#263238"/>
          </g>
        </g>
        <g id="Grupo_1018309" data-name="Grupo 1018309">
          <g id="Grupo_1018308" data-name="Grupo 1018308" clip-path="url(#clip-path)">
            <path id="Trazado_836435" data-name="Trazado 836435" d="M123.1,351.935s-6.7,4.561-9.4,4.258a1.247,1.247,0,0,1-.794-.337,20.671,20.671,0,0,1-3.176-5.007s.838-1.165,3.427,1.922l1.645-1.51-3.4-3.412s1.912-1.519,5.157.413a17.31,17.31,0,0,1-.623-10.994l-7.913-7.622,7-6.1.54-.47s.442.435,1.155,1.109c.69.654,1.64,1.529,2.672,2.434,2.471,2.171,5.458,4.523,6.753,4.5,2.4-.047-3.045,20.817-3.045,20.817" transform="translate(-42.961 -128.491)" fill="#fff"/>
            <path id="Trazado_836436" data-name="Trazado 836436" d="M113.756,356.309a2.622,2.622,0,0,1-.3-.016,1.525,1.525,0,0,1-.974-.423,20.68,20.68,0,0,1-3.238-5.1.3.3,0,0,1,.031-.3.942.942,0,0,1,.734-.34q1.184-.032,2.964,2l1.185-1.087-3.176-3.19a.3.3,0,0,1,.026-.448c.079-.062,1.82-1.4,4.759-.006a18.117,18.117,0,0,1-.372-10.243l-7.788-7.5a.3.3,0,0,1,.011-.444l7.544-6.572a.3.3,0,0,1,.408.013s.441.434,1.151,1.1c.47.446,1.441,1.354,2.664,2.427,4.373,3.842,5.969,4.426,6.535,4.426h.028a.675.675,0,0,1,.543.275c1.571,1.992-2.8,18.988-3.305,20.918a.3.3,0,0,1-.122.173c-.268.182-6.388,4.324-9.31,4.324m-3.853-5.553a19.694,19.694,0,0,0,3.012,4.692.946.946,0,0,0,.608.246c2.393.261,8.3-3.6,9.111-4.145,1.871-7.194,4.423-18.968,3.387-20.283-.037-.047-.054-.045-.073-.046-1.152,0-3.479-1.521-6.957-4.576-1.23-1.081-2.208-1.995-2.681-2.443-.431-.407-.763-.728-.959-.917l-7.086,6.173,7.676,7.394a.3.3,0,0,1,.083.292,16.915,16.915,0,0,0,.605,10.792.3.3,0,0,1-.428.386c-2.331-1.388-3.9-.919-4.519-.613l3.126,3.141a.3.3,0,0,1-.01.434l-1.645,1.51a.294.294,0,0,1-.223.079.3.3,0,0,1-.211-.107c-1.476-1.76-2.3-2.027-2.653-2.03a.527.527,0,0,0-.163.02m12.994.98h0Z" transform="translate(-42.762 -128.293)" fill="#263238"/>
          </g>
        </g>
        <g id="Grupo_1018314" data-name="Grupo 1018314" transform="translate(65.057 194.582)">
          <g id="Grupo_1018313" data-name="Grupo 1018313" clip-path="url(#clip-path-9)">
            <g id="Grupo_1018312" data-name="Grupo 1018312" transform="translate(0 0.469)" opacity="0.4">
              <g id="Grupo_1018311" data-name="Grupo 1018311">
                <g id="Grupo_1018310" data-name="Grupo 1018310" clip-path="url(#clip-path-10)">
                  <path id="Trazado_836437" data-name="Trazado 836437" d="M117.912,349.257s-3.818,3.938-4.22,7.247a1.24,1.24,0,0,1-.8-.337,20.671,20.671,0,0,1-3.176-5.007s.838-1.165,3.428,1.922l1.645-1.51-3.4-3.412s1.912-1.518,5.157.413a17.306,17.306,0,0,1-.623-10.994l-7.913-7.623,7-6.1,1.694.639c.69.654,1.641,1.529,2.673,2.435-1.482,2.175-4.657,6.667-4.657,6.667l2.743,3.721s-1.663,9.382.438,11.94" transform="translate(-108.018 -323.854)" fill="#33ece0"/>
                </g>
              </g>
            </g>
          </g>
        </g>
        <g id="Grupo_1018340" data-name="Grupo 1018340">
          <g id="Grupo_1018339" data-name="Grupo 1018339" clip-path="url(#clip-path)">
            <path id="Trazado_836439" data-name="Trazado 836439" d="M119.07,368a.325.325,0,0,1-.092-.014.3.3,0,0,1-.2-.378,8.621,8.621,0,0,1,1.843-3.12.3.3,0,1,1,.423.429,8.109,8.109,0,0,0-1.691,2.872.3.3,0,0,1-.287.21" transform="translate(-47.236 -144.929)" fill="#263238"/>
            <path id="Trazado_836440" data-name="Trazado 836440" d="M221.086,257.528a18.979,18.979,0,0,1-3.795,4.091.005.005,0,0,0-.006.005c-12.329,10.207-40.753,15.252-40.753,15.252s-.95,1.427-2.414,3.46c-2.629,3.648-6.933,9.25-10.443,12.059h-.006c-1.48,1.191-2.824,1.88-3.835,1.695l5.33,19.7,2.387,8.551s-24.508,10.692-66.429-1.537c0,0-.473-5.471-.119-6.638.017-.053.034-.112.057-.17a7.709,7.709,0,0,1,1.642-2.066s-.234-3.517-.354-7.1a47.939,47.939,0,0,1,.086-6.852c.3-1.807,1.62-6.171,2.283-8.316.237-.761.391-1.243.391-1.243l-2.086-19.537-.6-5.626s-.01-.1-.031-.293c0-.042,0-.085-.013-.14l-.329-3.018L91.265,263.1s.575,1.261,1.343,3.034a93.111,93.111,0,0,1,3.962,10.13,4.183,4.183,0,0,0,.137.47c1,2.849,4.8,5.436,4.8,5.436L91.3,294.1l-3.019-2.107a9.337,9.337,0,0,1-1.217.765,11.122,11.122,0,0,1-10.7.242,15.916,15.916,0,0,1-5.045-4.464c-8.048-10.419-11.5-18.906-10.373-28.893s45.982-40.714,54.881-40.4l13.238,2.925a3.077,3.077,0,0,1,1.656-.82c2.407.123,2.47,2.92,2.47,2.92l29.665,4.816a22.018,22.018,0,0,1,3.609-1.514,2.312,2.312,0,0,1,1.873,1.191s7.686-4.6,10.161-3.531c8.127,3.506,48.592,23.17,42.587,32.3" transform="translate(-24.156 -87.197)" fill="#33ece0"/>
            <g id="Grupo_1018317" data-name="Grupo 1018317" transform="translate(76.903 217.63)" opacity="0.2">
              <g id="Grupo_1018316" data-name="Grupo 1018316">
                <g id="Grupo_1018315" data-name="Grupo 1018315" clip-path="url(#clip-path-12)">
                  <path id="Trazado_836441" data-name="Trazado 836441" d="M144.657,362.8a22.153,22.153,0,0,1-12.838,6.964c-1.561.248-2.935.5-4.133.746a7.72,7.72,0,0,1,1.642-2.066s-.234-3.517-.354-7.1c3.483,2.277,9.546,4.927,15.683,1.456" transform="translate(-127.685 -361.341)"/>
                </g>
              </g>
            </g>
            <g id="Grupo_1018320" data-name="Grupo 1018320" transform="translate(78.864 181.682)" opacity="0.2">
              <g id="Grupo_1018319" data-name="Grupo 1018319">
                <g id="Grupo_1018318" data-name="Grupo 1018318" clip-path="url(#clip-path-13)">
                  <path id="Trazado_836442" data-name="Trazado 836442" d="M132.637,322.435c.237-.76.391-1.243.391-1.243l-2.086-19.536c3.117,4.471,14.236,19.708,21.9,21.352,8.012,1.714-13.413,4.747-20.208-.573" transform="translate(-130.942 -301.656)"/>
                </g>
              </g>
            </g>
            <g id="Grupo_1018323" data-name="Grupo 1018323" transform="translate(119.371 205.198)" opacity="0.2">
              <g id="Grupo_1018322" data-name="Grupo 1018322">
                <g id="Grupo_1018321" data-name="Grupo 1018321" clip-path="url(#clip-path-14)">
                  <path id="Trazado_836443" data-name="Trazado 836443" d="M219.834,362.091c-8.371-.952-20.212-3.063-21.4-7.443-1.843-6.845,7.132-10.95,19.9-13.949-1.48,1.191-2.824,1.88-3.835,1.695Z" transform="translate(-198.198 -340.699)"/>
                </g>
              </g>
            </g>
            <g id="Grupo_1018326" data-name="Grupo 1018326" transform="translate(146.284 158.662)" opacity="0.2">
              <g id="Grupo_1018325" data-name="Grupo 1018325">
                <g id="Grupo_1018324" data-name="Grupo 1018324" clip-path="url(#clip-path-15)">
                  <path id="Trazado_836444" data-name="Trazado 836444" d="M289.726,279.2c-12.329,10.207-40.752,15.252-40.752,15.252s-.95,1.427-2.415,3.46a47.381,47.381,0,0,1-1.815-31.5s2.19,11.859,11.28,14.676c0,0-6.957-5.182-4.529-17.656,0,0,2.372,14.683,17.82,18.736,7.514,1.97,14.852-.213,20.412-2.97" transform="translate(-242.882 -263.434)"/>
                </g>
              </g>
            </g>
            <g id="Grupo_1018329" data-name="Grupo 1018329" transform="translate(54.961 145.317)" opacity="0.2">
              <g id="Grupo_1018328" data-name="Grupo 1018328">
                <g id="Grupo_1018327" data-name="Grupo 1018327" clip-path="url(#clip-path-16)">
                  <path id="Trazado_836445" data-name="Trazado 836445" d="M114.527,271.722l-.341-3.158L103.4,271.858s.575,1.261,1.343,3.034c-4.123-.426-11.945,3.4-13.31-.767-1.645-5.034,8.48-3.3,8.48-3.3l9.552-5.557a17.027,17.027,0,0,1,2.792-13.532l.873,5.389c.419-10.246,4.426-15.85,4.426-15.85-3.334,8.1-3.241,28.044-3.032,30.447" transform="translate(-91.255 -241.276)"/>
                </g>
              </g>
            </g>
            <g id="Grupo_1018332" data-name="Grupo 1018332" transform="translate(52.208 191.884)" opacity="0.2">
              <g id="Grupo_1018331" data-name="Grupo 1018331">
                <g id="Grupo_1018330" data-name="Grupo 1018330" clip-path="url(#clip-path-17)">
                  <path id="Trazado_836446" data-name="Trazado 836446" d="M111.825,321.678,101.616,333.61,98.6,331.5a9.256,9.256,0,0,1-1.216.765,11.121,11.121,0,0,1-10.7.243c3.308-4.577,10.141-11.316,18.274-13.918a81.945,81.945,0,0,0-5.424,9.27l2.1,2.068s5.235-5.967,10.194-8.254" transform="translate(-86.683 -318.594)"/>
                </g>
              </g>
            </g>
            <g id="Grupo_1018335" data-name="Grupo 1018335" transform="translate(100.564 142.412)" opacity="0.2">
              <g id="Grupo_1018334" data-name="Grupo 1018334">
                <g id="Grupo_1018333" data-name="Grupo 1018333" clip-path="url(#clip-path-18)">
                  <path id="Trazado_836447" data-name="Trazado 836447" d="M168.556,236.453c0,1.05-.665,12.99,8.02,16.145s16.407-2.2,16.407-2.2-13.32,12.845-21.424,5.98-3-19.93-3-19.93" transform="translate(-166.972 -236.453)"/>
                </g>
              </g>
            </g>
            <path id="Trazado_836448" data-name="Trazado 836448" d="M167.348,322.439a.3.3,0,0,1-.29-.222l-7.719-28.252a.3.3,0,0,1,.344-.376c3.722.686,13.1-12.1,16.4-17.081a.3.3,0,0,1,.2-.13c.359-.063,36-6.518,44.352-19.215a3.555,3.555,0,0,0,.354-3.136c-2.9-9.674-35.011-25.356-42.806-28.719-1.91-.823-7.786,2.255-9.887,3.512a.309.309,0,0,1-.238.031.3.3,0,0,1-.186-.154,2,2,0,0,0-1.619-1.022h0a20.488,20.488,0,0,0-3.461,1.481.275.275,0,0,1-.183.028l-29.662-4.815a.3.3,0,0,1-.253-.29c0-.1-.089-2.52-2.184-2.627-.193,0-.627.075-1.449.75a.3.3,0,0,1-.256.062l-13.236-2.926-.132,0c-9.031,0-53.288,30.417-54.388,40.137-1.074,9.494,1.913,17.8,10.312,28.68,2.533,3.281,5.407,5.145,8.54,5.54a11.865,11.865,0,0,0,8-2.137.3.3,0,0,1,.358-.01l2.793,1.947,9.821-11.472c-.968-.708-4.159-3.211-4.789-5.892-.7-2.959-5.237-13.006-5.283-13.108a.3.3,0,0,1,.187-.413l10.782-3.3a.3.3,0,0,1,.387.257l3.06,28.611a.307.307,0,0,1-.013.123c-.022.07-2.268,7.122-2.665,9.522-.461,2.792.261,13.769.269,13.88a.3.3,0,0,1-.1.244,6.462,6.462,0,0,0-1.612,2.1c-.273.911,0,5.018.134,6.523a.3.3,0,0,1-.6.052c-.049-.566-.466-5.562-.111-6.748a6.672,6.672,0,0,1,1.678-2.273c-.089-1.367-.7-11.158-.252-13.874.388-2.351,2.43-8.8,2.666-9.547L101.586,260,91.48,263.085c.791,1.76,4.532,10.154,5.18,12.906.675,2.872,4.774,5.7,4.815,5.726a.3.3,0,0,1,.06.444L91.321,294.091a.3.3,0,0,1-.4.051l-2.839-1.98a12.257,12.257,0,0,1-8.254,2.128c-3.3-.414-6.312-2.356-8.949-5.77-8.5-11.014-11.528-19.449-10.434-29.116.608-5.369,13.134-16.06,24.654-24.274,11.242-8.016,25.595-16.574,30.541-16.389l13.148,2.9a2.846,2.846,0,0,1,1.747-.794,3.016,3.016,0,0,1,2.74,2.962l29.329,4.761a16.93,16.93,0,0,1,3.676-1.5,2.563,2.563,0,0,1,1.956,1.081c1.382-.8,7.822-4.419,10.183-3.4,7.845,3.385,40.183,19.2,43.144,29.1a4.176,4.176,0,0,1-.428,3.64c-8.328,12.659-41.9,18.963-44.624,19.455-1.064,1.593-11.542,17.09-16.48,17.265l7.607,27.845a.3.3,0,0,1-.211.37.3.3,0,0,1-.08.011" transform="translate(-23.954 -86.996)" fill="#263238"/>
            <path id="Trazado_836449" data-name="Trazado 836449" d="M260.438,247.242c13.612,8.993,24.585,7.327,33.174-4.242,0,0,7.15-9.217,6.644-19.163s-2.882-42.38-33.872-34.087c-5.1,1.365-17,17.307-18.008,21.688-.459,2-5.237,12.194-9.876,22.744" transform="translate(-94.856 -74.933)" fill="#33ece0"/>
            <path id="Trazado_836450" data-name="Trazado 836450" d="M276.278,253.065q-7.459,0-16.205-5.769a.3.3,0,1,1,.332-.5c13.4,8.849,24.113,7.485,32.767-4.171.075-.1,7.08-9.252,6.585-18.968-.8-15.649-4.821-26.219-11.963-31.418-5.436-3.957-12.679-4.762-21.53-2.393-4.9,1.311-16.751,16.919-17.792,21.464-.319,1.395-2.637,6.559-5.571,13.1-1.335,2.975-2.848,6.348-4.323,9.7a.3.3,0,0,1-.552-.242c1.476-3.356,2.99-6.73,4.326-9.706,2.92-6.508,5.227-11.648,5.533-12.985.946-4.13,12.877-20.481,18.224-21.912,9.032-2.419,16.45-1.581,22.04,2.488,7.3,5.311,11.4,16.035,12.209,31.874.507,9.943-6.634,19.27-6.706,19.363-4.986,6.715-10.8,10.077-17.373,10.077" transform="translate(-94.657 -74.736)" fill="#263238"/>
            <path id="Trazado_836451" data-name="Trazado 836451" d="M192.36,126.966s8.669-1.316,14.7,4.079c7.618,6.819,16.169,25.2,3.988,55.665,0,0-17.993-11.947-48.7-3.957,0,0,2.644-7.147-2-29.641-2.1-10.17,3.178-33.619,32.017-26.145" transform="translate(-63.608 -49.922)" fill="#263238"/>
            <path id="Trazado_836452" data-name="Trazado 836452" d="M186.008,228.852c12.835,2.08,26.474-12.127,26.474-12.127s-6.979-.861-7.6-4.136c-2-10.336,6.05-23.1,6.05-23.1s-31.164.862-25.714,7.915a17.773,17.773,0,0,1,2.465,4.227c1.89,4.642.579,8.145-.426,9a1.415,1.415,0,0,1-.227.151c-1.886.862-9.631-.422-9.631-.422s-3.1,16.6,8.614,18.5" transform="translate(-70.405 -75.362)" fill="#fff"/>
            <path id="Trazado_836453" data-name="Trazado 836453" d="M188.4,229.159a16.494,16.494,0,0,1-2.646-.209,9.686,9.686,0,0,1-6.644-4.035c-3.893-5.536-2.288-14.437-2.218-14.814a.3.3,0,0,1,.345-.242c2.13.352,7.979,1.12,9.457.444a1.055,1.055,0,0,0,.157-.106c.767-.652,2.274-3.914.343-8.657a17.62,17.62,0,0,0-2.424-4.156,2.467,2.467,0,0,1-.493-2.679c2.369-5,25.456-5.693,26.438-5.721a.321.321,0,0,1,.27.152.3.3,0,0,1-.007.31c-.079.126-7.965,12.786-6.009,22.885.578,3.026,7.277,3.887,7.345,3.895a.3.3,0,0,1,.18.508c-.128.133-12.078,12.423-24.093,12.424M177.438,210.5c-.242,1.585-1.2,9.285,2.167,14.069a9.105,9.105,0,0,0,6.246,3.787c11.3,1.827,23.407-9.3,25.789-11.622-1.751-.3-6.711-1.391-7.263-4.289-1.782-9.2,4.374-20.4,5.8-22.839-3.576.139-23.337,1.093-25.358,5.357a1.892,1.892,0,0,0,.425,2.053,18.222,18.222,0,0,1,2.506,4.3c2.015,4.953.493,8.489-.512,9.341a1.68,1.68,0,0,1-.274.184c-1.773.812-8.061-.109-9.529-.34" transform="translate(-70.2 -75.163)" fill="#263238"/>
            <path id="Trazado_836454" data-name="Trazado 836454" d="M197.657,244.922a.3.3,0,0,1-.133-.572l3.906-1.913a.325.325,0,0,1,.156-.03,35.158,35.158,0,0,0,14.452-1.642.3.3,0,0,1,.223.558,35.757,35.757,0,0,1-14.642,1.691l-3.831,1.877a.307.307,0,0,1-.132.031" transform="translate(-78.492 -95.747)" fill="#263238"/>
            <path id="Trazado_836455" data-name="Trazado 836455" d="M185.487,241.236a.3.3,0,0,1-.3-.267l-.265-2.371c-1.1-.37-6.515-2.346-8.359-5.89a.3.3,0,1,1,.534-.278c1.9,3.648,8.131,5.634,8.193,5.654a.3.3,0,0,1,.21.254l.287,2.563a.3.3,0,0,1-.266.333l-.034,0" transform="translate(-70.209 -92.376)" fill="#263238"/>
            <path id="Trazado_836456" data-name="Trazado 836456" d="M194.007,217.607c9.544,2.495,14.025-9.746,14.025-9.746s-7.635-2.277-13.6.746c1.89,4.642.579,8.145-.426,9" transform="translate(-77.16 -82.343)" fill="#263238"/>
            <path id="Trazado_836457" data-name="Trazado 836457" d="M212.065,160.667c2.322-13.033-.259-28.674-20.1-27.377-14.172.926-14.055,16.464-13.117,21.1,1.578,7.8-.683,10.872,1.747,17.424,1.746,4.709,5.8,9.974,10.58,11.947,2.939,1.214,14.833-7.133,15.712-10.95" transform="translate(-70.991 -52.981)" fill="#fff"/>
            <path id="Trazado_836458" data-name="Trazado 836458" d="M191.686,183.982a2.134,2.134,0,0,1-.814-.14c-5.1-2.107-9.073-7.606-10.747-12.121a21.464,21.464,0,0,1-1.192-9.078,33.363,33.363,0,0,0-.568-8.391c-.544-2.689-1.035-10.872,3.17-16.369a13.323,13.323,0,0,1,10.223-5.094c7.335-.479,12.876,1.311,16.463,5.319,5.762,6.44,4.947,16.806,3.949,22.412a.3.3,0,0,1-.593-.106c.979-5.5,1.788-15.655-3.8-21.9-3.457-3.864-8.83-5.584-15.975-5.12a12.748,12.748,0,0,0-9.784,4.858c-4.068,5.319-3.587,13.269-3.057,15.883a34.349,34.349,0,0,1,.579,8.528,20.69,20.69,0,0,0,1.155,8.851c1.576,4.25,5.507,9.747,10.412,11.774.759.312,2.416-.139,4.547-1.238,4.4-2.272,10.184-7.016,10.756-9.5a.3.3,0,0,1,.587.136c-.628,2.722-6.361,7.473-11.068,9.9a10.809,10.809,0,0,1-4.239,1.4" transform="translate(-70.798 -52.782)" fill="#263238"/>
            <path id="Trazado_836459" data-name="Trazado 836459" d="M189.284,183.778a.311.311,0,0,1-.108-.02c-.308-.119-3.026-1.2-3.276-2.642a1.439,1.439,0,0,1,.591-1.366,10.168,10.168,0,0,0,3.272-7.384l.014-.174a.306.306,0,0,1,.325-.276.3.3,0,0,1,.276.325l-.014.172a10.858,10.858,0,0,1-3.479,7.792.875.875,0,0,0-.391.807c.163.938,2.148,1.894,2.9,2.183a.3.3,0,0,1-.108.582" transform="translate(-73.927 -68.373)" fill="#263238"/>
            <path id="Trazado_836460" data-name="Trazado 836460" d="M175,164.9a.3.3,0,0,1-.23-.5c3.074-3.656,7.652-1.486,7.7-1.464a.3.3,0,0,1-.263.541c-.17-.083-4.206-1.983-6.973,1.31a.3.3,0,0,1-.231.107" transform="translate(-69.482 -64.543)" fill="#263238"/>
            <path id="Trazado_836461" data-name="Trazado 836461" d="M208.732,163.456a.3.3,0,0,1-.1-.019,14.659,14.659,0,0,0-9.152-.367.3.3,0,1,1-.2-.567,14.976,14.976,0,0,1,9.564.369.3.3,0,0,1-.1.584" transform="translate(-79.174 -64.391)" fill="#263238"/>
            <path id="Trazado_836462" data-name="Trazado 836462" d="M207.109,171.96c.136,1.258.982,2.2,1.891,2.1s1.534-1.2,1.4-2.455-.982-2.2-1.891-2.1-1.534,1.2-1.4,2.455" transform="translate(-82.363 -67.412)" fill="#263238"/>
            <path id="Trazado_836463" data-name="Trazado 836463" d="M196.338,198.844c-2.507,0-3.754-2.442-4.089-3.226-.172.025-.345.049-.52.07a.3.3,0,0,1-.072-.6q.354-.042.7-.1a.333.333,0,0,1,.068-.011,24.793,24.793,0,0,0,8.887-3.416.3.3,0,0,1,.469.226c0,.057.372,5.734-4.4,6.919a4.321,4.321,0,0,1-1.046.134m-3.481-3.326c.4.9,1.72,3.272,4.381,2.608,3.518-.874,3.927-4.426,3.952-5.775a25.811,25.811,0,0,1-8.333,3.167" transform="translate(-76.12 -76.168)" fill="#263238"/>
            <path id="Trazado_836464" data-name="Trazado 836464" d="M193.576,135.84s-1.255,15.444,12.378,21.055l6.387-14.845-9.662-10.7-14.558-4.206c-21.75,1.356-31.114,14.873-19.038,50.879,0,0-3.377-42.884,24.493-42.181" transform="translate(-65.13 -50.566)" fill="#263238"/>
            <path id="Trazado_836465" data-name="Trazado 836465" d="M228.865,174.826c-.188-1.736,4.2-6.157,5.688-3.32,2.533,4.835.688,9.051-1.932,10.7-1.173.74-2.659,2.125-3.7.818" transform="translate(-91.021 -67.842)" fill="#fff"/>
            <path id="Trazado_836466" data-name="Trazado 836466" d="M229.732,183.667a1.549,1.549,0,0,1-1.249-.652.3.3,0,0,1,.47-.376c.661.826,1.515.337,2.742-.506.195-.134.384-.264.567-.379,2.7-1.7,4.192-5.789,1.825-10.308a1.293,1.293,0,0,0-1.713-.673c-1.633.5-3.52,2.8-3.408,3.821a.3.3,0,0,1-.6.064c-.152-1.4,2-3.9,3.832-4.462a1.89,1.89,0,0,1,2.422.97c2.536,4.842.895,9.248-2.038,11.1-.176.111-.359.237-.547.366a4.6,4.6,0,0,1-2.3,1.038" transform="translate(-90.822 -67.643)" fill="#263238"/>
            <path id="Trazado_836467" data-name="Trazado 836467" d="M185.071,172.915c.136,1.258.982,2.2,1.891,2.1s1.534-1.2,1.4-2.455-.982-2.2-1.891-2.1-1.534,1.2-1.4,2.454" transform="translate(-73.598 -67.792)" fill="#263238"/>
            <g id="Grupo_1018338" data-name="Grupo 1018338" transform="translate(101.385 78.394)" opacity="0.2">
              <g id="Grupo_1018337" data-name="Grupo 1018337">
                <g id="Grupo_1018336" data-name="Grupo 1018336" clip-path="url(#clip-path-19)">
                  <path id="Trazado_836468" data-name="Trazado 836468" d="M168.635,173.6h-.019a.3.3,0,0,1-.282-.319c.066-1.083.181-2.157.342-3.192a.3.3,0,0,1,.6.093c-.158,1.016-.272,2.071-.336,3.135a.3.3,0,0,1-.3.283" transform="translate(-168.334 -145.939)" fill="#fff"/>
                  <path id="Trazado_836469" data-name="Trazado 836469" d="M169.975,154.775a.3.3,0,0,1-.294-.366c2.372-10.732,12.456-18.29,24-18a.3.3,0,0,1-.008.6h-.008c-11.214-.3-21.082,7.073-23.392,17.524a.3.3,0,0,1-.294.236" transform="translate(-168.867 -132.645)" fill="#fff"/>
                  <path id="Trazado_836470" data-name="Trazado 836470" d="M169.776,138.186a.3.3,0,0,1-.262-.449c6-10.613,22.018-6.985,22.177-6.947a.3.3,0,0,1-.137.587c-.157-.037-15.739-3.562-21.515,6.657a.3.3,0,0,1-.263.153" transform="translate(-168.788 -130.162)" fill="#fff"/>
                  <path id="Trazado_836471" data-name="Trazado 836471" d="M230.877,165.889a.3.3,0,0,1-.183-.062,17.357,17.357,0,0,1-3.487-3.675.3.3,0,0,1,.488-.352,16.739,16.739,0,0,0,3.364,3.549.3.3,0,0,1-.183.54" transform="translate(-191.726 -142.696)" fill="#fff"/>
                  <path id="Trazado_836472" data-name="Trazado 836472" d="M222.03,149.572a.3.3,0,0,1-.26-.149,43.32,43.32,0,0,1-5.077-14.461.3.3,0,0,1,.594-.1,42.681,42.681,0,0,0,5,14.258.3.3,0,0,1-.108.412.3.3,0,0,1-.152.042" transform="translate(-187.565 -131.931)" fill="#fff"/>
                  <path id="Trazado_836473" data-name="Trazado 836473" d="M241.853,218.332a.3.3,0,0,1-.088-.013.3.3,0,0,1-.2-.376c.376-1.238.707-2.5.984-3.738a.3.3,0,0,1,.588.133c-.281,1.256-.616,2.528-1,3.782a.3.3,0,0,1-.288.213" transform="translate(-197.454 -163.494)" fill="#fff"/>
                  <path id="Trazado_836474" data-name="Trazado 836474" d="M243.315,198.577a.263.263,0,0,1-.053,0,.3.3,0,0,1-.244-.349c.908-5.172,1.417-12.613-1.321-18.69a.3.3,0,0,1,.55-.248c2.8,6.217,2.287,13.786,1.364,19.042a.3.3,0,0,1-.3.249" transform="translate(-197.501 -149.629)" fill="#fff"/>
                  <path id="Trazado_836475" data-name="Trazado 836475" d="M231.392,208.034a.3.3,0,0,1-.215-.512,15.194,15.194,0,0,0,4.395-11.528.3.3,0,0,1,.262-.336.3.3,0,0,1,.336.262,15.85,15.85,0,0,1-4.563,12.023.3.3,0,0,1-.215.09" transform="translate(-193.293 -156.21)" fill="#fff"/>
                  <path id="Trazado_836476" data-name="Trazado 836476" d="M241.724,161.678a.3.3,0,0,1-.3-.264c-.6-4.787-3.784-8.752-7.138-12.325a48.507,48.507,0,0,1-5.1-6.877c-.877-1.344-1.783-2.733-2.768-4.064a.3.3,0,0,1,.484-.358c.995,1.346,1.906,2.742,2.787,4.093a48.046,48.046,0,0,0,5.033,6.794c3.423,3.647,6.676,7.7,7.3,12.662a.3.3,0,0,1-.261.336.266.266,0,0,1-.038,0" transform="translate(-191.413 -133.148)" fill="#fff"/>
                  <path id="Trazado_836477" data-name="Trazado 836477" d="M222.461,133.74a.3.3,0,0,1-.217-.093,11.729,11.729,0,0,0-2.066-1.734.3.3,0,0,1,.328-.505,12.372,12.372,0,0,1,2.173,1.822.3.3,0,0,1-.217.51" transform="translate(-188.899 -130.638)" fill="#fff"/>
                </g>
              </g>
            </g>
            <path id="Trazado_836478" data-name="Trazado 836478" d="M295.307,249.3c-.314.071-.632.124-.956.17-8.528,1.217-18.094-5.851-21.32-14.343-2.549-6.7-.317-14.311.9-17.566.385-1.02.663-1.614.663-1.614,5.141-7.347,35.045,7.023,35.393,14.943s-5.914,16.494-14.675,18.41" transform="translate(-108.124 -85.079)" fill="#263238"/>
            <path id="Trazado_836479" data-name="Trazado 836479" d="M292.247,249.708c-7.836,0-16.516-6.312-19.691-14.671-2.612-6.868-.245-14.72.895-17.778.385-1.021.661-1.612.673-1.636,1.788-2.563,6.4-2.892,13-.967,10.213,2.974,22.733,10.785,22.963,16.025.371,8.44-6.319,16.836-14.911,18.717-.322.073-.647.126-.979.174a13.856,13.856,0,0,1-1.953.136m-17.6-33.787s-.266.585-.63,1.55c-1.114,2.992-3.435,10.675-.895,17.352,3.349,8.817,12.961,15.3,20.995,14.152.316-.045.626-.1.932-.166h0c8.32-1.82,14.8-9.941,14.438-18.1-.213-4.862-12.566-12.571-22.53-15.473-6.246-1.819-10.734-1.568-12.313.687" transform="translate(-107.93 -84.881)" fill="#263238"/>
            <path id="Trazado_836480" data-name="Trazado 836480" d="M304.663,233.685s-1.7,12.582-10.311,17.508c-8.529,1.217-18.094-5.851-21.32-14.343-2.549-6.7-.317-14.311.9-17.566a.007.007,0,0,1,.007-.006c10.075-5.749,30.728,14.407,30.728,14.407" transform="translate(-108.124 -86.8)" fill="#fff"/>
            <path id="Trazado_836481" data-name="Trazado 836481" d="M292.247,251.423c-7.835,0-16.516-6.311-19.69-14.67-2.612-6.868-.245-14.72.895-17.778a.307.307,0,0,1,.093-.131.291.291,0,0,1,.063-.04c10.161-5.764,30.223,13.633,31.072,14.463a.3.3,0,0,1,.088.256c-.017.127-1.819,12.786-10.46,17.728a.3.3,0,0,1-.108.037,13.829,13.829,0,0,1-1.953.135m-18.268-32.137c-1.129,3.061-3.37,10.649-.859,17.253,3.341,8.8,12.915,15.264,20.939,14.16,7.838-4.526,9.861-15.686,10.089-17.109-1.636-1.564-20.745-19.5-30.169-14.3" transform="translate(-107.93 -86.597)" fill="#263238"/>
          </g>
        </g>
        <g id="Grupo_1018345" data-name="Grupo 1018345" transform="translate(163.737 131.446)">
          <g id="Grupo_1018344" data-name="Grupo 1018344" clip-path="url(#clip-path-20)">
            <g id="Grupo_1018343" data-name="Grupo 1018343" transform="translate(0)" opacity="0.4">
              <g id="Grupo_1018342" data-name="Grupo 1018342">
                <g id="Grupo_1018341" data-name="Grupo 1018341" clip-path="url(#clip-path-21)">
                  <path id="Trazado_836482" data-name="Trazado 836482" d="M304.663,233.685s-1.7,12.582-10.311,17.508c-8.529,1.217-18.094-5.851-21.32-14.343-2.549-6.7-.317-14.311.9-17.566a.007.007,0,0,1,.007-.006c10.075-5.749,30.728,14.407,30.728,14.407" transform="translate(-271.861 -218.246)" fill="#33ece0"/>
                </g>
              </g>
            </g>
          </g>
        </g>
        <g id="Grupo_1018350" data-name="Grupo 1018350">
          <g id="Grupo_1018349" data-name="Grupo 1018349" clip-path="url(#clip-path)">
            <path id="Trazado_836484" data-name="Trazado 836484" d="M290.516,269.851a18.878,18.878,0,0,1-1.918-.1c-11.344-1.161-21.165-15.084-21.263-15.224a.3.3,0,1,1,.494-.345c.1.139,9.763,13.837,20.831,14.97a16.43,16.43,0,0,0,12.558-3.852,17.248,17.248,0,0,0,6.172-11.461.312.312,0,0,1,.32-.281.3.3,0,0,1,.281.32,17.87,17.87,0,0,1-6.384,11.883,16.975,16.975,0,0,1-11.09,4.09" transform="translate(-106.302 -100.844)" fill="#263238"/>
            <path id="Trazado_836485" data-name="Trazado 836485" d="M258.711,140.294c.855-2.389,6.979-1.588,8.92,5.861s9.6,25.539,9.6,25.539,30.433-44.783,35.892-46.51,3.3,6.034-3.993,16.8c0,0,6.827-1.2,8.619.005s.92,8.437,1.875,10.972c1.6,4.249-1.957,5.147-1.957,5.147a7.585,7.585,0,0,1,4.754,1.807c1.955,1.832.974,9.406,1.533,11.549s-3.173,3.953-3.173,3.953,8.973,4.894,6.947,6.119c-3.416,2.065-5.366-.051-5.366-.051s-13.785,17.317-24.183,21.17-30.642-11.469-32.817-19.816.421-7.833-1.229-21.723-5.427-20.824-5.427-20.824" transform="translate(-102.894 -49.692)" fill="#fff"/>
            <path id="Trazado_836486" data-name="Trazado 836486" d="M294.306,203.361c-3.31,0-7.307-1.162-11.642-3.421-8.485-4.422-16.464-12.149-17.787-17.223a23.464,23.464,0,0,1-.813-9.005,60.824,60.824,0,0,0-.424-12.758c-1.624-13.674-5.355-20.647-5.393-20.716a.3.3,0,0,1-.019-.246,2.44,2.44,0,0,1,2.587-1.4c2.523.111,5.638,2.407,6.908,7.282,1.732,6.644,8.12,21.995,9.376,24.989,3.408-5,30.479-44.507,35.738-46.17,1.434-.454,2.446-.3,3.005.447,1.491,2-.908,8.191-6.27,16.235,1.809-.273,6.61-.875,8.151.163,1.184.8,1.311,3.549,1.444,6.462a18.915,18.915,0,0,0,.544,4.653,4.558,4.558,0,0,1,.046,3.787,3.44,3.44,0,0,1-1.162,1.268,7.377,7.377,0,0,1,3.837,1.785c1.372,1.286,1.395,4.882,1.415,8.053a19.779,19.779,0,0,0,.2,3.64c.486,1.866-1.792,3.426-2.837,4.032,1.873,1.051,6.882,4.009,6.918,5.619a.829.829,0,0,1-.443.755c-2.868,1.734-4.809.642-5.483.123-1.782,2.2-14.31,17.386-24.117,21.021a10.876,10.876,0,0,1-3.785.622M258.844,140.08c.517,1.021,3.877,8.032,5.394,20.8a61.308,61.308,0,0,1,.428,12.868,22.981,22.981,0,0,0,.794,8.814c1.286,4.932,9.129,12.487,17.483,16.841,6.005,3.131,11.312,4.114,14.938,2.769,10.2-3.78,23.914-20.9,24.052-21.076a.3.3,0,0,1,.457-.016c.073.078,1.839,1.9,4.989,0,.137-.083.154-.158.152-.226-.024-1.11-4.361-3.884-7.088-5.371a.3.3,0,0,1,.013-.535c.035-.017,3.5-1.729,3.014-3.606a19.389,19.389,0,0,1-.222-3.788c-.019-2.9-.042-6.508-1.225-7.617a7.331,7.331,0,0,0-4.543-1.726h0a.3.3,0,0,1-.075-.593,3.157,3.157,0,0,0,1.828-1.46,4,4,0,0,0-.079-3.288,18.748,18.748,0,0,1-.582-4.838c-.116-2.514-.247-5.363-1.179-5.991-1.386-.934-6.534-.287-8.4.042a.3.3,0,0,1-.3-.466c6.143-9.076,7.779-14.632,6.674-16.113-.39-.523-1.177-.6-2.342-.232-5.3,1.675-35.43,45.945-35.734,46.392a.317.317,0,0,1-.278.131.3.3,0,0,1-.248-.182c-.077-.181-7.694-18.2-9.618-25.581-1.193-4.578-4.05-6.73-6.352-6.832a1.937,1.937,0,0,0-1.945.881" transform="translate(-102.695 -49.492)" fill="#263238"/>
            <path id="Trazado_836487" data-name="Trazado 836487" d="M304.635,104.711,264.542,115.16a2.665,2.665,0,0,0-1.907,3.251l18.951,72.713a2.665,2.665,0,0,0,3.251,1.906l40.093-10.449a2.665,2.665,0,0,0,1.906-3.251l-18.95-72.713a2.665,2.665,0,0,0-3.251-1.906" transform="translate(-104.42 -41.611)" fill="#fff"/>
            <path id="Trazado_836488" data-name="Trazado 836488" d="M283.966,193.218A2.97,2.97,0,0,1,281.1,191l-18.95-72.712a2.969,2.969,0,0,1,2.122-3.618l40.093-10.449.076.292-.076-.292a2.965,2.965,0,0,1,3.617,2.122l18.951,72.712a2.969,2.969,0,0,1-2.122,3.617l-40.093,10.45a2.961,2.961,0,0,1-.747.1m21.146-88.492a2.376,2.376,0,0,0-.6.077l-40.093,10.45a2.366,2.366,0,0,0-1.691,2.883l18.95,72.712a2.367,2.367,0,0,0,2.884,1.691l40.093-10.45a2.366,2.366,0,0,0,1.691-2.883L307.4,106.494a2.367,2.367,0,0,0-2.283-1.768" transform="translate(-104.221 -41.412)" fill="#263238"/>
            <path id="Trazado_836489" data-name="Trazado 836489" d="M293.441,118.294a.652.652,0,1,1-.8-.467.653.653,0,0,1,.8.467" transform="translate(-116.196 -46.853)" fill="#33ece0"/>
            <path id="Trazado_836490" data-name="Trazado 836490" d="M292.608,119.213a.952.952,0,1,1,.242-.031.97.97,0,0,1-.242.031m0-1.305a.341.341,0,0,0-.089.011.351.351,0,1,0,.428.252h0a.351.351,0,0,0-.339-.263" transform="translate(-115.996 -46.654)" fill="#263238"/>
            <path id="Trazado_836491" data-name="Trazado 836491" d="M307.469,114.841a.409.409,0,1,1-.5-.293.408.408,0,0,1,.5.293" transform="translate(-121.965 -45.553)" fill="#33ece0"/>
            <path id="Trazado_836492" data-name="Trazado 836492" d="M306.874,115.455a.71.71,0,1,1,.687-.89.71.71,0,0,1-.687.89m0-.818a.108.108,0,1,0,.027.213.123.123,0,0,0,.078-.132.11.11,0,0,0-.1-.081" transform="translate(-121.766 -45.353)" fill="#263238"/>
            <path id="Trazado_836493" data-name="Trazado 836493" d="M301.08,116.071l-4.809,1.253a.191.191,0,0,1-.234-.137l-.02-.076a.191.191,0,0,1,.137-.233l4.81-1.254a.191.191,0,0,1,.233.137l.02.076a.191.191,0,0,1-.137.234" transform="translate(-117.728 -45.983)" fill="#33ece0"/>
            <path id="Trazado_836494" data-name="Trazado 836494" d="M296.024,117.433a.493.493,0,0,1-.477-.367l-.021-.078a.493.493,0,0,1,.352-.6l4.81-1.253a.5.5,0,0,1,.6.352l.02.079a.485.485,0,0,1-.051.37.491.491,0,0,1-.3.229h0l-4.809,1.253a.489.489,0,0,1-.123.016m4.857-1.561h0Zm-.076-.292h0Z" transform="translate(-117.53 -45.785)" fill="#263238"/>
            <path id="Trazado_836495" data-name="Trazado 836495" d="M307.633,108.371l18.8,72.119a1.577,1.577,0,0,1-1.128,1.924l-39.58,10.315A1.577,1.577,0,0,1,283.8,191.6L265,119.482a1.577,1.577,0,0,1,1.129-1.924l8.125-2.118a1.325,1.325,0,0,1,1.418.521l.587.838a1.323,1.323,0,0,0,1.417.52l17.838-4.648a1.324,1.324,0,0,0,.983-1.147l.1-1.017a1.322,1.322,0,0,1,.983-1.146l8.125-2.118a1.578,1.578,0,0,1,1.924,1.129" transform="translate(-105.375 -42.632)" fill="#33ece0"/>
            <path id="Trazado_836496" data-name="Trazado 836496" d="M285.121,192.882a1.876,1.876,0,0,1-1.813-1.405l-18.8-72.118a1.88,1.88,0,0,1,1.344-2.291l8.125-2.118a1.634,1.634,0,0,1,1.74.64l.587.838a1.024,1.024,0,0,0,1.094.4l17.837-4.649A1.026,1.026,0,0,0,296,111.3l.1-1.017a1.63,1.63,0,0,1,1.206-1.408l8.125-2.118a1.88,1.88,0,0,1,2.291,1.344l18.8,72.119a1.88,1.88,0,0,1-1.344,2.29L285.6,192.821a1.868,1.868,0,0,1-.477.061M274.388,115.5a1.031,1.031,0,0,0-.255.033l-8.125,2.118a1.279,1.279,0,0,0-.914,1.557l18.8,72.118a1.277,1.277,0,0,0,1.556.913l39.58-10.315a1.278,1.278,0,0,0,.914-1.556l-18.8-72.119a1.278,1.278,0,0,0-1.557-.913l-8.125,2.118a1.026,1.026,0,0,0-.76.886l-.1,1.017a1.631,1.631,0,0,1-1.206,1.408l-17.837,4.648a1.634,1.634,0,0,1-1.739-.64l-.587-.837a1.03,1.03,0,0,0-.84-.435" transform="translate(-105.176 -42.433)" fill="#263238"/>
            <path id="Trazado_836497" data-name="Trazado 836497" d="M317.8,150.056a16.721,16.721,0,1,1-20.4-11.963,16.72,16.72,0,0,1,20.4,11.963" transform="translate(-113.307 -54.705)" fill="#fff"/>
            <path id="Trazado_836498" data-name="Trazado 836498" d="M301.423,171.095a17.033,17.033,0,1,1,4.289-.552,17.051,17.051,0,0,1-4.289.552m.025-33.45a16.423,16.423,0,1,0,4.113,32.315,16.425,16.425,0,0,0-4.113-32.315" transform="translate(-113.109 -54.504)" fill="#263238"/>
            <path id="Trazado_836499" data-name="Trazado 836499" d="M301.108,167.737a1.482,1.482,0,0,0,1.8.832l5.494-1.587a2.277,2.277,0,1,0,4.317-1.247l5.494-1.587a1.481,1.481,0,0,0,1.076-1.662,1.44,1.44,0,0,0-1.815-1.121l-.466-.28a4.615,4.615,0,0,1-2.059-2.677l-1.045-3.619a6.418,6.418,0,0,0-7.084-4.568,1.741,1.741,0,1,0-1.7.491,6.418,6.418,0,0,0-3.557,7.641l1.057,3.659a4.618,4.618,0,0,1-.571,3.807,1.44,1.44,0,0,0-.938,1.916m5.421-18.985a1.017,1.017,0,1,1-1.26-.7,1.018,1.018,0,0,1,1.26.7" transform="translate(-119.715 -58.581)" fill="#33ece0"/>
            <path id="Trazado_836500" data-name="Trazado 836500" d="M310.454,169.081a2.581,2.581,0,0,1-2.474-1.864c0-.017-.01-.035-.014-.052l-5.176,1.495a1.789,1.789,0,0,1-2.16-1.011,1.741,1.741,0,0,1,1.022-2.28,4.313,4.313,0,0,0,.477-3.471l-1.056-3.659a6.747,6.747,0,0,1,3.146-7.709,2.012,2.012,0,0,1-.828-1.128,2.043,2.043,0,0,1,3.926-1.133,2.017,2.017,0,0,1-.1,1.4,6.748,6.748,0,0,1,6.773,4.844l1.045,3.619a4.3,4.3,0,0,0,1.925,2.5l.36.216a1.741,1.741,0,0,1,2.062,1.388,1.789,1.789,0,0,1-1.288,2.007l-5.175,1.5c0,.017.01.034.016.052a2.582,2.582,0,0,1-2.48,3.3m-2.254-2.6a.3.3,0,0,1,.165.05.3.3,0,0,1,.134.214,1.936,1.936,0,0,0,.06.3,1.976,1.976,0,1,0,3.8-1.1,2.02,2.02,0,0,0-.111-.29.3.3,0,0,1,.19-.416l5.493-1.587a1.183,1.183,0,0,0,.864-1.317,1.139,1.139,0,0,0-1.436-.887.307.307,0,0,1-.239-.031l-.466-.28a4.9,4.9,0,0,1-2.194-2.851l-1.045-3.619a6.143,6.143,0,0,0-6.751-4.353.3.3,0,0,1-.31-.158.3.3,0,0,1,.047-.345,1.44,1.44,0,1,0-1.4.405.3.3,0,0,1,.046.567,6.137,6.137,0,0,0-3.389,7.282l1.056,3.659a4.914,4.914,0,0,1-.608,4.055.3.3,0,0,1-.169.125,1.139,1.139,0,0,0-.741,1.517,1.181,1.181,0,0,0,1.433.653l5.493-1.587a.306.306,0,0,1,.084-.012m-2.846-16.329a1.319,1.319,0,1,1,.365-.052,1.3,1.3,0,0,1-.365.052m0-2.035a.716.716,0,1,0,.688.517.711.711,0,0,0-.688-.517" transform="translate(-119.517 -58.382)" fill="#263238"/>
            <line id="Línea_956" data-name="Línea 956" x1="2.423" y2="0.7" transform="translate(189.577 107.245)" fill="#33ece0"/>
            <path id="Trazado_836501" data-name="Trazado 836501" d="M314.565,178.866a.3.3,0,0,1-.084-.59l2.424-.7a.3.3,0,1,1,.167.579l-2.423.7a.287.287,0,0,1-.084.012" transform="translate(-124.988 -70.62)" fill="#263238"/>
            <line id="Línea_957" data-name="Línea 957" x1="11.114" y2="3.211" transform="translate(184.473 103.364)" fill="#33ece0"/>
            <path id="Trazado_836502" data-name="Trazado 836502" d="M306.09,174.933a.3.3,0,0,1-.084-.59l11.114-3.211a.3.3,0,1,1,.167.579l-11.114,3.21a.287.287,0,0,1-.084.012" transform="translate(-121.617 -68.057)" fill="#263238"/>
            <path id="Trazado_836503" data-name="Trazado 836503" d="M324.941,202.332l-22.565,5.881a5.061,5.061,0,1,1-2.552-9.8l22.564-5.881a5.061,5.061,0,1,1,2.553,9.8" transform="translate(-117.739 -76.509)" fill="#263238"/>
            <path id="Trazado_836504" data-name="Trazado 836504" d="M302.365,206.6a1.264,1.264,0,0,1,1.613-.42,1.3,1.3,0,0,1,.5.8l.038.146-.693.181-.051-.193a.55.55,0,0,0-.184-.325.407.407,0,0,0-.546.142.557.557,0,0,0,0,.373.892.892,0,0,0,.291.473,3.329,3.329,0,0,0,.6.377,5.953,5.953,0,0,1,.53.314,1.8,1.8,0,0,1,.389.372,1.523,1.523,0,0,1,.267.564,1.284,1.284,0,0,1-.052.943,1.285,1.285,0,0,1-1.626.423,1.279,1.279,0,0,1-.507-.8l-.075-.287.693-.181.087.333c.079.3.245.42.5.354s.34-.25.261-.552a.893.893,0,0,0-.29-.472,3.267,3.267,0,0,0-.6-.378,5.837,5.837,0,0,1-.529-.314,1.746,1.746,0,0,1-.39-.372,1.527,1.527,0,0,1-.267-.564,1.3,1.3,0,0,1,.046-.94" transform="translate(-120.212 -81.945)" fill="#fff"/>
            <path id="Trazado_836505" data-name="Trazado 836505" d="M307.784,208.606c.079.3.244.42.5.354s.342-.25.263-.552l-.938-3.6.693-.181.926,3.551a1.276,1.276,0,0,1-.053.942,1.281,1.281,0,0,1-1.626.423,1.271,1.271,0,0,1-.506-.8l-.926-3.551.733-.192Z" transform="translate(-121.746 -81.385)" fill="#fff"/>
            <path id="Trazado_836506" data-name="Trazado 836506" d="M312.572,203.941a1.149,1.149,0,0,1,.47.742l.044.166a1.363,1.363,0,0,1,.037.623.77.77,0,0,1-.266.44q.6.07.806.857l.1.379a1.027,1.027,0,0,1-.825,1.4l-1.153.3-1.215-4.663,1.106-.289a1.159,1.159,0,0,1,.9.048m-.773,1.948.285-.075a.453.453,0,0,0,.3-.2.555.555,0,0,0,.011-.408l-.067-.26a.611.611,0,0,0-.186-.343.35.35,0,0,0-.312-.04l-.353.092Zm.547,2.1.419-.11a.376.376,0,0,0,.26-.178.547.547,0,0,0,0-.381l-.106-.407a.7.7,0,0,0-.225-.414.483.483,0,0,0-.4-.029l-.326.086Z" transform="translate(-123.519 -81.066)" fill="#fff"/>
            <path id="Trazado_836507" data-name="Trazado 836507" d="M315.4,203.208a1.261,1.261,0,0,1,1.612-.42,1.294,1.294,0,0,1,.5.8l.038.146-.693.181-.05-.193a.547.547,0,0,0-.185-.325.406.406,0,0,0-.546.142.552.552,0,0,0,0,.374.884.884,0,0,0,.29.472,3.326,3.326,0,0,0,.6.377c.214.116.391.219.529.314a1.758,1.758,0,0,1,.388.372,1.514,1.514,0,0,1,.267.563,1.274,1.274,0,0,1-.053.943,1.284,1.284,0,0,1-1.626.423,1.273,1.273,0,0,1-.506-.8l-.075-.287.693-.181.087.333q.118.454.5.355c.252-.066.34-.251.261-.552a.892.892,0,0,0-.29-.472,3.3,3.3,0,0,0-.6-.378,5.769,5.769,0,0,1-.529-.314,1.73,1.73,0,0,1-.389-.372,1.521,1.521,0,0,1-.268-.563,1.3,1.3,0,0,1,.047-.941" transform="translate(-125.394 -80.594)" fill="#fff"/>
            <path id="Trazado_836508" data-name="Trazado 836508" d="M322.36,204.908a1.279,1.279,0,0,1-.054.943,1.283,1.283,0,0,1-1.625.423,1.276,1.276,0,0,1-.507-.8l-.632-2.425a1.279,1.279,0,0,1,.054-.942,1.283,1.283,0,0,1,1.625-.424,1.276,1.276,0,0,1,.507.8l.118.453-.693.181-.13-.5q-.12-.459-.5-.36t-.26.558l.656,2.518c.079.3.245.42.5.354s.341-.25.262-.552l-.174-.667.693-.18Z" transform="translate(-127.062 -80.157)" fill="#fff"/>
            <path id="Trazado_836509" data-name="Trazado 836509" d="M326.107,204.885a3.46,3.46,0,0,1-.107-.357l-.191-.733a.742.742,0,0,0-.232-.427.467.467,0,0,0-.4-.041l-.253.066.494,1.9-.732.191-1.216-4.663,1.106-.288a.969.969,0,0,1,1.365.789l.1.367a.969.969,0,0,1-.234,1.071.7.7,0,0,1,.466.259,1.592,1.592,0,0,1,.279.606l.188.72a3.258,3.258,0,0,0,.1.319.823.823,0,0,0,.13.226l-.746.194a1.03,1.03,0,0,1-.11-.2m-1.359-2.157.286-.075a.455.455,0,0,0,.3-.2.559.559,0,0,0,.011-.408l-.12-.46a.606.606,0,0,0-.186-.343.349.349,0,0,0-.312-.039l-.353.092Z" transform="translate(-128.649 -79.73)" fill="#fff"/>
            <rect id="Rectángulo_385512" data-name="Rectángulo 385512" width="0.758" height="4.82" transform="translate(197.498 120.393) rotate(-14.614)" fill="#fff"/>
            <path id="Trazado_836510" data-name="Trazado 836510" d="M332.017,198.874a1.147,1.147,0,0,1,.471.742l.044.166a1.372,1.372,0,0,1,.037.623.769.769,0,0,1-.266.44q.6.071.806.857l.1.379a1.027,1.027,0,0,1-.825,1.4l-1.153.3-1.215-4.663,1.106-.288a1.157,1.157,0,0,1,.894.048m-.772,1.948.285-.075a.451.451,0,0,0,.3-.2.552.552,0,0,0,.011-.408l-.067-.26a.609.609,0,0,0-.186-.343.351.351,0,0,0-.313-.04l-.353.092Zm.547,2.1.419-.11a.378.378,0,0,0,.26-.178.554.554,0,0,0,0-.38l-.106-.407a.7.7,0,0,0-.226-.415.481.481,0,0,0-.395-.029l-.326.086Z" transform="translate(-131.253 -79.051)" fill="#fff"/>
            <path id="Trazado_836511" data-name="Trazado 836511" d="M336.759,199.344l.173.666-1.006.263.356,1.366,1.266-.33.173.666-2,.52-1.215-4.663,2-.52.173.666-1.265.33.339,1.3Z" transform="translate(-133.039 -78.474)" fill="#fff"/>
            <path id="Trazado_836512" data-name="Trazado 836512" d="M339.738,196.576a1.1,1.1,0,0,1,.9.079,1.263,1.263,0,0,1,.5.788l.614,2.359a1.26,1.26,0,0,1-.049.931,1.1,1.1,0,0,1-.743.507l-1.16.3-1.215-4.663Zm.616,4.108.413-.108a.365.365,0,0,0,.249-.179.528.528,0,0,0,.006-.371l-.632-2.425a.524.524,0,0,0-.187-.322.366.366,0,0,0-.3-.035l-.413.108Z" transform="translate(-134.658 -78.159)" fill="#fff"/>
            <path id="Trazado_836513" data-name="Trazado 836513" d="M249.937,291.756a.3.3,0,0,1-.276-.182,68.428,68.428,0,0,1-3.374-35.423.305.305,0,0,1,.351-.243.3.3,0,0,1,.243.351,67.8,67.8,0,0,0,3.334,35.078.3.3,0,0,1-.158.4.3.3,0,0,1-.119.025" transform="translate(-97.56 -101.777)" fill="#263238"/>
            <path id="Trazado_836514" data-name="Trazado 836514" d="M201.016,352.584a2.152,2.152,0,0,1-1.58-.465,1.323,1.323,0,0,1-.066-1.516c1.443-3.273,14.86-7.408,15.43-7.583a.3.3,0,1,1,.176.576c-3.812,1.166-13.949,4.741-15.056,7.25-.18.409-.2.7-.043.863.665.717,3.956-.088,5.875-.764a.3.3,0,0,1,.2.569,18.079,18.079,0,0,1-4.937,1.07" transform="translate(-79.214 -136.42)" fill="#263238"/>
            <path id="Trazado_836515" data-name="Trazado 836515" d="M203.879,251.149a.3.3,0,0,1-.111-.581c8.371-3.31,21.043-15.809,21.17-15.935a.3.3,0,1,1,.423.428c-.128.127-12.887,12.712-21.372,16.067a.3.3,0,0,1-.111.021" transform="translate(-80.966 -93.283)" fill="#263238"/>
            <path id="Trazado_836516" data-name="Trazado 836516" d="M176.009,249.786a.3.3,0,0,1-.1-.019c-8.792-3.266-6.635-19.889-6.539-20.594a.3.3,0,0,1,.6.081c-.023.168-2.189,16.85,6.152,19.948a.3.3,0,0,1-.1.584" transform="translate(-67.24 -91.043)" fill="#263238"/>
            <path id="Trazado_836517" data-name="Trazado 836517" d="M129.13,267.358a.3.3,0,0,1-.3-.3c0-.918-.019-22.526,4.418-29.434a.3.3,0,1,1,.507.326c-4.342,6.758-4.324,28.883-4.323,29.1a.3.3,0,0,1-.3.3" transform="translate(-51.237 -94.452)" fill="#263238"/>
            <path id="Trazado_836518" data-name="Trazado 836518" d="M127.745,267.282a.3.3,0,0,1-.257-.143c-2.82-4.564-1.646-18.028-1.594-18.6a.306.306,0,0,1,.327-.273.3.3,0,0,1,.273.327c-.013.137-1.208,13.834,1.507,18.228a.3.3,0,0,1-.256.46" transform="translate(-49.957 -98.74)" fill="#263238"/>
            <path id="Trazado_836519" data-name="Trazado 836519" d="M92.425,294.082a1.64,1.64,0,0,1-1.189-.369c-.405-.411-.381-1.093.072-2.028,2.1-4.329,11.666-1.093,12.072-.954a.3.3,0,1,1-.2.569c-.094-.032-9.463-3.205-11.334.648-.321.661-.387,1.138-.185,1.341.626.635,3.632-.364,5.567-1.276a.3.3,0,0,1,.257.545,15.346,15.346,0,0,1-5.063,1.523" transform="translate(-36.172 -115.115)" fill="#263238"/>
            <path id="Trazado_836520" data-name="Trazado 836520" d="M104.292,324.659a.326.326,0,0,1-.048,0,.3.3,0,0,1-.25-.345c.505-3.176,9.763-8.423,10.157-8.646a.3.3,0,0,1,.3.525c-2.613,1.473-9.476,5.817-9.858,8.215a.3.3,0,0,1-.3.254" transform="translate(-41.359 -125.53)" fill="#263238"/>
            <path id="Trazado_836521" data-name="Trazado 836521" d="M173.634,316.773c-10.294,0-26.447-24.226-27.161-25.306a.3.3,0,1,1,.5-.332c.181.273,18.213,27.336,27.952,24.881a.3.3,0,0,1,.147.585,5.916,5.916,0,0,1-1.44.172" transform="translate(-58.235 -115.735)" fill="#263238"/>
            <path id="Trazado_836522" data-name="Trazado 836522" d="M140.485,365.356a.978.978,0,0,1-.382-.066.3.3,0,1,1,.236-.554c1.4.593,10.6-5.543,16.07-9.553a.3.3,0,1,1,.356.486c-2.29,1.679-13.368,9.687-16.28,9.687" transform="translate(-55.648 -141.239)" fill="#263238"/>
            <g id="Grupo_1018348" data-name="Grupo 1018348" transform="translate(201.004 168.024)" opacity="0.2">
              <g id="Grupo_1018347" data-name="Grupo 1018347">
                <g id="Grupo_1018346" data-name="Grupo 1018346" clip-path="url(#clip-path-23)">
                  <path id="Trazado_836523" data-name="Trazado 836523" d="M333.736,280.457c.964-.792,1.6-1.314,1.806-1.479-.214.188-.839.729-1.806,1.479" transform="translate(-333.736 -278.978)"/>
                </g>
              </g>
            </g>
          </g>
        </g>
      </g>
    </g>
    <rect id="Rectángulo_385516" data-name="Rectángulo 385516" width="295" height="241" transform="translate(180 4217)" fill="none"/>
  </g>
</svg>
